<?xml version="1.0" standalone="no"?>
<!DOCTYPE svg PUBLIC "-//W3C//DTD SVG 20010904//EN"
 "http://www.w3.org/TR/2001/REC-SVG-20010904/DTD/svg10.dtd">
<svg version="1.0" xmlns="http://www.w3.org/2000/svg"
 width="512.000000pt" height="512.000000pt" viewBox="0 0 512.000000 512.000000"
 preserveAspectRatio="xMidYMid meet">

<g transform="translate(0.000000,512.000000) scale(0.100000,-0.100000)"
fill="#000000" stroke="none">
<path d="M383 5105 c-182 -49 -320 -189 -368 -372 -23 -86 -23 -3670 0 -3756
18 -70 49 -120 107 -173 58 -54 134 -82 247 -90 l91 -7 0 -253 0 -253 -201 -3
-201 -3 -29 -33 c-38 -42 -38 -82 0 -124 l29 -33 2496 -3 2496 -2 32 29 c27
24 33 36 33 71 0 35 -6 47 -33 71 l-32 29 -195 0 -195 0 0 254 0 253 91 7
c113 8 189 36 247 90 58 53 89 103 107 173 23 86 23 3670 0 3756 -48 185 -187
324 -372 372 -84 22 -4269 21 -4350 0z m4358 -211 c60 -28 125 -93 152 -153
18 -39 22 -69 25 -193 l4 -148 -2361 0 -2361 0 0 128 c0 83 5 146 14 176 29
94 97 166 191 198 47 16 180 17 2170 15 l2120 -2 46 -21z m179 -2276 c0 -1487
-1 -1585 -18 -1618 -29 -59 -72 -80 -163 -80 l-79 0 0 778 c0 752 -1 778 -20
809 -13 21 -31 35 -57 42 -51 14 -635 14 -686 0 -26 -7 -44 -21 -57 -42 -19
-30 -20 -52 -20 -309 l0 -278 28 -30 c17 -19 40 -33 63 -36 31 -5 42 -1 70 24
l34 30 3 221 3 221 220 0 219 0 0 -1075 0 -1075 -220 0 -220 0 -2 560 -3 560
-27 26 c-37 37 -99 37 -136 0 l-27 -26 -3 -560 -2 -560 -140 0 -140 0 -2 651
-3 651 -33 29 -33 30 -355 -3 -356 -3 -29 -33 -29 -32 0 -645 0 -645 -140 0
-140 0 0 1059 c0 649 -4 1069 -10 1085 -5 14 -21 33 -37 43 -25 16 -57 18
-373 18 -316 0 -348 -2 -373 -18 -16 -10 -32 -29 -37 -43 -6 -16 -10 -436 -10
-1085 l0 -1059 -140 0 -139 0 -3 521 -3 521 -33 29 -33 30 -354 -3 -355 -3
-27 -28 c-28 -27 -28 -28 -31 -187 l-3 -160 -78 0 c-91 0 -134 21 -163 80 -17
33 -18 131 -18 1618 l0 1582 2360 0 2360 0 0 -1582z m-2700 -1413 l0 -1005
-220 0 -220 0 0 1005 0 1005 220 0 220 0 0 -1005z m1120 -425 l0 -580 -220 0
-220 0 0 580 0 580 220 0 220 0 0 -580z m-2240 -130 l0 -450 -220 0 -220 0 0
450 0 450 220 0 220 0 0 -450z"/>
<path d="M605 4751 c-64 -27 -81 -110 -32 -158 60 -61 162 -19 162 67 0 66
-72 116 -130 91z"/>
<path d="M1005 4751 c-64 -27 -81 -110 -32 -158 60 -61 162 -19 162 67 0 66
-72 116 -130 91z"/>
<path d="M1405 4751 c-64 -27 -81 -110 -32 -158 60 -61 162 -19 162 67 0 66
-72 116 -130 91z"/>
<path d="M2185 4751 c-64 -27 -81 -110 -32 -158 l27 -28 1165 -3 1164 -2 33
29 c27 24 33 36 33 71 0 35 -6 47 -33 71 l-32 29 -1153 -1 c-633 0 -1161 -4
-1172 -8z"/>
<path d="M525 3851 c-32 -14 -55 -46 -62 -84 -5 -32 -1 -41 30 -72 l35 -35
272 0 272 0 35 35 c31 31 35 40 30 72 -4 20 -18 48 -32 62 l-25 26 -268 2
c-147 1 -276 -2 -287 -6z"/>
<path d="M1375 3851 c-60 -25 -79 -110 -35 -156 61 -65 170 -23 170 65 0 70
-70 117 -135 91z"/>
<path d="M1857 3749 c-93 -22 -192 -102 -235 -192 -45 -91 -46 -222 -4 -308
l19 -37 -296 -295 -296 -294 -49 19 c-33 13 -75 19 -123 19 -201 0 -355 -154
-355 -355 0 -105 30 -176 106 -252 81 -81 148 -107 261 -102 193 8 334 146
343 338 3 58 -1 89 -17 135 l-21 60 292 293 c277 277 295 293 323 287 157 -29
168 -29 244 -6 l74 23 340 -340 340 -340 -21 -49 c-77 -180 4 -386 186 -471
48 -22 71 -27 142 -26 72 0 95 4 146 28 166 75 251 267 194 435 l-21 64 338
339 338 339 40 -8 c180 -36 341 39 418 196 29 59 32 75 32 151 -1 71 -5 95
-29 146 -34 77 -103 144 -181 181 -51 24 -73 28 -145 28 -72 0 -94 -4 -145
-28 -79 -37 -147 -104 -181 -181 -24 -51 -28 -75 -29 -146 0 -76 4 -93 31
-147 l30 -62 -331 -331 -332 -331 -64 21 c-71 25 -166 23 -231 -4 l-34 -15
-347 347 -346 347 19 55 c39 112 18 248 -51 337 -88 112 -236 164 -372 132z
m158 -209 c79 -38 111 -149 63 -220 -52 -76 -125 -98 -202 -61 -59 29 -88 76
-88 141 0 121 117 193 227 140z m2288 6 c104 -43 128 -175 47 -256 -43 -43
-87 -56 -146 -46 -22 5 -50 22 -74 46 -124 124 11 324 173 256z m-3334 -1114
c83 -61 79 -199 -8 -258 -101 -69 -244 8 -244 131 0 128 149 203 252 127z
m2229 -89 c51 -38 67 -70 67 -133 0 -63 -16 -95 -69 -134 -40 -31 -130 -29
-174 2 -39 28 -72 89 -72 132 0 59 50 129 110 153 28 12 111 0 138 -20z"/>
<path d="M525 3371 c-32 -14 -55 -46 -62 -84 -5 -32 -1 -41 30 -72 l35 -35
272 0 272 0 35 35 c31 31 35 40 30 72 -4 20 -18 48 -32 62 l-25 26 -268 2
c-147 1 -276 -2 -287 -6z"/>
<path d="M3857 1666 c-90 -84 22 -223 120 -150 75 56 36 174 -57 174 -25 0
-45 -8 -63 -24z"/>
</g>
</svg>
