<?xml version="1.0" standalone="no"?>
<!DOCTYPE svg PUBLIC "-//W3C//DTD SVG 20010904//EN"
 "http://www.w3.org/TR/2001/REC-SVG-20010904/DTD/svg10.dtd">
<svg version="1.0" xmlns="http://www.w3.org/2000/svg"
 width="512.000000pt" height="512.000000pt" viewBox="0 0 512.000000 512.000000"
 preserveAspectRatio="xMidYMid meet">

<g transform="translate(0.000000,512.000000) scale(0.100000,-0.100000)"
fill="#000000" stroke="none">
<path d="M2432 4819 c-76 -30 -153 -108 -181 -184 -19 -49 -22 -74 -19 -140 5
-92 26 -142 90 -211 38 -41 129 -94 162 -94 14 0 16 -34 16 -295 l0 -295 -27
-6 c-47 -11 -103 -44 -149 -86 l-44 -40 -360 238 c-313 207 -360 241 -355 259
3 11 10 45 16 76 38 202 -156 401 -365 375 -268 -34 -384 -352 -201 -555 106
-116 303 -136 433 -42 l39 29 369 -244 369 -244 6 -92 c6 -104 25 -151 85
-218 34 -37 141 -100 171 -100 11 0 13 -71 13 -389 l0 -389 -49 -17 c-59 -19
-128 -70 -161 -117 l-23 -35 -814 540 c-726 482 -814 543 -808 561 4 12 9 55
12 96 4 60 1 86 -16 131 -83 221 -371 283 -541 117 -65 -62 -95 -136 -95 -233
0 -97 29 -169 95 -235 121 -121 320 -129 447 -17 12 11 27 16 35 12 7 -4 197
-129 421 -278 313 -208 404 -273 390 -278 -10 -4 -187 -82 -393 -173 -206 -91
-378 -166 -382 -166 -5 0 -22 16 -39 35 -17 19 -61 49 -97 67 -58 29 -76 33
-147 33 -66 0 -90 -5 -136 -26 -217 -102 -262 -378 -88 -541 164 -154 431
-101 525 104 24 52 29 76 29 140 l0 77 65 27 c36 15 227 99 425 187 198 88
365 160 372 160 7 0 167 -103 357 -229 l346 -229 0 -60 c0 -123 98 -254 216
-292 l54 -17 0 -558 0 -558 -260 0 -261 0 -24 -25 c-30 -29 -31 -45 -7 -74
l17 -22 594 1 c441 0 597 3 608 11 8 8 13 26 11 48 -5 58 -19 61 -305 61
l-253 0 0 560 c0 461 2 560 13 560 8 0 41 14 75 30 108 55 169 145 181 271 l6
67 439 292 c241 160 441 290 445 288 4 -2 158 -119 343 -261 l336 -258 -21
-52 c-31 -79 -29 -185 5 -258 33 -72 94 -134 167 -168 80 -37 192 -37 273 1
66 31 128 91 160 156 19 40 23 63 23 147 0 92 -2 104 -29 153 -88 158 -271
219 -431 143 l-66 -30 -330 251 -329 252 329 218 330 219 45 -35 c66 -50 133
-69 225 -64 93 6 158 36 220 103 64 70 86 124 86 220 0 71 -4 88 -33 147 -59
120 -161 183 -297 183 -67 0 -89 -5 -137 -28 -74 -36 -151 -120 -174 -189 -18
-57 -22 -168 -6 -209 11 -26 7 -29 -351 -264 -199 -131 -369 -243 -378 -249
-9 -6 -212 -142 -451 -303 l-435 -291 -28 37 c-37 48 -99 94 -157 116 l-48 18
0 386 0 386 49 18 c75 26 141 84 181 158 31 57 35 73 37 149 l2 85 153 103
c84 57 158 106 165 109 10 4 141 -89 209 -149 l22 -19 -22 -42 c-31 -62 -29
-192 3 -264 31 -71 111 -144 186 -172 77 -29 186 -26 257 8 151 72 227 258
168 413 -27 74 -96 150 -165 184 -100 48 -234 41 -316 -17 l-26 -18 -96 72
c-53 39 -97 75 -97 78 0 3 66 50 146 103 133 89 147 96 163 82 72 -66 232 -81
333 -33 257 125 246 507 -17 606 -82 31 -197 26 -270 -11 -147 -76 -218 -243
-167 -393 12 -33 18 -63 14 -66 -4 -4 -162 -110 -352 -235 l-345 -229 -48 47
c-32 32 -67 54 -107 69 l-60 22 0 291 0 291 48 17 c276 98 298 482 34 609 -69
33 -198 37 -270 8z m224 -120 c132 -63 152 -253 38 -348 -140 -115 -344 -18
-344 164 0 88 43 156 120 189 51 22 135 20 186 -5z m1228 -400 c162 -41 210
-254 83 -366 -127 -112 -328 -25 -345 148 -9 91 53 182 147 215 45 16 61 17
115 3z m-2518 -34 c61 -36 97 -100 98 -174 0 -122 -88 -211 -209 -211 -121 0
-208 88 -208 211 0 93 58 170 151 200 43 14 120 2 168 -26z m1315 -820 c61
-43 90 -104 86 -181 -5 -99 -62 -168 -162 -195 -85 -24 -192 27 -235 112 -39
76 -20 189 42 245 48 44 79 54 155 51 61 -2 78 -7 114 -32z m1117 -21 c153
-64 179 -273 44 -368 -48 -34 -128 -45 -187 -26 -49 16 -104 66 -126 115 -76
167 100 350 269 279z m-3363 -26 c125 -66 142 -253 30 -345 -105 -87 -258 -54
-319 68 -34 68 -34 120 0 188 53 105 182 145 289 89z m4419 10 c81 -25 146
-115 146 -206 0 -105 -100 -202 -210 -202 -126 0 -213 87 -213 212 0 80 38
142 112 180 58 31 101 35 165 16z m-4453 -1319 c56 -19 100 -59 125 -113 27
-57 29 -91 13 -147 -26 -86 -110 -148 -202 -149 -222 -1 -295 292 -98 393 58
29 108 34 162 16z m2277 -73 c52 -36 92 -112 92 -176 0 -176 -219 -272 -350
-154 -56 50 -73 94 -68 170 5 78 41 136 108 172 64 34 160 29 218 -12z m2148
-46 c35 -14 84 -61 105 -103 30 -58 24 -159 -13 -214 -33 -49 -114 -93 -172
-93 -142 0 -246 145 -201 279 38 114 165 173 281 131z"/>
</g>
</svg>
