<?xml version="1.0" standalone="no"?>
<!DOCTYPE svg PUBLIC "-//W3C//DTD SVG 20010904//EN"
 "http://www.w3.org/TR/2001/REC-SVG-20010904/DTD/svg10.dtd">
<svg version="1.0" xmlns="http://www.w3.org/2000/svg"
 width="903.000000pt" height="847.000000pt" viewBox="0 0 903.000000 847.000000"
 preserveAspectRatio="xMidYMid meet">

<g transform="translate(0.000000,847.000000) scale(0.100000,-0.100000)"
fill="#000000" stroke="none">
<path d="M1130 8230 c-93 -22 -129 -34 -206 -70 -247 -114 -447 -338 -537
-600 -50 -145 -47 55 -47 -3415 0 -3575 -6 -3272 66 -3460 46 -123 121 -240
212 -333 93 -95 125 -120 222 -177 91 -53 187 -91 295 -116 77 -18 205 -18
3308 -19 2907 0 3235 2 3300 16 402 88 703 390 791 791 14 65 16 399 16 3298
0 3575 6 3272 -66 3460 -99 262 -317 480 -579 579 -161 61 -199 66 -553 66
l-319 0 -36 -35 c-33 -32 -37 -42 -37 -85 0 -41 5 -54 34 -84 l33 -36 274 0
c388 0 491 -21 664 -136 94 -61 157 -125 218 -221 98 -153 127 -285 127 -588
l0 -195 -3865 0 -3865 0 0 198 c0 311 28 434 136 597 116 177 293 292 509 329
80 14 379 16 2757 16 l2668 0 32 29 c31 27 33 34 33 91 0 57 -2 64 -33 91
l-32 29 -2723 -1 c-2587 -1 -2726 -2 -2797 -19z m7178 -4405 c3 -3053 5 -2902
-54 -3054 -35 -87 -120 -215 -183 -274 -65 -61 -170 -128 -252 -160 -151 -60
36 -57 -3374 -57 -3410 0 -3223 -3 -3374 57 -82 32 -187 99 -252 160 -63 59
-148 187 -182 274 -60 151 -57 -4 -57 3045 0 1535 3 2794 7 2797 3 4 1741 6
3862 5 l3856 -3 3 -2790z"/>
<path d="M1565 6445 c-124 -24 -219 -97 -273 -213 -26 -55 -27 -64 -25 -207 1
-108 7 -177 22 -245 28 -134 40 -182 50 -205 5 -11 17 -42 26 -70 78 -220 261
-489 437 -641 31 -27 57 -53 57 -59 1 -5 -36 -46 -82 -90 -188 -181 -309 -360
-402 -594 -83 -210 -109 -353 -109 -601 0 -197 13 -309 49 -420 35 -106 160
-122 223 -30 26 39 26 31 -7 205 -54 284 -9 599 123 865 85 171 210 332 347
446 l80 66 72 -35 c40 -20 99 -48 132 -62 l59 -26 -79 -51 c-103 -67 -245
-210 -316 -318 -102 -155 -154 -291 -184 -480 -19 -121 -19 -196 0 -326 27
-181 85 -327 190 -484 142 -211 357 -373 600 -454 113 -37 166 -46 365 -56 96
-5 193 -14 215 -19 22 -6 57 -13 78 -16 121 -19 359 -121 487 -208 196 -134
369 -333 470 -542 84 -173 120 -300 141 -498 14 -132 6 -177 -35 -216 -30 -28
-100 -38 -135 -19 -49 26 -61 56 -71 178 -20 228 -81 409 -193 574 -56 83 -71
101 -157 187 -206 204 -502 329 -781 329 -277 0 -560 82 -789 228 -137 87
-283 227 -384 369 -44 61 -68 86 -96 97 -80 32 -160 -24 -160 -113 0 -43 7
-58 63 -137 34 -49 113 -140 175 -203 61 -63 112 -115 112 -116 0 -2 -51 -54
-113 -116 -62 -63 -141 -154 -176 -204 -63 -88 -154 -245 -167 -288 -3 -12
-10 -26 -14 -32 -13 -17 -58 -155 -84 -260 -30 -119 -51 -324 -42 -417 21
-225 251 -386 460 -323 100 30 190 105 235 194 l21 41 933 0 932 0 29 -55 c32
-61 101 -128 156 -152 62 -26 124 -43 162 -43 41 0 134 22 170 41 43 22 108
80 136 122 53 79 64 123 63 273 -1 75 -3 139 -6 143 -2 4 -9 39 -14 77 -12 75
-17 97 -57 224 -84 272 -265 546 -488 738 l-39 34 95 92 c240 235 377 471 468
806 57 210 54 566 -6 799 -76 294 -243 576 -469 790 l-87 82 86 80 c324 304
515 732 517 1158 0 122 -1 132 -30 194 -34 76 -93 138 -172 182 -50 28 -61 30
-159 30 -95 0 -111 -3 -162 -28 -67 -33 -148 -111 -173 -168 l-18 -39 -933 0
-934 0 -21 41 c-72 142 -238 223 -394 194z m109 -249 c48 -20 76 -64 76 -121
0 -84 30 -257 61 -350 87 -259 246 -466 472 -612 186 -121 365 -176 607 -188
351 -17 562 -80 809 -243 109 -72 299 -260 370 -367 292 -435 328 -970 96
-1430 -58 -117 -147 -243 -237 -336 -74 -77 -170 -159 -187 -159 -6 0 -50 20
-98 43 -49 24 -103 50 -120 57 -18 7 -33 15 -33 19 0 3 32 26 71 51 87 55 209
172 282 268 254 340 298 800 114 1192 -6 14 -33 61 -60 105 -156 255 -398 434
-697 516 -82 22 -133 29 -310 38 -301 17 -487 72 -712 210 -224 137 -406 337
-526 576 -86 172 -141 393 -142 568 0 100 17 138 74 163 40 17 49 17 90 0z
m2598 -18 c45 -31 53 -78 39 -220 -34 -334 -166 -623 -391 -849 -52 -53 -114
-110 -137 -128 l-41 -31 -99 49 c-55 27 -112 53 -126 56 -15 4 -27 11 -27 15
0 4 30 27 68 51 87 57 256 225 315 314 121 185 177 350 197 582 11 137 24 161
100 187 23 7 72 -5 102 -26z m-460 -223 c11 -11 -51 -219 -78 -262 l-14 -23
-810 0 -810 0 -18 43 c-34 78 -72 201 -72 236 0 8 249 11 898 11 494 0 901 -2
904 -5z m-284 -537 c-7 -21 -136 -114 -204 -147 -74 -36 -190 -73 -280 -90
-151 -28 -359 3 -513 75 -95 45 -240 145 -241 167 0 4 279 7 621 7 486 0 620
-3 617 -12z m-408 -1012 c123 -31 239 -85 335 -156 103 -76 152 -70 -546 -70
l-624 1 30 25 c130 110 304 190 470 217 54 9 279 -2 335 -17z m627 -526 c32
-66 75 -224 65 -235 -3 -3 -410 -5 -904 -5 -649 0 -898 3 -898 11 0 48 74 265
93 273 7 2 374 4 817 3 l805 -2 22 -45z m56 -552 c-15 -68 -33 -122 -57 -180
l-16 -38 -815 0 -815 0 -22 48 c-11 26 -24 56 -29 67 -8 21 -39 146 -39 158 0
4 407 7 904 7 l903 0 -14 -62z m-288 -494 c-60 -52 -192 -132 -259 -159 -115
-45 -165 -55 -301 -61 -171 -8 -286 13 -424 77 -77 36 -186 106 -220 143 l-24
26 629 0 629 -1 -30 -25z m-1321 -803 c56 -27 111 -52 124 -55 22 -7 31 -26
12 -26 -48 0 -290 -223 -373 -343 -119 -173 -188 -376 -203 -602 -4 -53 -13
-101 -22 -117 -17 -30 -67 -58 -102 -58 -36 0 -85 28 -103 59 -39 66 -10 326
58 521 8 25 18 54 22 65 18 58 120 238 177 313 86 115 267 291 300 292 5 0 55
-22 110 -49z m828 -176 c151 -20 258 -59 393 -143 50 -32 115 -85 115 -94 0
-5 -280 -8 -622 -8 l-621 0 19 21 c59 66 239 166 359 199 31 9 180 33 240 39
6 0 58 -6 117 -14z m724 -532 c24 -59 42 -113 57 -180 l14 -63 -903 0 c-497 0
-904 3 -904 8 1 27 42 170 63 216 l26 56 815 0 816 0 16 -37z"/>
<path d="M5107 6039 c-56 -42 -57 -50 -56 -391 1 -349 2 -356 70 -391 53 -28
106 -17 147 29 l32 37 0 324 c0 323 -2 341 -35 379 -36 39 -114 45 -158 13z"/>
<path d="M5780 6047 c-96 -32 -180 -106 -227 -197 -27 -53 -28 -61 -28 -200 0
-140 1 -147 29 -203 36 -71 108 -140 184 -175 50 -24 69 -27 152 -26 82 0 103
4 151 28 61 29 136 100 168 158 67 123 66 323 -4 443 -35 61 -104 125 -165
153 -43 20 -73 26 -140 28 -47 2 -101 -2 -120 -9z m189 -267 c35 -35 47 -92
36 -175 -8 -71 -53 -115 -116 -115 -79 0 -129 62 -129 160 0 102 47 160 131
160 40 0 52 -5 78 -30z"/>
<path d="M6492 6040 c-59 -36 -62 -56 -62 -390 0 -284 1 -303 21 -341 39 -78
136 -90 197 -24 l32 35 0 325 c0 358 -2 370 -60 400 -40 21 -89 19 -128 -5z"/>
<path d="M6939 6045 c-59 -32 -59 -35 -59 -390 0 -362 1 -369 64 -399 42 -20
69 -20 110 -1 65 31 66 38 66 393 0 184 -4 332 -10 346 -21 55 -113 83 -171
51z"/>
<path d="M7485 6046 c-100 -32 -182 -105 -229 -205 -29 -63 -30 -72 -30 -191
0 -119 1 -128 30 -190 36 -77 115 -156 189 -190 40 -19 69 -23 146 -24 89 -1
99 1 162 33 79 40 139 101 175 179 24 50 27 72 30 174 3 92 0 130 -14 170 -38
116 -136 213 -250 246 -53 15 -157 14 -209 -2z m191 -270 c34 -34 34 -35 34
-126 l0 -93 -36 -33 c-28 -27 -44 -34 -74 -34 -76 0 -117 38 -127 119 -15 130
27 201 119 201 44 0 54 -4 84 -34z"/>
<path d="M5287 4976 c-153 -63 -237 -200 -237 -386 0 -174 78 -308 220 -377
47 -23 68 -27 150 -27 85 0 101 2 155 29 76 37 143 104 181 180 28 58 29 65
29 200 0 138 -1 141 -32 200 -31 59 -79 112 -139 153 -84 57 -226 69 -327 28z
m219 -260 c33 -33 34 -36 34 -115 0 -94 -15 -133 -60 -156 -49 -26 -95 -19
-137 19 -33 30 -37 39 -41 94 -6 84 4 125 37 161 25 27 36 31 81 31 46 0 56
-4 86 -34z"/>
<path d="M5932 4966 l-37 -34 0 -341 0 -341 33 -32 c29 -29 39 -33 86 -33 44
0 59 5 80 24 44 41 48 74 44 409 l-3 314 -37 34 c-31 28 -45 34 -83 34 -38 0
-52 -6 -83 -34z"/>
<path d="M6383 4974 c-19 -14 -37 -40 -43 -62 -15 -55 -12 -608 4 -651 18 -51
57 -76 118 -76 46 0 53 3 84 39 l34 39 0 326 c0 305 -1 328 -19 355 -41 61
-122 75 -178 30z"/>
<path d="M7015 4987 c-101 -39 -174 -106 -221 -203 -28 -56 -29 -65 -29 -194
0 -129 1 -137 29 -194 38 -75 109 -146 183 -182 51 -25 69 -29 153 -28 82 0
102 4 150 27 89 44 159 118 193 205 38 95 31 288 -12 378 -33 67 -97 131 -169
166 -59 29 -77 33 -157 35 -50 1 -103 -4 -120 -10z m183 -253 c37 -26 52 -67
52 -146 0 -79 -18 -120 -62 -144 -31 -18 -83 -17 -117 0 -49 26 -61 56 -61
150 0 82 1 86 34 120 29 32 39 36 82 36 29 0 59 -7 72 -16z"/>
<path d="M7766 4978 c-53 -40 -56 -60 -56 -385 0 -268 2 -302 19 -339 37 -82
136 -97 199 -29 l32 35 0 325 c0 352 -2 364 -54 399 -36 23 -104 20 -140 -6z"/>
<path d="M5106 3919 c-55 -43 -56 -52 -56 -386 1 -345 3 -359 70 -395 53 -29
107 -19 148 28 l32 37 0 324 c0 350 -2 362 -54 397 -36 23 -107 21 -140 -5z"/>
<path d="M5790 3934 c-111 -43 -201 -121 -243 -211 -19 -43 -22 -64 -22 -193
0 -140 1 -147 28 -199 38 -72 110 -141 182 -176 53 -26 71 -29 150 -29 115 0
186 30 262 109 77 80 113 172 113 294 0 125 -42 234 -118 309 -72 70 -138 96
-247 99 -49 1 -97 0 -105 -3z m186 -280 c48 -59 44 -201 -6 -249 -61 -58 -162
-37 -195 41 -35 85 -6 211 55 237 8 4 39 5 69 3 46 -2 58 -7 77 -32z"/>
<path d="M6487 3919 c-56 -42 -57 -51 -57 -384 0 -283 1 -309 20 -344 40 -80
138 -93 198 -25 l32 37 0 324 c0 350 -2 362 -54 397 -35 23 -104 20 -139 -5z"/>
<path d="M7106 3915 c-96 -39 -175 -124 -211 -227 -21 -61 -20 -249 2 -314 33
-98 100 -171 203 -222 47 -23 67 -26 145 -26 76 0 99 4 147 26 97 45 175 134
209 238 20 64 18 231 -4 296 -55 160 -185 254 -352 254 -62 0 -93 -6 -139 -25z
m198 -237 c51 -22 74 -95 61 -189 -10 -70 -45 -109 -105 -116 -85 -9 -138 52
-139 160 -2 120 86 190 183 145z"/>
<path d="M7766 3918 c-53 -40 -56 -60 -56 -385 0 -268 2 -302 19 -339 38 -83
138 -97 199 -28 l32 37 0 324 c0 350 -2 362 -54 397 -36 23 -104 20 -140 -6z"/>
<path d="M5106 2859 c-55 -43 -56 -52 -56 -382 0 -339 3 -359 63 -396 60 -37
130 -20 167 42 19 30 20 52 20 350 0 343 -2 356 -54 391 -36 23 -107 21 -140
-5z"/>
<path d="M5560 2851 l-35 -29 -3 -333 c-4 -372 -2 -382 63 -413 41 -20 68 -20
109 -1 65 31 66 37 66 405 l0 332 -34 34 c-29 29 -41 34 -83 34 -39 0 -56 -6
-83 -29z"/>
<path d="M5985 2847 c-45 -45 -47 -67 -43 -412 3 -322 4 -327 73 -359 45 -22
76 -20 116 7 58 39 59 42 59 392 0 293 -2 322 -18 348 -29 43 -53 56 -105 57
-42 0 -54 -5 -82 -33z"/>
<path d="M6617 2856 c-173 -73 -261 -251 -228 -463 23 -141 95 -239 220 -300
48 -24 68 -27 146 -27 75 0 99 4 145 26 76 35 140 95 181 170 l34 63 0 150 c0
148 0 151 -30 204 -42 75 -105 138 -173 169 -83 39 -213 43 -295 8z m192 -234
c47 -23 71 -73 71 -145 0 -110 -39 -161 -125 -161 -43 0 -59 5 -80 24 -33 31
-49 91 -42 161 6 66 28 105 71 124 41 18 64 17 105 -3z"/>
<path d="M7465 2863 c-65 -26 -144 -91 -179 -146 -50 -80 -61 -128 -60 -257 0
-105 3 -120 29 -175 102 -214 344 -286 540 -161 117 76 165 176 165 351 0 111
-9 151 -52 230 -24 45 -105 117 -163 145 -64 32 -216 39 -280 13z m175 -238
c56 -29 70 -59 70 -149 0 -44 -6 -92 -13 -106 -18 -36 -74 -62 -120 -56 -76 9
-113 74 -104 182 5 74 25 110 70 129 41 18 62 18 97 0z"/>
<path d="M5648 1609 c-65 -34 -86 -105 -48 -166 40 -67 -36 -63 1181 -63
l1101 0 39 39 c33 33 39 45 39 81 0 51 -30 97 -76 116 -28 12 -215 14 -1116
14 -1058 -1 -1084 -1 -1120 -21z"/>
<path d="M6341 1087 c-26 -5 -49 -19 -66 -38 -44 -53 -45 -101 -4 -154 45 -56
24 -55 831 -55 708 0 745 1 785 19 92 42 99 171 10 218 -29 15 -98 17 -774 17
-407 1 -759 -3 -782 -7z"/>
<path d="M1438 7825 c-84 -23 -157 -75 -213 -150 -44 -59 -51 -74 -70 -154
-16 -63 -17 -82 -6 -139 26 -143 99 -239 231 -305 60 -30 72 -32 165 -32 94 0
105 2 168 33 165 81 260 259 227 425 -47 240 -273 385 -502 322z m189 -256
c39 -24 73 -84 73 -129 0 -45 -34 -105 -73 -129 -43 -26 -117 -28 -159 -3 -97
57 -93 216 7 266 44 22 111 20 152 -5z"/>
<path d="M2328 7826 c-106 -31 -202 -111 -254 -213 -27 -54 -29 -66 -29 -173
0 -108 2 -119 30 -174 40 -79 109 -147 192 -188 63 -31 74 -33 168 -33 94 0
105 2 169 34 147 72 229 202 229 361 0 92 -20 153 -75 232 -44 62 -132 129
-196 149 -58 17 -181 20 -234 5z m178 -252 c100 -47 103 -209 6 -266 -42 -25
-116 -23 -159 3 -40 25 -73 85 -73 132 0 42 45 112 85 132 39 19 99 19 141 -1z"/>
<path d="M3218 7825 c-192 -53 -327 -261 -289 -447 27 -136 105 -239 222 -297
239 -117 525 33 568 299 45 281 -225 521 -501 445z m175 -251 c41 -22 55 -36
72 -78 20 -46 19 -72 -4 -122 -48 -105 -203 -114 -267 -17 -26 41 -24 132 5
169 50 64 126 82 194 48z"/>
</g>
</svg>
