<?xml version="1.0" standalone="no"?>
<!DOCTYPE svg PUBLIC "-//W3C//DTD SVG 20010904//EN"
 "http://www.w3.org/TR/2001/REC-SVG-20010904/DTD/svg10.dtd">
<svg version="1.0" xmlns="http://www.w3.org/2000/svg"
 width="512.000000pt" height="512.000000pt" viewBox="0 0 512.000000 512.000000"
 preserveAspectRatio="xMidYMid meet">

<g transform="translate(0.000000,512.000000) scale(0.100000,-0.100000)"
fill="#000000" stroke="none">
<path d="M1545 5015 l-25 -24 0 -576 0 -575 -40 0 -40 0 0 295 0 296 -25 24
c-24 25 -26 25 -215 25 -189 0 -191 0 -215 -25 l-25 -24 0 -295 0 -295 -322
-3 -323 -3 -63 -34 c-70 -38 -100 -69 -140 -145 l-27 -51 0 -1285 0 -1285 27
-51 c40 -76 70 -107 140 -145 l63 -34 867 -3 866 -3 -52 -157 -53 -157 -152
-5 c-192 -6 -191 -6 -191 -146 l0 -94 -415 0 -416 0 -24 -25 c-33 -32 -33 -78
0 -110 l24 -25 1791 0 1791 0 24 25 c33 32 33 78 0 110 l-24 25 -416 0 -415 0
0 94 c0 140 1 140 -191 146 l-152 5 -53 157 -52 157 866 3 867 3 63 34 c70 38
100 69 140 145 l27 51 0 1285 0 1285 -27 51 c-40 76 -70 107 -139 144 -54 29
-75 34 -154 38 l-92 5 48 70 c156 226 169 520 34 764 -52 94 -188 227 -280
275 -126 65 -202 83 -350 82 -148 0 -228 -21 -352 -89 -90 -50 -218 -178 -268
-268 -135 -244 -122 -538 35 -765 l49 -72 -490 0 -489 0 0 415 0 416 -25 24
c-24 25 -26 25 -215 25 -189 0 -191 0 -215 -25 l-25 -24 0 -416 0 -415 -40 0
-40 0 0 575 0 576 -25 24 c-24 25 -26 25 -215 25 -189 0 -191 0 -215 -25z
m295 -1055 l0 -920 -80 0 -80 0 0 920 0 920 80 0 80 0 0 -920z m2160 652 l0
-257 -185 -185 c-150 -150 -187 -182 -196 -170 -22 33 -57 108 -75 160 -26 76
-26 243 0 320 45 134 138 255 243 317 55 32 159 72 191 72 l22 1 0 -258z m263
235 c92 -33 150 -70 213 -134 64 -65 98 -120 131 -210 40 -112 58 -103 -212
-103 l-235 0 0 235 c0 270 -9 252 103 212z m-1863 -1047 l0 -760 -80 0 -80 0
0 760 0 760 80 0 80 0 0 -760z m-1120 -120 l0 -640 -80 0 -80 0 0 640 0 640
80 0 80 0 0 -640z m3350 540 c0 -29 -43 -141 -74 -195 -39 -66 -133 -155 -202
-192 -104 -54 -159 -68 -274 -68 -118 0 -200 22 -285 76 l-48 31 184 184 184
184 257 0 c249 0 258 -1 258 -20z m-3670 -860 l0 -320 -40 0 -40 0 0 255 0
256 -25 24 c-24 25 -26 25 -215 25 -189 0 -191 0 -215 -25 l-25 -24 0 -311 0
-311 25 -24 24 -25 1311 0 1311 0 24 25 25 24 0 311 0 311 -25 24 c-24 25 -26
25 -215 25 -189 0 -191 0 -215 -25 l-25 -24 0 -256 0 -255 -40 0 -40 0 0 320
0 320 593 0 594 0 63 -26 c77 -31 191 -54 270 -54 79 0 193 23 270 54 60 24
74 26 232 26 192 0 219 -7 264 -66 l29 -37 3 -1069 2 -1068 -2320 0 -2320 0 0
1054 c0 723 3 1064 11 1083 6 15 20 39 32 52 44 48 62 50 380 51 l297 0 0
-320z m560 0 l0 -320 -40 0 -40 0 0 320 0 320 40 0 40 0 0 -320z m560 0 l0
-320 -40 0 -40 0 0 320 0 320 40 0 40 0 0 -320z m-1360 -120 l0 -200 -80 0
-80 0 0 200 0 200 80 0 80 0 0 -200z m2240 0 l0 -200 -80 0 -80 0 0 200 0 200
80 0 80 0 0 -200z m1918 -2069 c-3 -118 -12 -141 -72 -185 l-27 -21 -2218 0
-2218 0 -37 29 c-53 40 -66 78 -66 191 l0 95 2321 0 2321 0 -4 -109z m-1922
-533 l52 -158 -448 0 -449 0 50 148 c27 81 51 153 54 160 3 10 78 12 346 10
l342 -3 53 -157z m404 -358 l0 -40 -800 0 -800 0 0 40 0 40 800 0 800 0 0 -40z"/>
<path d="M3543 3337 c-163 -162 -183 -186 -183 -215 0 -44 38 -82 81 -82 29 0
52 20 194 160 l161 160 357 0 358 0 24 25 c16 15 25 36 25 55 0 19 -9 40 -25
55 l-24 25 -393 0 -392 0 -183 -183z"/>
<path d="M425 2775 c-16 -15 -25 -36 -25 -55 0 -19 9 -40 25 -55 l24 -25 471
0 471 0 24 25 c33 32 33 78 0 110 l-24 25 -471 0 -471 0 -24 -25z"/>
<path d="M1545 2775 c-16 -15 -25 -36 -25 -55 0 -19 9 -40 25 -55 21 -22 33
-25 95 -25 62 0 74 3 95 25 16 15 25 36 25 55 0 19 -9 40 -25 55 -21 22 -33
25 -95 25 -62 0 -74 -3 -95 -25z"/>
<path d="M3120 2707 c-46 -15 -133 -102 -146 -147 -8 -31 -57 -71 -429 -351
l-420 -316 -46 42 c-103 92 -227 87 -326 -11 l-53 -52 -411 171 -411 171 -20
43 c-39 83 -132 143 -220 143 -123 0 -238 -115 -238 -238 0 -65 22 -115 75
-167 102 -102 229 -102 332 1 l53 52 411 -171 411 -171 20 -43 c52 -110 175
-165 292 -131 52 16 138 100 152 148 8 31 57 71 429 351 l420 316 46 -42 c101
-89 225 -87 322 6 l48 47 419 -245 c387 -226 419 -246 426 -275 4 -19 28 -53
58 -83 72 -71 146 -91 240 -63 55 16 138 99 154 154 28 94 8 169 -63 239 -99
100 -227 101 -328 4 l-48 -47 -419 245 c-387 226 -419 246 -426 275 -9 44 -98
131 -150 146 -49 14 -106 14 -154 -1z m135 -172 c50 -49 15 -135 -55 -135 -41
0 -80 39 -80 80 0 41 39 80 80 80 19 0 40 -9 55 -25z m-2560 -320 c16 -15 25
-36 25 -55 0 -19 -9 -40 -25 -55 -49 -50 -135 -15 -135 55 0 41 39 80 80 80
19 0 40 -9 55 -25z m3840 -240 c50 -49 15 -135 -55 -135 -41 0 -80 39 -80 80
0 41 39 80 80 80 19 0 40 -9 55 -25z m-2560 -160 c50 -49 15 -135 -55 -135
-19 0 -40 9 -55 25 -16 15 -25 36 -25 55 0 19 9 40 25 55 15 16 36 25 55 25
19 0 40 -9 55 -25z"/>
<path d="M3545 1895 c-16 -15 -25 -36 -25 -55 0 -19 9 -40 25 -55 23 -24 28
-25 175 -25 147 0 152 1 175 25 16 15 25 36 25 55 0 19 -9 40 -25 55 -23 24
-28 25 -175 25 -147 0 -152 -1 -175 -25z"/>
<path d="M3225 1655 c-16 -15 -25 -36 -25 -55 0 -19 9 -40 25 -55 l24 -25 311
0 311 0 24 25 c16 15 25 36 25 55 0 19 -9 40 -25 55 l-24 25 -311 0 -311 0
-24 -25z"/>
<path d="M425 1175 c-16 -15 -25 -36 -25 -55 0 -19 9 -40 25 -55 l24 -25 271
0 271 0 24 25 c33 32 33 78 0 110 l-24 25 -271 0 -271 0 -24 -25z"/>
<path d="M1145 1175 c-16 -15 -25 -36 -25 -55 0 -19 9 -40 25 -55 21 -22 33
-25 95 -25 62 0 74 3 95 25 16 15 25 36 25 55 0 19 -9 40 -25 55 -21 22 -33
25 -95 25 -62 0 -74 -3 -95 -25z"/>
</g>
</svg>
