<?xml version="1.0" standalone="no"?>
<!DOCTYPE svg PUBLIC "-//W3C//DTD SVG 20010904//EN"
 "http://www.w3.org/TR/2001/REC-SVG-20010904/DTD/svg10.dtd">
<svg version="1.0" xmlns="http://www.w3.org/2000/svg"
 width="512.000000pt" height="512.000000pt" viewBox="0 0 512.000000 512.000000"
 preserveAspectRatio="xMidYMid meet">

<g transform="translate(0.000000,512.000000) scale(0.100000,-0.100000)"
fill="#000000" stroke="none">
<path d="M84 4945 c24 -340 145 -586 425 -865 81 -80 158 -151 173 -159 25
-13 30 -11 87 34 l62 48 -38 31 c-104 85 -238 220 -317 319 l-38 47 420 0 421
0 44 58 c24 31 49 67 56 80 l12 22 -525 0 -524 0 -25 68 c-14 37 -30 83 -36
102 -17 50 -41 207 -41 263 l0 47 -81 0 -82 0 7 -95z"/>
<path d="M1680 4998 c0 -140 -52 -339 -124 -474 -113 -212 -239 -341 -666
-677 -525 -413 -704 -647 -786 -1027 -26 -119 -26 -401 0 -520 60 -278 167
-463 405 -700 81 -80 158 -151 173 -159 25 -13 30 -11 88 35 l61 48 -43 36
c-328 270 -488 515 -533 817 -44 294 14 568 171 803 107 161 230 278 599 568
380 299 576 505 683 717 70 141 117 313 128 480 l7 95 -82 0 -81 0 0 -42z"/>
<path d="M2240 4480 l0 -80 80 0 80 0 0 80 0 80 -80 0 -80 0 0 -80z"/>
<path d="M2560 4480 l0 -80 80 0 80 0 0 80 0 80 -80 0 -80 0 0 -80z"/>
<path d="M2880 4480 l0 -80 80 0 80 0 0 80 0 80 -80 0 -80 0 0 -80z"/>
<path d="M3200 4480 l0 -80 80 0 80 0 0 80 0 80 -80 0 -80 0 0 -80z"/>
<path d="M3520 4480 l0 -80 80 0 80 0 0 80 0 80 -80 0 -80 0 0 -80z"/>
<path d="M3840 4480 l0 -80 80 0 80 0 0 80 0 80 -80 0 -80 0 0 -80z"/>
<path d="M3840 4160 l0 -80 80 0 80 0 0 80 0 80 -80 0 -80 0 0 -80z"/>
<path d="M1147 3643 l-57 -46 37 -31 c114 -93 241 -222 321 -324 l34 -42 -421
0 -420 0 -44 -57 c-24 -32 -49 -68 -56 -80 l-12 -23 525 0 525 0 29 -78 c28
-71 52 -173 66 -279 l6 -43 -640 0 -640 0 0 -80 0 -80 639 0 640 0 -5 -37
c-17 -126 -46 -239 -89 -345 -7 -17 -41 -18 -531 -18 -288 0 -524 -3 -524 -7
0 -5 24 -39 53 -78 l52 -70 423 -3 423 -2 -20 -29 c-37 -52 -161 -184 -239
-254 -42 -38 -192 -159 -332 -270 -460 -362 -650 -585 -744 -872 -35 -109 -54
-206 -62 -320 l-7 -95 82 0 81 0 0 48 c0 55 24 212 41 262 6 19 22 65 36 103
l25 67 524 0 c288 0 524 3 524 8 0 4 -24 39 -53 77 l-52 70 -422 5 -423 5 36
45 c104 133 252 266 589 530 481 377 671 631 751 1000 26 119 26 400 0 518
-53 249 -162 450 -347 646 -105 111 -234 226 -252 226 -7 -1 -38 -22 -70 -47z"/>
<path d="M2895 3666 c-41 -18 -83 -69 -90 -109 -3 -18 -5 -388 -3 -824 3 -782
3 -792 24 -819 11 -15 33 -37 48 -48 27 -20 41 -21 497 -24 l469 -3 0 -119 0
-120 -120 0 -120 0 0 -80 0 -80 320 0 320 0 0 80 0 80 -120 0 -120 0 0 120 0
119 469 3 c456 3 470 4 497 24 15 11 37 33 48 48 21 27 21 35 21 846 0 811 0
819 -21 846 -11 15 -33 37 -48 48 -27 21 -35 21 -1034 23 -822 2 -1013 0
-1037 -11z m1985 -746 l0 -600 -960 0 -960 0 0 600 0 600 960 0 960 0 0 -600z
m0 -840 l0 -80 -960 0 -960 0 0 80 0 80 960 0 960 0 0 -80z"/>
<path d="M4320 2920 l0 -440 80 0 80 0 0 440 0 440 -80 0 -80 0 0 -440z"/>
<path d="M4000 2810 l0 -330 80 0 80 0 0 330 0 330 -80 0 -80 0 0 -330z"/>
<path d="M3680 2700 l0 -220 80 0 80 0 0 220 0 220 -80 0 -80 0 0 -220z"/>
<path d="M3360 2590 l0 -110 80 0 80 0 0 110 0 110 -80 0 -80 0 0 -110z"/>
<path d="M2080 2560 l0 -80 80 0 80 0 0 80 0 80 -80 0 -80 0 0 -80z"/>
<path d="M2400 2560 l0 -80 80 0 80 0 0 80 0 80 -80 0 -80 0 0 -80z"/>
<path d="M1151 1166 c-29 -24 -54 -45 -55 -48 0 -2 37 -37 84 -78 241 -212
375 -394 445 -602 27 -81 55 -242 55 -315 l0 -43 81 0 82 0 -7 95 c-21 308
-140 569 -367 809 -105 111 -234 226 -252 226 -7 -1 -36 -20 -66 -44z"/>
<path d="M3840 960 l0 -80 80 0 80 0 0 80 0 80 -80 0 -80 0 0 -80z"/>
<path d="M2240 640 l0 -80 80 0 80 0 0 80 0 80 -80 0 -80 0 0 -80z"/>
<path d="M2560 640 l0 -80 80 0 80 0 0 80 0 80 -80 0 -80 0 0 -80z"/>
<path d="M2880 640 l0 -80 80 0 80 0 0 80 0 80 -80 0 -80 0 0 -80z"/>
<path d="M3200 640 l0 -80 80 0 80 0 0 80 0 80 -80 0 -80 0 0 -80z"/>
<path d="M3520 640 l0 -80 80 0 80 0 0 80 0 80 -80 0 -80 0 0 -80z"/>
<path d="M3840 640 l0 -80 80 0 80 0 0 80 0 80 -80 0 -80 0 0 -80z"/>
</g>
</svg>
