<?xml version="1.0" standalone="no"?>
<!DOCTYPE svg PUBLIC "-//W3C//DTD SVG 20010904//EN"
 "http://www.w3.org/TR/2001/REC-SVG-20010904/DTD/svg10.dtd">
<svg version="1.0" xmlns="http://www.w3.org/2000/svg"
 width="512.000000pt" height="512.000000pt" viewBox="0 0 512.000000 512.000000"
 preserveAspectRatio="xMidYMid meet">

<g transform="translate(0.000000,512.000000) scale(0.100000,-0.100000)"
fill="#000000" stroke="none">
<path d="M753 4688 c-354 -353 -435 -439 -443 -470 -7 -24 -9 -576 -8 -1585 3
-1702 -2 -1575 63 -1651 43 -51 98 -75 188 -80 l77 -5 0 -38 c0 -111 45 -197
127 -246 l48 -28 876 -3 876 -3 6 -89 c14 -195 94 -330 250 -424 110 -65 118
-66 876 -66 458 0 697 4 733 11 209 44 366 219 388 435 13 118 13 1255 0 1363
-24 206 -168 374 -365 426 -48 12 -129 15 -422 15 l-363 0 0 1200 0 1200 64 0
c48 0 70 -5 87 -19 l24 -19 5 -1062 5 -1062 24 -19 c32 -26 67 -24 96 6 l25
24 0 1052 c0 800 -3 1062 -12 1093 -16 54 -90 128 -144 144 -23 6 -71 12 -108
12 l-66 0 0 61 c0 118 -43 193 -134 235 l-51 24 -961 0 c-957 0 -961 0 -988
-21 -19 -15 -26 -30 -26 -54 0 -24 7 -39 26 -54 27 -21 31 -21 981 -21 l954 0
24 -25 25 -24 0 -1336 0 -1335 -258 0 c-196 0 -271 -4 -315 -15 -164 -43 -296
-166 -350 -328 -20 -58 -21 -88 -25 -460 l-3 -397 -1031 2 -1030 3 -19 24
c-19 23 -19 61 -19 1537 l0 1514 316 0 c211 0 330 4 355 12 51 15 114 69 142
122 21 40 22 51 25 406 2 200 1 374 -3 387 -9 36 -41 63 -77 63 -28 0 -77 -45
-465 -432z m392 -335 c-3 -18 -17 -41 -32 -53 -24 -19 -39 -20 -287 -20 l-261
0 290 290 290 290 3 -237 c2 -131 0 -252 -3 -270z m3320 -2283 c74 -36 148
-114 174 -184 21 -58 21 -60 19 -774 l-3 -717 -23 -46 c-36 -74 -87 -125 -160
-161 l-67 -33 -715 0 -715 0 -56 26 c-109 52 -176 137 -199 254 -8 43 -10 255
-8 730 l3 670 26 55 c45 97 122 167 214 196 31 10 199 12 750 11 l710 -2 50
-25z m-1905 -1255 l0 -85 -850 0 c-937 0 -897 -3 -919 61 -6 18 -11 49 -11 70
l0 39 890 0 890 0 0 -85z"/>
<path d="M3575 1866 c-57 -26 -77 -48 -314 -344 -205 -257 -206 -258 -205
-347 1 -149 105 -255 250 -255 l63 0 3 -222 c3 -209 4 -225 25 -258 12 -20 40
-46 61 -58 37 -21 52 -22 234 -22 186 0 197 1 228 23 80 54 89 91 90 345 l0
192 65 0 c131 0 227 88 250 227 14 89 -6 125 -243 418 -194 242 -223 273 -271
298 -72 36 -163 38 -236 3z m186 -149 c35 -29 388 -472 406 -509 20 -38 8 -82
-29 -113 -27 -23 -37 -25 -127 -25 -84 0 -102 -3 -125 -21 l-26 -20 0 -247 c0
-136 -4 -253 -8 -260 -7 -9 -47 -12 -168 -10 l-159 3 -3 256 c-3 312 8 291
-151 300 -58 3 -114 9 -124 13 -28 13 -50 64 -43 102 8 38 378 507 424 536 39
25 101 23 133 -5z"/>
<path d="M1700 4671 c-227 -72 -245 -365 -27 -456 54 -23 803 -22 868 0 93 33
153 122 153 225 0 95 -43 167 -129 213 -39 21 -51 22 -440 24 -220 1 -411 -2
-425 -6z m801 -156 c55 -29 64 -92 20 -136 l-29 -29 -377 0 c-384 0 -403 2
-432 39 -21 27 -16 85 10 108 12 11 29 23 37 26 8 3 178 6 378 6 309 1 367 -1
393 -14z"/>
<path d="M891 3684 c-27 -35 -26 -57 3 -91 l24 -28 1039 -3 c571 -1 1053 0
1071 3 38 7 72 40 72 71 0 12 -9 33 -21 48 l-20 26 -1074 0 -1074 0 -20 -26z"/>
<path d="M895 3245 c-14 -13 -25 -36 -25 -50 0 -14 11 -37 25 -50 l24 -25
1066 0 1066 0 24 25 c14 13 25 36 25 50 0 14 -11 37 -25 50 l-24 25 -1066 0
-1066 0 -24 -25z"/>
<path d="M891 2794 c-27 -35 -26 -57 3 -91 l24 -28 674 -3 c446 -2 685 0 709
7 23 7 40 20 47 36 17 36 15 48 -9 79 l-20 26 -704 0 -704 0 -20 -26z"/>
<path d="M2581 2794 c-27 -35 -26 -57 3 -91 l24 -28 194 -3 c106 -2 208 -1
226 3 65 12 93 79 52 123 -20 21 -27 22 -250 22 l-229 0 -20 -26z"/>
<path d="M895 2355 c-14 -13 -25 -36 -25 -50 0 -14 11 -37 25 -50 l24 -25 479
0 c454 0 481 1 503 19 17 13 23 29 23 56 0 27 -6 43 -23 56 -22 18 -49 19
-503 19 l-479 0 -24 -25z"/>
<path d="M924 1930 c-26 -10 -54 -48 -54 -71 0 -9 9 -28 21 -43 l20 -26 489 0
489 0 20 26 c27 35 26 57 -3 91 l-24 28 -469 2 c-257 1 -478 -2 -489 -7z"/>
</g>
</svg>
