<!DOCTYPE svg PUBLIC "-//W3C//DTD SVG 1.1//EN" "http://www.w3.org/Graphics/SVG/1.1/DTD/svg11.dtd">

<!-- Uploaded to: SVG Repo, www.svgrepo.com, Transformed by: SVG Repo Mixer Tools -->
<svg version="1.1" id="Uploaded to svgrepo.com" xmlns="http://www.w3.org/2000/svg" xmlns:xlink="http://www.w3.org/1999/xlink" width="683px" height="683px" viewBox="0 0 683 683" xml:space="preserve" fill="#000000">

<g id="SVGRepo_bgCarrier" stroke-width="0"/>

<g id="SVGRepo_tracerCarrier" stroke-linecap="round" stroke-linejoin="round"/>

<g id="SVGRepo_iconCarrier"> <style type="text/css"> .feather_een{fill:#0B1719;} </style> <path class="feather_een" d="M27,2H5C3.343,2,2,3.343,2,5v22c0,1.657,1.343,3,3,3h22c1.657,0,3-1.343,3-3V5C30,3.343,28.657,2,27,2z M25,3v9H7V3H25z M10,29v-8h12v8H10z M29,27c0,1.103-0.897,2-2,2h-4v-8c0-0.552-0.448-1-1-1H10c-0.552,0-1,0.448-1,1v8H5 c-1.103,0-2-0.897-2-2V5c0-1.103,0.897-2,2-2h1v9c0,0.552,0.448,1,1,1h18c0.552,0,1-0.448,1-1V3h1c1.103,0,2,0.897,2,2V27z M20,11h3 c0.552,0,1-0.448,1-1V5c0-0.552-0.448-1-1-1h-3c-0.552,0-1,0.448-1,1v5C19,10.552,19.448,11,20,11z M20,5h3v5h-3V5z M20,23.5 c0,0.276-0.224,0.5-0.5,0.5h-7c-0.276,0-0.5-0.224-0.5-0.5c0-0.276,0.224-0.5,0.5-0.5h7C19.776,23,20,23.224,20,23.5z M20,25.5 c0,0.276-0.224,0.5-0.5,0.5h-7c-0.276,0-0.5-0.224-0.5-0.5c0-0.276,0.224-0.5,0.5-0.5h7C19.776,25,20,25.224,20,25.5z"/> </g>

</svg>
