<?xml version="1.0" standalone="no"?>
<!DOCTYPE svg PUBLIC "-//W3C//DTD SVG 20010904//EN"
 "http://www.w3.org/TR/2001/REC-SVG-20010904/DTD/svg10.dtd">
<svg version="1.0" xmlns="http://www.w3.org/2000/svg"
 width="215.000000pt" height="171.000000pt" viewBox="0 0 215.000000 171.000000"
 preserveAspectRatio="xMidYMid meet">

<g transform="translate(0.000000,171.000000) scale(0.100000,-0.100000)"
fill="#000000" stroke="none">
<path d="M173 1576 c-35 -20 -62 -47 -78 -79 -13 -26 -15 -124 -15 -683 l0
-653 35 -36 36 -35 801 0 c784 0 801 0 833 20 18 11 38 33 44 48 9 23 67 239
92 342 4 19 12 53 18 75 5 22 14 58 20 80 17 62 28 101 56 215 30 120 39 154
59 228 23 80 22 81 -112 84 l-117 3 -3 61 c-2 48 -8 66 -25 83 -22 20 -32 21
-383 23 l-359 3 -5 60 c-6 73 -35 123 -88 153 -39 22 -45 22 -413 21 -277 -1
-380 -4 -396 -13z m793 -52 c36 -24 54 -65 54 -124 0 -41 5 -56 25 -75 l24
-25 360 0 360 0 6 -34 c4 -18 5 -44 3 -57 l-3 -24 -734 -5 -735 -5 -8 -30
c-19 -63 -48 -171 -67 -252 -5 -21 -30 -118 -55 -216 -25 -98 -46 -187 -46
-197 0 -10 -4 -22 -10 -25 -7 -4 -10 166 -10 504 l0 510 35 36 36 35 370 0
c327 0 373 -2 395 -16z m1056 -399 c2 -3 -13 -74 -35 -157 -21 -84 -43 -169
-47 -188 -4 -19 -31 -125 -60 -235 -29 -110 -56 -216 -60 -235 -5 -19 -14 -56
-20 -81 -6 -26 -20 -56 -31 -68 l-20 -21 -791 0 c-722 0 -793 1 -810 17 -21
18 -23 48 -7 107 6 22 15 57 19 76 5 19 16 62 25 95 9 33 20 76 25 95 5 19 14
55 21 80 6 25 15 61 19 80 7 31 33 133 59 230 6 19 18 67 27 105 10 39 21 78
26 88 8 16 58 17 832 17 452 0 825 -2 828 -5z"/>
<path d="M200 1410 c0 -6 78 -10 215 -10 137 0 215 4 215 10 0 6 -78 10 -215
10 -137 0 -215 -4 -215 -10z"/>
<path d="M894 996 c-70 -26 -164 -117 -164 -160 0 -8 -4 -18 -10 -21 -5 -3
-10 -39 -10 -80 0 -41 5 -77 10 -80 6 -3 10 -15 10 -26 0 -21 1 -23 56 -86 20
-24 42 -43 49 -43 7 0 15 -3 17 -7 5 -13 100 -43 133 -43 28 0 124 28 135 40
3 3 17 11 32 19 26 13 29 13 48 -10 13 -14 19 -31 16 -44 -7 -27 12 -54 93
-133 71 -68 95 -75 130 -38 34 36 23 61 -62 144 -64 61 -80 72 -109 72 -22 0
-42 7 -53 20 -15 17 -16 24 -5 50 7 16 15 30 19 30 24 0 42 179 22 218 -5 9
-15 30 -22 46 -17 36 -79 98 -115 115 -16 7 -37 17 -46 22 -24 12 -136 9 -174
-5z m193 -33 c52 -21 99 -69 127 -128 34 -73 35 -137 1 -202 -28 -53 -110
-133 -137 -133 -9 0 -20 -4 -23 -10 -3 -5 -33 -10 -65 -10 -100 0 -189 60
-235 157 -31 64 -32 125 -4 189 24 54 100 134 127 134 10 0 22 4 28 9 22 22
122 19 181 -6z m203 -497 c0 -19 -29 -48 -41 -41 -13 8 -11 29 3 43 16 16 38
15 38 -2z m112 -101 c33 -36 33 -69 -1 -73 -17 -3 -36 9 -72 44 -27 27 -49 52
-49 56 0 4 9 17 21 29 l21 21 26 -24 c14 -12 38 -36 54 -53z"/>
<path d="M905 923 c-42 -22 -105 -84 -105 -104 0 -10 -4 -21 -10 -24 -14 -9
-12 -108 3 -136 45 -88 107 -129 193 -129 113 0 204 89 204 199 0 84 -46 154
-127 195 -39 20 -118 19 -158 -1z m152 -25 c90 -40 135 -160 89 -243 -77 -139
-245 -138 -323 2 -17 29 -17 114 -1 150 16 34 55 74 88 90 33 16 112 16 147 1z"/>
</g>
</svg>
