<?xml version="1.0" standalone="no"?>
<!DOCTYPE svg PUBLIC "-//W3C//DTD SVG 20010904//EN"
 "http://www.w3.org/TR/2001/REC-SVG-20010904/DTD/svg10.dtd">
<svg version="1.0" xmlns="http://www.w3.org/2000/svg"
 width="300.000000pt" height="64.000000pt" viewBox="0 0 300.000000 64.000000"
 preserveAspectRatio="xMidYMid meet">
<metadata>
Created by potrace 1.10, written by Peter Selinger 2001-2011
</metadata>
<g transform="translate(0.000000,64.000000) scale(0.100000,-0.100000)"
fill="#000000" stroke="none">
<path d="M667 533 c-15 -4 -16 -6 -2 -26 12 -16 15 -52 15 -155 0 -73 -5 -142
-10 -153 -9 -17 -7 -19 17 -19 l28 0 -3 180 c-3 186 -2 184 -45 173z"/>
<path d="M720 463 c0 -54 3 -73 10 -63 13 20 13 140 0 140 -6 0 -10 -32 -10
-77z"/>
<path d="M1227 533 c-14 -4 -15 -8 -7 -18 7 -9 10 -68 8 -175 l-3 -161 30 3
30 3 3 180 c2 132 0 177 -9 168 -7 -7 -10 -64 -7 -176 1 -91 0 -163 -4 -160
-5 2 -8 80 -8 174 0 93 -3 168 -7 168 -5 -1 -16 -3 -26 -6z"/>
<path d="M1755 529 c-46 -11 -101 -59 -121 -106 -30 -70 -5 -186 46 -213 11
-6 19 -16 17 -23 -1 -6 21 -20 48 -29 55 -20 124 -17 182 7 l33 14 0 76 c0 68
2 77 20 82 11 3 20 9 20 14 0 11 -3 11 -34 -1 -25 -9 -26 -13 -26 -84 l0 -74
-32 -13 c-42 -18 -166 -18 -193 -1 -20 14 -20 14 0 7 45 -15 131 -16 170 -2
l40 14 5 81 c5 79 4 82 -17 82 -12 0 -29 3 -39 7 -12 4 -15 3 -10 -5 4 -7 1
-12 -9 -12 -9 0 -13 -5 -10 -10 5 -8 11 -8 19 -1 21 17 26 2 26 -71 0 -64 -2
-69 -26 -78 -42 -16 -89 -11 -124 13 -29 19 -59 60 -33 44 6 -4 4 12 -4 36
-38 110 31 227 128 214 26 -3 37 -2 33 5 -17 27 24 -3 45 -33 20 -29 23 -31
17 -9 -3 14 -6 33 -6 43 0 10 -4 16 -8 13 -5 -3 -30 1 -57 9 -26 8 -51 15 -54
14 -3 -1 -24 -5 -46 -10z m25 -16 c-42 -13 -62 -30 -80 -68 -22 -45 -26 -117
-10 -161 6 -15 8 -29 6 -32 -3 -3 -10 8 -16 24 -16 42 -14 138 4 173 20 37 63
71 90 70 14 0 16 -2 6 -6z"/>
<path d="M2592 503 l-2 -43 -42 0 c-23 0 -39 -3 -36 -6 3 -3 46 -6 94 -7 49 0
70 -2 47 -4 -41 -4 -43 -5 -43 -38 0 -18 -3 -40 -6 -49 -4 -11 -1 -16 10 -16
12 0 16 10 16 44 l0 45 80 -5 c50 -3 80 -1 80 5 0 5 -19 11 -42 14 -24 2 -3 4
46 4 90 2 135 12 55 14 -24 0 -38 3 -31 6 18 7 16 73 -3 73 -11 0 -15 -11 -15
-39 l0 -39 -50 -4 c-28 -1 -72 -1 -99 0 l-50 4 -4 41 -4 42 -1 -42z"/>
<path d="M2610 505 c0 -19 5 -35 10 -35 6 0 10 16 10 35 0 19 -4 35 -10 35 -5
0 -10 -16 -10 -35z"/>
<path d="M350 515 c-10 -13 -9 -15 11 -15 20 0 21 2 9 11 -13 9 -13 10 0 6 12
-3 15 -31 18 -156 2 -109 -1 -158 -10 -168 -10 -12 -5 -14 33 -11 l44 3 3 67
3 67 29 -5 c39 -8 96 12 120 43 21 27 26 78 10 103 -7 11 -10 3 -10 -28 0 -35
-6 -50 -29 -73 -26 -25 -37 -29 -86 -29 l-57 0 4 -69 c2 -38 0 -67 -4 -65 -4
3 -7 74 -7 159 l-1 155 40 0 c53 0 80 -27 80 -78 0 -50 -18 -73 -66 -82 l-39
-8 47 -1 c36 -1 53 5 77 25 60 51 31 141 -50 158 -61 12 -156 7 -169 -9z"/>
<path d="M1935 470 c2 -33 7 -60 12 -60 4 0 8 5 7 10 -1 6 -2 33 -2 60 -1 28
-6 50 -12 50 -5 0 -8 -26 -5 -60z"/>
<path d="M440 430 c0 -40 4 -70 10 -70 6 0 10 29 10 66 l0 66 29 -4 c17 -2 28
-1 25 4 -3 4 -21 8 -40 8 l-34 0 0 -70z"/>
<path d="M2858 443 c-51 -4 -49 -1 -52 -75 -1 -17 4 -28 11 -28 9 0 13 15 13
44 l0 45 41 -2 c26 -1 44 3 46 11 3 6 1 11 -4 10 -4 -1 -29 -3 -55 -5z"/>
<path d="M2515 430 c4 -7 22 -10 41 -8 30 4 33 1 37 -27 4 -26 4 -26 3 5 -1
34 -2 35 -44 38 -31 2 -42 0 -37 -8z"/>
<path d="M152 408 c-21 -11 -40 -53 -29 -64 10 -10 27 6 27 25 0 36 55 57 78
29 15 -19 14 -168 -1 -187 -9 -11 -9 -13 0 -8 7 5 16 -1 23 -13 9 -17 14 -18
31 -9 12 6 23 8 26 6 3 -3 -8 -12 -24 -21 l-28 -15 26 -1 c15 0 34 10 48 26
22 25 22 49 0 27 -6 -6 -19 -9 -29 -6 -16 4 -19 18 -22 98 -1 52 -8 99 -14
105 -17 17 -85 22 -112 8z"/>
<path d="M760 404 c-23 -14 -23 -15 -3 -11 12 3 31 -2 43 -10 20 -14 22 -22
18 -110 l-3 -94 30 3 30 3 3 83 c2 46 -2 90 -8 100 -8 13 -10 -8 -8 -80 2 -53
0 -94 -4 -91 -5 2 -8 44 -8 94 0 76 -3 92 -20 109 -24 24 -37 24 -70 4z"/>
<path d="M1408 404 c-63 -33 -79 -140 -30 -194 39 -45 97 -51 139 -16 38 32
57 85 49 134 -5 27 -4 33 3 22 15 -22 13 -75 -3 -115 -21 -50 -70 -77 -126
-71 -36 5 -41 3 -26 -6 28 -16 92 -13 120 6 35 23 59 73 58 122 0 46 -18 88
-33 79 -5 -4 -12 1 -15 10 -8 20 -56 45 -86 45 -13 -1 -35 -7 -50 -16z m74 -5
c47 -25 65 -145 27 -193 -26 -33 -54 -33 -88 2 -48 48 -50 154 -4 190 21 15
38 15 65 1z"/>
<path d="M1417 382 c-22 -24 -22 -117 -1 -152 10 -17 13 -18 9 -5 -27 78 -9
155 36 155 11 0 17 5 14 10 -10 16 -40 12 -58 -8z"/>
<path d="M2116 406 c28 -12 44 -33 44 -56 0 -5 -19 -11 -42 -13 -34 -3 -30 -4
20 -5 64 -2 71 3 56 43 -8 20 -56 45 -86 45 -20 -1 -19 -2 8 -14z"/>
<path d="M2309 403 c-30 -19 -59 -72 -59 -109 0 -64 53 -124 110 -124 59 0
110 60 110 130 0 90 -90 147 -161 103z m91 -18 c19 -20 25 -40 28 -89 5 -72
-7 -103 -42 -112 -34 -8 -65 12 -82 51 -46 111 26 224 96 150z"/>
<path d="M2316 378 c-20 -28 -20 -93 -1 -133 9 -19 13 -22 9 -8 -9 39 -7 99 5
121 7 14 21 22 37 22 14 0 22 4 19 10 -11 18 -53 11 -69 -12z"/>
<path d="M928 393 c11 -10 41 -61 65 -114 l45 -97 -19 -42 c-18 -39 -21 -41
-56 -38 -28 2 -38 -1 -41 -13 -5 -25 27 -31 61 -12 25 15 40 43 90 163 32 80
63 150 69 155 21 22 -106 -282 -130 -308 -9 -11 -30 -26 -47 -33 l-30 -13 31
-1 c47 0 76 40 140 198 35 87 63 142 72 142 7 0 12 5 10 11 -5 16 -75 22 -84
8 -4 -8 -3 -9 4 -5 7 4 12 5 12 2 0 -8 -61 -160 -66 -165 -7 -8 -75 152 -70
166 4 9 -5 13 -35 13 -40 0 -41 0 -21 -17z"/>
<path d="M1005 397 c-16 -13 -15 -17 13 -73 35 -68 43 -67 10 1 -21 43 -21 45
-3 58 10 8 14 17 8 20 -6 4 -18 1 -28 -6z"/>
<path d="M2041 383 c-79 -99 5 -252 108 -199 17 9 35 25 41 35 13 26 12 41 -1
18 -28 -47 -113 -35 -138 19 -16 37 -14 110 5 128 22 22 31 20 11 -2 -27 -29
-21 -49 6 -24 13 12 32 22 42 22 25 0 8 16 -27 24 -21 5 -31 1 -47 -21z"/>
<path d="M164 373 c-4 -16 -14 -34 -23 -41 -14 -12 -13 -13 9 -10 19 2 26 10
28 31 2 19 9 27 23 27 10 0 19 5 19 10 0 6 -11 10 -25 10 -19 0 -26 -7 -31
-27z"/>
<path d="M290 297 l5 -92 3 84 c2 46 -1 88 -5 92 -4 5 -6 -33 -3 -84z"/>
<path d="M738 369 c-15 -8 -18 -24 -18 -89 0 -45 5 -82 11 -85 7 -5 10 15 9
61 -1 38 -1 75 -1 82 1 7 16 19 34 27 30 13 30 14 7 14 -14 0 -33 -4 -42 -10z"/>
<path d="M2208 352 l4 -32 -81 0 c-78 0 -81 -1 -81 -23 0 -13 7 -32 15 -43 14
-18 14 -17 5 9 -5 16 -10 30 -10 33 0 2 38 4 85 4 82 0 85 1 85 23 0 13 -6 31
-13 42 -13 16 -14 15 -9 -13z"/>
<path d="M2475 295 c0 -60 -3 -67 -33 -97 -28 -28 -39 -33 -82 -33 -58 0 -51
-15 8 -18 76 -3 137 69 129 151 -7 70 -22 67 -22 -3z"/>
<path d="M175 303 c-48 -25 -65 -44 -65 -74 0 -39 37 -63 74 -50 14 6 26 13
26 17 0 3 -7 4 -15 1 -7 -3 -24 2 -36 12 -29 24 -19 65 21 86 37 19 54 19 18
-1 -34 -18 -48 -43 -37 -69 7 -20 8 -20 8 1 1 23 30 54 50 54 14 0 11 32 -4
36 -5 2 -23 -4 -40 -13z"/>
<path d="M2205 230 c-3 -10 -20 -31 -38 -46 -26 -22 -38 -25 -72 -21 -30 4
-35 3 -22 -4 25 -15 74 -14 101 0 23 13 56 60 56 80 0 19 -18 12 -25 -9z"/>
<path d="M197 174 c-16 -9 -37 -12 -49 -8 -14 4 -18 2 -14 -5 15 -23 106 -6
106 19 0 13 -10 12 -43 -6z"/>
<path d="M350 160 c0 -6 33 -10 80 -10 47 0 80 4 80 10 0 6 -33 10 -80 10 -47
0 -80 -4 -80 -10z"/>
<path d="M640 160 c0 -6 28 -10 64 -10 36 0 68 5 71 10 4 6 -20 10 -64 10 -41
0 -71 -4 -71 -10z"/>
<path d="M790 160 c0 -6 28 -10 65 -10 37 0 65 4 65 10 0 6 -28 10 -65 10 -37
0 -65 -4 -65 -10z"/>
<path d="M1200 160 c0 -6 28 -10 65 -10 37 0 65 4 65 10 0 6 -28 10 -65 10
-37 0 -65 -4 -65 -10z"/>
</g>
</svg>
