<?xml version="1.0" standalone="no"?>
<!DOCTYPE svg PUBLIC "-//W3C//DTD SVG 20010904//EN"
 "http://www.w3.org/TR/2001/REC-SVG-20010904/DTD/svg10.dtd">
<svg version="1.0" xmlns="http://www.w3.org/2000/svg"
 width="450.000000pt" height="400.000000pt" viewBox="0 0 450.000000 400.000000"
 preserveAspectRatio="xMidYMid meet">

<g transform="translate(0.000000,400.000000) scale(0.100000,-0.100000)"
fill="#000000" stroke="none">
<path d="M2055 3679 c-256 -44 -486 -155 -677 -325 -161 -143 -283 -328 -352
-531 -54 -158 -60 -200 -59 -408 1 -170 3 -200 26 -286 80 -304 271 -573 535
-753 86 -58 266 -142 367 -171 330 -96 710 -63 1007 86 151 76 258 158 389
298 291 310 400 762 283 1169 -59 205 -147 360 -289 510 -127 134 -241 220
-380 287 -274 132 -561 174 -850 124z m545 -173 c111 -31 272 -106 373 -173
40 -26 110 -86 157 -133 304 -302 405 -733 267 -1135 -90 -261 -300 -496 -564
-631 -172 -88 -329 -124 -538 -124 -209 0 -340 29 -525 117 -297 140 -517 393
-604 696 -71 244 -52 526 50 746 110 239 308 438 554 557 188 91 306 115 550
110 163 -3 197 -7 280 -30z"/>
<path d="M2200 3179 c-118 -23 -252 -126 -305 -232 -28 -59 -53 -162 -41 -174
4 -4 40 -9 80 -11 l73 -4 12 47 c26 103 84 173 168 205 141 52 282 -2 350
-134 22 -44 25 -59 21 -130 -3 -49 -11 -94 -22 -114 -9 -18 -69 -90 -134 -160
-124 -136 -165 -201 -182 -291 -19 -104 -21 -101 69 -101 l80 0 7 48 c10 74
51 137 168 260 124 131 159 193 177 312 38 245 -143 466 -396 483 -44 2 -100
1 -125 -4z"/>
<path d="M2190 1825 l0 -75 100 0 100 0 0 75 0 75 -100 0 -100 0 0 -75z"/>
<path d="M2530 590 l0 -290 35 0 35 0 0 290 0 290 -35 0 -35 0 0 -290z"/>
<path d="M1520 570 l0 -280 35 0 35 0 0 130 0 130 150 0 150 0 0 -130 0 -130
35 0 35 0 0 280 0 280 -35 0 -35 0 0 -120 0 -120 -150 0 -150 0 0 120 0 120
-35 0 -35 0 0 -280z"/>
<path d="M2160 708 c-69 -35 -95 -90 -95 -198 0 -108 26 -163 95 -197 79 -41
202 -21 244 38 22 31 20 38 -10 49 -22 9 -29 6 -50 -19 -48 -57 -155 -47 -188
18 -9 16 -16 46 -16 66 l0 35 151 0 151 0 -6 48 c-4 26 -17 67 -29 92 -27 55
-88 90 -157 90 -28 0 -63 -9 -90 -22z m167 -60 c13 -13 26 -41 30 -61 l6 -37
-112 0 c-105 0 -111 1 -111 20 0 33 28 78 58 95 37 21 99 13 129 -17z"/>
<path d="M2700 425 l0 -295 35 0 35 0 0 112 0 111 23 -20 c36 -33 63 -43 114
-43 98 0 144 59 151 195 5 96 -9 155 -47 197 -26 29 -35 33 -98 36 -67 4 -72
3 -106 -28 l-37 -32 0 31 c0 29 -3 31 -35 31 l-35 0 0 -295z m250 217 c53 -53
53 -221 -1 -274 -47 -48 -133 -30 -159 33 -19 46 -17 166 4 210 30 64 107 80
156 31z"/>
</g>
</svg>
