<svg id="svg" version="1.1" xmlns="http://www.w3.org/2000/svg" xmlns:xlink="http://www.w3.org/1999/xlink" width="400" height="400" viewBox="0, 0, 400,400"><g id="svgg"><path id="path0" d="M123.667 5.875 C 122.243 6.018,121.582 6.397,119.967 7.995 L 118.000 9.941 118.000 54.571 L 118.000 99.200 115.400 99.200 L 112.800 99.200 112.800 76.405 C 112.800 52.726,112.699 51.273,111.129 52.244 C 110.948 52.356,110.800 52.194,110.800 51.886 C 110.800 49.872,110.206 49.800,93.655 49.800 L 78.193 49.800 76.497 51.548 L 74.800 53.296 74.800 76.248 L 74.800 99.200 64.000 99.200 C 57.323 99.200,53.200 99.347,53.200 99.586 C 53.200 99.826,47.422 100.016,37.985 100.086 C 24.976 100.184,22.717 100.287,22.400 100.800 C 22.196 101.130,21.876 101.400,21.688 101.400 C 21.063 101.400,18.009 102.995,18.005 103.324 C 18.002 103.502,17.820 103.536,17.600 103.400 C 17.380 103.264,17.200 103.343,17.200 103.576 C 17.200 103.809,16.924 104.000,16.587 104.000 C 16.251 104.000,15.871 104.270,15.745 104.600 C 15.618 104.930,15.295 105.200,15.027 105.200 C 14.321 105.200,12.738 106.999,13.096 107.394 C 13.263 107.578,13.195 107.611,12.945 107.469 C 12.379 107.145,11.438 108.214,11.789 108.782 C 11.931 109.012,11.770 109.200,11.431 109.200 C 11.092 109.200,10.703 109.649,10.565 110.197 C 10.427 110.746,10.159 111.098,9.969 110.981 C 9.779 110.863,9.509 111.225,9.368 111.784 C 9.228 112.343,8.967 112.800,8.788 112.800 C 8.610 112.800,8.345 113.340,8.200 114.000 C 8.055 114.660,7.785 115.200,7.600 115.200 C 7.415 115.200,7.145 115.740,7.000 116.400 C 6.855 117.060,6.571 117.600,6.368 117.600 C 6.145 117.600,6.000 157.423,6.000 218.800 C 6.000 280.177,6.145 320.000,6.368 320.000 C 6.571 320.000,6.855 320.540,7.000 321.200 C 7.145 321.860,7.415 322.400,7.600 322.400 C 7.785 322.400,8.052 322.925,8.193 323.567 C 8.334 324.208,8.708 324.833,9.024 324.954 C 9.341 325.076,9.600 325.451,9.600 325.787 C 9.600 326.124,9.780 326.400,10.000 326.400 C 10.220 326.400,10.400 326.673,10.400 327.007 C 10.400 327.774,15.389 332.800,16.150 332.800 C 16.460 332.800,16.818 333.070,16.945 333.400 C 17.071 333.730,17.451 334.000,17.787 334.000 C 18.124 334.000,18.400 334.201,18.400 334.447 C 18.400 334.696,18.753 334.801,19.201 334.684 C 19.641 334.569,19.900 334.638,19.777 334.837 C 19.654 335.037,19.833 335.200,20.176 335.200 C 20.519 335.200,20.800 335.380,20.800 335.600 C 20.800 335.820,20.997 336.000,21.237 336.000 C 21.477 336.000,22.131 336.360,22.691 336.800 C 23.699 337.593,24.323 337.600,90.754 337.613 C 149.072 337.624,157.901 337.702,158.576 338.213 C 159.004 338.536,159.150 338.800,158.901 338.800 C 158.652 338.800,158.328 339.610,158.179 340.600 C 158.031 341.590,157.735 342.400,157.523 342.400 C 157.301 342.400,157.246 342.954,157.392 343.700 C 157.583 344.667,157.541 344.846,157.230 344.400 C 156.895 343.919,156.811 344.018,156.806 344.900 C 156.803 345.505,156.636 346.000,156.435 346.000 C 156.234 346.000,155.949 346.719,155.800 347.598 C 155.652 348.477,155.382 349.288,155.200 349.400 C 155.018 349.512,154.748 350.322,154.600 351.200 C 154.452 352.078,154.186 352.885,154.011 352.993 C 153.835 353.102,153.574 353.816,153.430 354.579 C 153.287 355.342,152.908 356.469,152.588 357.083 C 152.267 357.697,152.004 358.479,152.002 358.820 C 152.001 359.161,151.775 359.925,151.500 360.517 L 151.000 361.594 143.300 361.597 C 139.065 361.599,135.600 361.754,135.600 361.943 C 135.600 362.131,133.742 362.380,131.471 362.496 C 126.990 362.725,125.200 363.595,125.200 365.546 C 125.200 366.016,125.020 366.400,124.800 366.400 C 124.549 366.400,124.400 369.000,124.400 373.400 L 124.400 380.400 92.000 380.400 C 67.581 380.400,59.600 380.515,59.600 380.867 C 59.600 381.123,59.495 381.228,59.367 381.100 C 59.108 380.842,58.267 381.612,56.900 383.358 C 55.773 384.797,55.549 390.252,56.600 390.655 C 56.930 390.782,57.200 391.103,57.200 391.368 C 57.200 391.633,57.705 392.334,58.322 392.925 L 59.444 394.000 199.753 394.000 L 340.063 394.000 341.932 392.132 L 343.800 390.263 343.800 387.422 C 343.800 385.782,343.594 384.331,343.314 383.990 C 343.047 383.666,342.263 382.725,341.572 381.900 L 340.317 380.400 307.959 380.400 L 275.600 380.400 275.600 374.233 C 275.600 370.842,275.440 368.007,275.245 367.933 C 275.050 367.860,274.779 366.990,274.643 366.000 C 274.507 365.010,274.214 364.139,273.991 364.064 C 273.768 363.990,273.332 363.675,273.021 363.364 C 272.338 362.680,271.841 362.620,272.243 363.269 C 272.402 363.527,272.103 363.437,271.577 363.069 C 270.871 362.574,269.759 362.400,267.311 362.400 C 265.392 362.400,264.000 362.233,264.000 362.004 C 264.000 361.756,261.212 361.612,256.556 361.620 C 248.229 361.634,248.299 361.657,247.789 358.702 C 247.647 357.878,247.382 357.112,247.200 357.000 C 247.018 356.888,246.748 356.077,246.600 355.198 C 246.451 354.319,246.186 353.600,246.010 353.600 C 245.835 353.600,245.569 352.790,245.421 351.800 C 245.272 350.810,244.993 350.000,244.800 350.000 C 244.607 350.000,244.328 349.190,244.179 348.200 C 244.031 347.210,243.761 346.400,243.579 346.400 C 243.398 346.400,243.128 345.590,242.979 344.600 C 242.831 343.610,242.570 342.800,242.399 342.800 C 242.229 342.800,241.962 342.125,241.808 341.301 C 241.653 340.476,241.318 339.672,241.063 339.512 C 240.721 339.298,240.716 339.037,241.044 338.511 C 241.465 337.835,244.844 337.790,308.958 337.600 C 359.881 337.449,376.500 337.285,376.719 336.932 C 376.878 336.674,377.501 336.340,378.104 336.188 C 378.707 336.037,379.200 335.767,379.200 335.588 C 379.200 335.410,379.732 335.147,380.382 335.004 C 381.032 334.861,381.671 334.406,381.802 333.993 C 381.945 333.543,382.274 333.330,382.620 333.463 C 382.939 333.586,383.200 333.498,383.200 333.270 C 383.200 333.041,383.536 332.747,383.947 332.617 C 385.023 332.275,388.400 328.988,388.400 328.282 C 388.400 327.954,388.670 327.582,389.000 327.455 C 389.330 327.329,389.600 326.949,389.600 326.613 C 389.600 326.276,389.777 326.000,389.992 326.000 C 390.208 326.000,390.498 325.550,390.636 325.000 C 390.774 324.450,391.002 323.996,391.143 323.992 C 391.285 323.987,391.850 323.001,392.400 321.800 C 392.950 320.599,393.535 319.613,393.700 319.608 C 394.144 319.596,394.076 117.600,393.632 117.600 C 393.429 117.600,393.145 117.060,393.000 116.400 C 392.855 115.740,392.574 115.200,392.376 115.200 C 392.178 115.200,391.902 114.750,391.764 114.200 C 391.626 113.650,391.392 113.200,391.244 113.200 C 391.096 113.200,390.762 112.705,390.502 112.100 C 389.641 110.099,387.553 107.600,386.742 107.600 C 386.554 107.600,386.445 107.453,386.500 107.274 C 386.610 106.915,384.618 104.886,383.385 104.101 C 382.044 103.248,377.745 101.200,377.295 101.200 C 377.059 101.200,376.801 101.003,376.720 100.761 C 376.633 100.499,374.855 100.235,372.287 100.104 C 369.929 99.984,368.000 99.731,368.000 99.543 C 368.000 99.354,366.734 99.200,365.186 99.200 C 362.562 99.200,362.399 99.150,362.772 98.453 C 362.992 98.042,363.073 97.606,362.952 97.485 C 362.831 97.364,363.107 97.064,363.566 96.818 C 364.025 96.573,364.400 96.191,364.400 95.969 C 364.400 95.747,364.583 95.349,364.807 95.083 C 366.434 93.155,366.800 92.613,366.800 92.139 C 366.800 91.842,366.937 91.600,367.105 91.600 C 367.439 91.600,367.732 91.101,369.129 88.158 C 369.640 87.081,370.410 85.480,370.841 84.600 C 371.272 83.720,371.681 82.398,371.751 81.661 C 371.821 80.925,372.068 80.205,372.300 80.061 C 372.532 79.918,372.850 78.945,373.006 77.900 C 373.163 76.855,373.453 76.000,373.652 76.000 C 373.850 76.000,374.008 75.505,374.001 74.900 C 373.978 72.629,374.509 68.800,374.848 68.800 C 375.042 68.800,375.200 65.920,375.200 62.400 C 375.200 58.880,375.043 56.000,374.852 56.000 C 374.660 56.000,374.376 54.380,374.222 52.400 C 374.067 50.420,373.797 48.800,373.622 48.800 C 373.446 48.800,373.184 47.900,373.038 46.800 C 372.892 45.700,372.614 44.800,372.421 44.800 C 372.228 44.800,371.947 44.035,371.797 43.100 C 371.646 42.165,371.299 41.040,371.025 40.600 C 370.751 40.160,370.394 39.262,370.232 38.604 C 370.069 37.946,369.816 37.316,369.668 37.204 C 369.520 37.092,368.982 36.145,368.472 35.100 C 367.961 34.055,367.396 33.200,367.215 33.200 C 367.035 33.200,366.774 32.750,366.636 32.200 C 366.498 31.650,366.108 31.200,365.769 31.200 C 365.430 31.200,365.273 31.006,365.419 30.769 C 365.565 30.533,365.351 30.015,364.943 29.618 C 364.534 29.222,363.841 28.402,363.403 27.795 C 362.234 26.176,358.446 22.400,357.992 22.400 C 357.776 22.400,357.600 22.160,357.600 21.868 C 357.600 21.575,357.170 21.105,356.644 20.824 C 356.118 20.542,355.481 19.925,355.228 19.453 C 354.975 18.981,354.101 18.147,353.284 17.601 C 352.468 17.054,351.656 16.381,351.480 16.104 C 351.304 15.827,350.982 15.600,350.763 15.600 C 350.545 15.600,349.969 15.219,349.483 14.753 C 348.579 13.885,346.038 12.592,345.500 12.726 C 345.335 12.767,345.200 12.634,345.200 12.432 C 345.200 12.229,344.660 11.945,344.000 11.800 C 343.340 11.655,342.800 11.385,342.800 11.200 C 342.800 11.015,342.260 10.745,341.600 10.600 C 340.940 10.455,340.400 10.191,340.400 10.013 C 340.400 9.835,339.770 9.571,339.000 9.426 C 338.230 9.282,337.600 9.003,337.600 8.806 C 337.600 8.610,336.745 8.323,335.700 8.169 C 334.655 8.015,333.702 7.737,333.581 7.552 C 333.461 7.367,331.751 7.108,329.781 6.978 C 327.812 6.847,326.140 6.573,326.067 6.370 C 325.891 5.883,311.309 5.883,311.133 6.370 C 311.060 6.573,309.388 6.847,307.419 6.978 C 305.449 7.108,303.716 7.412,303.568 7.652 C 303.420 7.892,302.515 8.147,301.558 8.218 C 300.601 8.289,299.755 8.534,299.680 8.761 C 299.604 8.989,298.925 9.290,298.171 9.432 C 297.417 9.573,296.800 9.835,296.800 10.013 C 296.800 10.191,296.260 10.455,295.600 10.600 C 294.940 10.745,294.400 11.015,294.400 11.200 C 294.400 11.385,293.905 11.654,293.300 11.797 C 291.631 12.193,288.187 14.202,288.295 14.717 C 288.349 14.972,288.125 15.069,287.785 14.939 C 287.429 14.802,286.796 15.119,286.253 15.705 C 285.744 16.254,284.934 16.914,284.453 17.172 C 283.971 17.429,283.686 17.816,283.819 18.030 C 283.951 18.244,283.911 18.394,283.730 18.363 C 283.027 18.240,282.278 18.412,282.509 18.642 C 282.849 18.982,279.923 21.637,278.682 22.113 C 278.307 22.257,278.000 22.571,278.000 22.810 C 278.000 23.049,277.077 24.180,275.948 25.323 C 274.820 26.465,273.609 27.850,273.258 28.400 C 272.907 28.950,272.390 29.544,272.110 29.720 C 271.829 29.896,271.600 30.301,271.600 30.620 C 271.600 30.939,271.423 31.200,271.208 31.200 C 270.992 31.200,270.706 31.637,270.572 32.171 C 270.437 32.705,270.074 33.239,269.764 33.359 C 269.454 33.478,269.200 33.851,269.200 34.187 C 269.200 34.524,269.034 34.800,268.832 34.800 C 268.629 34.800,268.345 35.340,268.200 36.000 C 268.055 36.660,267.779 37.200,267.586 37.200 C 267.394 37.200,267.118 37.832,266.973 38.604 C 266.828 39.377,266.547 40.109,266.348 40.232 C 266.149 40.355,266.091 40.623,266.217 40.828 C 266.344 41.032,266.236 41.200,265.978 41.200 C 265.686 41.200,265.575 41.646,265.682 42.379 C 265.777 43.027,265.708 43.467,265.528 43.355 C 265.347 43.244,265.200 43.523,265.200 43.976 C 265.200 44.429,265.026 44.800,264.814 44.800 C 264.601 44.800,264.308 45.700,264.162 46.800 C 264.016 47.900,263.754 48.800,263.578 48.800 C 263.403 48.800,263.133 50.420,262.978 52.400 C 262.824 54.380,262.540 56.000,262.348 56.000 C 262.157 56.000,262.000 58.880,262.000 62.400 C 262.000 65.920,262.157 68.800,262.348 68.800 C 262.540 68.800,262.824 70.420,262.978 72.400 C 263.133 74.380,263.427 76.000,263.630 76.000 C 263.834 76.000,264.000 76.461,264.000 77.024 C 264.000 77.587,264.147 77.956,264.328 77.845 C 264.508 77.733,264.577 78.173,264.482 78.821 C 264.384 79.489,264.492 80.000,264.730 80.000 C 264.962 80.000,265.272 80.810,265.421 81.800 C 265.569 82.790,265.850 83.600,266.045 83.600 C 266.240 83.600,266.369 83.735,266.330 83.900 C 266.292 84.065,266.497 84.740,266.786 85.400 C 267.076 86.060,267.566 87.185,267.875 87.900 C 268.184 88.615,268.595 89.200,268.787 89.200 C 268.979 89.200,269.255 89.742,269.401 90.403 C 269.546 91.065,269.830 91.505,270.033 91.380 C 270.235 91.255,270.400 91.441,270.400 91.793 C 270.400 92.323,271.650 94.452,272.401 95.200 C 272.511 95.310,272.853 95.889,273.161 96.486 C 273.469 97.084,273.901 97.461,274.122 97.325 C 274.343 97.188,274.404 97.270,274.258 97.506 C 274.112 97.742,274.277 98.220,274.625 98.568 C 275.201 99.144,271.947 99.200,237.829 99.200 L 200.400 99.200 200.400 66.872 L 200.400 34.544 199.264 33.272 C 198.640 32.572,197.935 32.000,197.698 32.000 C 197.461 32.000,197.192 31.775,197.100 31.500 C 196.921 30.961,170.228 30.504,166.983 30.985 C 165.245 31.242,163.003 32.958,163.453 33.686 C 163.624 33.962,163.537 34.008,163.217 33.811 C 162.108 33.125,162.012 35.738,162.006 66.900 L 162.000 99.200 159.400 99.200 L 156.800 99.200 156.800 54.380 L 156.800 9.560 155.460 8.180 C 154.722 7.421,153.927 6.800,153.693 6.800 C 153.458 6.800,153.192 6.575,153.100 6.300 C 152.935 5.803,127.975 5.443,123.667 5.875 M118.700 77.269 C 118.641 89.661,118.593 79.640,118.593 55.000 C 118.593 30.360,118.641 20.221,118.700 32.469 C 118.759 44.717,118.759 64.877,118.700 77.269 M143.200 90.600 L 143.200 162.000 137.400 162.000 L 131.600 162.000 131.600 90.600 L 131.600 19.200 137.400 19.200 L 143.200 19.200 143.200 90.600 M312.000 39.754 L 312.000 59.107 305.005 66.054 C 300.838 70.192,297.995 73.323,297.973 73.800 C 297.953 74.240,297.845 74.372,297.733 74.093 C 297.497 73.507,288.007 82.704,288.003 83.524 C 288.001 83.812,287.819 83.935,287.597 83.798 C 287.376 83.661,287.093 83.814,286.968 84.139 C 286.844 84.463,286.289 84.842,285.735 84.981 C 285.049 85.153,284.801 85.426,284.959 85.838 C 285.091 86.180,285.020 86.336,284.795 86.197 C 284.578 86.063,284.400 86.127,284.400 86.341 C 284.400 86.555,284.085 86.669,283.700 86.595 C 283.315 86.522,282.861 86.447,282.690 86.431 C 282.351 86.397,281.432 84.382,281.535 83.900 C 281.571 83.735,281.434 83.600,281.232 83.600 C 281.029 83.600,280.745 83.060,280.600 82.400 C 280.455 81.740,280.179 81.200,279.986 81.200 C 279.794 81.200,279.518 80.570,279.374 79.800 C 279.229 79.030,278.953 78.400,278.760 78.400 C 278.567 78.400,278.294 77.680,278.154 76.800 C 278.013 75.920,277.752 75.200,277.573 75.200 C 277.395 75.200,277.123 74.345,276.969 73.300 C 276.815 72.255,276.490 71.272,276.248 71.117 C 275.665 70.743,275.688 54.447,276.271 54.065 C 276.494 53.919,276.797 52.900,276.944 51.800 C 277.091 50.700,277.383 49.742,277.593 49.671 C 277.803 49.600,278.096 48.880,278.245 48.071 C 278.394 47.262,278.624 46.510,278.758 46.400 C 278.891 46.290,279.810 44.581,280.800 42.602 C 281.790 40.623,282.852 38.805,283.161 38.563 C 283.470 38.320,283.594 37.914,283.438 37.661 C 283.268 37.387,283.411 37.200,283.789 37.200 C 284.139 37.200,284.546 36.885,284.694 36.500 C 284.841 36.115,285.827 34.900,286.883 33.800 C 287.940 32.700,288.716 31.566,288.607 31.279 C 288.492 30.977,288.592 30.871,288.843 31.026 C 289.081 31.174,289.760 30.765,290.351 30.118 C 291.476 28.886,296.187 25.600,296.828 25.600 C 297.033 25.600,297.200 25.434,297.200 25.232 C 297.200 25.029,297.725 24.748,298.367 24.607 C 299.008 24.466,299.617 24.133,299.719 23.867 C 299.821 23.600,300.411 23.340,301.030 23.289 C 301.649 23.238,302.255 23.041,302.378 22.852 C 302.500 22.663,303.050 22.382,303.600 22.229 C 304.150 22.075,304.960 21.787,305.400 21.589 C 306.793 20.961,308.949 20.473,310.500 20.436 L 312.000 20.400 312.000 39.754 M331.442 21.395 C 331.904 21.696,332.939 22.065,333.742 22.215 C 334.544 22.366,335.200 22.629,335.200 22.801 C 335.200 22.973,335.693 23.237,336.296 23.388 C 336.899 23.540,337.492 23.825,337.613 24.022 C 337.735 24.219,338.267 24.446,338.796 24.527 C 339.325 24.607,339.827 24.882,339.912 25.137 C 339.997 25.391,340.239 25.600,340.450 25.600 C 340.951 25.600,343.310 27.259,343.720 27.900 C 343.896 28.175,344.299 28.400,344.615 28.400 C 344.931 28.400,346.047 29.322,347.095 30.448 C 348.143 31.575,349.855 33.351,350.900 34.395 C 351.945 35.439,352.800 36.478,352.800 36.704 C 352.800 36.930,353.070 37.218,353.400 37.345 C 353.730 37.471,354.000 37.851,354.000 38.187 C 354.000 38.524,354.162 38.800,354.361 38.800 C 354.559 38.800,354.910 39.340,355.140 40.000 C 355.370 40.660,355.733 41.200,355.947 41.200 C 356.161 41.200,356.455 41.740,356.600 42.400 C 356.745 43.060,357.009 43.600,357.187 43.600 C 357.365 43.600,357.629 44.230,357.774 45.000 C 357.918 45.770,358.185 46.400,358.367 46.400 C 358.549 46.400,358.813 47.120,358.954 48.000 C 359.094 48.880,359.367 49.600,359.560 49.600 C 359.753 49.600,360.037 50.275,360.191 51.100 C 360.345 51.925,360.660 52.828,360.891 53.108 C 361.687 54.071,360.107 55.200,357.962 55.200 C 356.909 55.200,355.936 55.380,355.800 55.600 C 355.642 55.855,350.063 56.000,340.376 56.000 L 325.200 56.000 325.200 38.976 C 325.200 27.729,325.336 22.037,325.600 22.200 C 325.820 22.336,326.000 22.107,326.000 21.690 C 326.000 20.221,329.355 20.039,331.442 21.395 M187.200 103.200 L 187.200 162.000 181.400 162.000 L 175.600 162.000 175.600 103.200 L 175.600 44.400 181.400 44.400 L 187.200 44.400 187.200 103.200 M99.200 112.400 L 99.200 162.000 93.600 162.000 L 88.000 162.000 88.000 112.400 L 88.000 62.800 93.600 62.800 L 99.200 62.800 99.200 112.400 M360.000 69.600 C 360.000 69.820,360.270 70.000,360.600 70.000 C 361.240 70.000,361.441 71.043,360.844 71.267 C 360.649 71.340,360.398 72.204,360.287 73.186 C 360.176 74.168,359.886 75.038,359.643 75.119 C 359.399 75.200,359.199 75.657,359.197 76.133 C 359.196 76.610,358.837 77.540,358.400 78.200 C 357.963 78.860,357.604 79.790,357.603 80.267 C 357.601 80.743,357.425 81.193,357.212 81.267 C 356.998 81.340,356.760 81.820,356.682 82.333 C 356.604 82.846,356.306 83.411,356.019 83.588 C 355.732 83.765,355.621 84.111,355.772 84.355 C 355.924 84.600,355.857 84.800,355.624 84.800 C 355.391 84.800,355.200 85.030,355.200 85.311 C 355.200 85.592,354.885 86.104,354.500 86.449 C 353.635 87.223,352.600 88.713,352.600 89.183 C 352.600 89.376,352.436 89.683,352.236 89.867 C 352.024 90.060,351.992 89.990,352.159 89.700 C 352.766 88.645,351.978 89.301,349.338 92.047 C 347.832 93.612,346.649 95.066,346.710 95.276 C 346.770 95.487,346.640 95.548,346.421 95.413 C 346.201 95.277,345.707 95.534,345.322 95.983 C 344.937 96.432,344.458 96.800,344.257 96.800 C 344.056 96.800,343.439 97.288,342.887 97.884 C 342.334 98.481,341.534 99.022,341.110 99.087 C 340.686 99.151,340.089 99.428,339.783 99.702 C 338.405 100.938,337.999 101.184,336.934 101.426 C 336.310 101.569,335.006 102.056,334.036 102.509 C 333.066 102.963,332.031 103.333,331.736 103.333 C 331.441 103.333,331.200 103.466,331.200 103.627 C 331.200 103.789,330.075 104.051,328.700 104.209 C 327.325 104.367,326.102 104.650,325.982 104.838 C 325.681 105.313,312.468 105.351,311.877 104.879 C 311.615 104.669,310.185 104.371,308.700 104.217 C 307.215 104.063,306.000 103.787,306.000 103.604 C 306.000 103.421,305.685 103.319,305.300 103.379 C 304.915 103.438,304.510 103.366,304.400 103.218 C 304.290 103.070,303.030 102.523,301.600 102.001 C 300.170 101.479,298.856 100.816,298.680 100.526 C 298.504 100.237,298.099 100.000,297.780 100.000 C 297.461 100.000,297.200 99.820,297.200 99.600 C 297.200 99.380,296.924 99.200,296.587 99.200 C 296.251 99.200,295.871 98.930,295.745 98.600 C 295.618 98.270,295.309 97.997,295.057 97.994 C 293.089 97.968,294.049 96.832,307.479 83.309 L 321.400 69.292 340.700 69.246 C 353.331 69.216,360.000 69.338,360.000 69.600 M74.800 137.347 L 74.800 162.000 72.000 162.000 L 69.200 162.000 69.200 142.089 L 69.200 122.178 68.077 120.949 C 65.494 118.121,66.036 118.214,51.318 118.067 C 43.501 117.989,38.000 118.085,38.000 118.298 C 38.000 118.498,37.445 118.580,36.767 118.481 C 35.319 118.268,33.899 118.901,32.100 120.559 L 30.800 121.757 30.800 146.732 L 30.800 171.707 32.777 173.653 L 34.755 175.600 137.358 175.600 L 239.962 175.600 241.987 173.575 L 244.011 171.551 243.994 146.743 L 243.977 121.936 242.688 120.659 C 240.174 118.166,240.422 118.200,225.040 118.200 C 210.152 118.200,208.713 118.361,208.265 120.073 C 208.149 120.517,207.876 120.771,207.659 120.637 C 206.093 119.669,206.000 120.861,206.000 141.829 L 206.000 162.000 203.200 162.000 L 200.400 162.000 200.400 137.395 L 200.400 112.790 246.867 112.895 C 283.641 112.978,293.368 113.104,293.500 113.501 C 293.592 113.776,294.372 114.114,295.234 114.252 C 296.095 114.390,296.800 114.651,296.800 114.833 C 296.800 115.015,297.430 115.282,298.200 115.426 C 298.970 115.571,299.600 115.838,299.600 116.020 C 299.600 116.202,300.455 116.475,301.500 116.626 C 302.545 116.777,303.580 117.039,303.800 117.209 C 304.319 117.609,309.486 118.400,311.577 118.400 C 312.469 118.400,313.200 118.580,313.200 118.800 C 313.200 119.047,315.267 119.200,318.600 119.200 C 321.933 119.200,324.000 119.047,324.000 118.800 C 324.000 118.580,324.731 118.400,325.623 118.400 C 327.714 118.400,332.881 117.609,333.400 117.209 C 333.620 117.039,334.655 116.777,335.700 116.626 C 336.745 116.475,337.600 116.202,337.600 116.020 C 337.600 115.838,338.230 115.571,339.000 115.426 C 339.770 115.282,340.400 115.015,340.400 114.833 C 340.400 114.651,341.160 114.381,342.088 114.232 C 343.016 114.084,343.910 113.746,344.074 113.481 C 344.474 112.833,370.704 112.807,371.121 113.453 C 371.275 113.691,372.075 114.009,372.900 114.160 C 373.725 114.312,374.400 114.605,374.400 114.811 C 374.400 115.016,374.827 115.292,375.350 115.423 C 375.872 115.554,376.503 116.108,376.752 116.653 C 377.020 117.243,377.390 117.530,377.664 117.361 C 377.918 117.203,378.016 117.251,377.882 117.467 C 377.750 117.682,377.992 118.158,378.420 118.525 C 378.849 118.892,379.200 119.445,379.200 119.753 C 379.200 120.062,379.470 120.418,379.800 120.545 C 380.316 120.743,380.400 122.587,380.400 133.764 C 380.400 141.992,380.547 146.843,380.800 147.000 C 381.062 147.162,381.167 156.200,381.104 173.124 L 381.009 199.000 380.800 173.000 C 380.666 156.279,380.557 171.946,380.496 216.900 L 380.400 286.800 199.741 286.800 L 19.082 286.800 19.296 205.300 L 19.510 123.800 20.397 121.077 C 21.586 117.429,24.307 114.583,26.994 114.180 C 27.987 114.031,28.800 113.762,28.800 113.581 C 28.800 113.045,30.053 113.007,52.900 112.847 L 74.800 112.693 74.800 137.347 M118.000 137.400 L 118.000 162.000 115.400 162.000 L 112.800 162.000 112.800 137.400 L 112.800 112.800 115.400 112.800 L 118.000 112.800 118.000 137.400 M118.700 149.929 C 118.638 156.678,118.588 151.040,118.588 137.400 C 118.588 123.760,118.638 118.238,118.700 125.129 C 118.761 132.020,118.761 143.180,118.700 149.929 M162.000 137.400 L 162.000 162.000 159.400 162.000 L 156.800 162.000 156.800 137.400 L 156.800 112.800 159.400 112.800 L 162.000 112.800 162.000 137.400 M290.000 124.711 C 290.000 124.882,289.460 125.613,288.800 126.336 C 288.140 127.058,287.600 127.557,287.600 127.445 C 287.600 127.333,286.473 128.357,285.095 129.721 C 283.623 131.176,282.756 132.321,282.995 132.494 C 283.244 132.675,283.195 132.790,282.866 132.794 C 282.096 132.803,279.593 135.266,279.881 135.731 C 280.016 135.950,279.919 135.997,279.662 135.838 C 279.408 135.681,279.200 135.754,279.200 136.000 C 279.200 136.246,278.989 136.317,278.732 136.158 C 278.415 135.962,278.349 136.089,278.527 136.555 C 278.672 136.933,278.628 137.141,278.429 137.018 C 277.957 136.726,275.526 139.157,275.818 139.629 C 275.941 139.828,275.733 139.872,275.355 139.727 C 274.889 139.549,274.762 139.615,274.958 139.932 C 275.117 140.189,275.046 140.400,274.800 140.400 C 274.554 140.400,274.481 140.608,274.638 140.862 C 274.797 141.119,274.750 141.216,274.531 141.081 C 274.316 140.948,273.553 141.460,272.837 142.219 C 272.121 142.979,271.350 143.600,271.125 143.600 C 270.899 143.600,270.822 143.879,270.953 144.221 C 271.084 144.562,271.024 144.739,270.820 144.613 C 270.449 144.383,266.697 147.994,265.068 150.148 C 264.591 150.780,263.885 151.585,263.500 151.937 C 263.115 152.290,262.800 152.808,262.800 153.089 C 262.800 153.370,262.620 153.600,262.400 153.600 C 262.174 153.600,262.000 154.733,262.000 156.200 C 262.000 157.633,262.176 158.800,262.392 158.800 C 262.608 158.800,262.898 159.252,263.037 159.803 C 263.186 160.400,263.664 160.901,264.215 161.040 C 264.725 161.168,265.239 161.526,265.359 161.836 C 265.478 162.146,265.930 162.400,266.364 162.400 C 266.798 162.400,267.264 162.580,267.400 162.800 C 267.830 163.496,270.400 163.288,270.400 162.557 C 270.400 162.143,270.619 161.998,271.015 162.150 C 271.365 162.285,271.728 162.131,271.858 161.793 C 271.983 161.467,272.296 161.200,272.554 161.200 C 272.811 161.200,273.309 160.885,273.660 160.500 C 274.011 160.115,275.241 158.990,276.395 158.000 C 279.558 155.284,284.602 150.240,284.495 149.900 C 284.443 149.735,284.593 149.600,284.828 149.600 C 285.063 149.600,287.862 146.990,291.047 143.800 L 296.839 138.000 324.666 138.000 L 352.494 138.000 353.947 136.429 C 354.746 135.565,355.625 134.582,355.900 134.246 C 356.498 133.513,356.586 128.400,356.000 128.400 C 355.780 128.400,355.600 128.175,355.599 127.900 C 355.599 127.625,354.881 126.725,354.004 125.900 L 352.410 124.400 321.205 124.400 C 304.042 124.400,290.000 124.540,290.000 124.711 M56.000 146.800 L 56.000 162.000 50.200 162.000 L 44.400 162.000 44.400 146.800 L 44.400 131.600 50.200 131.600 L 56.000 131.600 56.000 146.800 M230.400 146.800 L 230.400 162.000 224.800 162.000 L 219.200 162.000 219.200 146.800 L 219.200 131.600 224.800 131.600 L 230.400 131.600 230.400 146.800 M33.458 181.781 C 32.876 182.320,32.400 182.877,32.400 183.018 C 32.400 183.159,32.040 183.731,31.600 184.291 C 31.032 185.013,30.800 185.914,30.800 187.400 C 30.800 188.886,31.032 189.787,31.600 190.509 C 32.040 191.069,32.400 191.641,32.400 191.782 C 32.400 191.923,32.876 192.480,33.458 193.019 L 34.517 194.000 71.758 193.994 C 107.670 193.988,110.479 193.899,109.789 192.783 C 109.585 192.452,109.637 192.376,109.942 192.564 C 110.221 192.737,110.555 192.483,110.778 191.926 C 110.987 191.405,111.163 191.263,111.181 191.600 C 111.235 192.633,111.986 191.167,112.000 190.000 C 112.010 189.207,112.092 189.124,112.400 189.600 C 112.672 190.020,112.790 189.391,112.794 187.500 C 112.797 185.963,112.628 184.800,112.400 184.800 C 112.180 184.800,112.000 184.570,112.000 184.289 C 112.000 184.008,111.685 183.494,111.300 183.146 C 110.915 182.799,110.287 182.129,109.904 181.657 L 109.208 180.800 71.862 180.800 L 34.517 180.800 33.458 181.781 M122.444 181.069 C 121.480 181.477,120.400 182.557,120.400 183.113 C 120.400 183.407,120.228 183.541,120.018 183.411 C 119.524 183.106,118.553 184.644,118.215 186.267 C 117.786 188.325,118.615 190.500,120.487 192.233 L 122.180 193.800 127.403 193.885 C 132.756 193.973,134.557 193.778,134.172 193.155 C 134.051 192.960,134.132 192.800,134.352 192.800 C 135.066 192.800,137.302 190.489,137.024 190.038 C 136.871 189.792,137.027 189.600,137.380 189.600 C 139.151 189.600,137.869 185.069,135.400 182.600 L 133.800 181.000 128.400 180.917 C 125.430 180.871,122.750 180.939,122.444 181.069 M244.100 187.477 C 243.385 187.572,242.800 187.819,242.800 188.025 C 242.800 188.231,242.613 188.400,242.384 188.400 C 241.089 188.400,232.992 196.097,232.586 197.713 C 232.436 198.311,232.134 198.800,231.914 198.800 C 231.694 198.800,231.618 199.070,231.745 199.400 C 231.871 199.730,231.801 200.000,231.587 200.000 C 231.374 200.000,231.200 200.171,231.200 200.381 C 231.200 200.856,227.288 204.800,226.817 204.800 C 226.627 204.800,226.035 205.318,225.502 205.952 C 224.969 206.586,224.130 207.232,223.637 207.388 C 223.070 207.568,222.824 207.886,222.966 208.257 C 223.090 208.578,223.027 208.741,222.828 208.617 C 222.628 208.494,222.186 208.671,221.847 209.011 C 221.507 209.350,221.110 209.599,220.965 209.562 C 220.820 209.526,220.200 209.969,219.587 210.548 C 218.974 211.127,218.341 211.600,218.182 211.600 C 218.022 211.600,217.475 212.050,216.965 212.600 C 216.455 213.150,215.890 213.600,215.708 213.600 C 215.173 213.600,214.042 215.106,214.333 215.430 C 214.480 215.594,214.372 215.597,214.093 215.436 C 213.615 215.161,211.179 216.768,209.484 218.478 C 209.091 218.875,208.587 219.200,208.365 219.200 C 208.143 219.200,207.565 219.618,207.081 220.130 C 206.596 220.641,205.885 221.176,205.500 221.317 C 205.115 221.459,204.800 221.748,204.800 221.960 C 204.800 222.173,204.431 222.463,203.980 222.606 C 203.528 222.750,202.583 223.397,201.880 224.045 C 201.176 224.693,200.330 225.465,200.000 225.761 C 199.670 226.057,199.012 226.418,198.537 226.565 C 198.062 226.711,197.573 227.094,197.450 227.415 C 197.326 227.737,196.949 228.000,196.613 228.000 C 196.276 228.000,196.000 228.281,196.000 228.624 C 196.000 228.967,195.808 229.128,195.573 228.983 C 195.338 228.838,195.048 229.096,194.928 229.555 C 194.807 230.015,194.551 230.293,194.358 230.174 C 194.164 230.054,193.690 230.141,193.303 230.366 C 192.916 230.591,192.742 230.781,192.916 230.788 C 193.089 230.795,192.999 231.051,192.716 231.358 C 192.432 231.665,192.072 231.838,191.915 231.743 C 191.531 231.512,190.002 233.070,189.994 233.700 C 189.989 234.090,189.920 234.093,189.677 233.712 C 189.451 233.356,189.078 233.491,188.301 234.212 C 187.715 234.755,187.087 235.200,186.906 235.200 C 186.397 235.200,185.234 236.701,185.521 236.987 C 185.661 237.128,185.488 237.132,185.136 236.997 C 184.732 236.842,184.215 237.109,183.733 237.722 C 183.313 238.256,182.588 238.813,182.122 238.961 C 181.655 239.109,181.173 239.494,181.050 239.815 C 180.926 240.137,180.549 240.400,180.213 240.400 C 179.876 240.400,179.600 240.550,179.600 240.732 C 179.600 240.915,179.105 241.318,178.500 241.627 C 177.895 241.936,177.036 242.561,176.591 243.017 C 176.146 243.472,175.471 243.964,175.091 244.110 C 174.711 244.256,174.400 244.548,174.400 244.760 C 174.400 244.973,174.012 245.269,173.538 245.420 C 173.063 245.570,172.278 246.123,171.792 246.647 C 171.306 247.171,170.744 247.600,170.543 247.600 C 170.342 247.600,169.880 247.915,169.517 248.300 C 168.447 249.434,167.601 250.055,167.588 249.716 C 167.581 249.542,167.392 249.715,167.168 250.100 C 166.554 251.155,165.869 250.960,164.000 249.200 C 163.066 248.320,162.135 247.600,161.931 247.600 C 161.728 247.600,161.163 247.195,160.676 246.700 C 159.435 245.439,156.635 244.000,155.421 244.000 C 154.859 244.000,154.400 243.820,154.400 243.600 C 154.400 243.358,152.667 243.200,150.000 243.200 C 147.333 243.200,145.600 243.358,145.600 243.600 C 145.600 243.820,145.163 244.000,144.629 244.000 C 144.094 244.000,143.396 244.261,143.077 244.580 C 142.758 244.899,142.025 245.279,141.448 245.424 C 140.872 245.568,140.400 245.847,140.400 246.043 C 140.400 246.240,140.147 246.400,139.837 246.400 C 139.528 246.400,137.823 247.840,136.049 249.600 C 133.199 252.426,131.600 253.464,131.600 252.485 C 131.600 252.312,130.340 251.734,128.800 251.200 C 127.260 250.666,126.000 250.080,126.000 249.897 C 126.000 249.714,125.775 249.602,125.500 249.647 C 125.225 249.692,124.493 249.519,123.874 249.264 C 123.255 249.009,122.490 248.800,122.174 248.800 C 121.858 248.800,121.600 248.634,121.600 248.432 C 121.600 248.229,121.060 247.945,120.400 247.800 C 119.740 247.655,119.200 247.391,119.200 247.213 C 119.200 247.035,118.570 246.771,117.800 246.626 C 117.030 246.482,116.400 246.215,116.400 246.033 C 116.400 245.851,115.695 245.590,114.834 245.452 C 113.972 245.314,113.207 245.045,113.134 244.854 C 113.060 244.662,112.572 244.373,112.050 244.210 C 111.320 243.983,111.165 244.040,111.380 244.457 C 111.535 244.756,111.302 244.593,110.864 244.097 C 110.425 243.600,109.511 243.082,108.833 242.947 C 108.155 242.811,107.600 242.543,107.600 242.350 C 107.600 242.158,107.465 242.033,107.300 242.074 C 107.135 242.115,106.280 241.834,105.400 241.449 C 104.520 241.065,103.035 240.544,102.100 240.292 C 101.165 240.040,100.400 239.706,100.400 239.549 C 100.400 239.392,99.860 239.145,99.200 239.000 C 98.540 238.855,98.000 238.591,98.000 238.413 C 98.000 238.235,97.370 237.971,96.600 237.826 C 95.830 237.682,95.200 237.392,95.200 237.182 C 95.200 236.972,94.882 236.800,94.494 236.800 C 94.106 236.800,93.116 236.440,92.296 236.000 C 91.475 235.560,90.442 235.200,90.001 235.200 C 89.561 235.200,89.200 235.028,89.200 234.818 C 89.200 234.608,88.570 234.318,87.800 234.174 C 87.030 234.029,86.400 233.732,86.400 233.513 C 86.400 233.294,86.130 233.218,85.800 233.345 C 85.470 233.471,85.200 233.409,85.200 233.206 C 85.200 233.002,84.570 232.718,83.800 232.574 C 83.030 232.429,82.400 232.153,82.400 231.960 C 82.400 231.767,81.680 231.494,80.800 231.354 C 79.920 231.213,79.200 230.955,79.200 230.781 C 79.200 230.606,78.660 230.345,78.000 230.200 C 77.340 230.055,76.800 229.791,76.800 229.613 C 76.800 229.435,76.170 229.171,75.400 229.026 C 74.630 228.882,74.000 228.612,74.000 228.426 C 74.000 228.241,73.370 227.971,72.600 227.826 C 71.830 227.682,71.200 227.406,71.200 227.214 C 71.200 227.021,70.672 226.748,70.026 226.606 C 69.144 226.412,68.788 226.056,68.594 225.174 C 68.452 224.528,68.185 224.000,68.000 224.000 C 67.815 224.000,67.545 223.460,67.400 222.800 C 67.255 222.140,66.971 221.600,66.768 221.600 C 66.566 221.600,66.400 221.394,66.400 221.143 C 66.400 220.680,61.525 215.818,60.147 214.906 C 58.206 213.621,56.032 212.735,54.300 212.522 C 53.255 212.394,52.400 212.134,52.400 211.944 C 52.400 211.477,48.256 211.505,47.780 211.975 C 47.571 212.182,46.500 212.457,45.400 212.588 C 44.300 212.718,43.340 212.999,43.267 213.212 C 43.193 213.425,42.878 213.600,42.567 213.600 C 42.255 213.600,42.000 213.774,42.000 213.987 C 42.000 214.201,41.730 214.271,41.400 214.145 C 41.070 214.018,40.800 214.114,40.800 214.357 C 40.800 214.601,40.541 214.800,40.224 214.800 C 39.452 214.800,33.741 220.527,33.380 221.663 C 33.223 222.158,32.848 222.809,32.547 223.110 C 32.246 223.411,32.000 223.989,32.000 224.395 C 32.000 224.801,31.775 225.208,31.500 225.300 C 31.132 225.423,31.000 226.929,31.000 231.000 C 31.000 235.071,31.132 236.577,31.500 236.700 C 31.775 236.792,32.000 237.262,32.000 237.744 C 32.000 238.818,33.117 240.499,33.623 240.186 C 33.825 240.061,33.894 240.212,33.775 240.522 C 33.580 241.030,39.569 247.600,40.227 247.600 C 40.364 247.600,40.954 247.938,41.538 248.351 C 42.122 248.764,43.365 249.230,44.300 249.386 C 45.235 249.543,46.000 249.834,46.000 250.035 C 46.000 250.589,47.505 250.471,47.735 249.900 C 47.896 249.500,47.943 249.500,47.968 249.900 C 48.008 250.519,54.000 250.619,54.000 250.000 C 54.000 249.780,54.388 249.600,54.861 249.600 C 55.958 249.600,60.000 247.703,60.000 247.188 C 60.000 246.975,60.207 246.800,60.460 246.800 C 61.026 246.800,63.838 243.948,63.700 243.514 C 63.645 243.341,63.807 243.200,64.060 243.200 C 64.312 243.200,65.116 242.585,65.846 241.834 C 67.117 240.525,68.800 240.217,68.800 241.293 C 68.800 241.513,69.245 241.608,69.788 241.504 C 70.331 241.401,70.681 241.470,70.564 241.658 C 70.448 241.846,70.633 242.000,70.976 242.000 C 71.319 242.000,71.600 242.178,71.600 242.395 C 71.600 242.613,72.320 242.906,73.200 243.046 C 74.080 243.187,74.800 243.451,74.800 243.633 C 74.800 243.815,75.430 244.082,76.200 244.226 C 76.970 244.371,77.600 244.635,77.600 244.813 C 77.600 244.991,78.140 245.255,78.800 245.400 C 79.460 245.545,80.000 245.809,80.000 245.987 C 80.000 246.165,80.630 246.429,81.400 246.574 C 82.170 246.718,82.800 247.000,82.800 247.200 C 82.800 247.400,83.470 247.690,84.290 247.843 C 85.109 247.997,86.006 248.349,86.282 248.625 C 86.558 248.901,87.508 249.249,88.392 249.399 C 89.276 249.548,90.000 249.826,90.000 250.017 C 90.000 250.208,90.630 250.482,91.400 250.626 C 92.170 250.771,92.800 251.035,92.800 251.213 C 92.800 251.391,93.340 251.655,94.000 251.800 C 94.660 251.945,95.200 252.209,95.200 252.387 C 95.200 252.565,95.817 252.827,96.571 252.968 C 97.325 253.110,98.000 253.383,98.071 253.577 C 98.142 253.770,98.812 254.023,99.561 254.139 C 100.309 254.255,101.056 254.567,101.220 254.833 C 101.385 255.099,101.817 255.202,102.180 255.063 C 102.568 254.914,102.741 254.973,102.597 255.205 C 102.463 255.422,102.723 255.600,103.176 255.600 C 103.629 255.600,104.000 255.800,104.000 256.043 C 104.000 256.322,104.408 256.392,105.100 256.231 C 105.812 256.066,106.009 256.103,105.660 256.336 C 105.272 256.595,105.525 256.772,106.560 256.966 C 107.352 257.115,108.000 257.400,108.000 257.600 C 108.000 257.800,108.630 258.082,109.400 258.226 C 110.170 258.371,110.800 258.647,110.800 258.840 C 110.800 259.033,111.520 259.306,112.400 259.446 C 113.280 259.587,114.000 259.840,114.000 260.008 C 114.000 260.176,114.493 260.437,115.096 260.588 C 115.699 260.740,116.294 261.028,116.418 261.230 C 116.543 261.431,117.151 261.638,117.770 261.689 C 118.389 261.740,118.983 262.011,119.090 262.291 C 119.198 262.571,119.584 262.800,119.949 262.800 C 120.313 262.800,121.310 263.174,122.163 263.632 C 123.017 264.089,124.049 264.376,124.458 264.269 C 124.899 264.154,125.200 264.285,125.200 264.594 C 125.200 265.167,127.013 265.762,127.618 265.389 C 127.828 265.259,128.000 265.343,128.000 265.576 C 128.000 265.809,128.270 266.000,128.600 266.000 C 128.930 266.000,129.200 266.180,129.200 266.400 C 129.200 266.620,129.430 266.800,129.711 266.800 C 130.407 266.800,131.527 268.168,131.834 269.394 C 131.973 269.947,132.247 270.400,132.443 270.400 C 132.640 270.400,132.800 270.642,132.800 270.939 C 132.800 271.235,133.115 271.850,133.500 272.305 C 135.329 274.467,135.600 274.830,135.600 275.116 C 135.600 275.490,137.090 276.800,137.516 276.800 C 137.684 276.800,138.130 277.160,138.507 277.600 C 138.884 278.040,139.464 278.400,139.796 278.400 C 140.128 278.400,140.400 278.566,140.400 278.768 C 140.400 278.971,140.940 279.255,141.600 279.400 C 142.260 279.545,142.800 279.827,142.800 280.027 C 142.800 280.227,143.524 280.506,144.409 280.648 C 145.294 280.789,146.114 281.061,146.232 281.253 C 146.533 281.738,153.897 281.690,154.200 281.200 C 154.336 280.980,154.881 280.800,155.411 280.800 C 156.620 280.800,159.458 279.348,159.753 278.577 C 159.875 278.260,160.176 278.000,160.422 278.000 C 161.349 278.000,167.092 271.802,167.380 270.490 C 167.536 269.780,167.810 269.200,167.988 269.200 C 168.167 269.200,168.432 268.728,168.576 268.152 C 168.849 267.064,169.693 266.000,170.282 266.000 C 170.469 266.000,171.337 265.286,172.211 264.413 C 173.085 263.540,173.982 262.820,174.204 262.813 C 174.427 262.806,175.055 262.260,175.600 261.600 C 176.145 260.940,176.742 260.400,176.926 260.400 C 177.111 260.400,177.802 259.860,178.462 259.200 C 179.122 258.540,179.906 258.000,180.204 258.000 C 180.502 258.000,180.861 257.637,181.002 257.194 C 181.143 256.751,181.391 256.471,181.554 256.571 C 181.716 256.672,182.546 256.135,183.397 255.377 C 184.249 254.620,185.183 254.000,185.473 254.000 C 185.947 254.000,186.170 253.505,186.052 252.714 C 186.029 252.557,186.277 252.532,186.605 252.657 C 186.932 252.783,187.200 252.707,187.200 252.489 C 187.200 252.272,187.578 251.994,188.040 251.874 C 188.503 251.753,188.762 251.462,188.617 251.227 C 188.472 250.992,188.601 250.800,188.904 250.800 C 189.523 250.800,193.726 247.776,193.933 247.182 C 194.007 246.972,194.323 246.800,194.637 246.800 C 194.951 246.800,195.516 246.440,195.893 246.000 C 196.270 245.560,196.742 245.200,196.943 245.200 C 197.144 245.200,197.725 244.750,198.235 244.200 C 198.745 243.650,199.340 243.200,199.557 243.200 C 199.775 243.200,200.081 242.992,200.238 242.738 C 200.427 242.433,200.346 242.386,200.000 242.600 C 199.654 242.814,199.573 242.767,199.762 242.462 C 199.919 242.208,200.312 242.000,200.636 242.000 C 200.960 242.000,201.329 241.730,201.455 241.400 C 201.582 241.070,201.882 240.800,202.121 240.800 C 202.526 240.800,205.217 239.109,206.258 238.200 C 206.510 237.980,207.301 237.350,208.016 236.800 C 208.730 236.250,209.632 235.503,210.018 235.139 C 210.405 234.776,211.082 234.364,211.524 234.224 C 211.965 234.084,212.427 233.706,212.550 233.385 C 212.674 233.063,212.975 232.800,213.220 232.800 C 213.680 232.800,217.296 230.033,217.533 229.500 C 217.607 229.335,217.913 229.200,218.213 229.200 C 218.514 229.200,218.904 228.975,219.080 228.700 C 219.256 228.425,220.030 227.758,220.800 227.218 C 222.659 225.914,223.133 225.531,223.917 224.700 C 224.280 224.315,224.782 224.000,225.030 224.000 C 225.279 224.000,225.945 223.595,226.509 223.100 C 228.901 221.000,229.653 220.437,230.369 220.210 C 230.785 220.078,231.227 219.706,231.350 219.385 C 231.474 219.063,231.831 218.800,232.145 218.800 C 232.458 218.800,232.823 218.518,232.955 218.172 C 233.310 217.249,234.610 217.804,236.392 219.639 C 237.225 220.498,238.067 221.200,238.264 221.200 C 238.461 221.200,238.930 221.560,239.307 222.000 C 239.684 222.440,240.264 222.800,240.596 222.800 C 240.928 222.800,241.200 222.962,241.200 223.161 C 241.200 223.611,243.402 224.400,244.660 224.400 C 245.177 224.400,245.600 224.580,245.600 224.800 C 245.600 225.042,247.333 225.200,250.000 225.200 C 252.667 225.200,254.400 225.042,254.400 224.800 C 254.400 224.580,254.739 224.400,255.154 224.400 C 256.220 224.400,258.468 223.401,258.140 223.073 C 257.990 222.923,258.229 222.800,258.672 222.800 C 259.643 222.800,261.304 221.450,260.893 220.995 C 260.732 220.817,260.834 220.807,261.121 220.972 C 261.463 221.170,262.457 220.429,264.023 218.809 L 266.404 216.345 267.456 217.173 C 268.035 217.628,268.754 218.000,269.054 218.000 C 269.354 218.000,269.600 218.177,269.600 218.392 C 269.600 218.608,270.050 218.898,270.600 219.036 C 271.150 219.174,271.600 219.408,271.600 219.556 C 271.600 219.704,272.095 220.051,272.700 220.328 C 274.728 221.256,275.600 221.788,275.600 222.095 C 275.600 222.263,275.846 222.400,276.146 222.400 C 276.446 222.400,277.121 222.735,277.646 223.145 C 278.171 223.555,279.042 224.028,279.581 224.198 C 280.121 224.367,280.790 224.707,281.067 224.953 C 282.081 225.851,282.662 226.219,284.612 227.200 C 285.705 227.750,286.660 228.335,286.733 228.500 C 286.807 228.665,287.127 228.800,287.446 228.800 C 287.764 228.800,288.124 229.059,288.246 229.376 C 288.367 229.692,288.992 230.066,289.633 230.207 C 290.275 230.348,290.800 230.629,290.800 230.832 C 290.800 231.034,290.987 231.200,291.216 231.200 C 291.445 231.200,292.152 231.584,292.787 232.054 C 293.515 232.592,294.207 232.806,294.659 232.633 C 295.053 232.481,295.255 232.479,295.107 232.626 C 294.739 232.994,295.634 233.830,296.788 234.196 C 297.688 234.482,298.104 234.754,299.366 235.880 C 299.661 236.144,300.362 236.476,300.923 236.616 C 301.483 236.757,302.039 237.126,302.159 237.436 C 302.278 237.746,302.651 238.000,302.987 238.000 C 303.324 238.000,303.600 238.166,303.600 238.368 C 303.600 238.571,304.140 238.855,304.800 239.000 C 305.460 239.145,306.000 239.407,306.000 239.583 C 306.000 239.759,306.585 240.142,307.300 240.435 C 308.015 240.727,308.838 241.199,309.129 241.483 C 309.419 241.767,309.914 242.000,310.229 242.000 C 310.543 242.000,310.800 242.166,310.800 242.368 C 310.800 242.571,311.325 242.852,311.967 242.993 C 312.608 243.134,313.233 243.508,313.354 243.824 C 313.476 244.141,313.851 244.400,314.187 244.400 C 314.524 244.400,314.800 244.537,314.800 244.705 C 314.800 245.007,315.162 245.240,317.431 246.395 C 318.074 246.723,318.838 247.218,319.129 247.495 C 319.419 247.773,319.914 248.000,320.229 248.000 C 320.543 248.000,320.800 248.136,320.800 248.302 C 320.800 248.469,321.385 248.863,322.100 249.178 C 322.815 249.493,323.619 249.942,323.886 250.175 C 325.142 251.273,325.521 251.521,326.331 251.778 C 326.809 251.930,327.200 252.222,327.200 252.427 C 327.200 252.632,327.560 252.800,328.000 252.800 C 328.440 252.800,328.800 253.050,328.800 253.357 C 328.800 253.663,329.247 254.026,329.794 254.163 C 330.407 254.317,330.883 254.793,331.037 255.406 C 331.174 255.953,331.458 256.400,331.667 256.400 C 331.876 256.400,331.936 256.580,331.800 256.800 C 331.664 257.020,331.729 257.200,331.945 257.200 C 332.160 257.200,332.458 257.753,332.606 258.428 C 332.775 259.195,333.068 259.583,333.388 259.460 C 333.688 259.345,333.880 259.541,333.850 259.932 C 333.823 260.299,334.025 260.555,334.300 260.500 C 334.575 260.445,334.800 260.597,334.800 260.837 C 334.800 261.422,339.358 266.000,339.941 266.000 C 340.193 266.000,340.400 266.177,340.400 266.392 C 340.400 266.608,340.850 266.898,341.400 267.036 C 341.950 267.174,342.400 267.436,342.400 267.619 C 342.400 267.802,343.210 268.072,344.200 268.221 C 345.190 268.369,346.000 268.650,346.000 268.845 C 346.000 269.040,347.710 269.200,349.800 269.200 C 351.890 269.200,353.600 269.037,353.600 268.838 C 353.600 268.638,354.500 268.351,355.600 268.200 C 356.700 268.049,357.600 267.762,357.600 267.562 C 357.600 267.363,357.876 267.200,358.213 267.200 C 358.549 267.200,358.929 266.930,359.055 266.600 C 359.182 266.270,359.547 266.000,359.867 266.000 C 360.617 266.000,365.669 260.835,365.379 260.365 C 365.258 260.169,365.416 260.108,365.730 260.228 C 366.104 260.372,366.390 260.094,366.558 259.424 C 366.700 258.861,366.978 258.400,367.176 258.400 C 367.374 258.400,367.662 257.815,367.814 257.100 C 367.967 256.385,368.287 255.559,368.525 255.264 C 369.125 254.521,369.147 244.865,368.550 244.486 C 368.303 244.329,367.974 243.615,367.818 242.900 C 367.663 242.185,367.371 241.600,367.168 241.600 C 366.966 241.600,366.800 241.396,366.800 241.147 C 366.800 240.897,365.945 239.823,364.900 238.760 C 363.855 237.697,362.211 236.015,361.248 235.022 C 360.284 234.030,359.339 233.314,359.148 233.432 C 358.956 233.551,358.800 233.471,358.800 233.255 C 358.800 233.040,358.260 232.745,357.600 232.600 C 356.940 232.455,356.400 232.177,356.400 231.982 C 356.400 231.787,355.500 231.508,354.400 231.362 C 353.300 231.216,352.400 230.940,352.400 230.748 C 352.400 230.557,351.050 230.400,349.400 230.400 C 347.750 230.400,346.400 230.569,346.400 230.775 C 346.400 230.982,345.590 231.272,344.600 231.421 C 343.610 231.569,342.800 231.814,342.800 231.965 C 342.800 232.116,342.167 232.468,341.394 232.748 C 340.620 233.027,340.091 233.424,340.217 233.628 C 340.344 233.833,340.140 234.000,339.764 234.000 C 339.037 234.000,336.131 236.757,336.300 237.286 C 336.355 237.459,336.170 237.600,335.889 237.600 C 335.608 237.600,335.053 237.980,334.656 238.443 C 333.938 239.281,331.792 239.298,331.220 238.470 C 330.724 237.751,326.027 235.198,325.148 235.168 C 324.626 235.151,324.441 235.041,324.736 234.923 C 325.372 234.670,325.190 234.554,319.300 231.480 C 318.805 231.222,318.400 230.873,318.400 230.705 C 318.400 230.537,318.143 230.400,317.829 230.400 C 317.514 230.400,317.016 230.175,316.721 229.900 C 316.427 229.625,315.334 228.954,314.293 228.408 C 313.252 227.863,312.400 227.292,312.400 227.140 C 312.400 226.988,311.875 226.748,311.233 226.607 C 310.592 226.466,309.976 226.115,309.866 225.827 C 309.755 225.539,309.157 225.176,308.536 225.020 C 307.916 224.864,307.316 224.616,307.204 224.468 C 306.945 224.128,305.690 223.337,304.400 222.702 C 303.850 222.431,303.162 221.982,302.871 221.705 C 302.581 221.427,302.086 221.200,301.771 221.200 C 301.457 221.200,301.200 221.041,301.200 220.847 C 301.200 220.508,299.916 219.937,298.928 219.837 C 298.669 219.811,298.309 219.628,298.128 219.431 C 297.937 219.222,298.034 219.208,298.362 219.398 C 298.740 219.617,298.830 219.572,298.638 219.262 C 298.481 219.008,298.093 218.800,297.776 218.800 C 297.459 218.800,297.200 218.663,297.200 218.495 C 297.200 218.168,296.302 217.641,293.900 216.556 C 293.075 216.183,292.400 215.726,292.400 215.539 C 292.400 215.353,292.119 215.200,291.776 215.200 C 291.407 215.200,291.269 215.388,291.438 215.662 C 291.616 215.950,291.548 216.015,291.255 215.834 C 290.998 215.675,290.891 215.377,291.017 215.172 C 291.144 214.968,290.986 214.800,290.666 214.800 C 290.347 214.800,289.982 214.530,289.855 214.200 C 289.729 213.870,289.349 213.600,289.013 213.600 C 288.676 213.600,288.400 213.459,288.400 213.288 C 288.400 213.116,287.905 212.762,287.300 212.502 C 285.968 211.929,284.692 211.127,284.340 210.642 C 284.198 210.445,283.783 210.398,283.420 210.537 C 283.056 210.677,282.839 210.658,282.937 210.495 C 283.172 210.107,282.157 209.176,281.843 209.491 C 281.709 209.624,281.600 209.543,281.600 209.310 C 281.600 209.077,281.150 208.774,280.600 208.636 C 280.050 208.498,279.600 208.208,279.600 207.992 C 279.600 207.777,279.324 207.600,278.987 207.600 C 278.651 207.600,278.276 207.341,278.154 207.024 C 278.033 206.708,277.408 206.334,276.767 206.193 C 276.125 206.052,275.600 205.783,275.600 205.595 C 275.600 205.407,275.203 205.128,274.719 204.974 C 274.234 204.820,273.610 204.493,273.333 204.247 C 272.260 203.297,270.736 202.270,269.320 201.542 C 268.835 201.293,268.326 200.574,268.188 199.945 C 268.050 199.315,267.785 198.800,267.600 198.800 C 267.415 198.800,267.145 198.260,267.000 197.600 C 266.855 196.940,266.571 196.400,266.368 196.400 C 266.166 196.400,266.000 196.167,266.000 195.883 C 266.000 195.342,262.790 192.000,262.269 192.000 C 262.104 192.000,261.221 191.281,260.306 190.402 C 259.391 189.523,258.273 188.689,257.822 188.548 C 257.370 188.407,256.880 188.105,256.733 187.875 C 256.461 187.452,246.607 187.141,244.100 187.477 M251.651 201.100 C 254.962 202.862,256.528 206.480,254.841 208.467 C 252.658 211.036,252.273 211.313,250.621 211.499 C 248.727 211.712,245.200 210.062,245.200 208.962 C 245.200 208.653,245.020 208.400,244.800 208.400 C 244.580 208.400,244.400 207.410,244.400 206.200 C 244.400 204.990,244.580 204.000,244.800 204.000 C 245.020 204.000,245.200 203.770,245.200 203.489 C 245.200 201.586,249.542 199.978,251.651 201.100 M52.000 225.912 C 52.000 226.084,52.556 226.435,53.237 226.691 C 53.917 226.948,54.366 227.332,54.234 227.545 C 54.103 227.758,54.207 228.002,54.466 228.089 C 55.279 228.360,55.402 232.941,54.617 233.725 C 54.250 234.093,54.061 234.575,54.198 234.797 C 54.335 235.019,54.179 235.200,53.852 235.200 C 53.525 235.200,52.953 235.504,52.581 235.876 C 51.806 236.652,47.929 236.786,47.682 236.045 C 47.600 235.800,47.318 235.600,47.056 235.600 C 46.289 235.600,45.110 233.972,44.757 232.427 C 44.407 230.894,44.968 228.000,45.615 228.000 C 45.827 228.000,46.000 227.730,46.000 227.400 C 46.000 227.070,46.276 226.800,46.613 226.800 C 46.949 226.800,47.329 226.530,47.455 226.200 C 47.699 225.564,52.000 225.292,52.000 225.912 M351.600 244.768 C 351.600 244.971,352.140 245.255,352.800 245.400 C 353.460 245.545,354.000 245.904,354.000 246.198 C 354.000 246.493,354.211 246.804,354.469 246.890 C 355.200 247.133,355.409 251.733,354.721 252.429 C 354.410 252.743,354.036 253.315,353.890 253.700 C 353.744 254.085,353.364 254.400,353.046 254.400 C 352.727 254.400,352.400 254.600,352.318 254.845 C 352.113 255.461,347.897 255.491,347.693 254.878 C 347.605 254.615,347.318 254.400,347.056 254.400 C 346.328 254.400,345.200 252.899,344.936 251.579 C 344.806 250.930,344.543 250.400,344.350 250.400 C 344.158 250.400,344.000 250.130,344.000 249.800 C 344.000 249.470,344.180 249.200,344.400 249.200 C 344.620 249.200,344.800 248.853,344.800 248.429 C 344.800 248.004,345.070 247.387,345.400 247.057 C 345.730 246.727,346.000 246.276,346.000 246.056 C 346.000 245.835,346.360 245.540,346.800 245.400 C 347.240 245.260,347.600 244.978,347.600 244.773 C 347.600 244.568,348.500 244.400,349.600 244.400 C 350.700 244.400,351.600 244.566,351.600 244.768 M281.600 249.523 C 281.600 249.701,280.879 249.810,279.998 249.765 C 278.274 249.677,274.704 252.394,275.092 253.500 C 275.188 253.775,275.072 254.000,274.833 254.000 C 274.279 254.000,274.255 257.863,274.807 258.204 C 275.030 258.342,275.109 258.623,274.983 258.828 C 274.856 259.032,274.943 259.200,275.176 259.200 C 275.409 259.200,275.600 259.430,275.600 259.711 C 275.600 260.290,276.936 261.549,278.346 262.298 C 279.039 262.666,282.237 262.800,290.311 262.800 C 302.655 262.800,303.462 262.655,305.198 260.120 C 306.204 258.652,306.956 253.609,306.089 254.145 C 305.846 254.295,305.742 254.112,305.837 253.701 C 306.213 252.075,302.833 249.601,300.465 249.769 C 299.562 249.833,298.919 249.732,299.035 249.543 C 299.152 249.354,295.277 249.200,290.424 249.200 C 285.571 249.200,281.600 249.345,281.600 249.523 M153.365 258.487 C 154.154 259.254,154.800 260.183,154.800 260.553 C 154.800 260.923,155.038 261.316,155.328 261.428 C 155.895 261.645,155.765 264.000,155.186 264.000 C 155.009 264.000,154.745 264.542,154.599 265.203 C 154.454 265.865,154.170 266.305,153.967 266.180 C 153.765 266.055,153.600 266.122,153.600 266.330 C 153.600 266.537,153.222 266.806,152.760 266.926 C 152.298 267.047,152.019 267.307,152.140 267.503 C 152.261 267.698,151.469 267.900,150.380 267.949 C 149.207 268.003,148.400 267.868,148.400 267.620 C 148.400 267.389,148.175 267.195,147.900 267.188 C 146.327 267.151,144.600 264.655,144.600 262.416 C 144.600 257.488,149.893 255.115,153.365 258.487 M251.900 269.572 C 251.075 270.422,250.400 271.316,250.400 271.559 C 250.400 271.801,250.259 272.000,250.086 272.000 C 249.730 272.000,249.566 272.950,249.566 275.000 C 249.566 277.050,249.730 278.000,250.086 278.000 C 250.259 278.000,250.400 278.207,250.400 278.460 C 250.400 278.712,251.021 279.522,251.780 280.260 L 253.160 281.600 277.980 281.600 C 304.368 281.600,304.400 281.598,304.400 279.764 C 304.400 279.634,304.761 279.229,305.201 278.864 C 306.707 277.617,306.763 272.627,305.292 270.884 C 304.911 270.433,304.260 269.600,303.844 269.032 L 303.088 268.000 278.244 268.013 L 253.400 268.027 251.900 269.572 M290.100 268.700 C 283.445 268.761,272.555 268.761,265.900 268.700 C 259.245 268.638,264.690 268.588,278.000 268.588 C 291.310 268.588,296.755 268.638,290.100 268.700 M381.097 284.100 C 381.021 285.695,380.959 284.390,380.959 281.200 C 380.959 278.010,381.021 276.705,381.097 278.300 C 381.173 279.895,381.173 282.505,381.097 284.100 M380.400 306.626 C 380.400 310.369,380.222 313.585,379.992 314.016 C 379.767 314.435,379.542 315.485,379.492 316.349 C 379.441 317.212,379.265 317.836,379.100 317.736 C 378.935 317.635,378.800 317.754,378.800 317.999 C 378.800 318.547,375.462 321.926,373.737 323.124 L 372.474 324.002 199.414 323.999 C 84.672 323.997,26.438 323.862,26.601 323.598 C 26.736 323.379,26.670 323.200,26.453 323.200 C 25.474 323.200,20.804 318.120,20.549 316.777 C 20.405 316.020,20.127 315.195,19.932 314.945 C 19.736 314.695,19.463 311.230,19.325 307.245 L 19.074 300.000 199.737 300.000 L 380.400 300.000 380.400 306.626 M381.082 303.700 C 380.987 304.195,380.909 303.790,380.909 302.800 C 380.909 301.810,380.987 301.405,381.082 301.900 C 381.178 302.395,381.178 303.205,381.082 303.700 M33.497 306.669 C 33.004 307.256,32.316 308.035,31.969 308.399 C 31.003 309.414,30.704 310.492,31.286 310.862 C 31.686 311.116,31.689 311.189,31.300 311.194 C 29.832 311.212,30.927 315.200,32.975 317.300 L 34.439 318.800 56.204 318.800 L 77.970 318.800 79.581 317.123 C 81.869 314.743,82.360 310.404,80.555 308.524 C 80.140 308.091,79.396 307.256,78.903 306.669 L 78.005 305.600 56.200 305.600 L 34.395 305.600 33.497 306.669 M91.806 305.918 C 90.595 306.073,88.216 308.165,87.348 309.837 C 86.310 311.835,87.205 315.195,89.364 317.400 L 90.538 318.600 96.969 318.600 C 103.567 318.600,105.200 318.169,105.200 316.429 C 105.200 316.224,105.512 315.745,105.893 315.364 C 106.738 314.519,106.899 309.966,106.093 309.698 C 105.822 309.607,105.600 309.305,105.600 309.025 C 105.600 306.313,99.481 304.935,91.806 305.918 M381.076 311.500 C 380.975 311.885,380.893 311.570,380.893 310.800 C 380.893 310.030,380.975 309.715,381.076 310.100 C 381.176 310.485,381.176 311.115,381.076 311.500 M226.557 339.033 C 226.691 339.381,226.800 340.011,226.800 340.433 C 226.800 340.855,226.969 341.200,227.175 341.200 C 227.382 341.200,227.672 342.010,227.821 343.000 C 227.969 343.990,228.235 344.800,228.410 344.800 C 228.586 344.800,228.851 345.520,229.000 346.400 C 229.149 347.280,229.411 348.000,229.584 348.000 C 229.757 348.000,230.019 348.760,230.168 349.688 C 230.316 350.616,230.632 351.496,230.870 351.643 C 231.108 351.790,231.364 352.591,231.438 353.424 C 231.513 354.256,231.743 355.041,231.950 355.169 C 232.157 355.297,232.457 356.121,232.615 357.001 C 232.774 357.880,233.076 358.817,233.287 359.082 C 233.497 359.348,233.553 359.753,233.411 359.982 C 233.269 360.212,233.343 360.400,233.576 360.400 C 233.809 360.400,234.000 360.670,234.000 361.000 C 234.000 361.529,229.956 361.600,200.000 361.600 C 166.611 361.600,166.000 361.586,166.000 360.824 C 166.000 360.397,166.160 359.949,166.355 359.828 C 166.550 359.707,166.820 359.022,166.956 358.304 C 167.092 357.587,167.288 356.563,167.392 356.029 C 167.496 355.496,167.775 354.939,168.012 354.793 C 168.249 354.646,168.409 354.363,168.368 354.163 C 168.235 353.519,168.890 351.200,169.205 351.200 C 169.372 351.200,169.631 350.390,169.779 349.400 C 169.928 348.410,170.207 347.600,170.400 347.600 C 170.593 347.600,170.872 346.790,171.021 345.800 C 171.169 344.810,171.439 344.000,171.621 344.000 C 171.802 344.000,172.072 343.190,172.221 342.200 C 172.369 341.210,172.631 340.400,172.802 340.400 C 172.973 340.400,173.226 339.950,173.364 339.400 L 173.615 338.400 199.965 338.400 C 223.623 338.400,226.339 338.465,226.557 339.033 M275.098 377.482 C 275.022 379.197,274.961 377.900,274.960 374.600 C 274.959 371.300,275.021 369.897,275.097 371.482 C 275.172 373.067,275.173 375.767,275.098 377.482 M262.000 377.800 L 262.000 380.400 200.000 380.400 L 138.000 380.400 138.000 377.800 L 138.000 375.200 200.000 375.200 L 262.000 375.200 262.000 377.800 " stroke="none" fill="#2ca40c" fill-rule="evenodd"></path><path id="path1" d="M118.593 55.000 C 118.593 79.640,118.641 89.661,118.700 77.269 C 118.759 64.877,118.759 44.717,118.700 32.469 C 118.641 20.221,118.593 30.360,118.593 55.000 M118.588 137.400 C 118.588 151.040,118.638 156.678,118.700 149.929 C 118.761 143.180,118.761 132.020,118.700 125.129 C 118.638 118.238,118.588 123.760,118.588 137.400 M380.800 172.920 L 381.000 199.000 381.103 173.223 C 381.160 159.046,381.070 147.310,380.903 147.143 C 380.736 146.976,380.690 158.576,380.800 172.920 M265.900 268.700 C 272.555 268.761,283.445 268.761,290.100 268.700 C 296.755 268.638,291.310 268.588,278.000 268.588 C 264.690 268.588,259.245 268.638,265.900 268.700 M380.959 281.200 C 380.959 284.390,381.021 285.695,381.097 284.100 C 381.173 282.505,381.173 279.895,381.097 278.300 C 381.021 276.705,380.959 278.010,380.959 281.200 M380.909 302.800 C 380.909 303.790,380.987 304.195,381.082 303.700 C 381.178 303.205,381.178 302.395,381.082 301.900 C 380.987 301.405,380.909 301.810,380.909 302.800 M380.893 310.800 C 380.893 311.570,380.975 311.885,381.076 311.500 C 381.176 311.115,381.176 310.485,381.076 310.100 C 380.975 309.715,380.893 310.030,380.893 310.800 M274.960 374.600 C 274.961 377.900,275.022 379.197,275.098 377.482 C 275.173 375.767,275.172 373.067,275.097 371.482 C 275.021 369.897,274.959 371.300,274.960 374.600 " stroke="none" fill="#30a40c" fill-rule="evenodd"></path><path id="path2" d="M118.593 55.000 C 118.593 79.640,118.641 89.661,118.700 77.269 C 118.759 64.877,118.759 44.717,118.700 32.469 C 118.641 20.221,118.593 30.360,118.593 55.000 M118.588 137.400 C 118.588 151.040,118.638 156.678,118.700 149.929 C 118.761 143.180,118.761 132.020,118.700 125.129 C 118.638 118.238,118.588 123.760,118.588 137.400 M380.800 172.920 L 381.000 199.000 381.103 173.223 C 381.160 159.046,381.070 147.310,380.903 147.143 C 380.736 146.976,380.690 158.576,380.800 172.920 M265.900 268.700 C 272.555 268.761,283.445 268.761,290.100 268.700 C 296.755 268.638,291.310 268.588,278.000 268.588 C 264.690 268.588,259.245 268.638,265.900 268.700 M380.959 281.200 C 380.959 284.390,381.021 285.695,381.097 284.100 C 381.173 282.505,381.173 279.895,381.097 278.300 C 381.021 276.705,380.959 278.010,380.959 281.200 M380.909 302.800 C 380.909 303.790,380.987 304.195,381.082 303.700 C 381.178 303.205,381.178 302.395,381.082 301.900 C 380.987 301.405,380.909 301.810,380.909 302.800 M380.893 310.800 C 380.893 311.570,380.975 311.885,381.076 311.500 C 381.176 311.115,381.176 310.485,381.076 310.100 C 380.975 309.715,380.893 310.030,380.893 310.800 M274.960 374.600 C 274.961 377.900,275.022 379.197,275.098 377.482 C 275.173 375.767,275.172 373.067,275.097 371.482 C 275.021 369.897,274.959 371.300,274.960 374.600 " stroke="none" fill="#30a40c" fill-rule="evenodd"></path><path id="path3" d="M118.593 55.000 C 118.593 79.640,118.641 89.661,118.700 77.269 C 118.759 64.877,118.759 44.717,118.700 32.469 C 118.641 20.221,118.593 30.360,118.593 55.000 M118.588 137.400 C 118.588 151.040,118.638 156.678,118.700 149.929 C 118.761 143.180,118.761 132.020,118.700 125.129 C 118.638 118.238,118.588 123.760,118.588 137.400 M380.800 172.920 L 381.000 199.000 381.103 173.223 C 381.160 159.046,381.070 147.310,380.903 147.143 C 380.736 146.976,380.690 158.576,380.800 172.920 M265.900 268.700 C 272.555 268.761,283.445 268.761,290.100 268.700 C 296.755 268.638,291.310 268.588,278.000 268.588 C 264.690 268.588,259.245 268.638,265.900 268.700 M380.959 281.200 C 380.959 284.390,381.021 285.695,381.097 284.100 C 381.173 282.505,381.173 279.895,381.097 278.300 C 381.021 276.705,380.959 278.010,380.959 281.200 M380.909 302.800 C 380.909 303.790,380.987 304.195,381.082 303.700 C 381.178 303.205,381.178 302.395,381.082 301.900 C 380.987 301.405,380.909 301.810,380.909 302.800 M380.893 310.800 C 380.893 311.570,380.975 311.885,381.076 311.500 C 381.176 311.115,381.176 310.485,381.076 310.100 C 380.975 309.715,380.893 310.030,380.893 310.800 M274.960 374.600 C 274.961 377.900,275.022 379.197,275.098 377.482 C 275.173 375.767,275.172 373.067,275.097 371.482 C 275.021 369.897,274.959 371.300,274.960 374.600 " stroke="none" fill="#30a40c" fill-rule="evenodd"></path><path id="path4" d="M118.593 55.000 C 118.593 79.640,118.641 89.661,118.700 77.269 C 118.759 64.877,118.759 44.717,118.700 32.469 C 118.641 20.221,118.593 30.360,118.593 55.000 M118.588 137.400 C 118.588 151.040,118.638 156.678,118.700 149.929 C 118.761 143.180,118.761 132.020,118.700 125.129 C 118.638 118.238,118.588 123.760,118.588 137.400 M380.800 172.920 L 381.000 199.000 381.103 173.223 C 381.160 159.046,381.070 147.310,380.903 147.143 C 380.736 146.976,380.690 158.576,380.800 172.920 M265.900 268.700 C 272.555 268.761,283.445 268.761,290.100 268.700 C 296.755 268.638,291.310 268.588,278.000 268.588 C 264.690 268.588,259.245 268.638,265.900 268.700 M380.959 281.200 C 380.959 284.390,381.021 285.695,381.097 284.100 C 381.173 282.505,381.173 279.895,381.097 278.300 C 381.021 276.705,380.959 278.010,380.959 281.200 M380.909 302.800 C 380.909 303.790,380.987 304.195,381.082 303.700 C 381.178 303.205,381.178 302.395,381.082 301.900 C 380.987 301.405,380.909 301.810,380.909 302.800 M380.893 310.800 C 380.893 311.570,380.975 311.885,381.076 311.500 C 381.176 311.115,381.176 310.485,381.076 310.100 C 380.975 309.715,380.893 310.030,380.893 310.800 M274.960 374.600 C 274.961 377.900,275.022 379.197,275.098 377.482 C 275.173 375.767,275.172 373.067,275.097 371.482 C 275.021 369.897,274.959 371.300,274.960 374.600 " stroke="none" fill="#30a40c" fill-rule="evenodd"></path></g></svg>