<svg id="svg" version="1.1" xmlns="http://www.w3.org/2000/svg" xmlns:xlink="http://www.w3.org/1999/xlink" width="400" height="375.0830564784053" viewBox="0, 0, 400,375.0830564784053"><g id="svgg"><path id="path0" d="M70.386 9.790 C 70.320 9.856,65.930 9.977,60.631 10.061 C 50.915 10.214,46.510 10.769,44.934 12.039 C 44.705 12.223,44.518 12.262,44.518 12.126 C 44.518 11.990,44.294 12.065,44.020 12.292 C 43.746 12.520,43.522 12.621,43.522 12.517 C 43.522 12.197,37.703 15.182,35.315 16.728 C 33.164 18.119,32.096 18.957,29.107 21.595 C 27.550 22.969,22.591 28.871,22.591 29.350 C 22.591 29.532,22.343 29.956,22.039 30.292 C 20.170 32.357,16.352 41.055,15.794 44.518 C 15.101 48.826,14.728 309.598,15.388 328.571 C 15.537 332.865,15.667 336.603,15.676 336.877 C 15.765 339.627,19.601 350.218,20.843 351.140 C 20.982 351.244,21.366 351.861,21.696 352.512 C 22.026 353.163,22.624 354.089,23.025 354.570 C 23.426 355.051,24.128 355.934,24.585 356.531 C 27.470 360.306,35.654 367.438,37.103 367.441 C 37.318 367.442,37.721 367.669,37.998 367.946 C 38.788 368.735,47.176 372.350,47.176 371.900 C 47.176 371.811,47.475 371.897,47.840 372.093 C 50.073 373.288,54.389 373.321,202.159 373.281 L 342.027 373.243 345.840 372.143 C 347.938 371.539,350.031 370.842,350.491 370.595 C 350.952 370.349,352.450 369.607,353.821 368.947 C 361.343 365.325,368.302 358.943,372.661 351.668 C 372.882 351.299,373.603 349.875,374.263 348.505 C 374.922 347.135,375.661 345.640,375.904 345.183 C 376.343 344.358,377.070 341.972,377.272 340.698 C 377.330 340.332,377.586 339.283,377.841 338.367 C 378.582 335.703,378.571 337.716,378.571 193.688 C 378.571 32.816,378.792 44.303,375.572 37.332 C 374.937 35.959,374.419 34.753,374.419 34.652 C 374.419 34.298,371.349 29.401,371.058 29.291 C 370.896 29.230,370.764 28.969,370.764 28.710 C 370.764 28.451,370.639 28.239,370.485 28.239 C 370.332 28.239,370.039 27.873,369.835 27.425 C 369.326 26.307,364.316 21.136,362.322 19.669 C 361.425 19.010,360.243 18.061,359.695 17.561 C 358.469 16.440,350.646 12.472,349.792 12.536 C 349.449 12.562,349.169 12.467,349.169 12.324 C 349.169 12.006,343.912 10.415,341.860 10.112 C 341.038 9.991,333.878 9.823,325.948 9.740 L 311.532 9.588 309.919 11.177 L 308.306 12.766 308.306 15.040 C 308.306 17.267,308.335 17.345,309.718 18.763 L 311.130 20.212 322.407 20.424 C 328.610 20.540,334.217 20.697,334.866 20.773 C 335.515 20.848,336.869 20.981,337.874 21.069 C 339.306 21.194,343.779 22.228,346.346 23.027 C 350.416 24.295,358.089 30.202,360.882 34.219 C 361.454 35.042,362.042 35.764,362.190 35.825 C 362.338 35.886,362.459 36.110,362.460 36.323 C 362.461 36.537,362.910 37.384,363.459 38.206 C 364.008 39.028,364.760 40.523,365.130 41.528 C 365.501 42.533,365.896 43.580,366.008 43.854 C 366.240 44.418,366.227 44.364,366.747 46.868 C 367.674 51.326,367.693 51.561,367.958 62.043 L 368.178 70.764 196.840 70.764 L 25.503 70.764 25.738 62.874 C 25.974 54.969,26.028 53.897,26.366 50.498 C 27.618 37.883,37.114 26.386,49.536 22.446 C 55.501 20.553,47.298 20.677,183.887 20.415 L 294.850 20.201 296.150 18.929 L 297.449 17.657 297.437 14.937 L 297.424 12.216 296.013 10.925 L 294.601 9.635 182.553 9.653 C 120.927 9.663,70.452 9.725,70.386 9.790 M63.621 28.564 C 61.062 29.373,58.804 30.484,58.804 30.934 C 58.804 31.157,58.716 31.252,58.609 31.145 C 57.832 30.368,52.153 37.256,51.692 39.535 C 51.600 39.992,51.313 41.128,51.055 42.060 C 50.114 45.453,50.637 49.769,52.452 53.571 C 53.420 55.599,57.553 60.133,58.435 60.133 C 58.638 60.133,58.804 60.280,58.804 60.459 C 58.804 60.638,59.178 60.878,59.635 60.993 C 60.091 61.108,60.465 61.314,60.465 61.452 C 60.465 63.081,71.226 63.796,74.523 62.386 C 81.813 59.268,86.567 52.362,86.213 45.403 C 85.605 33.436,74.468 25.135,63.621 28.564 M103.654 28.299 C 98.936 29.135,92.907 34.433,91.156 39.282 C 90.782 40.319,90.642 42.064,90.634 45.803 L 90.624 50.907 91.879 53.380 C 93.863 57.288,98.783 61.648,102.416 62.717 C 103.379 63.000,111.874 63.021,112.968 62.743 C 121.660 60.532,128.213 48.243,124.902 40.365 C 124.671 39.817,124.442 39.171,124.393 38.929 C 123.918 36.589,118.675 30.973,115.611 29.522 C 112.592 28.093,107.660 27.588,103.654 28.299 M143.688 28.164 C 138.237 29.089,131.216 35.500,130.083 40.586 C 129.151 44.768,129.189 47.436,130.222 50.498 C 130.638 51.731,130.808 52.296,130.848 52.578 C 130.934 53.192,131.941 54.817,132.234 54.817 C 132.412 54.817,132.558 55.042,132.558 55.316 C 132.558 55.590,132.716 55.814,132.910 55.814 C 133.103 55.814,133.180 55.946,133.080 56.108 C 132.935 56.343,135.643 59.056,137.412 60.446 C 141.775 63.877,150.473 64.241,155.814 61.217 C 165.170 55.920,167.948 43.246,161.512 35.216 C 159.276 32.425,156.058 29.710,155.440 30.092 C 155.280 30.191,155.150 30.105,155.150 29.900 C 155.150 29.696,155.000 29.621,154.817 29.734 C 154.635 29.847,154.485 29.796,154.485 29.620 C 154.485 29.445,154.037 29.145,153.488 28.953 C 152.940 28.762,152.492 28.666,152.492 28.740 C 152.492 28.814,151.856 28.650,151.080 28.376 C 149.801 27.924,145.779 27.809,143.688 28.164 M149.812 39.718 C 151.644 40.540,153.488 42.565,153.488 43.754 C 153.488 43.992,153.600 44.186,153.738 44.186 C 154.210 44.186,153.890 46.757,153.233 48.242 C 150.858 53.612,142.669 53.289,141.129 47.765 C 139.550 42.098,144.628 37.392,149.812 39.718 M72.259 40.268 C 73.798 41.248,75.250 44.143,75.119 45.971 C 74.658 52.394,65.549 54.370,62.780 48.648 C 59.849 42.593,66.573 36.649,72.259 40.268 M110.450 39.673 C 116.661 42.268,114.997 51.617,108.259 51.975 C 101.708 52.323,98.887 45.166,103.769 40.580 C 105.212 39.225,108.355 38.798,110.450 39.673 M367.779 89.701 C 367.840 184.082,367.760 323.328,367.643 325.083 C 367.559 326.362,367.397 329.301,367.283 331.614 C 367.009 337.188,366.062 340.637,363.783 344.352 C 363.447 344.900,363.131 345.498,363.083 345.681 C 363.034 345.864,362.866 346.163,362.710 346.346 C 362.554 346.528,361.693 347.696,360.798 348.940 C 358.677 351.888,357.581 353.105,355.970 354.302 C 355.245 354.841,354.390 355.574,354.070 355.931 C 353.750 356.288,353.488 356.486,353.488 356.370 C 353.488 356.255,352.591 356.741,351.495 357.449 C 349.295 358.871,344.482 360.986,342.369 361.459 C 337.626 362.522,321.640 362.654,196.844 362.654 C 52.793 362.655,53.000 362.658,47.841 360.227 C 46.470 359.581,45.162 359.047,44.934 359.039 C 44.705 359.032,44.518 358.911,44.518 358.771 C 44.518 358.631,44.206 358.417,43.824 358.296 C 43.443 358.175,42.172 357.406,41.000 356.587 C 39.829 355.768,38.870 355.175,38.870 355.268 C 38.870 355.502,35.661 352.302,34.136 350.548 C 33.451 349.760,32.890 348.990,32.890 348.838 C 32.890 348.685,32.773 348.511,32.629 348.450 C 32.485 348.389,31.937 347.591,31.412 346.678 C 30.886 345.764,30.359 344.942,30.241 344.850 C 29.970 344.642,27.211 338.328,27.067 337.589 C 27.009 337.289,26.931 336.968,26.894 336.877 C 26.644 336.263,26.231 326.969,26.065 318.272 C 25.866 307.786,25.882 95.808,26.082 90.532 C 26.159 88.522,26.227 85.874,26.234 84.649 L 26.246 82.420 28.821 82.323 C 30.237 82.270,107.081 82.226,199.585 82.226 L 367.774 82.226 367.779 89.701 M69.724 89.522 C 69.470 89.777,68.115 90.099,67.359 90.085 C 67.039 90.079,66.777 90.240,66.777 90.441 C 66.777 90.643,66.690 90.722,66.584 90.615 C 66.360 90.391,64.401 91.245,62.957 92.196 C 60.959 93.511,58.821 96.062,57.495 98.712 L 56.146 101.406 56.146 107.323 C 56.146 114.485,57.574 124.448,59.120 128.073 C 59.276 128.439,59.734 129.635,60.138 130.731 C 61.525 134.492,64.224 140.086,66.285 143.466 C 66.959 144.571,69.272 148.011,69.450 148.173 C 69.551 148.264,69.995 148.862,70.437 149.502 C 70.879 150.141,71.395 150.836,71.584 151.045 C 71.772 151.254,72.301 151.923,72.757 152.530 C 73.214 153.138,75.494 155.553,77.824 157.897 C 80.154 160.240,82.060 162.281,82.060 162.431 C 82.060 162.582,80.519 164.256,78.636 166.153 C 76.753 168.050,74.548 170.409,73.736 171.396 C 72.924 172.383,72.033 173.432,71.756 173.726 C 71.480 174.021,70.889 174.783,70.443 175.420 C 69.998 176.057,69.477 176.688,69.285 176.822 C 69.067 176.975,69.061 177.070,69.269 177.076 C 69.482 177.083,69.479 177.174,69.259 177.331 C 68.773 177.678,66.445 181.007,66.445 181.355 C 66.445 181.515,66.221 181.832,65.947 182.060 C 65.673 182.287,65.449 182.681,65.449 182.934 C 65.449 183.187,65.000 184.014,64.452 184.770 C 63.904 185.527,63.455 186.273,63.455 186.428 C 63.455 186.583,63.032 187.644,62.514 188.786 C 57.350 200.184,56.414 204.659,56.280 218.605 C 56.190 227.946,56.277 229.384,57.247 234.561 C 58.191 239.601,60.067 241.860,63.305 241.860 C 67.577 241.860,69.451 239.185,68.628 234.261 C 68.008 230.558,67.839 229.579,67.601 228.322 C 66.599 223.030,66.752 213.950,67.939 208.306 C 68.035 207.849,68.193 207.027,68.290 206.478 C 68.663 204.385,70.556 198.159,71.423 196.179 C 73.768 190.821,75.810 187.242,79.734 181.607 C 81.106 179.637,88.008 172.567,90.166 170.922 C 90.878 170.378,91.609 169.782,91.790 169.597 C 92.011 169.372,92.790 169.590,94.161 170.262 C 96.442 171.380,100.183 173.084,102.076 173.869 C 103.305 174.378,103.760 175.083,102.859 175.083 C 102.605 175.083,102.307 175.317,102.197 175.602 C 102.088 175.888,101.846 176.028,101.661 175.914 C 101.476 175.799,101.235 175.939,101.125 176.225 C 101.015 176.510,100.731 176.744,100.494 176.744 C 99.473 176.744,88.977 186.265,89.427 186.783 C 89.472 186.835,89.066 187.355,88.525 187.939 C 87.000 189.584,86.663 190.033,86.947 190.038 C 87.091 190.041,86.985 190.185,86.711 190.358 C 86.437 190.532,86.213 190.834,86.213 191.030 C 86.213 191.226,86.052 191.493,85.856 191.623 C 85.660 191.754,85.395 192.085,85.268 192.359 C 85.141 192.633,84.672 193.455,84.227 194.186 C 83.473 195.424,82.634 197.102,81.571 199.501 C 80.122 202.771,78.758 207.905,77.930 213.206 C 76.496 222.397,79.408 237.390,83.882 243.846 C 84.341 244.509,84.718 245.231,84.718 245.450 C 84.718 245.668,84.867 245.847,85.050 245.847 C 85.233 245.847,85.382 245.992,85.382 246.170 C 85.382 246.464,87.075 249.097,87.874 250.046 C 88.056 250.263,88.580 250.936,89.037 251.541 C 89.889 252.670,95.383 258.240,96.534 259.141 C 96.887 259.418,97.699 260.014,98.339 260.465 C 98.978 260.917,99.767 261.513,100.092 261.789 C 101.878 263.311,109.709 267.175,113.455 268.382 C 117.711 269.754,120.338 270.183,126.910 270.578 C 128.281 270.660,130.972 270.824,132.890 270.941 C 139.345 271.336,147.982 273.442,153.322 275.924 C 154.236 276.349,155.806 277.079,156.811 277.547 C 157.816 278.014,159.385 278.846,160.299 279.395 C 161.213 279.944,162.273 280.532,162.656 280.700 C 163.039 280.869,163.578 281.233,163.854 281.509 C 164.130 281.785,164.821 282.294,165.390 282.640 C 168.089 284.282,175.530 291.529,177.907 294.831 C 178.272 295.339,178.728 295.925,178.920 296.133 C 182.702 300.247,188.249 312.600,189.829 320.432 C 192.474 333.538,190.849 339.059,184.640 338.066 C 181.776 337.608,181.037 336.122,180.241 329.223 C 179.658 324.165,179.630 323.988,178.878 320.764 C 177.953 316.799,176.977 314.135,174.863 309.801 C 173.525 307.058,173.042 306.230,172.591 305.909 C 172.409 305.779,172.259 305.529,172.259 305.354 C 172.259 305.180,171.956 304.688,171.586 304.262 C 171.216 303.837,170.917 303.396,170.922 303.283 C 170.948 302.643,162.195 293.176,161.874 293.497 C 161.805 293.566,161.319 293.225,160.793 292.741 C 159.269 291.337,158.855 291.030,158.486 291.030 C 158.295 291.030,158.140 290.872,158.140 290.678 C 158.140 290.485,158.006 290.409,157.842 290.510 C 157.679 290.611,157.455 290.461,157.346 290.176 C 157.237 289.892,157.006 289.746,156.833 289.853 C 156.661 289.960,156.398 289.854,156.250 289.618 C 156.101 289.382,155.606 289.005,155.150 288.781 C 154.693 288.557,153.205 287.770,151.843 287.032 C 150.482 286.294,149.136 285.652,148.853 285.607 C 148.570 285.561,147.835 285.270,147.219 284.960 C 146.603 284.650,145.980 284.469,145.835 284.559 C 145.690 284.648,145.522 284.580,145.460 284.408 C 145.399 284.235,144.975 284.033,144.518 283.959 C 144.061 283.884,143.463 283.730,143.189 283.616 C 142.915 283.501,142.317 283.340,141.860 283.257 C 141.404 283.174,140.581 282.956,140.033 282.772 C 138.522 282.264,133.886 281.759,129.070 281.577 C 126.694 281.487,123.480 281.238,121.927 281.024 C 120.374 280.809,118.804 280.600,118.439 280.559 C 118.073 280.518,117.535 280.383,117.242 280.259 C 116.950 280.135,116.576 280.067,116.412 280.109 C 115.730 280.280,107.290 277.643,105.569 276.721 C 105.252 276.551,104.700 276.412,104.343 276.412 C 103.986 276.412,103.605 276.269,103.497 276.094 C 103.390 275.920,101.699 274.994,99.740 274.038 C 96.415 272.414,94.001 270.929,93.743 270.349 C 93.682 270.212,93.479 270.100,93.291 270.100 C 93.103 270.100,92.182 269.464,91.243 268.688 C 85.523 263.954,82.698 261.040,78.775 255.827 C 75.473 251.438,74.670 250.815,72.093 250.637 C 70.821 250.549,67.991 251.705,68.291 252.190 C 68.394 252.356,68.332 252.492,68.153 252.492 C 66.896 252.492,66.457 257.864,67.610 259.138 C 67.883 259.440,68.106 259.862,68.106 260.076 C 68.106 260.290,68.256 260.465,68.439 260.465 C 68.621 260.465,68.771 260.689,68.771 260.963 C 68.771 261.238,68.910 261.462,69.081 261.462 C 69.251 261.462,69.477 261.723,69.582 262.043 C 69.688 262.363,70.225 263.148,70.776 263.787 C 71.326 264.427,72.334 265.603,73.015 266.402 C 73.696 267.200,76.053 269.721,78.254 272.004 L 82.256 276.154 79.565 278.858 C 78.086 280.345,75.911 282.667,74.733 284.017 C 73.555 285.368,72.292 286.814,71.927 287.230 C 70.503 288.851,70.114 289.369,70.320 289.369 C 70.437 289.369,70.212 289.648,69.818 289.989 C 69.425 290.330,69.103 290.779,69.103 290.986 C 69.103 291.193,68.945 291.362,68.751 291.362 C 68.558 291.362,68.482 291.496,68.583 291.660 C 68.684 291.823,68.544 292.043,68.271 292.147 C 67.997 292.252,67.774 292.567,67.774 292.847 C 67.774 293.127,67.642 293.355,67.481 293.355 C 67.319 293.355,67.097 293.617,66.986 293.937 C 66.876 294.257,66.493 294.967,66.135 295.515 C 64.947 297.338,63.604 299.915,61.632 304.153 C 60.975 305.563,59.725 309.137,58.493 313.123 C 55.841 321.704,55.180 334.466,57.143 339.190 C 62.715 352.602,80.435 352.854,87.273 339.618 L 87.831 338.538 129.077 338.538 L 170.323 338.538 171.272 340.449 C 177.094 352.164,194.040 352.287,200.238 340.659 C 202.822 335.810,202.598 322.856,199.773 313.787 C 198.908 311.011,196.992 305.553,196.449 304.319 C 195.325 301.766,193.287 297.817,192.837 297.319 C 192.574 297.029,192.359 296.560,192.359 296.277 C 192.359 295.994,192.159 295.597,191.915 295.394 C 191.671 295.192,191.124 294.351,190.700 293.526 C 190.276 292.701,189.803 292.027,189.649 292.027 C 189.495 292.027,189.369 291.866,189.369 291.671 C 189.369 291.475,189.182 291.114,188.953 290.869 C 188.725 290.623,188.164 289.935,187.708 289.339 C 187.251 288.743,186.680 288.057,186.438 287.815 C 186.197 287.573,186.083 287.375,186.187 287.375 C 186.432 287.375,185.325 286.073,183.032 283.665 C 182.014 282.595,181.233 281.668,181.297 281.605 C 181.360 281.541,180.773 280.961,179.992 280.316 C 179.211 279.670,177.917 278.534,177.118 277.790 L 175.664 276.437 176.999 274.843 C 177.733 273.966,179.509 272.124,180.944 270.749 C 182.380 269.374,184.153 267.525,184.884 266.640 C 185.615 265.756,186.362 264.864,186.545 264.659 C 187.517 263.566,191.316 258.110,191.821 257.081 C 191.939 256.841,192.376 256.047,192.792 255.316 C 196.219 249.295,198.568 243.333,200.316 236.213 C 200.852 234.030,201.095 232.824,201.550 230.066 C 202.188 226.201,201.940 210.682,201.177 206.716 C 201.108 206.358,200.967 205.559,200.864 204.942 C 200.371 201.993,199.016 196.963,198.143 194.850 C 197.510 193.315,197.236 192.632,196.623 191.051 C 195.728 188.747,192.428 182.458,191.821 181.902 C 191.617 181.715,191.244 181.076,190.993 180.482 C 190.741 179.888,190.422 179.402,190.284 179.402 C 190.146 179.402,190.033 179.178,190.033 178.904 C 190.033 178.630,189.884 178.405,189.701 178.405 C 189.518 178.405,189.369 178.236,189.369 178.029 C 189.369 177.822,189.047 177.374,188.653 177.032 C 188.260 176.691,188.042 176.412,188.168 176.412 C 188.412 176.412,188.028 175.903,186.779 174.569 C 186.359 174.121,186.098 173.754,186.198 173.754 C 186.297 173.754,186.117 173.478,185.797 173.140 C 185.478 172.803,184.394 171.573,183.389 170.407 C 181.537 168.259,177.967 164.750,176.302 163.440 L 175.391 162.724 179.811 158.355 C 182.242 155.952,184.677 153.409,185.222 152.703 C 185.767 151.998,186.437 151.152,186.711 150.824 C 186.985 150.496,187.434 149.897,187.708 149.492 C 187.982 149.087,188.379 148.574,188.591 148.352 C 188.803 148.130,189.468 147.139,190.070 146.150 C 190.671 145.161,191.256 144.277,191.370 144.186 C 191.484 144.095,191.680 143.796,191.806 143.522 C 192.026 143.044,193.458 140.433,194.266 139.037 C 194.608 138.446,195.496 136.512,197.089 132.890 C 198.221 130.317,200.218 123.805,200.655 121.262 C 200.827 120.257,201.032 119.136,201.110 118.771 C 201.188 118.405,201.368 117.135,201.511 115.947 C 201.654 114.759,201.813 113.488,201.863 113.123 C 202.990 104.980,201.323 97.961,197.328 94.022 C 196.101 92.812,194.234 91.375,193.880 91.368 C 193.712 91.365,193.317 91.130,193.004 90.846 C 192.690 90.562,192.117 90.306,191.732 90.277 C 191.346 90.248,191.030 90.106,191.030 89.963 C 191.030 89.469,181.413 89.658,180.450 90.170 C 179.965 90.427,179.007 90.883,178.322 91.182 C 177.637 91.481,177.076 91.893,177.076 92.098 C 177.076 92.302,176.989 92.382,176.882 92.275 C 176.288 91.681,172.368 95.879,171.131 98.434 L 170.373 100.000 129.063 100.000 C 88.007 100.000,87.751 99.996,87.541 99.334 C 87.425 98.967,86.953 98.220,86.492 97.673 C 86.032 97.125,85.749 96.678,85.864 96.678 C 86.208 96.678,83.373 93.622,81.979 92.490 C 81.186 91.847,77.285 90.099,76.080 89.847 C 74.464 89.510,69.967 89.280,69.724 89.522 M74.113 100.844 C 75.289 101.452,77.059 103.235,77.118 103.870 C 77.141 104.117,77.187 104.431,77.220 104.568 C 77.253 104.705,77.401 106.238,77.548 107.973 C 77.696 109.709,77.858 111.354,77.907 111.628 C 77.957 111.902,78.093 112.724,78.209 113.455 C 78.589 115.844,80.056 121.731,80.611 123.090 C 81.815 126.039,82.171 126.833,83.216 128.904 C 84.912 132.263,86.654 135.176,87.510 136.085 C 87.710 136.298,88.171 136.899,88.535 137.422 C 89.366 138.618,95.870 145.123,97.124 146.013 C 97.639 146.379,98.445 147.001,98.915 147.396 C 99.384 147.791,100.157 148.314,100.632 148.558 C 101.107 148.803,101.570 149.077,101.661 149.169 C 102.197 149.706,108.785 153.006,111.462 154.077 C 115.265 155.600,120.969 156.594,129.070 157.145 C 141.344 157.980,147.986 159.543,155.961 163.474 C 160.149 165.538,160.626 165.803,162.353 167.026 C 162.935 167.437,163.506 167.774,163.623 167.774 C 163.739 167.774,164.030 167.961,164.269 168.189 C 164.507 168.418,165.038 168.829,165.448 169.103 C 167.422 170.422,175.736 178.452,177.838 181.071 C 178.348 181.706,179.133 182.674,179.582 183.223 C 180.031 183.771,180.398 184.406,180.398 184.635 C 180.398 184.863,180.531 185.050,180.692 185.050 C 180.854 185.050,181.076 185.311,181.187 185.631 C 181.297 185.951,181.685 186.661,182.050 187.209 C 182.985 188.617,186.711 196.157,186.711 196.641 C 186.711 196.862,186.933 197.473,187.205 197.999 C 191.108 205.547,192.130 223.883,189.229 234.325 C 188.940 235.363,188.468 237.072,188.179 238.123 C 187.891 239.174,187.517 240.175,187.349 240.349 C 187.181 240.522,187.043 240.860,187.043 241.100 C 187.043 241.339,186.757 242.169,186.408 242.944 C 186.059 243.718,185.360 245.324,184.856 246.512 C 184.351 247.699,183.625 249.120,183.242 249.668 C 182.858 250.216,182.323 251.113,182.053 251.661 C 181.783 252.209,181.337 252.840,181.063 253.063 C 180.789 253.285,180.705 253.472,180.877 253.478 C 181.049 253.484,180.900 253.708,180.545 253.976 C 180.191 254.244,180.023 254.469,180.173 254.474 C 180.323 254.480,180.249 254.693,180.007 254.946 C 179.151 255.845,178.414 256.811,178.583 256.811 C 178.854 256.811,176.927 258.891,172.176 263.725 C 169.755 266.189,167.774 268.085,167.774 267.939 C 167.774 267.792,167.495 267.994,167.154 268.388 C 166.131 269.567,165.612 269.442,160.261 266.733 C 158.589 265.886,156.680 265.015,156.019 264.797 C 154.319 264.236,154.541 263.880,157.932 261.724 C 162.983 258.513,168.953 252.428,172.307 247.072 C 178.349 237.424,181.100 226.111,180.078 215.115 C 179.874 212.923,179.665 210.905,179.613 210.631 C 179.193 208.409,178.652 206.006,178.417 205.316 C 178.262 204.859,177.882 203.666,177.574 202.665 C 177.034 200.913,175.065 196.380,174.396 195.349 C 174.219 195.075,173.850 194.365,173.577 193.771 C 173.304 193.177,172.933 192.691,172.753 192.691 C 172.573 192.691,172.425 192.538,172.425 192.352 C 172.425 190.591,164.241 181.279,160.461 178.738 C 160.053 178.463,159.513 178.042,159.262 177.800 C 159.010 177.559,158.802 177.484,158.799 177.634 C 158.796 177.784,158.684 177.757,158.550 177.573 C 158.244 177.154,156.148 175.608,155.482 175.309 C 155.208 175.186,153.713 174.406,152.159 173.575 C 150.606 172.744,149.111 172.028,148.837 171.983 C 148.563 171.939,147.835 171.649,147.219 171.339 C 146.603 171.029,145.980 170.848,145.835 170.938 C 145.690 171.027,145.522 170.951,145.460 170.769 C 145.399 170.587,144.938 170.404,144.435 170.362 C 143.933 170.321,143.522 170.187,143.522 170.065 C 143.522 169.943,143.110 169.759,142.608 169.656 C 142.105 169.553,140.648 169.245,139.369 168.971 C 138.090 168.698,134.875 168.314,132.226 168.120 C 128.236 167.827,123.188 167.386,118.605 166.929 C 118.148 166.883,116.382 166.517,114.681 166.115 C 112.981 165.713,111.411 165.346,111.193 165.300 C 110.768 165.210,110.221 165.017,108.140 164.218 C 107.409 163.937,106.512 163.598,106.146 163.464 C 105.781 163.330,104.360 162.673,102.990 162.004 C 101.620 161.335,100.335 160.790,100.135 160.792 C 99.934 160.795,99.500 160.498,99.169 160.133 C 98.839 159.767,98.351 159.468,98.086 159.468 C 97.821 159.468,97.022 159.007,96.310 158.444 C 95.599 157.880,95.017 157.535,95.017 157.677 C 95.017 157.818,94.797 157.644,94.529 157.289 C 94.261 156.935,94.036 156.755,94.030 156.890 C 94.021 157.122,93.186 156.521,92.156 155.541 C 91.902 155.300,91.694 155.199,91.694 155.317 C 91.694 155.436,91.249 155.110,90.705 154.594 C 90.161 154.077,88.932 152.982,87.974 152.159 C 85.494 150.031,80.172 144.518,80.598 144.518 C 80.686 144.518,80.378 144.109,79.914 143.608 C 79.450 143.107,79.070 142.595,79.070 142.469 C 79.070 142.343,78.876 142.043,78.639 141.801 C 78.118 141.271,76.280 138.569,75.967 137.874 C 75.844 137.600,75.364 136.777,74.901 136.047 C 74.438 135.316,73.684 133.895,73.225 132.890 C 72.766 131.885,72.179 130.615,71.921 130.066 C 70.417 126.877,68.484 120.496,67.942 116.930 C 67.843 116.283,67.694 115.398,67.610 114.963 C 65.638 104.723,68.712 98.051,74.113 100.844 M188.636 101.332 C 190.814 102.468,191.153 103.585,190.939 108.948 C 190.703 114.866,188.291 126.423,187.019 127.724 C 186.850 127.898,186.711 128.249,186.711 128.504 C 186.711 128.759,185.981 130.486,185.089 132.341 C 184.198 134.196,183.369 135.939,183.249 136.213 C 182.685 137.498,180.124 141.231,178.797 142.703 C 178.555 142.970,178.451 143.189,178.565 143.189 C 178.679 143.189,178.368 143.563,177.876 144.020 C 177.383 144.477,177.083 144.850,177.209 144.850 C 177.336 144.850,176.618 145.624,175.613 146.570 C 174.609 147.515,173.822 148.375,173.866 148.480 C 173.910 148.585,173.454 149.144,172.853 149.722 C 172.252 150.301,171.761 150.680,171.761 150.565 C 171.761 150.450,170.864 151.292,169.767 152.437 C 168.671 153.582,167.774 154.431,167.774 154.323 C 167.774 154.138,167.370 154.431,166.292 155.398 C 165.915 155.736,165.050 155.439,161.626 153.794 C 159.314 152.683,156.882 151.587,156.222 151.359 C 154.474 150.753,154.567 150.507,157.228 148.680 C 158.551 147.771,160.008 146.724,160.464 146.354 C 161.736 145.322,169.173 137.792,170.009 136.690 C 170.835 135.601,172.381 133.363,172.990 132.375 C 173.508 131.534,176.764 124.950,177.088 124.086 C 178.816 119.492,179.670 115.402,180.396 108.232 C 180.900 103.253,181.454 102.036,183.721 100.925 C 185.131 100.235,186.794 100.372,188.636 101.332 M227.160 107.107 C 226.866 107.401,226.472 107.641,226.285 107.641 C 225.597 107.641,224.275 109.337,224.018 110.548 C 223.729 111.911,223.695 136.195,223.978 138.418 C 224.574 143.080,229.943 144.528,233.489 140.982 L 234.941 139.530 234.829 124.998 C 234.706 108.930,234.745 109.220,232.480 107.531 C 231.250 106.615,227.918 106.349,227.160 107.107 M256.888 106.997 C 253.020 107.759,247.852 111.990,245.870 116.017 L 244.791 118.207 244.791 124.917 L 244.791 131.627 245.805 133.671 C 250.723 143.588,263.575 146.131,271.593 138.774 C 272.782 137.683,273.754 136.586,273.754 136.336 C 273.754 136.085,273.904 135.880,274.086 135.880 C 274.269 135.880,274.419 135.656,274.419 135.382 C 274.419 135.108,274.552 134.884,274.714 134.884 C 276.421 134.884,277.867 125.126,276.874 120.309 C 275.996 116.053,272.445 110.723,269.462 109.185 C 268.990 108.942,267.964 108.402,267.181 107.986 C 265.054 106.856,260.045 106.375,256.888 106.997 M288.736 107.072 C 285.085 108.077,284.884 109.044,284.884 125.581 L 284.884 138.704 285.810 140.281 C 287.830 143.717,291.910 143.940,294.946 140.781 L 296.038 139.644 295.917 125.719 C 295.794 111.531,295.713 109.939,295.044 108.690 C 294.220 107.149,291.236 106.384,288.736 107.072 M307.200 107.357 C 304.842 108.579,304.824 108.702,304.820 123.920 C 304.816 140.829,304.806 140.748,307.181 142.217 C 309.695 143.770,314.401 142.691,314.734 140.484 C 314.772 140.236,314.910 139.861,315.042 139.651 C 315.256 139.309,315.472 117.931,315.320 112.133 C 315.204 107.732,311.118 105.328,307.200 107.357 M331.678 107.285 C 323.916 109.474,319.872 115.828,320.021 125.600 L 320.100 130.767 321.393 133.382 C 322.659 135.943,326.649 140.532,327.610 140.532 C 327.824 140.532,328.166 140.748,328.369 141.012 C 329.347 142.285,332.031 142.845,336.787 142.766 L 341.362 142.691 343.605 141.429 C 344.838 140.735,345.847 140.025,345.847 139.851 C 345.847 139.677,346.041 139.535,346.278 139.535 C 347.235 139.535,350.544 135.334,351.649 132.717 C 352.757 130.091,352.988 121.480,352.039 118.213 C 351.101 114.988,346.295 108.970,344.658 108.970 C 344.398 108.970,344.186 108.831,344.186 108.662 C 344.186 107.185,335.444 106.223,331.678 107.285 M168.659 112.771 C 168.421 114.504,165.930 122.089,165.243 123.173 L 164.769 123.920 128.886 123.920 C 95.005 123.920,92.992 123.888,92.811 123.339 C 92.706 123.019,92.419 122.301,92.173 121.744 C 91.207 119.554,89.296 113.331,89.219 112.126 C 89.177 111.467,92.769 111.399,130.527 111.348 L 168.861 111.296 168.659 112.771 M263.395 118.615 C 265.888 120.135,266.774 125.401,265.153 129.065 C 263.353 133.132,257.634 132.763,256.017 128.476 C 253.573 121.995,258.387 115.561,263.395 118.615 M338.825 118.627 C 340.990 119.858,341.309 120.606,341.468 124.841 L 341.611 128.621 340.490 129.787 C 335.315 135.172,329.172 129.368,331.571 121.360 C 332.495 118.277,335.932 116.982,338.825 118.627 M155.570 135.184 C 155.816 135.418,153.609 137.874,153.152 137.874 C 153.029 137.874,152.493 138.248,151.962 138.705 C 151.431 139.162,150.517 139.764,149.931 140.043 C 149.345 140.321,148.778 140.691,148.671 140.864 C 148.339 141.401,144.206 143.054,140.810 144.008 C 139.959 144.247,139.100 144.543,138.901 144.665 C 138.552 144.881,137.941 145.044,136.213 145.380 C 134.025 145.806,125.930 145.907,123.445 145.540 C 119.984 145.028,120.027 145.036,118.272 144.536 C 117.450 144.301,116.628 144.075,116.445 144.033 C 115.768 143.876,114.066 143.128,112.223 142.176 C 111.180 141.637,110.119 141.196,109.866 141.196 C 109.613 141.196,109.138 140.901,108.811 140.539 C 108.484 140.178,108.086 139.963,107.927 140.062 C 107.767 140.161,107.547 140.008,107.437 139.722 C 107.328 139.436,107.067 139.202,106.858 139.202 C 106.649 139.202,106.044 138.828,105.513 138.372 C 104.982 137.915,104.450 137.542,104.330 137.542 C 104.003 137.542,101.993 135.512,101.993 135.182 C 101.993 134.601,154.961 134.603,155.570 135.184 M235.833 154.127 C 233.902 154.645,232.228 155.446,230.591 156.634 C 228.248 158.333,225.173 162.421,224.806 164.321 C 224.739 164.667,224.591 165.174,224.477 165.449 C 223.055 168.870,223.514 176.957,225.336 180.557 C 232.070 193.870,249.709 192.937,255.756 178.948 C 257.173 175.669,255.834 161.462,254.107 161.462 C 253.950 161.462,253.821 161.274,253.821 161.044 C 253.821 160.239,248.914 155.840,247.113 155.029 C 243.918 153.591,239.225 153.216,235.833 154.127 M264.184 154.109 C 263.692 154.358,262.803 155.023,262.209 155.586 L 261.130 156.609 261.130 171.952 L 261.130 187.295 262.566 188.472 C 265.471 190.852,271.296 189.698,271.453 186.711 C 271.468 186.437,271.563 185.914,271.665 185.548 C 271.767 185.183,271.904 178.646,271.969 171.022 L 272.088 157.160 271.044 155.972 C 269.182 153.851,266.257 153.056,264.184 154.109 M284.136 153.831 C 283.725 153.996,283.389 154.250,283.389 154.396 C 283.389 154.541,283.058 154.807,282.654 154.988 C 280.626 155.893,280.563 156.374,280.581 170.930 C 280.590 178.239,280.637 184.756,280.686 185.413 C 281.006 189.735,286.676 191.427,289.984 188.188 L 291.528 186.675 291.452 172.822 C 291.410 165.204,291.369 158.473,291.360 157.864 C 291.320 155.164,286.925 152.710,284.136 153.831 M345.802 153.719 C 344.345 153.949,342.328 155.934,341.913 157.547 C 341.468 159.279,341.416 183.585,341.854 185.522 C 342.857 189.961,347.620 191.377,351.016 188.248 L 352.504 186.877 352.526 172.924 C 352.547 159.481,352.440 156.962,351.795 155.754 C 351.018 154.301,348.194 153.342,345.802 153.719 M311.047 154.055 C 310.635 154.134,310.299 154.338,310.299 154.508 C 310.299 154.678,310.187 154.801,310.050 154.781 C 309.532 154.707,308.306 155.240,308.306 155.540 C 308.306 155.712,308.174 155.772,308.013 155.672 C 307.196 155.168,302.828 159.633,301.050 162.791 L 299.834 164.950 299.723 171.096 C 299.596 178.160,299.741 178.904,301.870 182.117 C 305.046 186.911,309.410 189.647,314.195 189.847 C 326.891 190.377,334.167 180.772,331.795 166.611 C 330.921 161.396,325.206 155.005,320.843 154.365 C 320.536 154.320,320.181 154.179,320.054 154.052 C 319.809 153.807,312.319 153.810,311.047 154.055 M244.566 167.352 C 245.273 168.497,245.469 172.014,244.975 174.723 C 244.387 177.955,241.388 179.521,238.278 178.221 C 237.599 177.938,236.996 177.721,236.938 177.740 C 236.514 177.882,235.470 175.780,235.176 174.191 C 234.450 170.274,235.868 165.759,237.971 165.291 C 240.978 164.621,243.332 165.357,244.566 167.352 M318.769 165.826 C 321.198 167.491,321.820 172.501,320.084 176.425 C 318.725 179.495,312.879 179.369,311.296 176.236 C 309.634 172.946,311.307 165.434,313.787 165.052 C 315.620 164.770,317.699 165.093,318.769 165.826 M134.551 179.586 C 138.525 179.989,141.929 181.031,146.844 183.350 C 148.032 183.910,149.300 184.559,149.662 184.792 C 151.500 185.974,153.359 187.211,153.654 187.451 C 156.189 189.504,156.155 189.530,150.560 189.816 C 145.093 190.094,103.730 190.035,102.703 189.747 C 101.919 189.527,101.919 189.525,102.996 188.700 C 103.590 188.246,104.373 187.616,104.737 187.300 C 105.102 186.985,106.091 186.309,106.936 185.799 C 107.780 185.288,108.771 184.682,109.136 184.452 C 111.675 182.853,118.304 180.373,122.259 179.542 C 124.291 179.114,130.105 179.136,134.551 179.586 M226.412 201.276 C 225.316 201.946,224.336 202.987,224.793 202.995 C 224.953 202.998,224.897 203.118,224.670 203.263 C 223.770 203.834,223.209 227.077,223.983 231.728 C 224.074 232.276,224.172 233.038,224.200 233.421 C 224.461 236.905,230.324 237.935,233.357 235.029 L 234.928 233.523 234.823 219.004 C 234.748 208.638,234.606 204.295,234.327 203.821 C 234.112 203.455,233.853 202.891,233.753 202.567 C 233.652 202.243,233.305 201.878,232.981 201.755 C 232.657 201.633,232.194 201.337,231.953 201.098 C 231.270 200.423,227.616 200.540,226.412 201.276 M253.987 201.919 C 249.819 204.136,245.560 208.919,245.003 212.009 C 244.765 213.333,244.748 224.422,244.983 225.503 C 245.646 228.554,250.219 233.654,253.989 235.548 C 257.067 237.094,262.282 237.239,266.795 235.902 C 267.445 235.710,268.298 235.253,268.692 234.886 C 269.085 234.519,269.538 234.219,269.697 234.219 C 269.857 234.219,271.038 233.135,272.322 231.811 C 276.174 227.837,277.231 224.985,277.216 218.605 C 277.212 216.869,277.103 215.000,276.973 214.452 C 276.843 213.904,276.652 213.081,276.549 212.625 C 274.936 205.528,268.916 201.060,260.631 200.811 L 256.312 200.682 253.987 201.919 M287.793 201.142 C 286.684 201.755,285.708 202.711,285.890 203.006 C 285.978 203.149,285.903 203.316,285.723 203.377 C 284.713 203.720,284.313 231.048,285.285 233.268 C 287.135 237.490,292.073 238.159,295.044 234.591 L 296.045 233.389 295.946 218.937 C 295.875 208.612,295.736 204.295,295.456 203.821 C 295.241 203.455,294.983 202.891,294.882 202.567 C 294.782 202.243,294.434 201.878,294.111 201.755 C 293.787 201.633,293.324 201.337,293.083 201.098 C 292.524 200.546,288.815 200.576,287.793 201.142 M316.705 200.978 C 311.577 202.240,306.054 207.880,305.066 212.864 C 304.739 214.517,304.750 222.318,305.083 224.374 C 305.747 228.476,309.165 232.791,313.670 235.217 L 316.445 236.711 320.764 236.711 C 326.386 236.711,328.314 235.969,332.277 232.285 C 333.861 230.812,336.129 227.478,336.301 226.368 C 336.354 226.027,336.504 225.578,336.633 225.371 C 338.023 223.146,337.307 210.299,335.793 210.299 C 335.597 210.299,335.534 210.202,335.653 210.084 C 336.572 209.164,331.503 203.639,328.388 202.166 C 325.503 200.801,319.785 200.219,316.705 200.978 M344.684 201.133 C 341.747 202.439,341.715 202.632,341.704 218.937 C 341.695 231.757,341.738 232.812,342.317 233.977 C 344.019 237.403,348.235 237.866,351.122 234.944 L 352.658 233.389 352.627 219.767 C 352.590 202.865,352.517 202.362,349.939 201.037 C 348.957 200.533,345.911 200.588,344.684 201.133 M165.716 202.913 C 166.798 205.428,168.445 210.584,168.654 212.113 L 168.846 213.512 156.794 213.733 C 142.848 213.988,113.616 213.950,99.169 213.657 L 89.203 213.455 89.279 212.625 C 89.416 211.132,91.112 205.733,92.354 202.836 L 93.000 201.329 129.017 201.329 L 165.034 201.329 165.716 202.913 M324.099 212.768 C 326.634 214.429,326.972 221.339,324.654 224.098 C 322.501 226.659,317.974 225.825,316.414 222.579 C 313.379 216.262,318.823 209.311,324.099 212.768 M263.685 212.570 C 267.157 214.428,266.593 223.585,262.912 225.123 C 257.569 227.356,253.430 221.120,256.108 214.872 C 257.297 212.099,260.810 211.031,263.685 212.570 M168.770 225.664 C 168.769 226.772,167.261 232.199,166.293 234.582 C 165.828 235.725,165.449 236.821,165.449 237.017 C 165.449 237.272,154.956 237.350,129.264 237.289 L 93.080 237.203 92.363 235.628 C 91.969 234.762,91.484 233.755,91.285 233.391 C 91.086 233.027,90.808 232.279,90.667 231.730 C 90.525 231.180,90.191 229.909,89.923 228.904 C 89.656 227.899,89.346 226.672,89.234 226.177 L 89.031 225.277 102.717 225.256 C 110.245 225.245,116.475 225.164,116.563 225.076 C 116.650 224.989,128.433 224.917,142.746 224.917 L 168.771 224.917 168.770 225.664 M227.049 248.004 C 223.937 249.340,223.675 250.649,223.657 264.950 C 223.637 280.893,223.783 281.713,226.930 283.304 C 229.722 284.714,232.575 283.712,234.251 280.731 C 234.806 279.743,235.040 254.451,234.519 251.666 C 233.895 248.321,230.353 246.585,227.049 248.004 M247.962 247.738 C 247.572 247.814,246.637 248.404,245.884 249.049 L 244.515 250.221 244.600 265.393 C 244.669 277.889,244.770 280.732,245.168 281.510 C 245.993 283.125,250.347 284.771,251.000 283.716 C 251.115 283.530,251.343 283.461,251.508 283.563 C 251.959 283.842,253.750 282.812,254.166 282.035 C 254.887 280.688,254.939 279.705,255.064 265.138 L 255.191 250.375 253.960 249.248 C 252.156 247.595,250.639 247.213,247.962 247.738 M266.777 247.721 C 263.362 249.093,263.038 250.804,263.217 266.535 C 263.360 279.115,263.395 279.841,263.899 280.648 C 264.042 280.876,264.049 281.063,263.915 281.063 C 263.781 281.063,264.034 281.457,264.477 281.938 C 267.868 285.619,273.489 283.951,273.956 279.126 C 274.455 273.976,274.178 251.622,273.600 250.405 C 272.575 248.244,268.988 246.833,266.777 247.721 M295.349 247.865 C 279.936 250.955,278.093 275.540,292.748 282.563 L 295.155 283.717 299.654 283.622 C 304.007 283.530,304.217 283.492,306.147 282.453 C 308.037 281.436,312.292 277.876,312.292 277.312 C 312.292 277.167,312.591 276.728,312.957 276.335 C 313.322 275.943,313.621 275.426,313.621 275.187 C 313.621 274.947,313.748 274.751,313.903 274.751 C 315.597 274.751,315.859 258.871,314.199 256.848 C 313.957 256.553,313.541 255.872,313.275 255.334 C 310.566 249.859,302.392 246.453,295.349 247.865 M331.496 247.979 C 327.598 249.014,321.303 255.262,320.852 258.544 C 320.794 258.961,320.666 259.452,320.566 259.635 C 320.216 260.274,320.105 262.000,320.102 266.796 L 320.100 271.632 321.364 274.190 C 324.910 281.360,331.294 284.693,339.369 283.590 C 341.021 283.364,345.515 281.456,345.515 280.980 C 345.515 280.843,345.702 280.727,345.930 280.722 C 346.588 280.707,350.017 277.046,350.745 275.581 C 353.186 270.669,353.390 261.682,351.169 256.901 C 349.981 254.344,343.854 248.009,343.854 249.339 C 343.854 249.454,343.632 249.327,343.360 249.056 C 342.155 247.851,334.570 247.162,331.496 247.979 M156.478 248.806 C 156.478 248.964,156.067 249.362,155.565 249.690 C 155.062 250.019,154.481 250.447,154.273 250.642 C 153.281 251.572,152.491 252.130,152.481 251.907 C 152.475 251.772,152.288 251.892,152.066 252.173 C 151.843 252.455,151.138 252.945,150.498 253.262 C 149.859 253.579,149.111 253.978,148.837 254.149 C 147.383 255.053,143.522 257.087,143.522 256.948 C 143.522 256.860,143.220 256.949,142.850 257.147 C 139.945 258.701,129.797 259.761,124.135 259.101 C 122.281 258.885,120.390 258.667,119.934 258.616 C 119.477 258.565,118.206 258.208,117.110 257.822 C 116.013 257.437,115.080 257.122,115.037 257.123 C 114.777 257.128,113.713 256.715,113.289 256.445 C 113.015 256.270,111.894 255.681,110.797 255.137 C 109.701 254.592,108.507 253.961,108.145 253.734 C 105.866 252.309,104.453 251.327,104.241 251.019 C 104.107 250.824,103.995 250.782,103.992 250.925 C 103.986 251.211,101.661 248.970,101.661 248.679 C 101.661 248.579,113.995 248.503,129.070 248.509 C 144.208 248.515,156.478 248.648,156.478 248.806 M300.770 258.953 C 305.548 260.657,306.088 270.387,301.496 272.047 C 296.585 273.823,293.365 270.484,294.095 264.372 C 294.662 259.622,297.099 257.644,300.770 258.953 M339.093 259.532 C 341.664 261.255,342.269 269.114,339.988 271.152 C 338.646 272.351,336.615 272.884,335.109 272.433 C 334.346 272.204,333.697 272.071,333.668 272.138 C 333.552 272.404,332.178 270.398,331.710 269.279 C 331.098 267.813,331.026 263.921,331.580 262.222 C 331.935 261.132,333.555 258.726,333.555 259.287 C 333.555 259.399,333.966 259.262,334.468 258.984 C 335.780 258.258,337.497 258.461,339.093 259.532 M95.508 284.524 C 97.156 285.331,99.701 286.547,101.163 287.226 C 103.759 288.431,103.797 288.466,102.824 288.739 C 101.904 288.997,101.097 289.585,97.033 292.963 C 95.046 294.615,90.139 299.526,88.704 301.299 C 88.065 302.089,87.344 302.943,87.103 303.195 C 86.861 303.448,86.786 303.659,86.936 303.665 C 87.086 303.670,86.948 303.827,86.628 304.013 C 86.308 304.200,86.047 304.569,86.047 304.834 C 86.047 305.099,85.932 305.316,85.793 305.316 C 85.654 305.316,85.392 305.614,85.212 305.979 C 85.031 306.344,84.122 308.175,83.191 310.049 C 80.985 314.486,79.539 318.268,79.381 320.010 C 79.369 320.144,79.218 320.742,79.044 321.339 C 78.625 322.788,78.157 325.753,77.743 329.582 C 77.301 333.675,77.085 334.906,76.666 335.714 C 76.296 336.428,75.083 337.697,75.083 337.370 C 75.083 337.261,74.751 337.404,74.345 337.689 C 72.285 339.132,68.549 337.683,67.540 335.050 C 65.740 330.356,69.073 312.676,73.019 305.980 C 74.485 303.493,75.019 302.531,75.415 301.663 C 75.623 301.207,76.157 300.357,76.601 299.774 C 77.045 299.192,77.409 298.556,77.409 298.361 C 77.409 298.166,77.526 298.007,77.669 298.007 C 77.813 298.007,78.215 297.521,78.564 296.927 C 78.913 296.333,79.356 295.681,79.549 295.477 C 79.742 295.274,80.424 294.466,81.063 293.683 C 82.432 292.006,88.659 285.748,89.961 284.741 C 92.572 282.722,91.884 282.749,95.508 284.524 M130.897 292.695 C 132.085 292.873,133.804 293.111,134.718 293.225 C 138.343 293.677,142.659 295.031,146.291 296.857 C 151.185 299.318,152.262 299.953,153.608 301.174 C 153.816 301.362,154.484 301.867,155.092 302.294 C 155.731 302.744,156.074 303.195,155.904 303.365 C 155.738 303.531,143.995 303.622,128.806 303.573 L 102.002 303.488 103.129 302.326 C 104.576 300.832,105.204 300.332,105.634 300.332 C 105.824 300.332,105.980 300.200,105.980 300.039 C 105.980 299.877,106.242 299.655,106.561 299.546 C 106.881 299.436,107.741 298.964,108.472 298.497 C 109.700 297.712,111.340 296.896,114.816 295.339 C 117.161 294.288,120.665 293.539,128.571 292.396 C 128.663 292.383,129.709 292.517,130.897 292.695 M251.725 303.338 C 246.694 304.178,245.434 311.394,250.000 313.216 C 251.837 313.950,254.796 313.992,302.159 313.958 L 349.336 313.924 350.925 312.345 C 354.321 308.973,352.372 303.669,347.576 303.227 C 344.483 302.943,253.465 303.048,251.725 303.338 M165.552 316.030 C 166.226 317.454,167.884 322.551,168.531 325.189 L 169.046 327.288 129.390 327.182 C 103.529 327.113,89.622 326.961,89.412 326.744 C 89.032 326.352,90.861 319.779,92.163 316.860 L 93.015 314.950 129.028 314.950 L 165.041 314.950 165.552 316.030 M284.053 326.927 C 281.586 327.047,279.558 327.167,279.545 327.194 C 279.533 327.221,278.990 327.728,278.339 328.322 C 274.517 331.808,276.385 336.706,281.852 337.535 C 284.644 337.958,343.883 338.134,347.176 337.729 C 353.931 336.898,354.759 327.989,348.172 327.015 C 346.199 326.723,289.821 326.645,284.053 326.927 " stroke="none" fill="#2ca40c" fill-rule="evenodd"></path><path id="path1" d="M230.980 9.864 C 231.300 9.947,231.823 9.947,232.143 9.864 C 232.463 9.780,232.201 9.712,231.561 9.712 C 230.922 9.712,230.660 9.780,230.980 9.864 M263.206 9.864 C 263.526 9.947,264.049 9.947,264.369 9.864 C 264.689 9.780,264.427 9.712,263.787 9.712 C 263.148 9.712,262.886 9.780,263.206 9.864 M297.437 15.116 C 297.440 16.030,297.504 16.364,297.581 15.859 C 297.657 15.354,297.655 14.607,297.576 14.198 C 297.497 13.789,297.435 14.203,297.437 15.116 M205.399 20.515 C 221.798 20.563,248.634 20.563,265.033 20.515 C 281.433 20.467,268.015 20.428,235.216 20.428 C 202.417 20.428,188.999 20.467,205.399 20.515 M314.386 20.514 C 316.177 20.574,319.018 20.573,320.698 20.513 C 322.379 20.453,320.914 20.404,317.442 20.404 C 313.970 20.405,312.595 20.454,314.386 20.514 M90.483 45.681 C 90.482 47.326,90.539 48.040,90.608 47.269 C 90.678 46.498,90.679 45.153,90.610 44.279 C 90.541 43.406,90.484 44.037,90.483 45.681 M25.712 66.445 C 25.712 68.912,25.764 69.921,25.828 68.688 C 25.892 67.454,25.892 65.436,25.828 64.203 C 25.764 62.969,25.712 63.978,25.712 66.445 M204.236 82.294 C 204.647 82.373,205.320 82.373,205.731 82.294 C 206.142 82.215,205.806 82.150,204.983 82.150 C 204.161 82.150,203.825 82.215,204.236 82.294 M233.804 82.294 C 234.215 82.373,234.888 82.373,235.299 82.294 C 235.710 82.215,235.374 82.150,234.551 82.150 C 233.729 82.150,233.393 82.215,233.804 82.294 M249.751 82.294 C 250.162 82.373,250.835 82.373,251.246 82.294 C 251.657 82.215,251.321 82.150,250.498 82.150 C 249.676 82.150,249.340 82.215,249.751 82.294 M264.037 82.303 C 264.813 82.373,266.084 82.373,266.860 82.303 C 267.637 82.233,267.002 82.176,265.449 82.176 C 263.895 82.176,263.260 82.233,264.037 82.303 M279.983 82.303 C 280.760 82.373,282.031 82.373,282.807 82.303 C 283.584 82.233,282.949 82.176,281.395 82.176 C 279.842 82.176,279.207 82.233,279.983 82.303 M324.834 82.294 C 325.245 82.373,325.918 82.373,326.329 82.294 C 326.740 82.215,326.404 82.150,325.581 82.150 C 324.759 82.150,324.423 82.215,324.834 82.294 M354.402 82.294 C 354.813 82.373,355.486 82.373,355.897 82.294 C 356.308 82.215,355.972 82.150,355.150 82.150 C 354.327 82.150,353.991 82.215,354.402 82.294 M55.909 105.482 C 55.911 106.395,55.976 106.730,56.052 106.225 C 56.129 105.720,56.127 104.972,56.048 104.564 C 55.969 104.155,55.906 104.568,55.909 105.482 M92.774 111.534 C 93.277 111.610,94.099 111.610,94.601 111.534 C 95.104 111.458,94.693 111.395,93.688 111.395 C 92.683 111.395,92.272 111.458,92.774 111.534 M244.644 124.917 C 244.644 127.018,244.698 127.878,244.764 126.827 C 244.830 125.777,244.830 124.057,244.764 123.007 C 244.698 121.956,244.644 122.816,244.644 124.917 M315.414 129.568 C 315.414 132.218,315.466 133.301,315.529 131.977 C 315.592 130.652,315.592 128.484,315.529 127.159 C 315.466 125.835,315.414 126.919,315.414 129.568 M125.166 134.800 C 127.770 134.856,132.031 134.856,134.635 134.800 C 137.238 134.744,135.108 134.698,129.900 134.698 C 124.693 134.698,122.562 134.744,125.166 134.800 M240.282 153.717 C 240.602 153.801,241.125 153.801,241.445 153.717 C 241.765 153.634,241.503 153.565,240.864 153.565 C 240.224 153.565,239.963 153.634,240.282 153.717 M265.864 153.717 C 266.184 153.801,266.707 153.801,267.027 153.717 C 267.346 153.634,267.085 153.565,266.445 153.565 C 265.806 153.565,265.544 153.634,265.864 153.717 M25.672 158.472 C 25.672 159.294,25.737 159.630,25.816 159.219 C 25.895 158.808,25.895 158.135,25.816 157.724 C 25.737 157.313,25.672 157.650,25.672 158.472 M352.642 174.585 C 352.642 181.163,352.686 183.901,352.740 180.669 C 352.795 177.438,352.795 172.056,352.740 168.709 C 352.686 165.363,352.642 168.007,352.642 174.585 M291.512 174.917 C 291.512 181.312,291.556 183.882,291.611 180.626 C 291.665 177.371,291.665 172.139,291.611 168.999 C 291.556 165.858,291.512 168.522,291.512 174.917 M256.273 171.595 C 256.274 173.787,256.327 174.641,256.392 173.492 C 256.458 172.343,256.457 170.549,256.391 169.505 C 256.326 168.462,256.272 169.402,256.273 171.595 M367.851 172.093 C 367.851 172.733,367.920 172.994,368.003 172.674 C 368.087 172.355,368.087 171.831,368.003 171.512 C 367.920 171.192,367.851 171.453,367.851 172.093 M125.498 179.313 C 126.275 179.383,127.546 179.383,128.322 179.313 C 129.099 179.243,128.463 179.186,126.910 179.186 C 125.357 179.186,124.722 179.243,125.498 179.313 M25.672 181.728 C 25.672 182.550,25.737 182.886,25.816 182.475 C 25.895 182.064,25.895 181.391,25.816 180.980 C 25.737 180.569,25.672 180.905,25.672 181.728 M265.536 189.939 C 266.041 190.016,266.789 190.014,267.197 189.935 C 267.606 189.856,267.193 189.794,266.279 189.796 C 265.365 189.799,265.031 189.863,265.536 189.939 M314.207 189.936 C 314.620 190.015,315.218 190.012,315.535 189.929 C 315.853 189.846,315.515 189.781,314.784 189.785 C 314.053 189.788,313.793 189.857,314.207 189.936 M25.658 205.980 C 25.658 206.620,25.727 206.881,25.810 206.561 C 25.894 206.242,25.894 205.718,25.810 205.399 C 25.727 205.079,25.658 205.341,25.658 205.980 M352.641 221.595 C 352.641 228.081,352.686 230.735,352.740 227.492 C 352.795 224.248,352.795 218.941,352.740 215.698 C 352.686 212.454,352.641 215.108,352.641 221.595 M244.644 218.937 C 244.644 221.038,244.698 221.898,244.764 220.847 C 244.830 219.797,244.830 218.077,244.764 217.027 C 244.698 215.976,244.644 216.836,244.644 218.937 M55.932 219.435 C 55.931 221.080,55.987 221.794,56.057 221.023 C 56.126 220.252,56.127 218.907,56.059 218.033 C 55.990 217.160,55.933 217.791,55.932 219.435 M66.891 219.435 C 66.893 220.897,66.951 221.454,67.021 220.672 C 67.091 219.891,67.090 218.695,67.019 218.014 C 66.948 217.334,66.890 217.973,66.891 219.435 M129.460 225.166 C 136.619 225.216,148.429 225.216,155.706 225.166 C 162.983 225.116,157.126 225.075,142.691 225.075 C 128.256 225.075,122.302 225.116,129.460 225.166 M25.665 227.741 C 25.669 228.472,25.737 228.732,25.816 228.318 C 25.896 227.905,25.893 227.307,25.810 226.989 C 25.727 226.672,25.661 227.010,25.665 227.741 M367.865 244.850 C 367.865 245.673,367.929 246.009,368.009 245.598 C 368.088 245.187,368.088 244.514,368.009 244.103 C 367.929 243.692,367.865 244.028,367.865 244.850 M25.672 248.173 C 25.672 248.995,25.737 249.331,25.816 248.920 C 25.895 248.509,25.895 247.836,25.816 247.425 C 25.737 247.014,25.672 247.350,25.672 248.173 M367.858 251.993 C 367.862 252.724,367.930 252.984,368.009 252.571 C 368.089 252.158,368.086 251.560,368.002 251.242 C 367.919 250.924,367.854 251.262,367.858 251.993 M274.231 266.279 C 274.231 271.030,274.278 272.927,274.335 270.495 C 274.392 268.063,274.392 264.176,274.334 261.857 C 274.277 259.539,274.231 261.528,274.231 266.279 M85.050 263.289 C 86.042 264.294,86.929 265.116,87.020 265.116 C 87.112 265.116,86.375 264.294,85.382 263.289 C 84.390 262.284,83.503 261.462,83.411 261.462 C 83.320 261.462,84.057 262.284,85.050 263.289 M179.560 272.176 L 176.910 274.917 179.651 272.267 C 182.197 269.806,182.543 269.435,182.301 269.435 C 182.251 269.435,181.018 270.669,179.560 272.176 M92.509 297.093 L 91.196 298.505 92.608 297.192 C 93.921 295.970,94.173 295.681,93.921 295.681 C 93.867 295.681,93.232 296.316,92.509 297.093 M289.644 314.203 C 300.667 314.251,318.607 314.251,329.511 314.203 C 340.414 314.154,331.395 314.114,309.468 314.114 C 287.542 314.114,278.620 314.154,289.644 314.203 M66.868 330.897 C 66.868 331.719,66.933 332.056,67.012 331.645 C 67.091 331.233,67.091 330.561,67.012 330.150 C 66.933 329.738,66.868 330.075,66.868 330.897 M303.761 338.123 C 309.210 338.174,318.031 338.174,323.363 338.123 C 328.694 338.071,324.236 338.029,313.455 338.030 C 302.674 338.030,298.312 338.072,303.761 338.123 " stroke="none" fill="#30a40c" fill-rule="evenodd"></path><path id="path2" d="M230.980 9.864 C 231.300 9.947,231.823 9.947,232.143 9.864 C 232.463 9.780,232.201 9.712,231.561 9.712 C 230.922 9.712,230.660 9.780,230.980 9.864 M263.206 9.864 C 263.526 9.947,264.049 9.947,264.369 9.864 C 264.689 9.780,264.427 9.712,263.787 9.712 C 263.148 9.712,262.886 9.780,263.206 9.864 M297.437 15.116 C 297.440 16.030,297.504 16.364,297.581 15.859 C 297.657 15.354,297.655 14.607,297.576 14.198 C 297.497 13.789,297.435 14.203,297.437 15.116 M205.399 20.515 C 221.798 20.563,248.634 20.563,265.033 20.515 C 281.433 20.467,268.015 20.428,235.216 20.428 C 202.417 20.428,188.999 20.467,205.399 20.515 M314.386 20.514 C 316.177 20.574,319.018 20.573,320.698 20.513 C 322.379 20.453,320.914 20.404,317.442 20.404 C 313.970 20.405,312.595 20.454,314.386 20.514 M90.483 45.681 C 90.482 47.326,90.539 48.040,90.608 47.269 C 90.678 46.498,90.679 45.153,90.610 44.279 C 90.541 43.406,90.484 44.037,90.483 45.681 M25.712 66.445 C 25.712 68.912,25.764 69.921,25.828 68.688 C 25.892 67.454,25.892 65.436,25.828 64.203 C 25.764 62.969,25.712 63.978,25.712 66.445 M204.236 82.294 C 204.647 82.373,205.320 82.373,205.731 82.294 C 206.142 82.215,205.806 82.150,204.983 82.150 C 204.161 82.150,203.825 82.215,204.236 82.294 M233.804 82.294 C 234.215 82.373,234.888 82.373,235.299 82.294 C 235.710 82.215,235.374 82.150,234.551 82.150 C 233.729 82.150,233.393 82.215,233.804 82.294 M249.751 82.294 C 250.162 82.373,250.835 82.373,251.246 82.294 C 251.657 82.215,251.321 82.150,250.498 82.150 C 249.676 82.150,249.340 82.215,249.751 82.294 M264.037 82.303 C 264.813 82.373,266.084 82.373,266.860 82.303 C 267.637 82.233,267.002 82.176,265.449 82.176 C 263.895 82.176,263.260 82.233,264.037 82.303 M279.983 82.303 C 280.760 82.373,282.031 82.373,282.807 82.303 C 283.584 82.233,282.949 82.176,281.395 82.176 C 279.842 82.176,279.207 82.233,279.983 82.303 M324.834 82.294 C 325.245 82.373,325.918 82.373,326.329 82.294 C 326.740 82.215,326.404 82.150,325.581 82.150 C 324.759 82.150,324.423 82.215,324.834 82.294 M354.402 82.294 C 354.813 82.373,355.486 82.373,355.897 82.294 C 356.308 82.215,355.972 82.150,355.150 82.150 C 354.327 82.150,353.991 82.215,354.402 82.294 M55.909 105.482 C 55.911 106.395,55.976 106.730,56.052 106.225 C 56.129 105.720,56.127 104.972,56.048 104.564 C 55.969 104.155,55.906 104.568,55.909 105.482 M92.774 111.534 C 93.277 111.610,94.099 111.610,94.601 111.534 C 95.104 111.458,94.693 111.395,93.688 111.395 C 92.683 111.395,92.272 111.458,92.774 111.534 M244.644 124.917 C 244.644 127.018,244.698 127.878,244.764 126.827 C 244.830 125.777,244.830 124.057,244.764 123.007 C 244.698 121.956,244.644 122.816,244.644 124.917 M315.414 129.568 C 315.414 132.218,315.466 133.301,315.529 131.977 C 315.592 130.652,315.592 128.484,315.529 127.159 C 315.466 125.835,315.414 126.919,315.414 129.568 M125.166 134.800 C 127.770 134.856,132.031 134.856,134.635 134.800 C 137.238 134.744,135.108 134.698,129.900 134.698 C 124.693 134.698,122.562 134.744,125.166 134.800 M240.282 153.717 C 240.602 153.801,241.125 153.801,241.445 153.717 C 241.765 153.634,241.503 153.565,240.864 153.565 C 240.224 153.565,239.963 153.634,240.282 153.717 M265.864 153.717 C 266.184 153.801,266.707 153.801,267.027 153.717 C 267.346 153.634,267.085 153.565,266.445 153.565 C 265.806 153.565,265.544 153.634,265.864 153.717 M25.672 158.472 C 25.672 159.294,25.737 159.630,25.816 159.219 C 25.895 158.808,25.895 158.135,25.816 157.724 C 25.737 157.313,25.672 157.650,25.672 158.472 M352.642 174.585 C 352.642 181.163,352.686 183.901,352.740 180.669 C 352.795 177.438,352.795 172.056,352.740 168.709 C 352.686 165.363,352.642 168.007,352.642 174.585 M291.512 174.917 C 291.512 181.312,291.556 183.882,291.611 180.626 C 291.665 177.371,291.665 172.139,291.611 168.999 C 291.556 165.858,291.512 168.522,291.512 174.917 M256.273 171.595 C 256.274 173.787,256.327 174.641,256.392 173.492 C 256.458 172.343,256.457 170.549,256.391 169.505 C 256.326 168.462,256.272 169.402,256.273 171.595 M367.851 172.093 C 367.851 172.733,367.920 172.994,368.003 172.674 C 368.087 172.355,368.087 171.831,368.003 171.512 C 367.920 171.192,367.851 171.453,367.851 172.093 M125.498 179.313 C 126.275 179.383,127.546 179.383,128.322 179.313 C 129.099 179.243,128.463 179.186,126.910 179.186 C 125.357 179.186,124.722 179.243,125.498 179.313 M25.672 181.728 C 25.672 182.550,25.737 182.886,25.816 182.475 C 25.895 182.064,25.895 181.391,25.816 180.980 C 25.737 180.569,25.672 180.905,25.672 181.728 M265.536 189.939 C 266.041 190.016,266.789 190.014,267.197 189.935 C 267.606 189.856,267.193 189.794,266.279 189.796 C 265.365 189.799,265.031 189.863,265.536 189.939 M314.207 189.936 C 314.620 190.015,315.218 190.012,315.535 189.929 C 315.853 189.846,315.515 189.781,314.784 189.785 C 314.053 189.788,313.793 189.857,314.207 189.936 M25.658 205.980 C 25.658 206.620,25.727 206.881,25.810 206.561 C 25.894 206.242,25.894 205.718,25.810 205.399 C 25.727 205.079,25.658 205.341,25.658 205.980 M352.641 221.595 C 352.641 228.081,352.686 230.735,352.740 227.492 C 352.795 224.248,352.795 218.941,352.740 215.698 C 352.686 212.454,352.641 215.108,352.641 221.595 M244.644 218.937 C 244.644 221.038,244.698 221.898,244.764 220.847 C 244.830 219.797,244.830 218.077,244.764 217.027 C 244.698 215.976,244.644 216.836,244.644 218.937 M55.932 219.435 C 55.931 221.080,55.987 221.794,56.057 221.023 C 56.126 220.252,56.127 218.907,56.059 218.033 C 55.990 217.160,55.933 217.791,55.932 219.435 M66.891 219.435 C 66.893 220.897,66.951 221.454,67.021 220.672 C 67.091 219.891,67.090 218.695,67.019 218.014 C 66.948 217.334,66.890 217.973,66.891 219.435 M129.460 225.166 C 136.619 225.216,148.429 225.216,155.706 225.166 C 162.983 225.116,157.126 225.075,142.691 225.075 C 128.256 225.075,122.302 225.116,129.460 225.166 M25.665 227.741 C 25.669 228.472,25.737 228.732,25.816 228.318 C 25.896 227.905,25.893 227.307,25.810 226.989 C 25.727 226.672,25.661 227.010,25.665 227.741 M367.865 244.850 C 367.865 245.673,367.929 246.009,368.009 245.598 C 368.088 245.187,368.088 244.514,368.009 244.103 C 367.929 243.692,367.865 244.028,367.865 244.850 M25.672 248.173 C 25.672 248.995,25.737 249.331,25.816 248.920 C 25.895 248.509,25.895 247.836,25.816 247.425 C 25.737 247.014,25.672 247.350,25.672 248.173 M367.858 251.993 C 367.862 252.724,367.930 252.984,368.009 252.571 C 368.089 252.158,368.086 251.560,368.002 251.242 C 367.919 250.924,367.854 251.262,367.858 251.993 M274.231 266.279 C 274.231 271.030,274.278 272.927,274.335 270.495 C 274.392 268.063,274.392 264.176,274.334 261.857 C 274.277 259.539,274.231 261.528,274.231 266.279 M85.050 263.289 C 86.042 264.294,86.929 265.116,87.020 265.116 C 87.112 265.116,86.375 264.294,85.382 263.289 C 84.390 262.284,83.503 261.462,83.411 261.462 C 83.320 261.462,84.057 262.284,85.050 263.289 M179.560 272.176 L 176.910 274.917 179.651 272.267 C 182.197 269.806,182.543 269.435,182.301 269.435 C 182.251 269.435,181.018 270.669,179.560 272.176 M92.509 297.093 L 91.196 298.505 92.608 297.192 C 93.921 295.970,94.173 295.681,93.921 295.681 C 93.867 295.681,93.232 296.316,92.509 297.093 M289.644 314.203 C 300.667 314.251,318.607 314.251,329.511 314.203 C 340.414 314.154,331.395 314.114,309.468 314.114 C 287.542 314.114,278.620 314.154,289.644 314.203 M66.868 330.897 C 66.868 331.719,66.933 332.056,67.012 331.645 C 67.091 331.233,67.091 330.561,67.012 330.150 C 66.933 329.738,66.868 330.075,66.868 330.897 M303.761 338.123 C 309.210 338.174,318.031 338.174,323.363 338.123 C 328.694 338.071,324.236 338.029,313.455 338.030 C 302.674 338.030,298.312 338.072,303.761 338.123 " stroke="none" fill="#30a40c" fill-rule="evenodd"></path><path id="path3" d="M230.980 9.864 C 231.300 9.947,231.823 9.947,232.143 9.864 C 232.463 9.780,232.201 9.712,231.561 9.712 C 230.922 9.712,230.660 9.780,230.980 9.864 M263.206 9.864 C 263.526 9.947,264.049 9.947,264.369 9.864 C 264.689 9.780,264.427 9.712,263.787 9.712 C 263.148 9.712,262.886 9.780,263.206 9.864 M297.437 15.116 C 297.440 16.030,297.504 16.364,297.581 15.859 C 297.657 15.354,297.655 14.607,297.576 14.198 C 297.497 13.789,297.435 14.203,297.437 15.116 M205.399 20.515 C 221.798 20.563,248.634 20.563,265.033 20.515 C 281.433 20.467,268.015 20.428,235.216 20.428 C 202.417 20.428,188.999 20.467,205.399 20.515 M314.386 20.514 C 316.177 20.574,319.018 20.573,320.698 20.513 C 322.379 20.453,320.914 20.404,317.442 20.404 C 313.970 20.405,312.595 20.454,314.386 20.514 M90.483 45.681 C 90.482 47.326,90.539 48.040,90.608 47.269 C 90.678 46.498,90.679 45.153,90.610 44.279 C 90.541 43.406,90.484 44.037,90.483 45.681 M25.712 66.445 C 25.712 68.912,25.764 69.921,25.828 68.688 C 25.892 67.454,25.892 65.436,25.828 64.203 C 25.764 62.969,25.712 63.978,25.712 66.445 M204.236 82.294 C 204.647 82.373,205.320 82.373,205.731 82.294 C 206.142 82.215,205.806 82.150,204.983 82.150 C 204.161 82.150,203.825 82.215,204.236 82.294 M233.804 82.294 C 234.215 82.373,234.888 82.373,235.299 82.294 C 235.710 82.215,235.374 82.150,234.551 82.150 C 233.729 82.150,233.393 82.215,233.804 82.294 M249.751 82.294 C 250.162 82.373,250.835 82.373,251.246 82.294 C 251.657 82.215,251.321 82.150,250.498 82.150 C 249.676 82.150,249.340 82.215,249.751 82.294 M264.037 82.303 C 264.813 82.373,266.084 82.373,266.860 82.303 C 267.637 82.233,267.002 82.176,265.449 82.176 C 263.895 82.176,263.260 82.233,264.037 82.303 M279.983 82.303 C 280.760 82.373,282.031 82.373,282.807 82.303 C 283.584 82.233,282.949 82.176,281.395 82.176 C 279.842 82.176,279.207 82.233,279.983 82.303 M324.834 82.294 C 325.245 82.373,325.918 82.373,326.329 82.294 C 326.740 82.215,326.404 82.150,325.581 82.150 C 324.759 82.150,324.423 82.215,324.834 82.294 M354.402 82.294 C 354.813 82.373,355.486 82.373,355.897 82.294 C 356.308 82.215,355.972 82.150,355.150 82.150 C 354.327 82.150,353.991 82.215,354.402 82.294 M55.909 105.482 C 55.911 106.395,55.976 106.730,56.052 106.225 C 56.129 105.720,56.127 104.972,56.048 104.564 C 55.969 104.155,55.906 104.568,55.909 105.482 M92.774 111.534 C 93.277 111.610,94.099 111.610,94.601 111.534 C 95.104 111.458,94.693 111.395,93.688 111.395 C 92.683 111.395,92.272 111.458,92.774 111.534 M244.644 124.917 C 244.644 127.018,244.698 127.878,244.764 126.827 C 244.830 125.777,244.830 124.057,244.764 123.007 C 244.698 121.956,244.644 122.816,244.644 124.917 M315.414 129.568 C 315.414 132.218,315.466 133.301,315.529 131.977 C 315.592 130.652,315.592 128.484,315.529 127.159 C 315.466 125.835,315.414 126.919,315.414 129.568 M125.166 134.800 C 127.770 134.856,132.031 134.856,134.635 134.800 C 137.238 134.744,135.108 134.698,129.900 134.698 C 124.693 134.698,122.562 134.744,125.166 134.800 M240.282 153.717 C 240.602 153.801,241.125 153.801,241.445 153.717 C 241.765 153.634,241.503 153.565,240.864 153.565 C 240.224 153.565,239.963 153.634,240.282 153.717 M265.864 153.717 C 266.184 153.801,266.707 153.801,267.027 153.717 C 267.346 153.634,267.085 153.565,266.445 153.565 C 265.806 153.565,265.544 153.634,265.864 153.717 M25.672 158.472 C 25.672 159.294,25.737 159.630,25.816 159.219 C 25.895 158.808,25.895 158.135,25.816 157.724 C 25.737 157.313,25.672 157.650,25.672 158.472 M352.642 174.585 C 352.642 181.163,352.686 183.901,352.740 180.669 C 352.795 177.438,352.795 172.056,352.740 168.709 C 352.686 165.363,352.642 168.007,352.642 174.585 M291.512 174.917 C 291.512 181.312,291.556 183.882,291.611 180.626 C 291.665 177.371,291.665 172.139,291.611 168.999 C 291.556 165.858,291.512 168.522,291.512 174.917 M256.273 171.595 C 256.274 173.787,256.327 174.641,256.392 173.492 C 256.458 172.343,256.457 170.549,256.391 169.505 C 256.326 168.462,256.272 169.402,256.273 171.595 M367.851 172.093 C 367.851 172.733,367.920 172.994,368.003 172.674 C 368.087 172.355,368.087 171.831,368.003 171.512 C 367.920 171.192,367.851 171.453,367.851 172.093 M125.498 179.313 C 126.275 179.383,127.546 179.383,128.322 179.313 C 129.099 179.243,128.463 179.186,126.910 179.186 C 125.357 179.186,124.722 179.243,125.498 179.313 M25.672 181.728 C 25.672 182.550,25.737 182.886,25.816 182.475 C 25.895 182.064,25.895 181.391,25.816 180.980 C 25.737 180.569,25.672 180.905,25.672 181.728 M265.536 189.939 C 266.041 190.016,266.789 190.014,267.197 189.935 C 267.606 189.856,267.193 189.794,266.279 189.796 C 265.365 189.799,265.031 189.863,265.536 189.939 M314.207 189.936 C 314.620 190.015,315.218 190.012,315.535 189.929 C 315.853 189.846,315.515 189.781,314.784 189.785 C 314.053 189.788,313.793 189.857,314.207 189.936 M25.658 205.980 C 25.658 206.620,25.727 206.881,25.810 206.561 C 25.894 206.242,25.894 205.718,25.810 205.399 C 25.727 205.079,25.658 205.341,25.658 205.980 M352.641 221.595 C 352.641 228.081,352.686 230.735,352.740 227.492 C 352.795 224.248,352.795 218.941,352.740 215.698 C 352.686 212.454,352.641 215.108,352.641 221.595 M244.644 218.937 C 244.644 221.038,244.698 221.898,244.764 220.847 C 244.830 219.797,244.830 218.077,244.764 217.027 C 244.698 215.976,244.644 216.836,244.644 218.937 M55.932 219.435 C 55.931 221.080,55.987 221.794,56.057 221.023 C 56.126 220.252,56.127 218.907,56.059 218.033 C 55.990 217.160,55.933 217.791,55.932 219.435 M66.891 219.435 C 66.893 220.897,66.951 221.454,67.021 220.672 C 67.091 219.891,67.090 218.695,67.019 218.014 C 66.948 217.334,66.890 217.973,66.891 219.435 M129.460 225.166 C 136.619 225.216,148.429 225.216,155.706 225.166 C 162.983 225.116,157.126 225.075,142.691 225.075 C 128.256 225.075,122.302 225.116,129.460 225.166 M25.665 227.741 C 25.669 228.472,25.737 228.732,25.816 228.318 C 25.896 227.905,25.893 227.307,25.810 226.989 C 25.727 226.672,25.661 227.010,25.665 227.741 M367.865 244.850 C 367.865 245.673,367.929 246.009,368.009 245.598 C 368.088 245.187,368.088 244.514,368.009 244.103 C 367.929 243.692,367.865 244.028,367.865 244.850 M25.672 248.173 C 25.672 248.995,25.737 249.331,25.816 248.920 C 25.895 248.509,25.895 247.836,25.816 247.425 C 25.737 247.014,25.672 247.350,25.672 248.173 M367.858 251.993 C 367.862 252.724,367.930 252.984,368.009 252.571 C 368.089 252.158,368.086 251.560,368.002 251.242 C 367.919 250.924,367.854 251.262,367.858 251.993 M274.231 266.279 C 274.231 271.030,274.278 272.927,274.335 270.495 C 274.392 268.063,274.392 264.176,274.334 261.857 C 274.277 259.539,274.231 261.528,274.231 266.279 M85.050 263.289 C 86.042 264.294,86.929 265.116,87.020 265.116 C 87.112 265.116,86.375 264.294,85.382 263.289 C 84.390 262.284,83.503 261.462,83.411 261.462 C 83.320 261.462,84.057 262.284,85.050 263.289 M179.560 272.176 L 176.910 274.917 179.651 272.267 C 182.197 269.806,182.543 269.435,182.301 269.435 C 182.251 269.435,181.018 270.669,179.560 272.176 M92.509 297.093 L 91.196 298.505 92.608 297.192 C 93.921 295.970,94.173 295.681,93.921 295.681 C 93.867 295.681,93.232 296.316,92.509 297.093 M289.644 314.203 C 300.667 314.251,318.607 314.251,329.511 314.203 C 340.414 314.154,331.395 314.114,309.468 314.114 C 287.542 314.114,278.620 314.154,289.644 314.203 M66.868 330.897 C 66.868 331.719,66.933 332.056,67.012 331.645 C 67.091 331.233,67.091 330.561,67.012 330.150 C 66.933 329.738,66.868 330.075,66.868 330.897 M303.761 338.123 C 309.210 338.174,318.031 338.174,323.363 338.123 C 328.694 338.071,324.236 338.029,313.455 338.030 C 302.674 338.030,298.312 338.072,303.761 338.123 " stroke="none" fill="#30a40c" fill-rule="evenodd"></path><path id="path4" d="M230.980 9.864 C 231.300 9.947,231.823 9.947,232.143 9.864 C 232.463 9.780,232.201 9.712,231.561 9.712 C 230.922 9.712,230.660 9.780,230.980 9.864 M263.206 9.864 C 263.526 9.947,264.049 9.947,264.369 9.864 C 264.689 9.780,264.427 9.712,263.787 9.712 C 263.148 9.712,262.886 9.780,263.206 9.864 M297.437 15.116 C 297.440 16.030,297.504 16.364,297.581 15.859 C 297.657 15.354,297.655 14.607,297.576 14.198 C 297.497 13.789,297.435 14.203,297.437 15.116 M205.399 20.515 C 221.798 20.563,248.634 20.563,265.033 20.515 C 281.433 20.467,268.015 20.428,235.216 20.428 C 202.417 20.428,188.999 20.467,205.399 20.515 M314.386 20.514 C 316.177 20.574,319.018 20.573,320.698 20.513 C 322.379 20.453,320.914 20.404,317.442 20.404 C 313.970 20.405,312.595 20.454,314.386 20.514 M90.483 45.681 C 90.482 47.326,90.539 48.040,90.608 47.269 C 90.678 46.498,90.679 45.153,90.610 44.279 C 90.541 43.406,90.484 44.037,90.483 45.681 M25.712 66.445 C 25.712 68.912,25.764 69.921,25.828 68.688 C 25.892 67.454,25.892 65.436,25.828 64.203 C 25.764 62.969,25.712 63.978,25.712 66.445 M204.236 82.294 C 204.647 82.373,205.320 82.373,205.731 82.294 C 206.142 82.215,205.806 82.150,204.983 82.150 C 204.161 82.150,203.825 82.215,204.236 82.294 M233.804 82.294 C 234.215 82.373,234.888 82.373,235.299 82.294 C 235.710 82.215,235.374 82.150,234.551 82.150 C 233.729 82.150,233.393 82.215,233.804 82.294 M249.751 82.294 C 250.162 82.373,250.835 82.373,251.246 82.294 C 251.657 82.215,251.321 82.150,250.498 82.150 C 249.676 82.150,249.340 82.215,249.751 82.294 M264.037 82.303 C 264.813 82.373,266.084 82.373,266.860 82.303 C 267.637 82.233,267.002 82.176,265.449 82.176 C 263.895 82.176,263.260 82.233,264.037 82.303 M279.983 82.303 C 280.760 82.373,282.031 82.373,282.807 82.303 C 283.584 82.233,282.949 82.176,281.395 82.176 C 279.842 82.176,279.207 82.233,279.983 82.303 M324.834 82.294 C 325.245 82.373,325.918 82.373,326.329 82.294 C 326.740 82.215,326.404 82.150,325.581 82.150 C 324.759 82.150,324.423 82.215,324.834 82.294 M354.402 82.294 C 354.813 82.373,355.486 82.373,355.897 82.294 C 356.308 82.215,355.972 82.150,355.150 82.150 C 354.327 82.150,353.991 82.215,354.402 82.294 M55.909 105.482 C 55.911 106.395,55.976 106.730,56.052 106.225 C 56.129 105.720,56.127 104.972,56.048 104.564 C 55.969 104.155,55.906 104.568,55.909 105.482 M92.774 111.534 C 93.277 111.610,94.099 111.610,94.601 111.534 C 95.104 111.458,94.693 111.395,93.688 111.395 C 92.683 111.395,92.272 111.458,92.774 111.534 M244.644 124.917 C 244.644 127.018,244.698 127.878,244.764 126.827 C 244.830 125.777,244.830 124.057,244.764 123.007 C 244.698 121.956,244.644 122.816,244.644 124.917 M315.414 129.568 C 315.414 132.218,315.466 133.301,315.529 131.977 C 315.592 130.652,315.592 128.484,315.529 127.159 C 315.466 125.835,315.414 126.919,315.414 129.568 M125.166 134.800 C 127.770 134.856,132.031 134.856,134.635 134.800 C 137.238 134.744,135.108 134.698,129.900 134.698 C 124.693 134.698,122.562 134.744,125.166 134.800 M240.282 153.717 C 240.602 153.801,241.125 153.801,241.445 153.717 C 241.765 153.634,241.503 153.565,240.864 153.565 C 240.224 153.565,239.963 153.634,240.282 153.717 M265.864 153.717 C 266.184 153.801,266.707 153.801,267.027 153.717 C 267.346 153.634,267.085 153.565,266.445 153.565 C 265.806 153.565,265.544 153.634,265.864 153.717 M25.672 158.472 C 25.672 159.294,25.737 159.630,25.816 159.219 C 25.895 158.808,25.895 158.135,25.816 157.724 C 25.737 157.313,25.672 157.650,25.672 158.472 M352.642 174.585 C 352.642 181.163,352.686 183.901,352.740 180.669 C 352.795 177.438,352.795 172.056,352.740 168.709 C 352.686 165.363,352.642 168.007,352.642 174.585 M291.512 174.917 C 291.512 181.312,291.556 183.882,291.611 180.626 C 291.665 177.371,291.665 172.139,291.611 168.999 C 291.556 165.858,291.512 168.522,291.512 174.917 M256.273 171.595 C 256.274 173.787,256.327 174.641,256.392 173.492 C 256.458 172.343,256.457 170.549,256.391 169.505 C 256.326 168.462,256.272 169.402,256.273 171.595 M367.851 172.093 C 367.851 172.733,367.920 172.994,368.003 172.674 C 368.087 172.355,368.087 171.831,368.003 171.512 C 367.920 171.192,367.851 171.453,367.851 172.093 M125.498 179.313 C 126.275 179.383,127.546 179.383,128.322 179.313 C 129.099 179.243,128.463 179.186,126.910 179.186 C 125.357 179.186,124.722 179.243,125.498 179.313 M25.672 181.728 C 25.672 182.550,25.737 182.886,25.816 182.475 C 25.895 182.064,25.895 181.391,25.816 180.980 C 25.737 180.569,25.672 180.905,25.672 181.728 M265.536 189.939 C 266.041 190.016,266.789 190.014,267.197 189.935 C 267.606 189.856,267.193 189.794,266.279 189.796 C 265.365 189.799,265.031 189.863,265.536 189.939 M314.207 189.936 C 314.620 190.015,315.218 190.012,315.535 189.929 C 315.853 189.846,315.515 189.781,314.784 189.785 C 314.053 189.788,313.793 189.857,314.207 189.936 M25.658 205.980 C 25.658 206.620,25.727 206.881,25.810 206.561 C 25.894 206.242,25.894 205.718,25.810 205.399 C 25.727 205.079,25.658 205.341,25.658 205.980 M352.641 221.595 C 352.641 228.081,352.686 230.735,352.740 227.492 C 352.795 224.248,352.795 218.941,352.740 215.698 C 352.686 212.454,352.641 215.108,352.641 221.595 M244.644 218.937 C 244.644 221.038,244.698 221.898,244.764 220.847 C 244.830 219.797,244.830 218.077,244.764 217.027 C 244.698 215.976,244.644 216.836,244.644 218.937 M55.932 219.435 C 55.931 221.080,55.987 221.794,56.057 221.023 C 56.126 220.252,56.127 218.907,56.059 218.033 C 55.990 217.160,55.933 217.791,55.932 219.435 M66.891 219.435 C 66.893 220.897,66.951 221.454,67.021 220.672 C 67.091 219.891,67.090 218.695,67.019 218.014 C 66.948 217.334,66.890 217.973,66.891 219.435 M129.460 225.166 C 136.619 225.216,148.429 225.216,155.706 225.166 C 162.983 225.116,157.126 225.075,142.691 225.075 C 128.256 225.075,122.302 225.116,129.460 225.166 M25.665 227.741 C 25.669 228.472,25.737 228.732,25.816 228.318 C 25.896 227.905,25.893 227.307,25.810 226.989 C 25.727 226.672,25.661 227.010,25.665 227.741 M367.865 244.850 C 367.865 245.673,367.929 246.009,368.009 245.598 C 368.088 245.187,368.088 244.514,368.009 244.103 C 367.929 243.692,367.865 244.028,367.865 244.850 M25.672 248.173 C 25.672 248.995,25.737 249.331,25.816 248.920 C 25.895 248.509,25.895 247.836,25.816 247.425 C 25.737 247.014,25.672 247.350,25.672 248.173 M367.858 251.993 C 367.862 252.724,367.930 252.984,368.009 252.571 C 368.089 252.158,368.086 251.560,368.002 251.242 C 367.919 250.924,367.854 251.262,367.858 251.993 M274.231 266.279 C 274.231 271.030,274.278 272.927,274.335 270.495 C 274.392 268.063,274.392 264.176,274.334 261.857 C 274.277 259.539,274.231 261.528,274.231 266.279 M85.050 263.289 C 86.042 264.294,86.929 265.116,87.020 265.116 C 87.112 265.116,86.375 264.294,85.382 263.289 C 84.390 262.284,83.503 261.462,83.411 261.462 C 83.320 261.462,84.057 262.284,85.050 263.289 M179.560 272.176 L 176.910 274.917 179.651 272.267 C 182.197 269.806,182.543 269.435,182.301 269.435 C 182.251 269.435,181.018 270.669,179.560 272.176 M92.509 297.093 L 91.196 298.505 92.608 297.192 C 93.921 295.970,94.173 295.681,93.921 295.681 C 93.867 295.681,93.232 296.316,92.509 297.093 M289.644 314.203 C 300.667 314.251,318.607 314.251,329.511 314.203 C 340.414 314.154,331.395 314.114,309.468 314.114 C 287.542 314.114,278.620 314.154,289.644 314.203 M66.868 330.897 C 66.868 331.719,66.933 332.056,67.012 331.645 C 67.091 331.233,67.091 330.561,67.012 330.150 C 66.933 329.738,66.868 330.075,66.868 330.897 M303.761 338.123 C 309.210 338.174,318.031 338.174,323.363 338.123 C 328.694 338.071,324.236 338.029,313.455 338.030 C 302.674 338.030,298.312 338.072,303.761 338.123 " stroke="none" fill="#30a40c" fill-rule="evenodd"></path></g></svg>