<svg id="svg" version="1.1" xmlns="http://www.w3.org/2000/svg" xmlns:xlink="http://www.w3.org/1999/xlink" width="400" height="400" viewBox="0, 0, 400,400"><g id="svgg"><path id="path0" d="M5.783 11.500 C 5.943 14.745,6.212 17.580,6.382 17.800 C 6.552 18.020,6.802 19.978,6.938 22.150 C 7.074 24.323,7.348 26.303,7.548 26.550 C 7.748 26.798,8.039 28.125,8.195 29.500 C 8.351 30.875,8.620 32.000,8.793 32.000 C 8.966 32.000,9.231 32.987,9.382 34.194 C 9.533 35.400,9.808 36.481,9.993 36.596 C 10.179 36.710,10.452 37.523,10.600 38.402 C 10.749 39.281,11.011 40.000,11.183 40.000 C 11.355 40.000,11.594 40.607,11.714 41.348 C 11.834 42.090,12.308 43.520,12.766 44.526 C 13.225 45.533,13.600 46.546,13.600 46.778 C 13.600 47.010,13.760 47.200,13.955 47.200 C 14.151 47.200,14.429 47.830,14.574 48.600 C 14.718 49.370,14.994 50.000,15.186 50.000 C 15.379 50.000,15.652 50.525,15.793 51.167 C 15.934 51.808,16.334 52.442,16.682 52.576 C 17.030 52.710,17.205 52.929,17.070 53.063 C 16.936 53.197,17.180 53.757,17.613 54.308 C 18.046 54.858,18.400 55.554,18.400 55.854 C 18.400 56.154,18.580 56.400,18.800 56.400 C 19.020 56.400,19.200 56.672,19.200 57.004 C 19.200 57.336,19.560 57.916,20.000 58.293 C 20.440 58.670,20.800 59.208,20.800 59.489 C 20.800 59.770,20.958 60.000,21.151 60.000 C 21.345 60.000,21.727 60.540,22.000 61.200 C 22.273 61.860,22.655 62.400,22.849 62.400 C 23.042 62.400,23.200 62.676,23.200 63.013 C 23.200 63.349,23.463 63.726,23.785 63.850 C 24.106 63.973,24.481 64.426,24.618 64.857 C 24.941 65.873,27.042 68.024,27.381 67.685 C 27.525 67.542,27.524 67.734,27.378 68.112 C 27.233 68.490,27.290 68.800,27.504 68.800 C 27.718 68.800,28.341 69.475,28.887 70.300 C 30.775 73.150,36.026 78.800,36.788 78.800 C 37.014 78.800,37.200 78.999,37.200 79.241 C 37.200 80.030,42.747 85.280,43.251 84.969 C 43.548 84.785,43.617 84.848,43.438 85.138 C 43.277 85.399,43.385 85.600,43.687 85.600 C 43.982 85.600,44.530 85.960,44.907 86.400 C 45.284 86.840,45.508 87.200,45.405 87.200 C 45.302 87.200,46.223 88.190,47.453 89.400 C 48.682 90.610,49.803 91.601,49.944 91.602 C 50.085 91.603,50.907 92.253,51.770 93.046 C 53.635 94.759,56.442 94.852,58.139 93.257 C 58.641 92.786,59.199 92.400,59.380 92.400 C 59.561 92.400,60.125 91.950,60.635 91.400 C 61.145 90.850,61.741 90.400,61.961 90.400 C 62.181 90.400,62.504 90.171,62.680 89.890 C 62.856 89.610,63.495 89.066,64.100 88.681 C 65.598 87.728,65.056 85.200,63.353 85.200 C 63.223 85.200,62.370 84.486,61.458 83.612 C 57.600 79.917,56.272 78.800,55.739 78.800 C 55.429 78.800,55.072 78.531,54.946 78.202 C 54.819 77.874,54.581 77.688,54.417 77.790 C 54.252 77.892,53.915 77.531,53.667 76.987 C 53.420 76.444,52.943 76.000,52.609 76.000 C 52.274 76.000,52.045 75.854,52.100 75.676 C 52.155 75.498,50.175 73.343,47.700 70.886 C 45.225 68.429,43.200 66.271,43.200 66.090 C 43.200 65.909,42.480 65.012,41.600 64.096 C 40.720 63.180,40.000 62.287,40.000 62.111 C 40.000 61.935,39.460 61.345,38.800 60.800 C 38.140 60.255,37.600 59.613,37.600 59.374 C 37.600 59.135,37.150 58.517,36.600 58.000 C 36.050 57.483,35.600 56.912,35.600 56.730 C 35.600 56.549,50.260 56.400,68.177 56.400 L 100.755 56.400 101.464 55.200 C 101.854 54.540,102.314 54.000,102.486 54.000 C 102.659 54.000,102.800 53.736,102.800 53.414 C 102.800 53.092,103.160 52.635,103.600 52.400 C 104.040 52.165,104.400 51.708,104.400 51.386 C 104.400 51.064,104.544 50.800,104.720 50.800 C 104.895 50.800,105.480 50.085,106.020 49.211 C 106.559 48.337,107.121 47.617,107.268 47.611 C 107.416 47.605,107.652 47.075,107.793 46.433 C 107.934 45.792,108.308 45.167,108.624 45.046 C 108.941 44.924,109.200 44.459,109.200 44.013 C 109.200 43.201,109.146 43.200,68.000 43.200 L 26.800 43.200 26.800 42.200 C 26.800 41.650,26.636 41.200,26.435 41.200 C 26.234 41.200,25.949 40.481,25.800 39.602 C 25.652 38.723,25.382 37.912,25.200 37.800 C 25.018 37.688,24.748 36.877,24.600 35.998 C 24.451 35.119,24.166 34.400,23.965 34.400 C 23.764 34.400,23.600 33.950,23.600 33.400 C 23.600 32.850,23.437 32.400,23.237 32.400 C 23.038 32.400,22.969 32.040,23.084 31.600 C 23.199 31.160,23.099 30.800,22.860 30.800 C 22.622 30.800,22.308 29.900,22.162 28.800 C 22.016 27.700,21.779 26.800,21.635 26.800 C 21.372 26.800,20.270 18.878,20.330 17.418 C 20.348 16.989,20.163 16.396,19.919 16.102 C 19.674 15.808,19.451 14.269,19.421 12.683 C 19.392 11.098,19.330 8.855,19.284 7.700 L 19.200 5.600 12.346 5.600 L 5.492 5.600 5.783 11.500 M130.661 8.300 C 130.520 9.785,130.404 12.395,130.403 14.100 C 130.401 15.805,130.243 17.200,130.052 17.200 C 129.860 17.200,129.578 18.640,129.424 20.400 C 129.271 22.160,128.998 23.600,128.819 23.600 C 128.639 23.600,128.363 24.635,128.206 25.900 C 128.049 27.165,127.812 28.377,127.679 28.593 C 127.546 28.809,127.394 29.259,127.341 29.593 C 127.095 31.132,126.216 34.220,125.972 34.400 C 125.823 34.510,125.574 35.185,125.418 35.900 C 125.263 36.615,124.971 37.200,124.768 37.200 C 124.566 37.200,124.400 37.571,124.400 38.024 C 124.400 38.544,124.570 38.742,124.862 38.562 C 125.150 38.384,125.215 38.452,125.034 38.745 C 124.875 39.002,124.547 39.091,124.304 38.941 C 124.026 38.769,123.953 38.901,124.107 39.301 C 124.241 39.650,124.114 40.024,123.825 40.135 C 123.537 40.246,123.180 40.981,123.032 41.768 C 122.885 42.556,122.606 43.200,122.414 43.200 C 122.221 43.200,121.945 43.740,121.800 44.400 C 121.655 45.060,121.374 45.600,121.176 45.600 C 120.978 45.600,120.702 46.050,120.564 46.600 C 120.426 47.150,120.123 47.600,119.890 47.600 C 119.657 47.600,119.576 47.710,119.711 47.844 C 119.845 47.978,119.547 48.743,119.048 49.544 C 118.549 50.345,118.025 51.315,117.883 51.700 C 117.741 52.085,117.439 52.400,117.213 52.400 C 116.986 52.400,116.800 52.587,116.800 52.816 C 116.800 53.290,115.155 55.731,114.700 55.933 C 114.535 56.007,114.400 56.327,114.400 56.646 C 114.400 56.964,114.130 57.329,113.800 57.455 C 113.470 57.582,113.200 57.910,113.200 58.184 C 113.200 58.459,112.795 59.133,112.300 59.684 C 110.612 61.560,108.201 64.485,107.877 65.048 C 107.364 65.941,97.183 76.000,96.791 76.000 C 96.597 76.000,95.538 76.900,94.438 78.000 C 93.338 79.100,92.290 80.000,92.108 80.000 C 91.666 80.000,90.190 81.721,90.307 82.100 C 90.358 82.265,90.124 82.400,89.787 82.400 C 89.451 82.400,89.071 82.670,88.945 83.000 C 88.818 83.330,88.468 83.600,88.167 83.600 C 87.866 83.600,87.046 84.230,86.345 85.000 C 85.645 85.770,84.894 86.400,84.676 86.400 C 84.459 86.400,83.669 87.030,82.921 87.800 C 82.173 88.570,81.345 89.208,81.081 89.217 C 80.816 89.226,80.158 89.766,79.619 90.417 C 79.079 91.068,78.449 91.608,78.219 91.617 C 77.988 91.626,77.358 92.166,76.819 92.817 C 76.279 93.468,75.696 94.000,75.522 94.000 C 75.061 94.000,71.455 96.798,71.080 97.446 C 70.904 97.751,70.582 98.000,70.363 98.000 C 69.848 98.000,68.131 99.595,68.625 99.616 C 68.831 99.624,68.402 99.891,67.672 100.208 C 66.941 100.526,66.460 100.973,66.602 101.202 C 66.743 101.432,66.670 101.570,66.437 101.510 C 66.002 101.396,65.053 102.056,62.426 104.300 C 61.588 105.015,60.745 105.608,60.552 105.617 C 60.358 105.626,59.758 106.166,59.219 106.817 C 58.679 107.468,58.080 108.000,57.888 108.000 C 57.696 108.000,56.998 108.540,56.338 109.200 C 55.678 109.860,55.017 110.402,54.869 110.405 C 54.208 110.417,51.182 113.648,51.440 114.065 C 51.613 114.344,51.547 114.414,51.272 114.245 C 51.024 114.091,50.507 114.334,50.122 114.783 C 49.737 115.232,49.262 115.600,49.067 115.600 C 48.871 115.600,47.613 116.695,46.270 118.034 C 44.927 119.372,43.284 120.855,42.618 121.329 C 41.238 122.312,35.600 128.047,35.600 128.469 C 35.600 128.621,33.980 130.371,32.000 132.357 C 30.020 134.342,28.400 136.091,28.400 136.243 C 28.400 136.395,27.770 137.131,27.000 137.879 C 26.230 138.627,25.600 139.418,25.600 139.638 C 25.600 139.858,25.182 140.435,24.670 140.919 C 24.159 141.404,23.624 142.115,23.483 142.500 C 23.341 142.885,23.039 143.200,22.813 143.200 C 22.586 143.200,22.400 143.448,22.400 143.751 C 22.400 144.054,22.132 144.524,21.804 144.796 C 21.477 145.068,21.307 145.450,21.428 145.645 C 21.549 145.840,21.460 146.000,21.231 146.000 C 21.002 146.000,20.706 146.437,20.572 146.971 C 20.437 147.505,20.074 148.039,19.764 148.159 C 19.454 148.278,19.200 148.636,19.200 148.954 C 19.200 149.273,19.065 149.593,18.900 149.667 C 18.735 149.740,18.263 150.430,17.851 151.200 C 17.439 151.970,16.494 153.717,15.751 155.083 C 15.008 156.448,14.400 157.933,14.400 158.383 C 14.400 158.832,14.238 159.200,14.039 159.200 C 13.547 159.200,12.747 161.591,13.067 162.108 C 13.227 162.368,13.125 162.401,12.794 162.196 C 12.409 161.958,12.334 162.051,12.519 162.534 C 12.660 162.900,12.609 163.200,12.406 163.200 C 12.202 163.200,11.918 163.830,11.774 164.600 C 11.629 165.370,11.368 166.000,11.193 166.000 C 11.018 166.000,10.751 166.900,10.600 168.000 C 10.449 169.100,10.182 170.000,10.008 170.000 C 9.834 170.000,9.569 170.810,9.421 171.800 C 9.272 172.790,9.005 173.600,8.827 173.600 C 8.649 173.600,8.376 174.723,8.221 176.095 C 8.066 177.468,7.799 178.683,7.629 178.795 C 7.057 179.173,6.722 184.400,7.269 184.400 C 7.651 184.400,7.653 184.507,7.280 184.880 C 7.016 185.144,6.800 186.008,6.800 186.800 C 6.800 187.592,6.614 188.426,6.387 188.653 C 5.441 189.599,6.593 220.577,7.598 221.199 C 7.790 221.318,8.073 222.357,8.225 223.508 C 8.378 224.658,8.660 225.600,8.852 225.600 C 9.043 225.600,9.200 226.140,9.200 226.800 C 9.200 227.460,9.355 228.000,9.545 228.000 C 9.734 228.000,9.803 228.450,9.698 229.000 C 9.593 229.550,9.692 230.000,9.918 230.000 C 10.145 230.000,10.451 230.720,10.600 231.600 C 10.749 232.480,10.998 233.200,11.155 233.200 C 11.312 233.200,11.663 234.280,11.936 235.600 C 12.208 236.920,12.584 238.000,12.771 238.000 C 12.958 238.000,13.229 238.630,13.374 239.400 C 13.518 240.170,13.808 240.800,14.018 240.800 C 14.228 240.800,14.400 241.226,14.400 241.746 C 14.400 242.266,14.760 243.150,15.200 243.709 C 15.640 244.269,16.000 244.923,16.000 245.163 C 16.000 245.403,16.166 245.600,16.368 245.600 C 16.571 245.600,16.855 246.140,17.000 246.800 C 17.145 247.460,17.415 248.000,17.600 248.000 C 17.785 248.000,18.052 248.525,18.193 249.167 C 18.334 249.808,18.708 250.433,19.024 250.554 C 19.341 250.676,19.600 251.051,19.600 251.387 C 19.600 251.724,19.762 252.000,19.961 252.000 C 20.159 252.000,20.510 252.540,20.740 253.200 C 20.970 253.860,21.348 254.400,21.579 254.400 C 21.811 254.400,22.000 254.587,22.000 254.816 C 22.000 255.344,23.638 257.696,24.300 258.120 C 24.575 258.296,24.800 258.635,24.800 258.874 C 24.800 259.113,25.250 259.725,25.800 260.235 C 26.350 260.745,26.800 261.338,26.800 261.554 C 26.800 261.770,27.700 262.871,28.800 264.000 C 29.900 265.129,30.800 266.150,30.800 266.269 C 30.800 266.794,44.735 280.335,45.015 280.082 C 45.187 279.927,45.217 279.995,45.081 280.234 C 44.853 280.636,48.451 284.400,49.063 284.400 C 49.214 284.400,50.137 285.234,51.114 286.254 C 53.148 288.377,55.672 289.071,56.899 287.844 C 57.253 287.490,57.676 287.200,57.838 287.200 C 58.000 287.200,58.418 286.943,58.766 286.628 C 59.115 286.314,60.103 285.414,60.961 284.628 C 61.820 283.843,62.765 283.200,63.061 283.200 C 63.358 283.200,63.600 282.930,63.600 282.600 C 63.600 282.270,63.851 282.000,64.157 282.000 C 64.602 282.000,65.200 281.212,65.200 280.626 C 65.200 280.379,63.238 278.495,61.382 276.960 C 60.292 276.058,58.882 274.888,58.248 274.360 C 57.614 273.832,56.211 272.545,55.129 271.500 C 54.047 270.455,53.056 269.600,52.928 269.600 C 52.799 269.600,51.831 268.745,50.778 267.700 C 49.725 266.655,48.082 265.080,47.127 264.200 C 46.172 263.320,44.954 261.970,44.420 261.200 C 43.887 260.430,42.944 259.334,42.325 258.764 C 41.706 258.195,41.200 257.560,41.200 257.353 C 41.200 257.147,40.705 256.533,40.100 255.989 C 39.495 255.445,38.481 254.235,37.846 253.300 C 37.211 252.365,36.536 251.600,36.346 251.600 C 36.156 251.600,36.000 251.413,36.000 251.184 C 36.000 250.710,34.355 248.269,33.900 248.067 C 33.735 247.993,33.600 247.673,33.600 247.354 C 33.600 247.036,33.346 246.678,33.036 246.559 C 32.726 246.439,32.363 245.905,32.228 245.371 C 32.094 244.837,31.808 244.400,31.592 244.400 C 31.377 244.400,31.200 244.124,31.200 243.787 C 31.200 243.451,30.941 243.076,30.624 242.954 C 30.308 242.833,29.934 242.208,29.793 241.567 C 29.652 240.925,29.371 240.400,29.168 240.400 C 28.966 240.400,28.800 240.165,28.800 239.877 C 28.800 239.589,28.177 238.116,27.415 236.602 C 26.654 235.088,25.919 233.343,25.783 232.725 C 25.648 232.106,25.391 231.600,25.213 231.600 C 25.035 231.600,24.772 230.978,24.630 230.217 C 24.487 229.456,24.108 228.331,23.788 227.717 C 23.467 227.103,23.204 226.195,23.202 225.700 C 23.201 225.205,23.041 224.800,22.846 224.800 C 22.651 224.800,22.363 223.765,22.205 222.500 C 22.048 221.235,21.774 220.110,21.598 220.000 C 21.240 219.777,20.306 212.625,20.333 210.308 C 20.342 209.487,20.181 208.712,19.975 208.584 C 19.497 208.289,19.474 189.896,19.952 189.380 C 20.145 189.171,20.524 186.930,20.795 184.400 C 21.066 181.870,21.435 179.707,21.615 179.594 C 21.795 179.481,22.031 178.617,22.139 177.674 C 22.247 176.731,22.514 175.743,22.732 175.480 C 22.950 175.216,23.255 174.325,23.409 173.500 C 23.563 172.675,23.870 172.000,24.091 172.000 C 24.312 172.000,24.407 171.550,24.302 171.000 C 24.197 170.450,24.266 170.000,24.455 170.000 C 24.645 170.000,24.800 169.640,24.800 169.200 C 24.800 168.760,24.972 168.400,25.182 168.400 C 25.392 168.400,25.682 167.770,25.826 167.000 C 25.971 166.230,26.249 165.600,26.445 165.600 C 26.640 165.600,26.806 165.375,26.813 165.100 C 26.819 164.825,27.268 163.700,27.809 162.600 C 28.350 161.500,28.794 160.375,28.796 160.100 C 28.798 159.825,28.980 159.600,29.200 159.600 C 29.420 159.600,29.600 159.354,29.600 159.054 C 29.600 158.754,29.973 158.034,30.429 157.454 C 30.885 156.874,31.121 156.400,30.954 156.400 C 30.786 156.400,31.043 156.033,31.525 155.584 C 32.006 155.136,32.400 154.506,32.400 154.184 C 32.400 153.863,32.580 153.600,32.800 153.600 C 33.020 153.600,33.200 153.240,33.200 152.800 C 33.200 152.356,33.467 152.000,33.800 152.000 C 34.130 152.000,34.400 151.813,34.400 151.584 C 34.400 151.202,35.890 148.867,36.432 148.400 C 36.560 148.290,36.913 147.628,37.217 146.929 C 37.521 146.230,37.913 145.746,38.088 145.854 C 38.263 145.962,38.530 145.724,38.683 145.325 C 38.835 144.926,39.689 143.848,40.580 142.929 C 41.471 142.010,42.830 140.505,43.600 139.584 C 45.068 137.829,47.029 135.871,51.509 131.687 C 56.305 127.207,56.582 126.963,57.952 126.011 C 59.272 125.094,60.526 124.005,63.043 121.592 C 63.727 120.936,64.400 120.400,64.539 120.400 C 65.017 120.400,66.359 119.057,66.176 118.761 C 66.075 118.598,66.556 118.341,67.245 118.190 C 67.987 118.027,68.578 117.607,68.695 117.158 C 68.804 116.741,69.142 116.400,69.447 116.400 C 69.751 116.400,70.000 116.220,70.000 116.000 C 70.000 115.780,70.230 115.600,70.511 115.600 C 70.792 115.600,71.475 115.084,72.028 114.453 C 72.582 113.823,73.445 113.176,73.946 113.017 C 74.527 112.833,74.776 112.516,74.634 112.143 C 74.510 111.822,74.573 111.659,74.772 111.783 C 74.972 111.906,75.407 111.736,75.739 111.404 C 76.071 111.072,76.503 110.800,76.699 110.800 C 76.895 110.800,77.447 110.350,77.925 109.800 C 78.403 109.250,79.021 108.792,79.297 108.783 C 79.574 108.774,80.242 108.234,80.781 107.583 C 81.321 106.932,81.996 106.400,82.281 106.400 C 82.567 106.400,82.800 106.130,82.800 105.800 C 82.800 105.470,82.939 105.245,83.108 105.300 C 83.445 105.409,83.743 105.183,86.382 102.805 C 87.363 101.922,88.329 101.200,88.529 101.200 C 88.730 101.200,89.592 100.480,90.446 99.600 C 91.300 98.720,92.152 98.000,92.338 98.000 C 92.524 98.000,93.449 97.152,94.392 96.116 C 95.335 95.079,96.365 94.193,96.679 94.147 C 97.271 94.060,97.564 93.803,103.085 88.535 C 107.282 84.529,109.727 82.133,112.076 79.724 C 113.108 78.666,114.818 76.956,115.876 75.924 C 118.738 73.133,121.600 70.067,121.600 69.792 C 121.600 69.658,122.046 69.065,122.591 68.474 C 124.889 65.982,125.600 65.053,125.600 64.542 C 125.600 64.244,125.784 64.000,126.009 64.000 C 126.233 64.000,126.635 63.505,126.900 62.900 C 127.166 62.295,127.612 61.656,127.892 61.480 C 128.171 61.304,128.400 60.918,128.400 60.623 C 128.400 60.327,128.670 59.982,129.000 59.855 C 129.330 59.729,129.600 59.349,129.600 59.013 C 129.600 58.676,129.777 58.400,129.992 58.400 C 130.208 58.400,130.498 57.950,130.636 57.400 C 130.774 56.850,131.028 56.400,131.200 56.400 C 131.372 56.400,131.635 55.916,131.783 55.325 C 131.932 54.733,132.319 54.055,132.644 53.817 C 132.970 53.579,133.265 52.995,133.301 52.520 C 133.337 52.044,133.507 51.742,133.679 51.849 C 133.851 51.955,134.211 51.223,134.479 50.221 C 134.747 49.219,135.094 48.400,135.251 48.400 C 135.408 48.400,135.655 47.860,135.800 47.200 C 135.945 46.540,136.221 46.000,136.414 46.000 C 136.606 46.000,136.882 45.370,137.026 44.600 C 137.171 43.830,137.470 43.200,137.691 43.200 C 137.912 43.200,137.999 42.840,137.884 42.400 C 137.769 41.961,137.838 41.500,138.038 41.377 C 138.237 41.254,138.400 40.803,138.400 40.376 C 138.400 39.949,138.557 39.600,138.749 39.600 C 138.941 39.600,139.219 38.840,139.368 37.912 C 139.516 36.984,139.819 36.112,140.041 35.975 C 140.263 35.837,140.550 34.707,140.678 33.463 C 140.807 32.218,141.043 31.200,141.204 31.200 C 141.365 31.200,141.624 30.077,141.779 28.704 C 141.934 27.331,142.225 26.011,142.424 25.771 C 142.624 25.530,143.008 22.333,143.279 18.667 C 143.549 15.000,143.912 12.000,144.085 12.000 C 144.258 12.000,144.400 10.560,144.400 8.800 L 144.400 5.600 137.658 5.600 L 130.916 5.600 130.661 8.300 M15.718 6.297 C 14.133 6.372,11.433 6.373,9.718 6.298 C 8.003 6.222,9.300 6.161,12.600 6.160 C 15.900 6.159,17.303 6.221,15.718 6.297 M140.518 6.297 C 138.933 6.372,136.233 6.373,134.518 6.298 C 132.803 6.222,134.100 6.161,137.400 6.160 C 140.700 6.159,142.103 6.221,140.518 6.297 M174.400 49.800 L 174.400 56.400 181.000 56.400 L 187.600 56.400 187.600 49.800 L 187.600 43.200 181.000 43.200 L 174.400 43.200 174.400 49.800 M199.600 49.800 L 199.600 56.400 206.214 56.400 L 212.828 56.400 212.780 49.800 L 212.732 43.200 206.166 43.200 L 199.600 43.200 199.600 49.800 M224.667 43.467 C 224.520 43.613,224.400 46.583,224.400 50.067 L 224.400 56.400 231.200 56.400 L 238.000 56.400 238.000 49.800 L 238.000 43.200 231.467 43.200 C 227.873 43.200,224.813 43.320,224.667 43.467 M249.200 49.800 L 249.200 56.400 256.000 56.400 L 262.800 56.400 262.800 49.800 L 262.800 43.200 256.000 43.200 L 249.200 43.200 249.200 49.800 M274.420 49.800 L 274.372 56.400 280.786 56.400 L 287.200 56.400 287.284 50.300 L 287.368 44.200 287.600 50.400 L 287.832 56.600 287.916 49.900 L 288.000 43.200 281.234 43.200 L 274.468 43.200 274.420 49.800 M299.600 49.800 L 299.600 56.400 306.400 56.400 L 313.200 56.400 313.200 49.800 L 313.200 43.200 306.400 43.200 L 299.600 43.200 299.600 49.800 M299.620 75.000 L 299.670 81.600 306.435 81.600 L 313.200 81.600 313.200 75.000 L 313.200 68.400 306.385 68.400 L 299.569 68.400 299.620 75.000 M93.814 111.537 C 92.229 112.424,91.581 113.048,91.907 113.374 C 92.055 113.521,91.885 113.531,91.529 113.394 C 91.120 113.237,90.390 113.601,89.541 114.386 C 86.616 117.090,86.175 117.453,85.500 117.709 C 84.632 118.039,84.588 119.393,85.423 120.084 C 85.765 120.368,86.958 121.455,88.074 122.500 C 89.190 123.545,90.255 124.400,90.440 124.400 C 90.811 124.400,91.844 125.317,96.533 129.807 C 98.256 131.457,99.858 132.688,100.094 132.542 C 100.330 132.396,100.418 132.448,100.288 132.657 C 99.987 133.145,100.259 133.509,102.114 135.101 C 102.947 135.815,103.539 136.400,103.430 136.400 C 103.194 136.400,104.679 138.088,107.300 140.802 C 108.345 141.884,109.200 142.890,109.200 143.038 C 109.200 143.187,109.659 143.734,110.221 144.254 C 110.782 144.774,111.135 145.200,111.005 145.200 C 110.745 145.200,111.129 145.688,113.142 147.915 L 114.483 149.400 81.907 149.600 L 49.331 149.800 47.656 151.800 C 45.197 154.738,45.235 154.685,44.734 155.785 C 44.480 156.343,44.120 156.800,43.936 156.800 C 43.751 156.800,43.600 157.076,43.600 157.413 C 43.600 157.749,43.330 158.129,43.000 158.255 C 42.670 158.382,42.400 158.709,42.400 158.982 C 42.400 159.254,42.040 159.893,41.600 160.400 C 41.160 160.907,40.800 161.745,40.800 162.261 L 40.800 163.200 82.000 163.200 C 122.933 163.200,123.200 163.205,123.200 164.000 C 123.200 164.440,123.360 164.800,123.555 164.800 C 123.750 164.800,124.031 165.610,124.179 166.600 C 124.328 167.590,124.607 168.400,124.800 168.400 C 124.993 168.400,125.272 169.210,125.421 170.200 C 125.569 171.190,125.835 172.000,126.010 172.000 C 126.186 172.000,126.456 172.765,126.610 173.700 C 126.764 174.635,127.066 175.617,127.280 175.882 C 127.494 176.148,127.560 176.540,127.428 176.755 C 127.295 176.969,127.370 177.258,127.593 177.396 C 127.817 177.534,128.003 178.222,128.006 178.924 C 128.011 179.853,128.112 180.042,128.379 179.621 C 128.617 179.244,128.667 179.626,128.520 180.717 C 128.393 181.665,128.481 182.616,128.723 182.907 C 128.958 183.191,129.276 184.812,129.430 186.511 C 129.584 188.210,129.866 189.600,130.055 189.600 C 130.245 189.600,130.400 190.421,130.400 191.424 C 130.400 192.700,130.539 193.162,130.862 192.962 C 131.148 192.785,131.215 192.852,131.038 193.138 C 130.606 193.838,31.347 193.800,31.065 193.100 C 30.954 192.825,30.849 195.705,30.832 199.500 L 30.800 206.400 80.600 206.400 L 130.400 206.400 130.400 208.200 C 130.400 209.190,130.243 210.000,130.052 210.000 C 129.860 210.000,129.578 211.437,129.425 213.193 C 129.272 214.949,128.999 216.477,128.820 216.588 C 128.640 216.699,128.365 217.827,128.208 219.095 C 128.051 220.363,127.785 221.580,127.616 221.800 C 127.447 222.020,127.293 222.470,127.273 222.800 C 127.210 223.835,126.255 227.391,125.983 227.600 C 125.841 227.710,125.612 228.505,125.476 229.368 C 125.340 230.230,125.044 231.049,124.820 231.188 C 124.595 231.327,124.346 232.034,124.266 232.759 C 124.187 233.484,123.939 234.195,123.715 234.339 C 123.491 234.482,123.190 234.978,123.046 235.439 C 122.659 236.681,118.963 236.796,79.324 236.798 C 56.773 236.799,44.762 236.938,44.600 237.200 C 44.464 237.420,43.553 237.600,42.576 237.600 C 41.599 237.600,40.800 237.765,40.800 237.967 C 40.800 238.677,41.290 239.600,41.666 239.600 C 41.876 239.600,41.918 239.375,41.759 239.100 C 41.601 238.825,41.620 238.735,41.802 238.899 C 41.983 239.064,42.184 239.682,42.247 240.273 C 42.310 240.863,42.640 241.502,42.981 241.693 C 43.321 241.884,43.600 242.301,43.600 242.620 C 43.600 242.939,43.735 243.200,43.900 243.201 C 44.065 243.201,44.712 244.011,45.337 245.001 C 45.962 245.990,46.637 246.800,46.837 246.800 C 47.037 246.800,47.200 247.057,47.200 247.371 C 47.200 247.685,47.866 248.491,48.680 249.162 L 50.160 250.381 82.137 250.381 C 115.773 250.380,114.792 250.351,113.812 251.330 C 112.936 252.207,110.400 255.558,110.400 255.840 C 110.400 255.968,109.320 257.120,108.000 258.400 C 106.680 259.680,105.600 260.866,105.600 261.037 C 105.600 261.661,92.241 274.400,91.588 274.400 C 91.374 274.400,91.200 274.610,91.200 274.867 C 91.200 275.123,91.091 275.224,90.958 275.091 C 90.825 274.958,90.309 275.288,89.812 275.825 C 89.315 276.361,88.740 276.800,88.535 276.800 C 88.330 276.800,87.721 277.332,87.181 277.983 C 86.642 278.634,86.012 279.174,85.781 279.183 C 85.551 279.192,84.921 279.732,84.381 280.383 C 83.842 281.034,83.169 281.574,82.887 281.583 C 82.604 281.592,81.743 282.230,80.973 283.000 C 80.203 283.770,79.415 284.400,79.222 284.400 C 79.029 284.400,78.417 284.940,77.861 285.600 C 77.306 286.260,76.674 286.800,76.457 286.800 C 76.239 286.800,75.522 287.340,74.862 288.000 C 74.202 288.660,73.545 289.200,73.403 289.200 C 73.048 289.200,69.077 292.479,68.680 293.100 C 68.504 293.375,68.165 293.600,67.926 293.600 C 67.687 293.600,67.102 294.005,66.627 294.500 C 66.151 294.995,65.140 295.837,64.381 296.370 C 63.621 296.904,62.856 297.579,62.680 297.870 C 62.504 298.162,62.136 298.400,61.861 298.400 C 61.587 298.400,60.921 298.932,60.381 299.583 C 59.842 300.234,59.184 300.774,58.919 300.783 C 58.655 300.792,57.827 301.430,57.079 302.200 C 56.331 302.970,55.586 303.600,55.424 303.600 C 55.262 303.600,54.368 304.382,53.439 305.338 C 52.510 306.294,51.427 307.257,51.032 307.478 C 47.774 309.301,28.894 328.643,29.117 329.928 C 29.198 330.398,29.133 330.452,28.898 330.108 C 28.569 329.626,27.200 330.755,27.200 331.509 C 27.200 331.674,26.660 332.255,26.000 332.800 C 25.340 333.345,24.800 333.978,24.800 334.207 C 24.800 334.435,24.440 334.930,24.000 335.307 C 23.560 335.684,23.200 336.245,23.200 336.553 C 23.200 336.862,22.930 337.218,22.600 337.345 C 22.270 337.471,22.000 337.851,22.000 338.187 C 22.000 338.524,21.809 338.800,21.576 338.800 C 21.343 338.800,21.264 338.980,21.400 339.200 C 21.536 339.420,21.469 339.600,21.251 339.600 C 21.032 339.600,20.728 339.997,20.574 340.481 C 20.420 340.966,20.048 341.609,19.747 341.910 C 19.446 342.211,19.200 342.815,19.200 343.252 C 19.200 343.689,19.020 343.936,18.800 343.800 C 18.580 343.664,18.400 343.839,18.400 344.189 C 18.400 344.539,18.141 344.924,17.824 345.046 C 17.508 345.167,17.134 345.792,16.993 346.433 C 16.852 347.075,16.585 347.600,16.400 347.600 C 16.215 347.600,15.945 348.140,15.800 348.800 C 15.655 349.460,15.385 350.000,15.200 350.000 C 15.015 350.000,14.745 350.540,14.600 351.200 C 14.455 351.860,14.185 352.400,14.000 352.400 C 13.815 352.400,13.536 352.982,13.379 353.694 C 13.223 354.406,12.858 355.351,12.568 355.794 C 12.278 356.237,11.918 357.365,11.769 358.300 C 11.620 359.235,11.352 360.000,11.173 360.000 C 10.995 360.000,10.728 360.810,10.579 361.800 C 10.431 362.790,10.166 363.600,9.992 363.600 C 9.818 363.600,9.551 364.500,9.400 365.600 C 9.249 366.700,8.983 367.600,8.809 367.600 C 8.635 367.600,8.365 368.815,8.207 370.300 C 8.050 371.785,7.739 373.223,7.516 373.494 C 7.293 373.766,7.185 374.621,7.275 375.394 C 7.366 376.168,7.296 376.800,7.120 376.800 C 6.944 376.800,6.800 377.664,6.800 378.720 C 6.800 379.776,6.639 380.811,6.442 381.020 C 6.245 381.229,5.956 384.235,5.800 387.700 L 5.516 394.000 12.318 394.000 L 19.121 394.000 19.386 389.300 C 19.532 386.715,19.807 384.150,19.998 383.600 C 20.188 383.050,20.565 380.485,20.837 377.900 C 21.108 375.315,21.460 373.200,21.619 373.200 C 21.779 373.200,22.031 372.389,22.179 371.398 C 22.328 370.407,22.707 369.102,23.022 368.498 C 23.337 367.894,23.596 366.995,23.598 366.500 C 23.599 366.005,23.764 365.600,23.965 365.600 C 24.166 365.600,24.451 364.881,24.600 364.002 C 24.748 363.123,25.018 362.312,25.200 362.200 C 25.382 362.088,25.652 361.277,25.800 360.398 C 25.949 359.519,26.234 358.800,26.435 358.800 C 26.636 358.800,26.800 358.361,26.800 357.824 C 26.800 356.343,24.934 356.407,68.398 356.396 L 109.283 356.386 109.012 355.293 C 108.863 354.692,108.574 354.140,108.370 354.067 C 108.167 353.993,108.000 353.673,108.000 353.354 C 108.000 353.036,107.730 352.671,107.400 352.545 C 107.070 352.418,106.800 352.062,106.800 351.753 C 106.800 351.445,106.440 350.884,106.000 350.507 C 105.560 350.130,105.200 349.669,105.200 349.483 C 105.200 349.296,104.975 348.906,104.700 348.616 C 104.425 348.326,103.860 347.619,103.444 347.044 C 103.028 346.470,102.433 346.000,102.120 346.000 C 101.808 346.000,101.662 345.824,101.795 345.608 C 103.136 343.439,101.392 343.326,61.400 342.991 C 49.300 342.890,38.635 342.805,37.700 342.803 C 35.687 342.799,35.583 342.381,37.200 340.800 C 37.860 340.155,38.400 339.450,38.400 339.233 C 38.400 339.017,38.638 338.696,38.930 338.520 C 39.221 338.344,39.896 337.590,40.430 336.843 C 41.975 334.683,54.277 322.493,55.211 322.197 C 55.740 322.029,55.974 321.708,55.834 321.343 C 55.710 321.022,55.782 320.865,55.994 320.996 C 56.206 321.127,56.693 320.866,57.078 320.417 C 57.463 319.968,57.939 319.600,58.136 319.600 C 58.333 319.600,59.192 318.880,60.046 318.000 C 60.900 317.120,61.734 316.397,61.900 316.393 C 62.065 316.389,62.624 315.939,63.142 315.393 C 63.660 314.847,64.245 314.400,64.442 314.400 C 64.639 314.400,64.800 314.119,64.800 313.776 C 64.800 313.433,64.965 313.255,65.168 313.380 C 65.370 313.505,66.205 312.976,67.024 312.204 C 67.842 311.432,68.667 310.800,68.856 310.800 C 69.045 310.800,69.200 310.519,69.200 310.176 C 69.200 309.833,69.381 309.665,69.603 309.802 C 69.824 309.939,70.111 309.776,70.240 309.441 C 70.369 309.105,70.855 308.710,71.320 308.562 C 71.785 308.414,72.618 307.777,73.172 307.147 C 73.725 306.516,74.341 306.000,74.541 306.000 C 74.878 306.000,76.735 304.502,79.274 302.182 C 79.865 301.642,80.504 301.200,80.693 301.200 C 80.883 301.200,81.479 300.668,82.019 300.017 C 82.558 299.366,83.228 298.826,83.507 298.817 C 83.786 298.808,84.626 298.170,85.374 297.400 C 86.121 296.630,86.892 296.000,87.085 296.000 C 87.279 296.000,87.879 295.468,88.419 294.817 C 88.958 294.166,89.600 293.626,89.844 293.617 C 90.088 293.608,90.923 293.015,91.700 292.300 C 92.476 291.585,93.661 290.561,94.332 290.024 C 95.004 289.487,95.476 288.922,95.381 288.769 C 95.286 288.616,95.482 288.515,95.816 288.545 C 97.060 288.657,120.767 265.301,120.093 264.627 C 119.951 264.485,120.193 264.275,120.630 264.160 C 121.464 263.942,123.072 261.831,122.900 261.179 C 122.845 260.971,123.076 260.800,123.413 260.800 C 123.749 260.800,124.141 260.485,124.283 260.100 C 124.425 259.715,124.651 259.310,124.785 259.200 C 125.644 258.492,126.747 256.632,126.530 256.253 C 126.388 256.004,126.412 255.926,126.583 256.081 C 126.946 256.407,128.000 255.466,128.000 254.816 C 128.000 254.573,128.254 254.278,128.564 254.159 C 128.874 254.039,129.237 253.505,129.372 252.971 C 129.506 252.437,129.778 252.000,129.976 252.000 C 130.174 252.000,130.455 251.460,130.600 250.800 C 130.745 250.140,131.003 249.600,131.174 249.600 C 131.545 249.600,134.808 243.217,134.803 242.500 C 134.801 242.225,134.966 242.000,135.168 242.000 C 135.371 242.000,135.663 241.415,135.818 240.700 C 135.974 239.985,136.275 239.289,136.489 239.152 C 136.703 239.016,136.906 238.431,136.939 237.853 C 136.973 237.274,137.214 236.800,137.475 236.800 C 137.737 236.800,138.072 235.990,138.221 235.000 C 138.369 234.010,138.671 233.200,138.892 233.200 C 139.113 233.200,139.208 232.755,139.104 232.212 C 139.001 231.669,139.070 231.319,139.258 231.436 C 139.446 231.552,139.600 231.277,139.600 230.824 C 139.600 230.371,139.800 230.000,140.045 230.000 C 140.311 230.000,140.421 229.524,140.318 228.821 C 140.223 228.173,140.292 227.733,140.472 227.845 C 140.653 227.956,140.800 227.497,140.800 226.824 C 140.800 226.151,140.963 225.600,141.162 225.600 C 141.362 225.600,141.652 224.655,141.807 223.500 C 141.963 222.345,142.225 221.220,142.390 221.000 C 142.556 220.780,142.708 220.330,142.729 220.000 C 142.750 219.670,142.909 217.690,143.083 215.600 C 143.925 205.504,143.332 180.035,142.271 180.671 C 142.006 180.830,142.040 180.657,142.349 180.277 C 142.728 179.810,142.773 179.445,142.494 179.100 C 142.271 178.825,141.963 177.655,141.807 176.500 C 141.652 175.345,141.383 174.400,141.209 174.400 C 141.035 174.400,140.768 173.410,140.617 172.200 C 140.466 170.990,140.191 170.000,140.006 170.000 C 139.822 170.000,139.549 169.280,139.400 168.400 C 139.251 167.520,138.986 166.800,138.810 166.800 C 138.635 166.800,138.369 165.990,138.221 165.000 C 138.072 164.010,137.802 163.200,137.619 163.200 C 137.436 163.200,137.171 162.705,137.030 162.100 C 136.753 160.915,135.562 158.327,135.144 158.000 C 135.004 157.890,134.660 157.035,134.381 156.100 C 134.102 155.165,133.736 154.400,133.568 154.400 C 133.401 154.400,133.145 153.860,133.000 153.200 C 132.855 152.540,132.571 152.000,132.368 152.000 C 132.166 152.000,132.000 151.724,132.000 151.387 C 132.000 151.051,131.730 150.671,131.400 150.545 C 131.070 150.418,130.800 150.053,130.800 149.734 C 130.800 149.414,130.622 149.263,130.405 149.397 C 130.173 149.541,130.114 149.368,130.263 148.980 C 130.404 148.613,130.281 148.174,129.986 147.992 C 129.695 147.811,129.408 147.338,129.350 146.939 C 129.291 146.541,129.054 146.151,128.822 146.074 C 128.590 145.997,128.400 145.687,128.400 145.387 C 128.400 145.086,128.175 144.696,127.899 144.520 C 127.624 144.344,127.135 143.690,126.813 143.066 C 126.491 142.442,125.817 141.487,125.314 140.945 C 124.811 140.403,124.400 139.802,124.400 139.610 C 124.400 139.418,123.860 138.722,123.200 138.062 C 122.540 137.402,122.000 136.725,122.000 136.559 C 122.000 136.392,121.190 135.502,120.200 134.580 C 119.210 133.658,118.399 132.745,118.398 132.552 C 118.397 132.358,117.317 131.071,115.998 129.692 C 114.679 128.313,113.600 127.278,113.600 127.392 C 113.600 127.597,112.271 126.244,108.895 122.599 C 107.957 121.587,107.008 120.872,106.785 121.009 C 106.562 121.147,106.406 121.111,106.437 120.930 C 106.590 120.051,106.343 119.647,105.784 119.862 C 105.445 119.992,105.220 119.930,105.284 119.723 C 105.405 119.334,103.068 116.800,102.588 116.800 C 102.438 116.800,101.470 115.900,100.437 114.800 C 99.404 113.700,98.343 112.800,98.080 112.800 C 97.816 112.800,97.600 112.601,97.600 112.357 C 97.600 112.114,97.321 112.022,96.979 112.153 C 96.623 112.289,96.463 112.222,96.603 111.995 C 96.737 111.778,96.567 111.600,96.224 111.600 C 95.881 111.600,95.600 111.420,95.600 111.200 C 95.600 110.671,95.239 110.739,93.814 111.537 M230.800 112.400 C 230.470 112.613,229.069 112.791,227.687 112.794 C 225.827 112.798,225.115 112.956,224.945 113.400 C 224.818 113.730,224.485 114.000,224.205 114.000 C 223.616 114.000,220.400 117.018,220.400 117.571 C 220.400 117.776,220.152 118.191,219.849 118.494 C 218.251 120.092,218.223 121.024,218.274 171.600 C 218.329 225.762,218.698 249.233,219.500 249.500 C 219.775 249.592,220.000 249.902,220.000 250.189 C 220.000 251.686,224.513 255.329,226.573 255.495 C 227.688 255.585,229.050 255.815,229.600 256.006 C 230.420 256.291,273.922 256.829,294.300 256.806 L 299.600 256.800 299.600 265.600 L 299.600 274.400 290.200 274.400 L 280.800 274.400 280.800 281.200 L 280.800 288.000 306.200 288.000 L 331.600 288.000 331.600 281.200 L 331.600 274.400 322.400 274.400 L 313.200 274.400 313.112 265.500 L 313.023 256.600 312.796 265.600 L 312.569 274.600 312.584 265.729 L 312.600 256.859 347.400 256.599 C 367.756 256.447,382.358 256.186,382.580 255.969 C 382.789 255.766,383.518 255.600,384.200 255.600 C 384.882 255.600,385.682 255.375,385.979 255.100 C 386.413 254.697,386.458 254.705,386.209 255.143 C 385.972 255.559,386.108 255.620,386.788 255.404 C 387.779 255.089,390.800 252.138,390.800 251.485 C 390.800 251.255,390.905 251.172,391.033 251.300 C 392.068 252.335,392.993 249.637,393.329 244.609 C 393.874 236.435,394.137 132.322,393.620 129.200 C 393.383 127.770,393.137 124.800,393.073 122.600 L 392.957 118.600 390.178 115.811 L 387.400 113.022 382.000 112.892 C 379.030 112.821,376.078 112.591,375.440 112.381 C 373.848 111.858,231.610 111.876,230.800 112.400 M381.003 171.600 L 381.007 218.200 380.801 171.600 L 380.595 125.000 380.497 171.500 L 380.400 218.000 306.000 218.000 L 231.600 218.000 231.600 171.399 L 231.600 124.798 306.300 124.899 L 381.000 125.000 381.003 171.600 M337.200 171.600 L 337.200 206.400 343.800 206.400 L 350.400 206.400 350.400 171.600 L 350.400 136.800 343.800 136.800 L 337.200 136.800 337.200 171.600 M312.000 180.400 L 312.000 206.400 318.600 206.400 L 325.200 206.400 325.200 180.400 L 325.200 154.400 318.600 154.400 L 312.000 154.400 312.000 180.400 M286.800 188.800 L 286.800 206.400 293.400 206.400 L 300.000 206.400 300.000 188.800 L 300.000 171.200 293.400 171.200 L 286.800 171.200 286.800 188.800 M262.000 197.400 L 262.000 206.400 268.800 206.400 L 275.600 206.400 275.600 197.400 L 275.600 188.400 268.800 188.400 L 262.000 188.400 262.000 197.400 M162.000 199.715 L 162.000 206.430 168.810 206.381 L 175.619 206.331 175.510 199.745 L 175.400 193.159 168.700 193.079 L 162.000 193.000 162.000 199.715 M187.200 199.700 L 187.200 206.400 193.800 206.400 L 200.400 206.400 200.400 199.700 L 200.400 193.000 193.800 193.000 L 187.200 193.000 187.200 199.700 M380.400 237.400 L 380.400 243.200 306.000 243.200 L 231.600 243.200 231.600 237.400 L 231.600 231.600 306.000 231.600 L 380.400 231.600 380.400 237.400 M381.097 240.700 C 381.022 242.405,380.961 241.010,380.961 237.600 C 380.961 234.190,381.022 232.795,381.097 234.500 C 381.172 236.205,381.172 238.995,381.097 240.700 M94.000 305.157 C 94.000 305.353,93.505 305.636,92.900 305.785 C 92.295 305.935,91.315 306.584,90.723 307.229 C 90.130 307.873,89.481 308.400,89.281 308.400 C 89.081 308.400,88.431 308.850,87.838 309.400 C 87.244 309.950,86.882 310.400,87.033 310.400 C 87.184 310.400,86.834 310.773,86.254 311.229 C 85.674 311.685,85.200 312.218,85.200 312.412 C 85.200 312.836,93.194 320.800,93.619 320.800 C 93.781 320.800,95.403 322.285,97.223 324.100 C 99.042 325.915,100.997 327.628,101.566 327.906 C 102.135 328.184,102.276 328.321,101.879 328.211 C 101.465 328.095,101.262 328.177,101.403 328.405 C 101.537 328.622,101.917 328.800,102.247 328.800 C 102.577 328.800,102.753 328.952,102.638 329.138 C 102.524 329.324,103.593 330.578,105.015 331.924 C 106.437 333.271,107.600 334.550,107.600 334.767 C 107.600 334.984,108.230 335.773,109.000 336.521 C 109.770 337.269,110.400 338.048,110.400 338.251 C 110.400 338.455,110.916 339.075,111.547 339.628 C 112.177 340.182,112.814 341.015,112.962 341.480 C 113.110 341.945,113.494 342.427,113.815 342.550 C 114.137 342.674,114.400 343.051,114.400 343.387 C 114.400 343.724,114.535 344.001,114.700 344.003 C 114.865 344.004,115.313 344.556,115.696 345.228 C 116.079 345.901,116.557 346.350,116.759 346.225 C 116.961 346.100,117.024 346.387,116.898 346.867 C 116.729 347.515,116.819 347.678,117.254 347.511 C 117.636 347.365,117.857 347.564,117.897 348.089 C 117.930 348.529,118.193 349.184,118.481 349.545 C 118.770 349.905,119.451 351.055,119.994 352.100 C 120.538 353.145,121.108 354.000,121.260 354.000 C 121.412 354.000,121.655 354.540,121.800 355.200 C 121.945 355.860,122.209 356.400,122.387 356.400 C 122.565 356.400,122.829 357.030,122.974 357.800 C 123.118 358.570,123.394 359.200,123.586 359.200 C 123.779 359.200,124.055 359.740,124.200 360.400 C 124.345 361.060,124.618 361.600,124.807 361.600 C 124.996 361.600,125.272 362.410,125.421 363.400 C 125.569 364.390,125.842 365.200,126.027 365.200 C 126.212 365.200,126.472 365.875,126.604 366.700 C 126.736 367.525,127.011 368.508,127.215 368.884 C 127.420 369.260,127.488 369.827,127.366 370.144 C 127.245 370.460,127.329 370.833,127.554 370.972 C 127.779 371.111,128.085 372.303,128.234 373.621 C 128.383 374.939,128.648 376.106,128.823 376.214 C 128.998 376.322,129.268 378.032,129.423 380.014 C 129.578 381.996,129.861 383.714,130.052 383.832 C 130.244 383.951,130.401 385.072,130.403 386.324 C 130.404 387.576,130.520 389.815,130.661 391.300 L 130.916 394.000 137.603 394.000 L 144.291 394.000 144.361 391.000 C 144.399 389.350,144.269 388.000,144.071 388.000 C 143.874 388.000,143.584 385.525,143.427 382.500 C 143.270 379.475,142.962 376.190,142.743 375.200 C 142.523 374.210,142.151 372.185,141.916 370.700 C 141.680 369.215,141.339 368.000,141.157 368.000 C 140.976 368.000,140.708 367.100,140.562 366.000 C 140.416 364.900,140.146 364.000,139.962 364.000 C 139.778 364.000,139.508 363.100,139.362 362.000 C 139.216 360.900,138.942 360.000,138.753 360.000 C 138.564 360.000,138.294 359.280,138.154 358.400 C 138.013 357.520,137.755 356.800,137.581 356.800 C 137.406 356.800,137.135 356.215,136.978 355.500 C 136.821 354.786,136.329 353.886,135.885 353.500 C 135.441 353.115,135.268 352.800,135.501 352.800 C 135.734 352.800,135.831 352.440,135.716 352.000 C 135.601 351.560,135.348 351.200,135.153 351.200 C 134.959 351.200,134.800 350.963,134.800 350.673 C 134.800 349.964,131.783 344.111,131.154 343.600 C 131.019 343.490,130.781 342.995,130.627 342.500 C 130.472 342.005,130.178 341.600,129.973 341.600 C 129.768 341.600,129.600 341.324,129.600 340.987 C 129.600 340.651,129.341 340.276,129.024 340.154 C 128.708 340.033,128.337 339.423,128.200 338.800 C 128.063 338.177,127.692 337.567,127.376 337.446 C 127.059 337.324,126.800 337.041,126.800 336.816 C 126.800 336.285,124.073 332.696,123.354 332.280 C 123.049 332.104,122.800 331.768,122.800 331.533 C 122.800 331.299,122.080 330.408,121.200 329.554 C 120.320 328.700,119.600 327.818,119.600 327.595 C 119.600 327.263,102.246 309.800,100.228 308.100 C 99.483 307.473,99.062 307.453,99.438 308.062 C 99.621 308.357,99.547 308.415,99.235 308.222 C 98.967 308.056,98.849 307.818,98.974 307.692 C 99.304 307.363,97.976 306.000,97.325 306.000 C 97.023 306.000,96.671 305.730,96.545 305.400 C 96.300 304.762,94.000 304.542,94.000 305.157 M299.600 325.000 L 299.600 331.600 306.400 331.600 L 313.200 331.600 313.200 325.000 L 313.200 318.400 306.400 318.400 L 299.600 318.400 299.600 325.000 M174.400 349.600 L 174.400 356.400 181.000 356.400 L 187.600 356.400 187.600 349.600 L 187.600 342.800 181.000 342.800 L 174.400 342.800 174.400 349.600 M199.690 349.500 L 199.800 356.200 206.300 356.310 L 212.800 356.420 212.800 349.610 L 212.800 342.800 206.190 342.800 L 199.581 342.800 199.690 349.500 M224.593 343.700 C 224.470 344.195,224.422 347.210,224.485 350.400 L 224.600 356.200 231.300 356.310 L 238.000 356.419 238.000 349.610 L 238.000 342.800 231.408 342.800 C 224.904 342.800,224.812 342.812,224.593 343.700 M249.200 349.600 L 249.200 356.400 256.000 356.400 L 262.800 356.400 262.800 349.600 L 262.800 342.800 256.000 342.800 L 249.200 342.800 249.200 349.600 M274.400 349.600 L 274.400 356.400 281.200 356.400 L 288.000 356.400 288.000 349.600 L 288.000 342.800 281.200 342.800 L 274.400 342.800 274.400 349.600 M299.600 349.600 L 299.600 356.400 306.400 356.400 L 313.200 356.400 313.200 349.600 L 313.200 342.800 306.400 342.800 L 299.600 342.800 299.600 349.600 M287.498 352.682 C 287.422 354.397,287.361 353.100,287.360 349.800 C 287.359 346.500,287.421 345.097,287.497 346.682 C 287.572 348.267,287.573 350.967,287.498 352.682 " stroke="none" fill="#2ca40c" fill-rule="evenodd"></path><path id="path1" d="M9.718 6.298 C 11.433 6.373,14.133 6.372,15.718 6.297 C 17.303 6.221,15.900 6.159,12.600 6.160 C 9.300 6.161,8.003 6.222,9.718 6.298 M134.518 6.298 C 136.233 6.373,138.933 6.372,140.518 6.297 C 142.103 6.221,140.700 6.159,137.400 6.160 C 134.100 6.161,132.803 6.222,134.518 6.298 M287.361 50.400 C 287.361 53.810,287.422 55.205,287.497 53.500 C 287.572 51.795,287.572 49.005,287.497 47.300 C 287.422 45.595,287.361 46.990,287.361 50.400 M231.600 125.201 C 231.600 125.471,256.278 125.570,306.198 125.502 L 380.797 125.400 380.901 171.700 L 381.005 218.000 381.003 171.500 L 381.000 125.000 306.300 124.899 C 256.312 124.831,231.600 124.931,231.600 125.201 M31.200 193.197 C 31.200 193.748,130.656 193.757,130.996 193.206 C 131.156 192.948,113.946 192.809,81.220 192.803 C 47.886 192.797,31.200 192.928,31.200 193.197 M165.519 193.098 C 167.344 193.172,170.224 193.172,171.919 193.097 C 173.614 193.022,172.120 192.961,168.600 192.962 C 165.080 192.962,163.694 193.024,165.519 193.098 M190.719 193.098 C 192.544 193.172,195.424 193.172,197.119 193.097 C 198.814 193.022,197.320 192.961,193.800 192.962 C 190.280 192.962,188.894 193.024,190.719 193.098 M380.961 237.600 C 380.961 241.010,381.022 242.405,381.097 240.700 C 381.172 238.995,381.172 236.205,381.097 234.500 C 381.022 232.795,380.961 234.190,380.961 237.600 M312.579 256.910 C 312.472 257.190,312.433 261.285,312.493 266.010 L 312.602 274.600 312.801 265.500 C 312.996 256.589,312.977 255.872,312.579 256.910 M287.360 349.800 C 287.361 353.100,287.422 354.397,287.498 352.682 C 287.573 350.967,287.572 348.267,287.497 346.682 C 287.421 345.097,287.359 346.500,287.360 349.800 " stroke="none" fill="#30a40c" fill-rule="evenodd"></path><path id="path2" d="M9.718 6.298 C 11.433 6.373,14.133 6.372,15.718 6.297 C 17.303 6.221,15.900 6.159,12.600 6.160 C 9.300 6.161,8.003 6.222,9.718 6.298 M134.518 6.298 C 136.233 6.373,138.933 6.372,140.518 6.297 C 142.103 6.221,140.700 6.159,137.400 6.160 C 134.100 6.161,132.803 6.222,134.518 6.298 M287.361 50.400 C 287.361 53.810,287.422 55.205,287.497 53.500 C 287.572 51.795,287.572 49.005,287.497 47.300 C 287.422 45.595,287.361 46.990,287.361 50.400 M231.600 125.201 C 231.600 125.471,256.278 125.570,306.198 125.502 L 380.797 125.400 380.901 171.700 L 381.005 218.000 381.003 171.500 L 381.000 125.000 306.300 124.899 C 256.312 124.831,231.600 124.931,231.600 125.201 M31.200 193.197 C 31.200 193.748,130.656 193.757,130.996 193.206 C 131.156 192.948,113.946 192.809,81.220 192.803 C 47.886 192.797,31.200 192.928,31.200 193.197 M165.519 193.098 C 167.344 193.172,170.224 193.172,171.919 193.097 C 173.614 193.022,172.120 192.961,168.600 192.962 C 165.080 192.962,163.694 193.024,165.519 193.098 M190.719 193.098 C 192.544 193.172,195.424 193.172,197.119 193.097 C 198.814 193.022,197.320 192.961,193.800 192.962 C 190.280 192.962,188.894 193.024,190.719 193.098 M380.961 237.600 C 380.961 241.010,381.022 242.405,381.097 240.700 C 381.172 238.995,381.172 236.205,381.097 234.500 C 381.022 232.795,380.961 234.190,380.961 237.600 M312.579 256.910 C 312.472 257.190,312.433 261.285,312.493 266.010 L 312.602 274.600 312.801 265.500 C 312.996 256.589,312.977 255.872,312.579 256.910 M287.360 349.800 C 287.361 353.100,287.422 354.397,287.498 352.682 C 287.573 350.967,287.572 348.267,287.497 346.682 C 287.421 345.097,287.359 346.500,287.360 349.800 " stroke="none" fill="#30a40c" fill-rule="evenodd"></path><path id="path3" d="M9.718 6.298 C 11.433 6.373,14.133 6.372,15.718 6.297 C 17.303 6.221,15.900 6.159,12.600 6.160 C 9.300 6.161,8.003 6.222,9.718 6.298 M134.518 6.298 C 136.233 6.373,138.933 6.372,140.518 6.297 C 142.103 6.221,140.700 6.159,137.400 6.160 C 134.100 6.161,132.803 6.222,134.518 6.298 M287.361 50.400 C 287.361 53.810,287.422 55.205,287.497 53.500 C 287.572 51.795,287.572 49.005,287.497 47.300 C 287.422 45.595,287.361 46.990,287.361 50.400 M231.600 125.201 C 231.600 125.471,256.278 125.570,306.198 125.502 L 380.797 125.400 380.901 171.700 L 381.005 218.000 381.003 171.500 L 381.000 125.000 306.300 124.899 C 256.312 124.831,231.600 124.931,231.600 125.201 M31.200 193.197 C 31.200 193.748,130.656 193.757,130.996 193.206 C 131.156 192.948,113.946 192.809,81.220 192.803 C 47.886 192.797,31.200 192.928,31.200 193.197 M165.519 193.098 C 167.344 193.172,170.224 193.172,171.919 193.097 C 173.614 193.022,172.120 192.961,168.600 192.962 C 165.080 192.962,163.694 193.024,165.519 193.098 M190.719 193.098 C 192.544 193.172,195.424 193.172,197.119 193.097 C 198.814 193.022,197.320 192.961,193.800 192.962 C 190.280 192.962,188.894 193.024,190.719 193.098 M380.961 237.600 C 380.961 241.010,381.022 242.405,381.097 240.700 C 381.172 238.995,381.172 236.205,381.097 234.500 C 381.022 232.795,380.961 234.190,380.961 237.600 M312.579 256.910 C 312.472 257.190,312.433 261.285,312.493 266.010 L 312.602 274.600 312.801 265.500 C 312.996 256.589,312.977 255.872,312.579 256.910 M287.360 349.800 C 287.361 353.100,287.422 354.397,287.498 352.682 C 287.573 350.967,287.572 348.267,287.497 346.682 C 287.421 345.097,287.359 346.500,287.360 349.800 " stroke="none" fill="#30a40c" fill-rule="evenodd"></path><path id="path4" d="M9.718 6.298 C 11.433 6.373,14.133 6.372,15.718 6.297 C 17.303 6.221,15.900 6.159,12.600 6.160 C 9.300 6.161,8.003 6.222,9.718 6.298 M134.518 6.298 C 136.233 6.373,138.933 6.372,140.518 6.297 C 142.103 6.221,140.700 6.159,137.400 6.160 C 134.100 6.161,132.803 6.222,134.518 6.298 M287.361 50.400 C 287.361 53.810,287.422 55.205,287.497 53.500 C 287.572 51.795,287.572 49.005,287.497 47.300 C 287.422 45.595,287.361 46.990,287.361 50.400 M231.600 125.201 C 231.600 125.471,256.278 125.570,306.198 125.502 L 380.797 125.400 380.901 171.700 L 381.005 218.000 381.003 171.500 L 381.000 125.000 306.300 124.899 C 256.312 124.831,231.600 124.931,231.600 125.201 M31.200 193.197 C 31.200 193.748,130.656 193.757,130.996 193.206 C 131.156 192.948,113.946 192.809,81.220 192.803 C 47.886 192.797,31.200 192.928,31.200 193.197 M165.519 193.098 C 167.344 193.172,170.224 193.172,171.919 193.097 C 173.614 193.022,172.120 192.961,168.600 192.962 C 165.080 192.962,163.694 193.024,165.519 193.098 M190.719 193.098 C 192.544 193.172,195.424 193.172,197.119 193.097 C 198.814 193.022,197.320 192.961,193.800 192.962 C 190.280 192.962,188.894 193.024,190.719 193.098 M380.961 237.600 C 380.961 241.010,381.022 242.405,381.097 240.700 C 381.172 238.995,381.172 236.205,381.097 234.500 C 381.022 232.795,380.961 234.190,380.961 237.600 M312.579 256.910 C 312.472 257.190,312.433 261.285,312.493 266.010 L 312.602 274.600 312.801 265.500 C 312.996 256.589,312.977 255.872,312.579 256.910 M287.360 349.800 C 287.361 353.100,287.422 354.397,287.498 352.682 C 287.573 350.967,287.572 348.267,287.497 346.682 C 287.421 345.097,287.359 346.500,287.360 349.800 " stroke="none" fill="#30a40c" fill-rule="evenodd"></path></g></svg>