<svg id="svg" version="1.1" xmlns="http://www.w3.org/2000/svg" xmlns:xlink="http://www.w3.org/1999/xlink" width="400" height="400" viewBox="0, 0, 400,400"><g id="svgg"><path id="path0" d="M40.400 0.403 C 29.921 0.599,28.031 0.728,27.000 1.313 C 26.340 1.688,25.500 1.996,25.133 1.998 C 24.767 1.999,24.397 2.209,24.312 2.463 C 24.227 2.718,23.725 2.993,23.196 3.073 C 22.667 3.154,22.135 3.381,22.013 3.578 C 21.892 3.775,21.299 4.060,20.696 4.212 C 20.093 4.363,19.600 4.647,19.600 4.843 C 19.600 5.040,19.375 5.155,19.100 5.100 C 18.825 5.045,18.633 5.188,18.672 5.417 C 18.712 5.646,18.402 5.860,17.983 5.891 C 17.563 5.923,16.723 6.410,16.114 6.974 C 15.506 7.538,14.886 8.000,14.736 8.000 C 14.349 8.000,8.000 14.511,8.000 14.908 C 8.000 15.090,7.595 15.635,7.100 16.121 C 5.908 17.289,5.116 18.740,5.410 19.216 C 5.540 19.427,5.381 19.600,5.055 19.600 C 4.723 19.600,4.348 20.126,4.200 20.800 C 4.055 21.460,3.785 22.000,3.600 22.000 C 3.415 22.000,3.145 22.540,3.000 23.200 C 2.855 23.860,2.587 24.400,2.403 24.400 C 2.220 24.400,1.942 25.165,1.786 26.100 C 1.630 27.035,1.310 27.922,1.075 28.071 C -0.052 28.785,-0.342 323.095,0.784 323.790 C 0.954 323.895,1.006 324.435,0.900 324.990 C 0.794 325.546,0.888 326.000,1.109 326.000 C 1.330 326.000,1.629 326.630,1.774 327.400 C 1.918 328.170,2.194 328.800,2.386 328.800 C 2.579 328.800,2.855 329.340,3.000 330.000 C 3.145 330.660,3.429 331.200,3.632 331.200 C 3.834 331.200,4.000 331.430,4.000 331.711 C 4.000 331.992,4.495 332.781,5.100 333.465 C 5.705 334.149,6.726 335.359,7.370 336.154 C 8.013 336.949,8.686 337.600,8.865 337.600 C 9.169 337.600,9.525 337.865,11.695 339.700 C 12.150 340.085,12.688 340.400,12.890 340.400 C 13.092 340.400,13.527 340.670,13.857 341.000 C 14.187 341.330,14.804 341.600,15.229 341.600 C 15.653 341.600,16.000 341.778,16.000 341.995 C 16.000 342.213,16.720 342.506,17.600 342.646 C 18.480 342.787,19.200 343.047,19.200 343.224 C 19.200 343.400,20.640 343.671,22.400 343.824 C 24.160 343.978,25.600 344.260,25.600 344.452 C 25.600 344.643,26.744 344.800,28.141 344.800 C 29.539 344.800,31.789 344.916,33.141 345.057 L 35.600 345.314 35.600 364.257 L 35.600 383.200 32.224 383.200 C 30.367 383.200,28.736 383.380,28.600 383.600 C 28.444 383.852,23.872 384.000,16.205 384.000 C 3.429 384.000,2.800 384.086,2.800 385.829 C 2.800 386.143,2.530 386.400,2.200 386.400 C 1.870 386.400,1.600 386.605,1.600 386.856 C 1.600 387.107,1.285 387.542,0.900 387.824 C -0.992 389.206,-0.017 395.485,2.496 398.099 L 4.129 399.800 199.601 399.899 L 395.073 399.999 396.534 398.899 C 397.337 398.295,398.102 397.408,398.233 396.929 C 398.365 396.450,398.726 395.961,399.036 395.841 C 399.463 395.678,399.600 394.754,399.600 392.031 L 399.600 388.436 397.469 386.218 L 395.337 384.000 379.869 384.000 L 364.400 384.000 364.400 364.657 L 364.400 345.314 366.859 345.057 C 368.211 344.916,370.371 344.800,371.659 344.800 C 372.946 344.800,374.000 344.646,374.000 344.459 C 374.000 344.271,375.385 344.000,377.077 343.857 C 378.770 343.714,380.255 343.440,380.377 343.249 C 380.500 343.057,381.230 342.767,382.000 342.604 C 382.770 342.441,383.643 342.112,383.939 341.872 C 384.235 341.633,384.834 341.383,385.270 341.316 C 385.705 341.250,386.311 340.972,386.617 340.698 C 387.874 339.571,388.383 339.199,388.683 339.188 C 389.370 339.163,391.620 336.756,391.356 336.328 C 391.197 336.072,391.254 335.986,391.488 336.131 C 392.327 336.649,395.880 332.404,395.361 331.503 C 395.202 331.226,395.212 331.126,395.383 331.281 C 395.825 331.679,396.713 330.686,397.024 329.448 C 397.168 328.872,397.439 328.400,397.625 328.400 C 397.811 328.400,398.088 327.725,398.240 326.900 C 398.391 326.075,398.689 325.287,398.902 325.149 C 399.661 324.656,399.936 281.264,399.874 171.800 C 399.822 79.510,399.711 53.372,399.269 30.100 C 399.251 29.165,399.049 28.400,398.818 28.400 C 398.588 28.400,398.399 28.085,398.398 27.700 C 398.396 27.315,398.143 26.517,397.835 25.927 C 397.527 25.337,397.154 24.302,397.006 23.627 C 396.858 22.952,396.607 22.400,396.449 22.400 C 396.290 22.400,395.919 21.732,395.624 20.915 C 395.055 19.341,394.241 18.292,393.875 18.659 C 393.753 18.780,393.753 18.501,393.874 18.040 C 394.030 17.442,393.907 17.200,393.447 17.200 C 393.091 17.200,392.800 16.931,392.800 16.603 C 392.800 15.841,391.733 14.566,388.000 10.865 C 384.257 7.155,383.844 6.800,383.266 6.800 C 383.010 6.800,382.800 6.623,382.800 6.408 C 382.800 6.192,382.363 5.906,381.829 5.772 C 381.295 5.637,380.767 5.291,380.656 5.002 C 380.545 4.712,379.902 4.354,379.227 4.206 C 378.552 4.058,378.000 3.779,378.000 3.586 C 378.000 3.394,377.370 3.118,376.600 2.974 C 375.830 2.829,375.200 2.559,375.200 2.374 C 375.200 2.188,374.525 1.912,373.700 1.760 C 372.875 1.609,372.073 1.288,371.918 1.047 C 371.348 0.165,83.024 -0.395,40.400 0.403 M216.637 16.397 C 216.897 16.657,243.197 16.797,292.737 16.803 C 339.567 16.809,368.352 16.955,368.209 17.186 C 367.927 17.641,369.254 18.400,370.331 18.400 C 370.762 18.400,371.218 18.670,371.345 19.000 C 371.471 19.330,371.786 19.600,372.043 19.600 C 372.301 19.600,372.717 19.880,372.967 20.222 C 373.217 20.565,373.687 20.884,374.011 20.933 C 374.762 21.045,377.075 23.371,378.508 25.455 C 379.118 26.342,379.942 27.416,380.339 27.842 C 380.736 28.268,380.987 28.838,380.897 29.109 C 380.807 29.379,380.914 29.600,381.135 29.600 C 381.356 29.600,381.663 30.185,381.818 30.900 C 381.974 31.615,382.290 32.320,382.522 32.468 C 382.786 32.636,383.010 36.016,383.124 41.568 C 383.223 46.425,383.461 50.400,383.652 50.400 C 383.843 50.400,384.000 51.660,384.000 53.200 L 384.000 56.000 200.000 56.000 L 16.000 56.000 16.000 47.433 C 16.000 42.722,16.157 38.807,16.350 38.733 C 16.542 38.660,16.778 37.486,16.874 36.123 C 16.992 34.446,16.911 33.729,16.624 33.900 C 16.391 34.040,16.440 33.857,16.734 33.494 C 17.028 33.132,17.153 32.647,17.011 32.418 C 16.869 32.188,17.010 32.000,17.325 32.000 C 17.684 32.000,17.993 31.402,18.154 30.400 C 18.294 29.520,18.542 28.796,18.705 28.792 C 18.867 28.788,19.532 27.888,20.183 26.792 C 20.833 25.696,21.527 24.800,21.725 24.800 C 21.924 24.800,21.978 24.521,21.847 24.179 C 21.716 23.838,21.754 23.648,21.932 23.758 C 22.109 23.867,22.507 23.607,22.815 23.179 C 23.124 22.750,23.562 22.397,23.788 22.393 C 24.015 22.389,24.603 21.961,25.097 21.440 C 25.590 20.920,26.625 20.195,27.397 19.828 C 28.168 19.462,28.800 18.993,28.800 18.786 C 28.800 18.579,29.530 18.293,30.422 18.150 C 31.427 17.989,31.975 17.712,31.863 17.419 C 31.726 17.062,36.026 16.922,49.541 16.844 C 60.012 16.783,67.455 16.587,67.533 16.370 C 67.722 15.847,216.114 15.874,216.637 16.397 M297.091 16.292 C 296.261 16.379,295.001 16.377,294.291 16.289 C 293.581 16.200,294.260 16.129,295.800 16.131 C 297.340 16.133,297.921 16.205,297.091 16.292 M47.000 28.351 C 45.591 28.828,43.605 30.185,43.603 30.671 C 43.601 30.931,43.302 31.441,42.937 31.806 C 42.092 32.650,41.890 39.225,42.700 39.498 C 42.975 39.591,43.203 39.877,43.207 40.133 C 43.215 40.696,44.950 42.400,45.514 42.400 C 45.734 42.400,46.018 42.670,46.145 43.000 C 46.601 44.189,53.530 43.836,54.000 42.600 C 54.209 42.050,54.485 41.600,54.614 41.600 C 54.742 41.600,54.736 41.780,54.600 42.000 C 54.464 42.220,54.531 42.400,54.748 42.400 C 55.324 42.400,56.400 41.231,56.400 40.605 C 56.400 40.309,56.625 39.991,56.900 39.899 C 57.811 39.595,57.567 32.427,56.600 31.111 C 56.160 30.512,55.577 30.100,55.305 30.196 C 55.032 30.293,54.852 30.159,54.905 29.899 C 55.175 28.557,49.610 27.467,47.000 28.351 M78.132 28.340 C 77.654 28.483,76.484 29.302,75.532 30.161 L 73.800 31.721 73.800 35.613 L 73.800 39.506 75.913 41.553 L 78.025 43.600 81.379 43.600 C 84.747 43.600,88.000 41.885,88.000 40.110 C 88.000 39.866,88.204 39.599,88.454 39.515 C 89.117 39.294,89.160 32.724,88.500 32.502 C 88.225 32.409,88.000 32.118,88.000 31.856 C 88.000 31.304,86.346 29.769,85.900 29.907 C 85.735 29.958,85.600 29.748,85.600 29.439 C 85.600 28.284,80.718 27.565,78.132 28.340 M108.976 28.537 C 107.231 29.336,105.700 30.864,105.384 32.120 C 105.235 32.714,104.953 33.200,104.757 33.200 C 104.560 33.200,104.400 34.460,104.400 36.000 C 104.400 37.600,104.571 38.800,104.800 38.800 C 105.020 38.800,105.200 39.044,105.200 39.342 C 105.200 40.176,107.142 42.083,107.664 41.761 C 107.917 41.604,108.018 41.648,107.888 41.857 C 107.194 42.980,108.404 43.400,112.338 43.400 L 116.305 43.400 117.952 41.651 C 118.859 40.688,119.600 39.563,119.600 39.151 C 119.600 38.738,119.780 38.400,120.000 38.400 C 120.226 38.400,120.400 37.267,120.400 35.800 C 120.400 34.370,120.240 33.200,120.043 33.200 C 119.847 33.200,119.574 32.750,119.436 32.200 C 119.298 31.650,119.008 31.200,118.792 31.200 C 118.577 31.200,118.400 30.964,118.400 30.675 C 118.400 28.739,111.805 27.243,108.976 28.537 M174.252 28.281 C 174.117 28.416,173.077 28.494,171.942 28.454 C 169.661 28.373,167.415 29.518,166.945 31.000 C 166.806 31.440,166.491 31.928,166.246 32.085 C 165.973 32.260,165.800 33.742,165.800 35.902 L 165.800 39.434 167.300 40.978 C 168.125 41.828,168.800 42.646,168.800 42.797 C 168.800 44.204,168.368 44.196,261.726 44.321 L 352.452 44.443 353.959 42.890 C 354.788 42.036,355.766 41.222,356.133 41.081 C 356.500 40.940,356.800 40.549,356.800 40.213 C 356.800 39.876,356.980 39.600,357.200 39.600 C 357.437 39.600,357.600 38.131,357.600 35.992 L 357.600 32.385 355.516 30.187 L 353.433 27.988 263.965 28.012 C 214.758 28.025,174.387 28.146,174.252 28.281 M201.900 43.876 C 201.515 43.976,200.885 43.976,200.500 43.876 C 200.115 43.775,200.430 43.693,201.200 43.693 C 201.970 43.693,202.285 43.775,201.900 43.876 M299.505 43.875 C 299.122 43.975,298.402 43.979,297.905 43.883 C 297.407 43.787,297.720 43.705,298.600 43.701 C 299.480 43.696,299.887 43.775,299.505 43.875 M383.991 139.280 C 383.974 183.500,383.830 206.323,383.563 206.644 C 383.292 206.971,383.298 207.213,383.581 207.388 C 384.143 207.736,384.118 209.600,383.551 209.600 C 383.227 209.600,383.232 209.756,383.568 210.161 C 383.925 210.592,383.913 210.778,383.517 210.961 C 383.108 211.150,383.105 211.249,383.500 211.433 C 384.090 211.709,384.202 216.000,383.619 216.000 C 383.381 216.000,383.194 235.358,383.119 267.739 C 383.034 304.941,382.875 319.635,382.555 320.039 C 382.310 320.347,382.000 321.064,381.865 321.631 C 381.415 323.519,377.836 326.400,375.939 326.400 C 375.569 326.400,375.207 326.563,375.133 326.762 C 375.060 326.961,372.615 327.254,369.700 327.413 L 364.400 327.703 364.425 297.151 C 364.463 251.398,364.099 206.711,363.686 206.438 C 363.487 206.307,363.215 205.509,363.081 204.665 C 362.813 202.969,361.307 201.188,360.060 201.095 C 359.617 201.061,359.340 200.897,359.444 200.729 C 360.151 199.585,308.388 199.261,306.985 200.400 C 306.561 200.745,306.374 200.787,306.547 200.500 C 306.767 200.133,306.416 200.000,305.224 200.000 C 304.331 200.000,303.600 200.180,303.600 200.400 C 303.600 200.620,303.465 200.771,303.300 200.736 C 302.290 200.523,300.307 202.097,298.963 204.182 C 298.239 205.303,298.194 206.527,298.082 228.056 L 297.963 250.748 299.713 252.574 C 300.675 253.578,301.659 254.400,301.898 254.400 C 302.137 254.400,302.408 254.625,302.500 254.900 C 302.871 256.012,309.297 255.541,310.624 254.304 C 311.271 253.701,312.368 252.755,313.062 252.201 L 314.323 251.193 314.364 237.897 C 314.387 230.584,314.520 222.845,314.660 220.700 L 314.914 216.800 331.212 216.800 L 347.509 216.800 347.711 218.500 C 347.822 219.435,347.884 234.000,347.849 250.867 C 347.813 267.733,347.892 281.467,348.023 281.386 C 348.154 281.305,348.127 282.225,347.964 283.430 C 347.800 284.634,347.749 307.351,347.850 333.910 C 347.952 360.470,347.933 382.605,347.810 383.100 L 347.585 384.000 330.992 384.000 L 314.400 384.000 314.388 360.500 C 314.381 347.575,314.375 329.350,314.373 320.000 C 314.372 310.650,314.225 301.740,314.047 300.200 C 313.826 298.284,313.862 297.310,314.161 297.116 C 314.654 296.794,311.340 293.200,310.550 293.200 C 310.284 293.200,309.992 292.975,309.900 292.700 C 309.784 292.350,308.672 292.200,306.201 292.200 C 303.730 292.200,302.618 292.350,302.501 292.700 C 302.409 292.975,302.118 293.200,301.856 293.200 C 301.593 293.200,301.088 293.515,300.734 293.900 C 300.380 294.285,299.665 294.922,299.145 295.315 L 298.200 296.030 298.105 336.515 C 298.053 358.782,298.008 378.575,298.005 380.500 L 298.000 384.000 287.400 384.000 L 276.800 384.000 276.778 351.700 C 276.766 333.935,276.775 311.093,276.799 300.940 L 276.842 282.480 274.802 280.440 C 273.680 279.318,272.585 278.400,272.368 278.400 C 272.152 278.400,271.871 278.130,271.745 277.800 C 271.465 277.070,245.280 276.880,244.557 277.603 C 244.302 277.858,238.790 278.007,229.484 278.010 L 214.813 278.016 213.006 279.901 C 212.013 280.938,211.200 282.025,211.200 282.317 C 211.200 282.608,211.020 282.736,210.800 282.600 C 210.534 282.436,210.400 299.396,210.400 333.176 L 210.400 384.000 200.000 384.000 L 189.600 384.000 189.600 307.824 C 189.600 257.471,189.464 231.563,189.200 231.400 C 188.956 231.249,188.800 228.206,188.800 223.608 L 188.800 216.063 186.933 214.196 C 185.346 212.610,184.871 212.351,183.778 212.478 C 182.851 212.587,182.546 212.485,182.688 212.114 C 182.940 211.458,129.005 211.344,128.600 212.000 C 128.464 212.220,128.072 212.400,127.729 212.400 C 127.018 212.400,124.000 215.275,124.000 215.953 C 124.000 216.199,123.812 216.400,123.582 216.400 C 123.315 216.400,123.157 218.173,123.143 221.300 C 122.881 282.288,122.819 304.446,122.810 340.700 L 122.800 384.000 112.400 384.000 L 102.000 384.000 102.017 381.300 C 102.026 379.815,101.939 366.630,101.824 352.000 C 101.709 337.370,101.612 320.194,101.608 313.832 C 101.601 301.993,101.449 300.800,99.951 300.800 C 99.773 300.800,98.993 300.166,98.219 299.392 L 96.811 297.984 68.424 298.092 L 40.038 298.200 38.419 299.781 C 37.529 300.651,36.800 301.596,36.800 301.881 C 36.800 302.167,36.622 302.400,36.404 302.400 C 35.935 302.400,35.986 301.354,35.741 315.955 L 35.544 327.710 30.276 327.423 C 27.379 327.266,24.916 326.999,24.804 326.830 C 24.692 326.662,23.890 326.412,23.023 326.275 C 22.156 326.137,21.292 325.750,21.103 325.413 C 20.915 325.076,20.499 324.800,20.180 324.800 C 19.861 324.800,19.600 324.648,19.600 324.461 C 19.600 324.275,19.240 323.707,18.800 323.200 C 18.360 322.693,18.000 322.050,18.000 321.772 C 18.000 321.494,17.775 321.192,17.500 321.100 C 17.132 320.978,16.965 319.068,16.867 313.867 C 16.794 309.980,16.570 306.800,16.370 306.800 C 16.151 306.800,16.004 259.807,16.001 189.600 L 15.997 72.400 200.007 72.400 L 384.016 72.400 383.991 139.280 M43.200 98.400 C 43.200 98.620,42.416 98.800,41.458 98.800 C 39.975 98.800,36.490 100.759,37.879 100.812 C 38.056 100.819,37.885 101.008,37.500 101.232 C 37.115 101.456,36.800 101.886,36.800 102.187 C 36.800 102.487,36.596 102.801,36.346 102.885 C 36.064 102.979,35.875 104.238,35.846 106.218 L 35.800 109.400 38.340 111.900 L 40.879 114.400 62.704 114.400 L 84.529 114.400 85.664 113.128 C 86.289 112.428,86.800 111.649,86.800 111.396 C 86.800 111.142,87.255 110.692,87.811 110.394 C 89.297 109.599,89.813 103.338,88.430 102.877 C 88.193 102.798,88.000 102.547,88.000 102.320 C 88.000 102.092,87.280 101.186,86.400 100.306 C 85.520 99.426,84.800 98.547,84.800 98.353 C 84.800 98.154,75.751 98.000,64.000 98.000 C 50.400 98.000,43.200 98.138,43.200 98.400 M107.600 98.368 C 107.600 98.571,107.060 98.855,106.400 99.000 C 105.726 99.148,105.200 99.523,105.200 99.855 C 105.200 100.181,105.019 100.335,104.797 100.198 C 104.576 100.061,104.271 100.276,104.120 100.675 C 103.968 101.074,103.610 101.638,103.322 101.929 C 103.035 102.219,102.800 102.794,102.800 103.205 C 102.800 103.616,102.620 104.064,102.400 104.200 C 100.652 105.281,104.087 113.200,106.305 113.200 C 106.540 113.200,106.808 113.424,106.899 113.698 C 107.124 114.371,113.685 114.345,113.910 113.670 C 113.996 113.412,114.251 113.200,114.477 113.200 C 115.078 113.200,116.785 111.487,116.793 110.876 C 116.797 110.588,116.967 110.456,117.171 110.582 C 117.898 111.032,118.617 106.471,118.205 104.028 C 117.914 102.309,114.937 98.800,113.768 98.800 C 113.456 98.800,113.200 98.620,113.200 98.400 C 113.200 98.171,112.000 98.000,110.400 98.000 C 108.860 98.000,107.600 98.166,107.600 98.368 M148.000 106.000 C 148.000 106.220,147.359 106.400,146.576 106.400 C 145.602 106.400,145.243 106.546,145.438 106.862 C 145.634 107.178,145.547 107.213,145.162 106.972 C 144.478 106.544,143.095 106.729,142.742 107.297 C 142.600 107.525,141.902 107.757,141.192 107.813 C 140.481 107.869,139.786 108.100,139.646 108.326 C 139.506 108.552,138.899 108.860,138.296 109.012 C 137.693 109.163,137.200 109.453,137.200 109.656 C 137.200 109.859,136.885 110.141,136.500 110.283 C 135.014 110.831,129.200 116.040,129.200 116.824 C 129.200 117.003,128.667 117.734,128.016 118.447 C 127.365 119.160,126.721 120.251,126.584 120.872 C 126.448 121.492,126.179 122.000,125.986 122.000 C 125.794 122.000,125.512 122.675,125.360 123.500 C 125.209 124.325,124.912 125.112,124.700 125.250 C 124.489 125.387,124.220 126.697,124.102 128.160 C 123.985 129.624,123.734 130.917,123.544 131.034 C 123.094 131.312,123.095 138.400,123.544 138.400 C 123.734 138.400,123.989 139.505,124.112 140.856 C 124.234 142.207,124.539 143.438,124.788 143.593 C 125.038 143.747,125.318 144.473,125.411 145.207 C 125.504 145.940,125.762 146.653,125.984 146.790 C 126.963 147.395,126.881 149.396,125.832 150.528 C 125.264 151.140,124.800 151.548,124.800 151.434 C 124.800 151.229,121.291 154.731,117.360 158.858 C 116.239 160.036,114.852 161.360,114.279 161.800 C 113.706 162.240,113.229 162.825,113.218 163.100 C 113.208 163.375,112.975 163.608,112.700 163.617 C 112.425 163.626,111.750 164.183,111.200 164.853 C 109.763 166.606,108.400 168.070,108.400 167.862 C 108.400 167.578,103.178 172.616,91.959 183.724 C 80.925 194.649,80.121 195.215,78.706 193.050 C 78.544 192.802,78.409 192.757,78.406 192.949 C 78.403 193.141,78.144 193.085,77.830 192.825 C 77.517 192.565,75.627 192.246,73.630 192.117 C 71.634 191.987,70.000 191.728,70.000 191.541 C 70.000 191.353,68.920 191.200,67.600 191.200 C 66.280 191.200,65.200 191.354,65.200 191.542 C 65.200 191.730,63.998 191.997,62.529 192.134 C 61.060 192.271,59.755 192.528,59.629 192.705 C 59.503 192.882,59.130 193.010,58.800 192.989 C 58.470 192.968,58.020 193.076,57.800 193.229 C 57.580 193.382,56.815 193.633,56.100 193.786 C 55.385 193.938,54.800 194.229,54.800 194.432 C 54.800 194.634,54.524 194.800,54.187 194.800 C 53.851 194.800,53.478 195.054,53.359 195.364 C 53.239 195.674,52.705 196.037,52.171 196.172 C 51.637 196.306,51.200 196.592,51.200 196.808 C 51.200 197.023,51.008 197.200,50.773 197.200 C 50.285 197.200,46.000 201.238,46.000 201.698 C 46.000 201.864,45.626 202.374,45.169 202.831 C 44.712 203.288,44.436 203.918,44.557 204.231 C 44.681 204.555,44.535 204.800,44.219 204.800 C 43.914 204.800,43.545 205.340,43.400 206.000 C 43.255 206.660,42.979 207.200,42.786 207.200 C 42.594 207.200,42.318 207.830,42.174 208.600 C 42.029 209.370,41.757 210.000,41.569 210.000 C 41.381 210.000,41.108 210.900,40.962 212.000 C 40.816 213.100,40.552 214.000,40.375 214.000 C 40.197 214.000,40.049 216.790,40.044 220.200 C 40.040 223.610,40.185 226.400,40.367 226.400 C 40.548 226.400,40.816 227.300,40.962 228.400 C 41.108 229.500,41.387 230.400,41.582 230.400 C 41.777 230.400,42.055 230.940,42.200 231.600 C 42.345 232.260,42.629 232.800,42.832 232.800 C 43.034 232.800,43.200 233.076,43.200 233.413 C 43.200 233.749,43.470 234.129,43.800 234.255 C 44.130 234.382,44.400 234.752,44.400 235.078 C 44.400 235.924,50.751 242.078,51.284 241.748 C 51.543 241.588,51.610 241.660,51.447 241.924 C 51.169 242.374,52.702 244.232,53.058 243.876 C 53.163 243.771,53.679 244.116,54.206 244.642 C 54.733 245.169,55.442 245.600,55.782 245.600 C 56.122 245.600,56.400 245.772,56.400 245.982 C 56.400 246.192,57.075 246.485,57.900 246.634 C 58.725 246.783,59.653 247.106,59.962 247.352 C 60.743 247.975,74.721 247.972,75.115 247.349 C 75.272 247.101,76.165 246.770,77.100 246.614 C 78.035 246.458,78.800 246.186,78.800 246.009 C 78.800 245.833,79.430 245.571,80.200 245.426 C 80.970 245.282,81.600 245.011,81.600 244.825 C 81.600 244.639,82.086 244.365,82.680 244.216 C 83.274 244.067,84.133 243.542,84.589 243.050 C 85.045 242.558,85.740 242.032,86.134 241.881 C 86.528 241.729,86.739 241.424,86.602 241.203 C 86.465 240.981,86.613 240.800,86.931 240.800 C 87.534 240.800,90.400 238.068,90.400 237.493 C 90.400 237.311,90.838 236.756,91.372 236.261 C 91.907 235.765,92.463 234.887,92.608 234.309 C 92.754 233.731,93.108 233.167,93.396 233.057 C 93.684 232.946,94.050 232.078,94.209 231.128 C 94.368 230.178,94.666 229.293,94.871 229.163 C 95.077 229.032,95.350 227.907,95.478 226.663 C 95.607 225.418,95.867 224.400,96.056 224.400 C 96.245 224.400,96.400 221.970,96.400 219.000 C 96.400 216.030,96.241 213.600,96.046 213.600 C 95.851 213.600,95.569 212.614,95.418 211.409 C 95.268 210.204,94.962 209.259,94.738 209.309 C 94.514 209.359,94.250 208.536,94.152 207.480 L 93.973 205.560 100.882 198.680 C 104.682 194.896,107.748 191.665,107.696 191.500 C 107.643 191.335,107.779 191.200,107.997 191.200 C 108.452 191.200,131.712 168.008,131.282 167.984 C 131.127 167.975,131.495 167.699,132.100 167.371 C 132.705 167.043,133.200 166.600,133.200 166.387 C 133.200 166.174,133.404 166.000,133.653 166.000 C 133.903 166.000,134.993 165.100,136.076 164.000 C 137.158 162.900,138.292 162.000,138.595 162.000 C 138.898 162.000,139.268 161.616,139.417 161.147 C 139.566 160.678,139.803 160.462,139.944 160.667 C 140.085 160.872,141.010 161.092,142.000 161.157 C 142.990 161.222,143.928 161.484,144.085 161.738 C 144.480 162.377,158.847 162.384,159.637 161.745 C 159.947 161.495,160.965 161.164,161.900 161.010 C 162.835 160.856,163.600 160.566,163.600 160.365 C 163.600 158.442,166.100 160.530,178.482 172.794 C 185.587 179.831,191.637 185.816,191.927 186.094 C 192.217 186.372,198.201 192.414,205.224 199.520 L 217.994 212.441 217.461 213.720 C 217.169 214.424,217.005 215.225,217.098 215.500 C 217.191 215.775,217.086 216.000,216.865 216.000 C 216.644 216.000,216.337 216.585,216.182 217.300 C 216.026 218.015,215.697 218.728,215.450 218.885 C 215.142 219.081,215.000 221.639,215.000 227.000 C 215.000 232.361,215.142 234.919,215.450 235.115 C 215.697 235.272,216.026 235.985,216.182 236.700 C 216.337 237.415,216.649 238.000,216.875 238.000 C 217.101 238.000,217.183 238.267,217.058 238.594 C 216.830 239.186,217.753 241.275,218.700 242.310 C 218.975 242.611,219.200 243.000,219.200 243.174 C 219.200 243.632,225.198 249.600,225.659 249.600 C 225.872 249.600,225.939 249.775,225.807 249.988 C 225.675 250.202,226.012 250.488,226.555 250.624 C 227.098 250.761,227.639 251.126,227.759 251.436 C 227.878 251.746,228.251 252.000,228.587 252.000 C 228.924 252.000,229.200 252.166,229.200 252.368 C 229.200 252.571,229.740 252.855,230.400 253.000 C 231.060 253.145,231.600 253.450,231.600 253.678 C 231.600 253.907,232.045 254.008,232.588 253.904 C 233.131 253.801,233.481 253.870,233.364 254.058 C 233.248 254.246,233.613 254.400,234.176 254.400 C 234.739 254.400,235.200 254.599,235.200 254.842 C 235.200 255.115,235.799 255.227,236.766 255.135 C 237.663 255.049,238.235 255.144,238.104 255.356 C 237.801 255.845,249.889 255.384,250.524 254.881 C 250.786 254.674,251.662 254.385,252.471 254.239 C 253.280 254.094,254.000 253.845,254.071 253.687 C 254.142 253.529,255.074 252.950,256.143 252.400 C 257.211 251.850,258.235 251.040,258.417 250.600 C 258.616 250.121,258.759 250.031,258.775 250.375 C 258.793 250.798,259.004 250.732,259.565 250.130 C 259.986 249.678,260.931 248.935,261.665 248.479 C 262.399 248.023,263.270 247.262,263.600 246.788 C 263.930 246.314,264.605 245.447,265.100 244.863 C 265.594 244.278,265.999 243.564,266.000 243.276 C 266.000 242.988,266.165 242.855,266.367 242.980 C 266.570 243.105,266.851 242.680,266.992 242.037 C 267.133 241.393,267.508 240.767,267.824 240.646 C 268.141 240.524,268.400 240.149,268.400 239.813 C 268.400 239.476,268.564 239.200,268.765 239.200 C 268.966 239.200,269.258 238.435,269.414 237.500 C 269.570 236.565,269.875 235.688,270.091 235.550 C 270.307 235.413,270.580 234.103,270.698 232.640 C 270.815 231.176,271.066 229.883,271.256 229.766 C 271.745 229.463,271.684 224.244,271.186 223.746 C 270.958 223.518,270.669 222.267,270.544 220.966 C 270.419 219.665,270.171 218.420,269.994 218.200 C 269.817 217.980,269.545 217.125,269.391 216.300 C 269.237 215.475,268.951 214.800,268.755 214.800 C 267.744 214.800,269.220 212.933,273.895 208.298 C 274.063 208.131,277.575 204.655,281.700 200.573 C 285.825 196.491,289.200 192.982,289.200 192.775 C 289.200 192.569,289.363 192.400,289.563 192.400 C 290.251 192.400,312.006 170.333,311.741 169.904 C 311.594 169.667,311.663 169.592,311.896 169.736 C 312.455 170.081,316.091 166.470,315.746 165.912 C 315.592 165.664,315.660 165.590,315.904 165.741 C 316.139 165.886,317.412 164.924,318.734 163.602 C 321.176 161.160,321.802 160.806,322.100 161.700 C 322.358 162.475,338.297 162.414,338.778 161.636 C 338.969 161.326,339.813 161.002,340.652 160.916 C 341.491 160.830,342.303 160.557,342.456 160.309 C 342.609 160.062,343.154 159.798,343.667 159.722 C 344.180 159.647,345.088 159.229,345.684 158.793 C 346.280 158.357,346.910 157.992,347.084 157.983 C 347.258 157.974,347.842 157.434,348.381 156.783 C 348.921 156.132,349.553 155.600,349.786 155.600 C 350.018 155.600,350.657 155.031,351.204 154.335 C 351.752 153.639,352.740 152.505,353.400 151.814 C 354.060 151.123,354.870 150.027,355.200 149.379 C 355.530 148.730,356.025 147.962,356.300 147.671 C 356.575 147.381,356.800 146.901,356.800 146.605 C 356.800 146.309,356.969 146.007,357.175 145.933 C 357.382 145.860,357.618 145.292,357.700 144.670 C 357.781 144.049,358.107 143.381,358.424 143.185 C 359.169 142.725,359.288 126.154,358.550 125.685 C 358.303 125.528,357.974 124.815,357.818 124.100 C 357.663 123.385,357.371 122.800,357.168 122.800 C 356.966 122.800,356.800 122.558,356.800 122.261 C 356.800 121.965,356.440 121.307,356.000 120.800 C 355.560 120.293,355.200 119.672,355.200 119.420 C 355.200 118.481,348.920 111.600,348.063 111.600 C 347.808 111.600,347.600 111.390,347.600 111.133 C 347.600 110.877,347.489 110.778,347.352 110.914 C 347.216 111.050,346.862 110.945,346.566 110.681 C 345.214 109.474,344.802 109.216,343.834 108.973 C 343.265 108.830,342.800 108.572,342.800 108.400 C 342.800 108.228,342.307 107.963,341.704 107.812 C 341.101 107.660,340.478 107.326,340.319 107.068 C 339.923 106.427,322.499 106.402,322.086 107.042 C 321.929 107.286,321.125 107.609,320.300 107.760 C 319.381 107.930,318.800 108.261,318.800 108.618 C 318.800 108.938,318.440 109.200,318.000 109.200 C 317.560 109.200,317.200 109.360,317.200 109.557 C 317.200 109.753,316.795 110.018,316.300 110.146 C 315.238 110.421,312.156 113.110,312.300 113.636 C 312.355 113.836,312.200 114.000,311.957 114.000 C 310.963 114.000,306.960 118.567,306.783 119.904 C 306.761 120.067,306.486 120.344,306.172 120.520 C 305.857 120.696,305.600 121.101,305.600 121.420 C 305.600 121.739,305.443 122.000,305.251 122.000 C 305.059 122.000,304.790 122.705,304.652 123.566 C 304.514 124.428,304.176 125.208,303.901 125.300 C 303.125 125.558,303.184 142.695,303.962 143.176 C 304.271 143.367,304.577 144.020,304.642 144.626 C 304.706 145.232,304.922 145.834,305.122 145.964 C 305.321 146.094,305.703 146.872,305.971 147.694 C 306.239 148.516,306.625 149.292,306.829 149.418 C 307.717 149.966,306.921 151.051,302.426 155.424 C 299.079 158.680,297.715 160.268,297.863 160.734 C 298.023 161.237,297.983 161.270,297.697 160.872 C 297.242 160.237,289.455 167.842,289.871 168.515 C 290.010 168.740,289.930 168.804,289.693 168.657 C 289.255 168.387,281.600 175.775,281.600 176.469 C 281.600 176.677,281.465 176.780,281.300 176.698 C 281.011 176.555,274.797 182.629,274.978 182.878 C 275.027 182.945,274.737 183.315,274.333 183.700 C 273.930 184.085,273.600 184.320,273.600 184.222 C 273.600 184.124,272.427 185.217,270.994 186.651 C 269.561 188.084,268.508 189.452,268.656 189.690 C 268.804 189.930,268.740 190.010,268.512 189.869 C 268.286 189.729,267.619 190.062,267.030 190.607 C 266.441 191.153,266.058 191.600,266.179 191.600 C 266.301 191.600,266.085 191.931,265.700 192.337 C 265.315 192.742,264.910 193.045,264.800 193.011 C 264.690 192.977,263.215 194.356,261.523 196.075 C 259.830 197.794,258.570 199.205,258.723 199.212 C 258.875 199.219,258.681 199.410,258.292 199.637 C 257.902 199.864,257.680 200.206,257.798 200.397 C 257.916 200.588,257.830 200.858,257.607 200.996 C 257.383 201.134,257.195 201.012,257.188 200.724 C 257.180 200.402,257.018 200.470,256.767 200.902 C 256.340 201.635,254.756 201.528,253.700 200.696 C 253.364 200.431,253.003 200.466,252.600 200.800 C 252.112 201.205,252.000 201.186,252.000 200.695 C 252.000 200.264,251.372 200.014,249.800 199.817 C 248.590 199.666,247.600 199.380,247.600 199.181 C 247.600 198.982,245.620 198.825,243.200 198.832 C 240.780 198.838,238.800 198.988,238.800 199.165 C 238.800 199.342,237.685 199.603,236.322 199.745 C 234.960 199.887,233.720 200.206,233.567 200.453 C 233.414 200.700,233.089 200.779,232.845 200.628 C 232.600 200.476,232.400 200.543,232.400 200.776 C 232.400 201.009,231.860 201.200,231.200 201.200 C 230.540 201.200,230.000 200.990,230.000 200.733 C 230.000 200.477,229.898 200.369,229.774 200.493 C 229.556 200.711,225.376 196.641,223.100 193.996 C 222.495 193.293,222.000 192.830,222.000 192.967 C 222.000 193.214,218.200 189.383,214.900 185.810 C 213.965 184.798,213.200 184.060,213.200 184.171 C 213.200 184.410,208.282 179.435,206.700 177.596 C 206.095 176.893,205.600 176.436,205.600 176.579 C 205.600 176.723,205.150 176.356,204.600 175.762 C 204.050 175.169,203.600 174.566,203.600 174.422 C 203.600 173.749,190.361 160.777,189.940 161.037 C 189.658 161.212,189.584 161.149,189.752 160.877 C 189.914 160.616,187.388 157.800,183.657 154.081 C 178.016 148.460,177.309 147.610,177.489 146.666 C 177.602 146.080,177.832 145.600,178.001 145.600 C 178.171 145.600,178.437 144.745,178.594 143.700 C 178.750 142.655,179.086 141.672,179.339 141.515 C 180.022 141.092,179.984 127.128,179.300 126.900 C 179.025 126.808,178.800 126.208,178.800 125.567 C 178.800 124.925,178.637 124.400,178.437 124.400 C 178.238 124.400,178.169 124.040,178.284 123.600 C 178.399 123.160,178.307 122.800,178.078 122.800 C 177.850 122.800,177.545 122.260,177.400 121.600 C 177.255 120.940,176.973 120.400,176.774 120.400 C 176.574 120.400,176.162 119.805,175.858 119.078 C 175.237 117.591,173.289 115.347,172.752 115.500 C 172.558 115.555,172.400 115.341,172.400 115.024 C 172.400 114.707,172.222 114.337,172.005 114.203 C 171.777 114.062,171.695 114.265,171.810 114.679 C 171.921 115.076,171.735 114.807,171.397 114.082 C 171.059 113.357,170.607 112.872,170.391 113.005 C 170.176 113.138,170.000 112.987,170.000 112.670 C 170.000 112.352,169.550 111.797,169.000 111.437 C 168.450 111.076,168.000 110.883,168.000 111.007 C 168.000 111.219,167.501 110.853,166.215 109.700 C 165.908 109.425,165.509 109.194,165.329 109.186 C 165.148 109.179,164.280 108.825,163.400 108.400 C 162.520 107.975,161.294 107.621,160.676 107.614 C 160.058 107.606,159.650 107.442,159.770 107.249 C 160.019 106.846,158.127 106.400,156.174 106.400 C 155.444 106.400,154.736 106.220,154.600 106.000 C 154.464 105.780,152.923 105.600,151.176 105.600 C 149.325 105.600,148.000 105.767,148.000 106.000 M155.873 123.447 C 155.975 123.712,156.459 124.028,156.949 124.151 C 157.996 124.414,161.200 127.269,161.200 127.939 C 161.200 128.192,161.360 128.400,161.557 128.400 C 161.753 128.400,162.037 128.893,162.188 129.496 C 162.340 130.099,162.653 130.709,162.884 130.852 C 163.458 131.207,163.477 137.582,162.905 137.935 C 162.662 138.085,162.343 138.688,162.196 139.275 C 162.048 139.862,161.674 140.439,161.364 140.559 C 161.054 140.678,160.800 140.962,160.800 141.191 C 160.800 141.835,158.730 144.004,158.344 143.765 C 158.155 143.648,158.000 143.729,158.000 143.945 C 158.000 144.160,157.447 144.458,156.772 144.606 C 156.029 144.769,155.619 145.072,155.734 145.371 C 155.877 145.746,155.036 145.849,152.282 145.795 C 149.945 145.749,148.586 145.558,148.487 145.261 C 148.403 145.008,148.028 144.800,147.656 144.800 C 147.283 144.800,146.548 144.499,146.023 144.131 C 145.319 143.638,145.153 143.612,145.393 144.031 C 145.572 144.344,145.151 143.970,144.458 143.200 C 143.765 142.430,142.838 141.415,142.399 140.944 C 141.959 140.473,141.600 139.808,141.600 139.467 C 141.600 139.126,141.420 138.736,141.200 138.600 C 140.980 138.464,140.800 137.903,140.800 137.353 C 140.800 136.803,140.665 136.436,140.500 136.538 C 140.335 136.640,140.302 135.197,140.426 133.331 C 140.550 131.466,140.840 129.818,141.072 129.670 C 141.303 129.521,141.624 128.977,141.786 128.461 C 142.187 127.175,144.954 124.477,146.190 124.167 C 146.745 124.027,147.200 123.765,147.200 123.583 C 147.200 122.763,155.561 122.632,155.873 123.447 M335.914 123.543 C 335.998 123.794,336.258 124.000,336.492 124.000 C 337.168 124.000,340.400 126.798,340.400 127.384 C 340.400 127.676,340.670 128.018,341.000 128.145 C 341.330 128.271,341.600 128.636,341.600 128.954 C 341.600 129.273,341.821 129.607,342.091 129.697 C 342.751 129.917,342.780 137.518,342.123 137.924 C 341.870 138.080,341.543 138.688,341.396 139.275 C 341.248 139.862,340.874 140.439,340.564 140.559 C 340.254 140.678,340.000 141.051,340.000 141.387 C 340.000 141.724,339.809 142.000,339.576 142.000 C 339.343 142.000,339.253 142.162,339.376 142.361 C 339.499 142.560,339.059 142.910,338.400 143.140 C 337.740 143.370,337.200 143.728,337.200 143.936 C 337.200 144.143,336.707 144.437,336.104 144.588 C 335.501 144.740,334.882 145.068,334.728 145.317 C 334.372 145.893,327.686 145.960,327.287 145.392 C 327.025 145.019,324.748 143.864,324.490 143.973 C 324.375 144.021,323.031 142.593,322.000 141.327 C 319.777 138.595,318.634 130.724,320.305 129.649 C 320.518 129.512,320.818 128.998,320.971 128.507 C 321.360 127.259,324.220 124.461,325.411 124.162 C 325.955 124.025,326.400 123.766,326.400 123.586 C 326.400 122.710,335.623 122.668,335.914 123.543 M43.200 135.957 C 43.200 136.159,42.490 136.256,41.622 136.172 C 39.946 136.011,36.800 138.335,36.800 139.735 C 36.800 140.064,36.598 140.401,36.352 140.483 C 36.082 140.573,35.884 141.813,35.852 143.616 C 35.797 146.780,35.878 146.965,38.457 149.543 C 41.126 152.213,39.012 152.000,62.810 152.000 L 84.411 152.000 85.594 150.700 C 86.244 149.985,86.782 149.255,86.788 149.077 C 86.795 148.900,87.365 148.239,88.056 147.608 C 89.371 146.407,89.674 140.891,88.447 140.482 C 88.201 140.400,88.000 140.098,88.000 139.811 C 88.000 139.524,87.189 138.466,86.197 137.461 L 84.394 135.632 63.797 135.611 C 51.563 135.599,43.200 135.739,43.200 135.957 M70.800 208.397 C 70.800 208.570,71.430 208.829,72.200 208.974 C 72.970 209.118,73.600 209.389,73.600 209.575 C 73.600 209.761,74.055 210.027,74.610 210.167 C 76.352 210.604,79.200 214.934,79.200 217.145 C 79.200 217.621,79.416 218.357,79.681 218.781 C 80.042 219.359,80.050 219.781,79.713 220.475 C 79.466 220.984,79.168 222.030,79.051 222.800 C 78.709 225.049,78.444 226.091,78.149 226.354 C 77.997 226.489,77.989 226.276,78.132 225.879 C 78.286 225.449,78.231 225.257,77.995 225.403 C 77.778 225.537,77.600 225.880,77.600 226.165 C 77.600 227.257,73.649 230.400,72.277 230.400 C 72.093 230.400,71.690 230.653,71.381 230.961 C 70.747 231.596,65.225 231.488,64.821 230.833 C 64.695 230.630,64.099 230.340,63.496 230.188 C 62.893 230.037,62.400 229.753,62.400 229.557 C 62.400 229.360,62.159 229.200,61.864 229.200 C 61.274 229.200,58.800 226.648,58.800 226.039 C 58.800 225.829,58.512 225.369,58.160 225.018 C 57.809 224.666,57.425 223.663,57.308 222.789 C 57.191 221.915,56.938 221.200,56.747 221.200 C 56.556 221.200,56.400 220.480,56.400 219.600 C 56.400 218.720,56.557 218.000,56.749 218.000 C 56.941 218.000,57.213 217.280,57.354 216.400 C 57.494 215.520,57.773 214.800,57.973 214.800 C 58.173 214.800,58.454 214.264,58.598 213.610 C 58.742 212.955,58.981 212.460,59.130 212.510 C 59.493 212.631,61.200 210.901,61.200 210.413 C 61.200 210.199,61.468 210.128,61.797 210.254 C 62.138 210.385,62.499 210.207,62.640 209.839 C 62.781 209.473,63.558 209.088,64.444 208.947 C 65.300 208.810,66.000 208.553,66.000 208.377 C 66.000 208.200,66.405 207.998,66.900 207.928 C 68.257 207.735,70.800 208.041,70.800 208.397 M246.501 216.439 C 248.960 216.868,252.377 219.619,253.023 221.688 C 253.180 222.190,253.509 222.729,253.754 222.887 C 254.476 223.351,254.344 231.649,253.600 232.534 C 251.471 235.068,248.635 237.625,247.699 237.854 C 247.094 238.002,246.484 238.300,246.343 238.515 C 246.037 238.982,239.520 238.910,239.213 238.436 C 239.096 238.256,238.590 237.980,238.088 237.823 C 236.950 237.468,233.602 234.146,232.800 232.575 C 232.470 231.929,231.983 231.220,231.718 231.000 C 230.356 229.869,231.953 221.557,233.772 220.306 C 234.043 220.120,233.984 220.010,233.611 220.006 C 233.246 220.002,233.398 219.743,234.011 219.324 C 234.555 218.952,235.144 218.412,235.320 218.124 C 235.496 217.836,235.901 217.600,236.220 217.600 C 236.539 217.600,236.800 217.434,236.800 217.231 C 236.800 216.846,238.680 216.150,240.400 215.898 C 241.569 215.727,243.307 215.881,246.501 216.439 M173.200 305.800 L 173.200 384.000 156.400 384.000 L 139.600 384.000 139.600 305.800 L 139.600 227.600 156.400 227.600 L 173.200 227.600 173.200 305.800 M302.684 267.872 C 300.591 268.973,298.820 271.126,298.371 273.115 C 297.904 275.184,298.206 278.400,298.867 278.400 C 299.097 278.400,299.182 278.670,299.055 279.000 C 298.929 279.330,298.999 279.600,299.213 279.600 C 299.426 279.600,299.600 279.857,299.600 280.171 C 299.600 280.485,300.095 281.113,300.700 281.567 C 301.305 282.020,302.063 282.616,302.385 282.890 C 303.182 283.571,309.275 283.575,309.502 282.895 C 309.592 282.623,309.890 282.400,310.164 282.400 C 310.877 282.400,312.465 280.604,312.104 280.206 C 311.937 280.022,312.018 279.997,312.284 280.150 C 313.488 280.840,315.192 274.137,314.000 273.400 C 313.780 273.264,313.600 272.816,313.600 272.405 C 313.600 271.994,313.330 271.387,313.000 271.057 C 312.670 270.727,312.400 270.304,312.400 270.117 C 312.400 269.510,310.787 268.377,309.579 268.136 C 308.930 268.006,308.400 267.743,308.400 267.550 C 308.400 266.981,303.896 267.234,302.684 267.872 M260.400 339.200 L 260.400 384.000 243.600 384.000 L 226.800 384.000 226.800 339.200 L 226.800 294.400 243.600 294.400 L 260.400 294.400 260.400 339.200 M85.200 349.200 L 85.200 384.000 68.600 384.000 L 52.000 384.000 52.000 349.200 L 52.000 314.400 68.600 314.400 L 85.200 314.400 85.200 349.200 " stroke="none" fill="#2ca40c" fill-rule="evenodd"></path><path id="path1" d="M58.082 0.296 C 59.558 0.373,62.078 0.373,63.682 0.297 C 65.287 0.221,64.080 0.158,61.000 0.158 C 57.920 0.157,56.607 0.219,58.082 0.296 M337.317 0.297 C 338.811 0.374,341.151 0.374,342.517 0.296 C 343.882 0.218,342.660 0.155,339.800 0.155 C 336.940 0.156,335.822 0.220,337.317 0.297 M294.291 16.289 C 295.001 16.377,296.261 16.379,297.091 16.292 C 297.921 16.205,297.340 16.133,295.800 16.131 C 294.260 16.129,293.581 16.200,294.291 16.289 M200.500 43.876 C 200.885 43.976,201.515 43.976,201.900 43.876 C 202.285 43.775,201.970 43.693,201.200 43.693 C 200.430 43.693,200.115 43.775,200.500 43.876 M297.905 43.883 C 298.402 43.979,299.122 43.975,299.505 43.875 C 299.887 43.775,299.480 43.696,298.600 43.701 C 297.720 43.705,297.407 43.787,297.905 43.883 M347.693 220.000 C 347.693 220.770,347.775 221.085,347.876 220.700 C 347.976 220.315,347.976 219.685,347.876 219.300 C 347.775 218.915,347.693 219.230,347.693 220.000 M347.701 229.000 C 347.705 229.880,347.787 230.193,347.883 229.695 C 347.979 229.198,347.975 228.478,347.875 228.095 C 347.775 227.713,347.696 228.120,347.701 229.000 M347.714 235.800 C 347.717 236.900,347.795 237.303,347.887 236.695 C 347.979 236.086,347.977 235.186,347.882 234.695 C 347.787 234.203,347.711 234.700,347.714 235.800 M347.701 240.200 C 347.705 241.080,347.787 241.393,347.883 240.895 C 347.979 240.398,347.975 239.678,347.875 239.295 C 347.775 238.913,347.696 239.320,347.701 240.200 M347.693 248.000 C 347.693 248.770,347.775 249.085,347.876 248.700 C 347.976 248.315,347.976 247.685,347.876 247.300 C 347.775 246.915,347.693 247.230,347.693 248.000 M347.740 274.800 C 347.740 276.670,347.809 277.435,347.893 276.500 C 347.977 275.565,347.977 274.035,347.893 273.100 C 347.809 272.165,347.740 272.930,347.740 274.800 M347.759 281.762 C 347.641 282.071,347.607 282.926,347.683 283.662 C 347.806 284.835,347.847 284.766,348.015 283.100 C 348.211 281.152,348.139 280.774,347.759 281.762 M347.714 287.800 C 347.717 288.900,347.795 289.303,347.887 288.695 C 347.979 288.086,347.977 287.186,347.882 286.695 C 347.787 286.203,347.711 286.700,347.714 287.800 M122.914 293.800 C 122.917 294.900,122.995 295.303,123.087 294.695 C 123.179 294.086,123.177 293.186,123.082 292.695 C 122.987 292.203,122.911 292.700,122.914 293.800 M313.890 299.300 C 314.144 302.383,314.333 302.540,314.368 299.700 C 314.386 298.325,314.246 297.200,314.059 297.200 C 313.871 297.200,313.795 298.145,313.890 299.300 M347.693 313.200 C 347.693 313.970,347.775 314.285,347.876 313.900 C 347.976 313.515,347.976 312.885,347.876 312.500 C 347.775 312.115,347.693 312.430,347.693 313.200 M347.724 330.600 C 347.726 331.920,347.801 332.412,347.890 331.693 C 347.979 330.974,347.977 329.894,347.886 329.293 C 347.795 328.692,347.722 329.280,347.724 330.600 M347.714 336.600 C 347.717 337.700,347.795 338.103,347.887 337.495 C 347.979 336.886,347.977 335.986,347.882 335.495 C 347.787 335.003,347.711 335.500,347.714 336.600 M347.785 363.600 C 347.785 374.490,347.837 378.945,347.900 373.500 C 347.963 368.055,347.963 359.145,347.900 353.700 C 347.837 348.255,347.785 352.710,347.785 363.600 M59.907 399.890 C 60.626 399.979,61.706 399.977,62.307 399.886 C 62.908 399.795,62.320 399.722,61.000 399.724 C 59.680 399.726,59.188 399.801,59.907 399.890 M73.900 399.889 C 74.615 399.978,75.785 399.978,76.500 399.889 C 77.215 399.801,76.630 399.728,75.200 399.728 C 73.770 399.728,73.185 399.801,73.900 399.889 M137.500 399.882 C 137.995 399.978,138.805 399.978,139.300 399.882 C 139.795 399.787,139.390 399.709,138.400 399.709 C 137.410 399.709,137.005 399.787,137.500 399.882 M188.500 399.887 C 189.105 399.978,190.095 399.978,190.700 399.887 C 191.305 399.795,190.810 399.720,189.600 399.720 C 188.390 399.720,187.895 399.795,188.500 399.887 M256.100 399.896 C 257.365 399.975,259.435 399.975,260.700 399.896 C 261.965 399.816,260.930 399.751,258.400 399.751 C 255.870 399.751,254.835 399.816,256.100 399.896 M276.900 399.891 C 277.725 399.978,279.075 399.978,279.900 399.891 C 280.725 399.805,280.050 399.734,278.400 399.734 C 276.750 399.734,276.075 399.805,276.900 399.891 " stroke="none" fill="#30a40c" fill-rule="evenodd"></path><path id="path2" d="M58.082 0.296 C 59.558 0.373,62.078 0.373,63.682 0.297 C 65.287 0.221,64.080 0.158,61.000 0.158 C 57.920 0.157,56.607 0.219,58.082 0.296 M337.317 0.297 C 338.811 0.374,341.151 0.374,342.517 0.296 C 343.882 0.218,342.660 0.155,339.800 0.155 C 336.940 0.156,335.822 0.220,337.317 0.297 M294.291 16.289 C 295.001 16.377,296.261 16.379,297.091 16.292 C 297.921 16.205,297.340 16.133,295.800 16.131 C 294.260 16.129,293.581 16.200,294.291 16.289 M200.500 43.876 C 200.885 43.976,201.515 43.976,201.900 43.876 C 202.285 43.775,201.970 43.693,201.200 43.693 C 200.430 43.693,200.115 43.775,200.500 43.876 M297.905 43.883 C 298.402 43.979,299.122 43.975,299.505 43.875 C 299.887 43.775,299.480 43.696,298.600 43.701 C 297.720 43.705,297.407 43.787,297.905 43.883 M347.693 220.000 C 347.693 220.770,347.775 221.085,347.876 220.700 C 347.976 220.315,347.976 219.685,347.876 219.300 C 347.775 218.915,347.693 219.230,347.693 220.000 M347.701 229.000 C 347.705 229.880,347.787 230.193,347.883 229.695 C 347.979 229.198,347.975 228.478,347.875 228.095 C 347.775 227.713,347.696 228.120,347.701 229.000 M347.714 235.800 C 347.717 236.900,347.795 237.303,347.887 236.695 C 347.979 236.086,347.977 235.186,347.882 234.695 C 347.787 234.203,347.711 234.700,347.714 235.800 M347.701 240.200 C 347.705 241.080,347.787 241.393,347.883 240.895 C 347.979 240.398,347.975 239.678,347.875 239.295 C 347.775 238.913,347.696 239.320,347.701 240.200 M347.693 248.000 C 347.693 248.770,347.775 249.085,347.876 248.700 C 347.976 248.315,347.976 247.685,347.876 247.300 C 347.775 246.915,347.693 247.230,347.693 248.000 M347.740 274.800 C 347.740 276.670,347.809 277.435,347.893 276.500 C 347.977 275.565,347.977 274.035,347.893 273.100 C 347.809 272.165,347.740 272.930,347.740 274.800 M347.759 281.762 C 347.641 282.071,347.607 282.926,347.683 283.662 C 347.806 284.835,347.847 284.766,348.015 283.100 C 348.211 281.152,348.139 280.774,347.759 281.762 M347.714 287.800 C 347.717 288.900,347.795 289.303,347.887 288.695 C 347.979 288.086,347.977 287.186,347.882 286.695 C 347.787 286.203,347.711 286.700,347.714 287.800 M122.914 293.800 C 122.917 294.900,122.995 295.303,123.087 294.695 C 123.179 294.086,123.177 293.186,123.082 292.695 C 122.987 292.203,122.911 292.700,122.914 293.800 M313.890 299.300 C 314.144 302.383,314.333 302.540,314.368 299.700 C 314.386 298.325,314.246 297.200,314.059 297.200 C 313.871 297.200,313.795 298.145,313.890 299.300 M347.693 313.200 C 347.693 313.970,347.775 314.285,347.876 313.900 C 347.976 313.515,347.976 312.885,347.876 312.500 C 347.775 312.115,347.693 312.430,347.693 313.200 M347.724 330.600 C 347.726 331.920,347.801 332.412,347.890 331.693 C 347.979 330.974,347.977 329.894,347.886 329.293 C 347.795 328.692,347.722 329.280,347.724 330.600 M347.714 336.600 C 347.717 337.700,347.795 338.103,347.887 337.495 C 347.979 336.886,347.977 335.986,347.882 335.495 C 347.787 335.003,347.711 335.500,347.714 336.600 M347.785 363.600 C 347.785 374.490,347.837 378.945,347.900 373.500 C 347.963 368.055,347.963 359.145,347.900 353.700 C 347.837 348.255,347.785 352.710,347.785 363.600 M59.907 399.890 C 60.626 399.979,61.706 399.977,62.307 399.886 C 62.908 399.795,62.320 399.722,61.000 399.724 C 59.680 399.726,59.188 399.801,59.907 399.890 M73.900 399.889 C 74.615 399.978,75.785 399.978,76.500 399.889 C 77.215 399.801,76.630 399.728,75.200 399.728 C 73.770 399.728,73.185 399.801,73.900 399.889 M137.500 399.882 C 137.995 399.978,138.805 399.978,139.300 399.882 C 139.795 399.787,139.390 399.709,138.400 399.709 C 137.410 399.709,137.005 399.787,137.500 399.882 M188.500 399.887 C 189.105 399.978,190.095 399.978,190.700 399.887 C 191.305 399.795,190.810 399.720,189.600 399.720 C 188.390 399.720,187.895 399.795,188.500 399.887 M256.100 399.896 C 257.365 399.975,259.435 399.975,260.700 399.896 C 261.965 399.816,260.930 399.751,258.400 399.751 C 255.870 399.751,254.835 399.816,256.100 399.896 M276.900 399.891 C 277.725 399.978,279.075 399.978,279.900 399.891 C 280.725 399.805,280.050 399.734,278.400 399.734 C 276.750 399.734,276.075 399.805,276.900 399.891 " stroke="none" fill="#30a40c" fill-rule="evenodd"></path><path id="path3" d="M58.082 0.296 C 59.558 0.373,62.078 0.373,63.682 0.297 C 65.287 0.221,64.080 0.158,61.000 0.158 C 57.920 0.157,56.607 0.219,58.082 0.296 M337.317 0.297 C 338.811 0.374,341.151 0.374,342.517 0.296 C 343.882 0.218,342.660 0.155,339.800 0.155 C 336.940 0.156,335.822 0.220,337.317 0.297 M294.291 16.289 C 295.001 16.377,296.261 16.379,297.091 16.292 C 297.921 16.205,297.340 16.133,295.800 16.131 C 294.260 16.129,293.581 16.200,294.291 16.289 M200.500 43.876 C 200.885 43.976,201.515 43.976,201.900 43.876 C 202.285 43.775,201.970 43.693,201.200 43.693 C 200.430 43.693,200.115 43.775,200.500 43.876 M297.905 43.883 C 298.402 43.979,299.122 43.975,299.505 43.875 C 299.887 43.775,299.480 43.696,298.600 43.701 C 297.720 43.705,297.407 43.787,297.905 43.883 M347.693 220.000 C 347.693 220.770,347.775 221.085,347.876 220.700 C 347.976 220.315,347.976 219.685,347.876 219.300 C 347.775 218.915,347.693 219.230,347.693 220.000 M347.701 229.000 C 347.705 229.880,347.787 230.193,347.883 229.695 C 347.979 229.198,347.975 228.478,347.875 228.095 C 347.775 227.713,347.696 228.120,347.701 229.000 M347.714 235.800 C 347.717 236.900,347.795 237.303,347.887 236.695 C 347.979 236.086,347.977 235.186,347.882 234.695 C 347.787 234.203,347.711 234.700,347.714 235.800 M347.701 240.200 C 347.705 241.080,347.787 241.393,347.883 240.895 C 347.979 240.398,347.975 239.678,347.875 239.295 C 347.775 238.913,347.696 239.320,347.701 240.200 M347.693 248.000 C 347.693 248.770,347.775 249.085,347.876 248.700 C 347.976 248.315,347.976 247.685,347.876 247.300 C 347.775 246.915,347.693 247.230,347.693 248.000 M347.740 274.800 C 347.740 276.670,347.809 277.435,347.893 276.500 C 347.977 275.565,347.977 274.035,347.893 273.100 C 347.809 272.165,347.740 272.930,347.740 274.800 M347.759 281.762 C 347.641 282.071,347.607 282.926,347.683 283.662 C 347.806 284.835,347.847 284.766,348.015 283.100 C 348.211 281.152,348.139 280.774,347.759 281.762 M347.714 287.800 C 347.717 288.900,347.795 289.303,347.887 288.695 C 347.979 288.086,347.977 287.186,347.882 286.695 C 347.787 286.203,347.711 286.700,347.714 287.800 M122.914 293.800 C 122.917 294.900,122.995 295.303,123.087 294.695 C 123.179 294.086,123.177 293.186,123.082 292.695 C 122.987 292.203,122.911 292.700,122.914 293.800 M313.890 299.300 C 314.144 302.383,314.333 302.540,314.368 299.700 C 314.386 298.325,314.246 297.200,314.059 297.200 C 313.871 297.200,313.795 298.145,313.890 299.300 M347.693 313.200 C 347.693 313.970,347.775 314.285,347.876 313.900 C 347.976 313.515,347.976 312.885,347.876 312.500 C 347.775 312.115,347.693 312.430,347.693 313.200 M347.724 330.600 C 347.726 331.920,347.801 332.412,347.890 331.693 C 347.979 330.974,347.977 329.894,347.886 329.293 C 347.795 328.692,347.722 329.280,347.724 330.600 M347.714 336.600 C 347.717 337.700,347.795 338.103,347.887 337.495 C 347.979 336.886,347.977 335.986,347.882 335.495 C 347.787 335.003,347.711 335.500,347.714 336.600 M347.785 363.600 C 347.785 374.490,347.837 378.945,347.900 373.500 C 347.963 368.055,347.963 359.145,347.900 353.700 C 347.837 348.255,347.785 352.710,347.785 363.600 M59.907 399.890 C 60.626 399.979,61.706 399.977,62.307 399.886 C 62.908 399.795,62.320 399.722,61.000 399.724 C 59.680 399.726,59.188 399.801,59.907 399.890 M73.900 399.889 C 74.615 399.978,75.785 399.978,76.500 399.889 C 77.215 399.801,76.630 399.728,75.200 399.728 C 73.770 399.728,73.185 399.801,73.900 399.889 M137.500 399.882 C 137.995 399.978,138.805 399.978,139.300 399.882 C 139.795 399.787,139.390 399.709,138.400 399.709 C 137.410 399.709,137.005 399.787,137.500 399.882 M188.500 399.887 C 189.105 399.978,190.095 399.978,190.700 399.887 C 191.305 399.795,190.810 399.720,189.600 399.720 C 188.390 399.720,187.895 399.795,188.500 399.887 M256.100 399.896 C 257.365 399.975,259.435 399.975,260.700 399.896 C 261.965 399.816,260.930 399.751,258.400 399.751 C 255.870 399.751,254.835 399.816,256.100 399.896 M276.900 399.891 C 277.725 399.978,279.075 399.978,279.900 399.891 C 280.725 399.805,280.050 399.734,278.400 399.734 C 276.750 399.734,276.075 399.805,276.900 399.891 " stroke="none" fill="#30a40c" fill-rule="evenodd"></path><path id="path4" d="M58.082 0.296 C 59.558 0.373,62.078 0.373,63.682 0.297 C 65.287 0.221,64.080 0.158,61.000 0.158 C 57.920 0.157,56.607 0.219,58.082 0.296 M337.317 0.297 C 338.811 0.374,341.151 0.374,342.517 0.296 C 343.882 0.218,342.660 0.155,339.800 0.155 C 336.940 0.156,335.822 0.220,337.317 0.297 M294.291 16.289 C 295.001 16.377,296.261 16.379,297.091 16.292 C 297.921 16.205,297.340 16.133,295.800 16.131 C 294.260 16.129,293.581 16.200,294.291 16.289 M200.500 43.876 C 200.885 43.976,201.515 43.976,201.900 43.876 C 202.285 43.775,201.970 43.693,201.200 43.693 C 200.430 43.693,200.115 43.775,200.500 43.876 M297.905 43.883 C 298.402 43.979,299.122 43.975,299.505 43.875 C 299.887 43.775,299.480 43.696,298.600 43.701 C 297.720 43.705,297.407 43.787,297.905 43.883 M347.693 220.000 C 347.693 220.770,347.775 221.085,347.876 220.700 C 347.976 220.315,347.976 219.685,347.876 219.300 C 347.775 218.915,347.693 219.230,347.693 220.000 M347.701 229.000 C 347.705 229.880,347.787 230.193,347.883 229.695 C 347.979 229.198,347.975 228.478,347.875 228.095 C 347.775 227.713,347.696 228.120,347.701 229.000 M347.714 235.800 C 347.717 236.900,347.795 237.303,347.887 236.695 C 347.979 236.086,347.977 235.186,347.882 234.695 C 347.787 234.203,347.711 234.700,347.714 235.800 M347.701 240.200 C 347.705 241.080,347.787 241.393,347.883 240.895 C 347.979 240.398,347.975 239.678,347.875 239.295 C 347.775 238.913,347.696 239.320,347.701 240.200 M347.693 248.000 C 347.693 248.770,347.775 249.085,347.876 248.700 C 347.976 248.315,347.976 247.685,347.876 247.300 C 347.775 246.915,347.693 247.230,347.693 248.000 M347.740 274.800 C 347.740 276.670,347.809 277.435,347.893 276.500 C 347.977 275.565,347.977 274.035,347.893 273.100 C 347.809 272.165,347.740 272.930,347.740 274.800 M347.759 281.762 C 347.641 282.071,347.607 282.926,347.683 283.662 C 347.806 284.835,347.847 284.766,348.015 283.100 C 348.211 281.152,348.139 280.774,347.759 281.762 M347.714 287.800 C 347.717 288.900,347.795 289.303,347.887 288.695 C 347.979 288.086,347.977 287.186,347.882 286.695 C 347.787 286.203,347.711 286.700,347.714 287.800 M122.914 293.800 C 122.917 294.900,122.995 295.303,123.087 294.695 C 123.179 294.086,123.177 293.186,123.082 292.695 C 122.987 292.203,122.911 292.700,122.914 293.800 M313.890 299.300 C 314.144 302.383,314.333 302.540,314.368 299.700 C 314.386 298.325,314.246 297.200,314.059 297.200 C 313.871 297.200,313.795 298.145,313.890 299.300 M347.693 313.200 C 347.693 313.970,347.775 314.285,347.876 313.900 C 347.976 313.515,347.976 312.885,347.876 312.500 C 347.775 312.115,347.693 312.430,347.693 313.200 M347.724 330.600 C 347.726 331.920,347.801 332.412,347.890 331.693 C 347.979 330.974,347.977 329.894,347.886 329.293 C 347.795 328.692,347.722 329.280,347.724 330.600 M347.714 336.600 C 347.717 337.700,347.795 338.103,347.887 337.495 C 347.979 336.886,347.977 335.986,347.882 335.495 C 347.787 335.003,347.711 335.500,347.714 336.600 M347.785 363.600 C 347.785 374.490,347.837 378.945,347.900 373.500 C 347.963 368.055,347.963 359.145,347.900 353.700 C 347.837 348.255,347.785 352.710,347.785 363.600 M59.907 399.890 C 60.626 399.979,61.706 399.977,62.307 399.886 C 62.908 399.795,62.320 399.722,61.000 399.724 C 59.680 399.726,59.188 399.801,59.907 399.890 M73.900 399.889 C 74.615 399.978,75.785 399.978,76.500 399.889 C 77.215 399.801,76.630 399.728,75.200 399.728 C 73.770 399.728,73.185 399.801,73.900 399.889 M137.500 399.882 C 137.995 399.978,138.805 399.978,139.300 399.882 C 139.795 399.787,139.390 399.709,138.400 399.709 C 137.410 399.709,137.005 399.787,137.500 399.882 M188.500 399.887 C 189.105 399.978,190.095 399.978,190.700 399.887 C 191.305 399.795,190.810 399.720,189.600 399.720 C 188.390 399.720,187.895 399.795,188.500 399.887 M256.100 399.896 C 257.365 399.975,259.435 399.975,260.700 399.896 C 261.965 399.816,260.930 399.751,258.400 399.751 C 255.870 399.751,254.835 399.816,256.100 399.896 M276.900 399.891 C 277.725 399.978,279.075 399.978,279.900 399.891 C 280.725 399.805,280.050 399.734,278.400 399.734 C 276.750 399.734,276.075 399.805,276.900 399.891 " stroke="none" fill="#30a40c" fill-rule="evenodd"></path></g></svg>