<svg id="svg" version="1.1" xmlns="http://www.w3.org/2000/svg" xmlns:xlink="http://www.w3.org/1999/xlink" width="400" height="400" viewBox="0, 0, 400,400"><g id="svgg"><path id="path0" d="M92.092 0.800 C 91.620 1.240,91.112 1.600,90.963 1.600 C 90.815 1.600,89.807 2.500,88.724 3.600 C 87.642 4.700,86.600 5.600,86.409 5.600 C 85.754 5.600,82.395 9.269,82.659 9.696 C 82.812 9.942,82.736 10.008,82.481 9.850 C 82.031 9.572,70.800 20.506,70.800 21.221 C 70.800 21.430,70.647 21.555,70.461 21.500 C 70.050 21.379,57.200 34.335,57.200 34.870 C 57.200 35.077,57.065 35.182,56.900 35.103 C 56.735 35.024,54.980 36.577,53.000 38.554 C 51.020 40.532,49.653 41.998,49.962 41.813 C 50.343 41.585,50.432 41.625,50.238 41.938 C 50.081 42.192,49.769 42.400,49.543 42.400 C 48.993 42.400,44.973 46.438,45.100 46.863 C 45.155 47.049,45.014 47.200,44.786 47.200 C 44.299 47.200,28.000 63.579,28.000 64.068 C 28.000 64.251,27.280 65.100,26.400 65.954 C 25.520 66.808,24.800 67.699,24.800 67.933 C 24.800 68.168,24.485 68.537,24.100 68.752 C 23.274 69.214,22.761 260.948,23.579 263.907 C 23.864 264.940,23.852 265.444,23.538 265.639 C 22.948 266.003,23.285 314.352,23.879 314.738 C 24.101 314.882,24.383 316.138,24.506 317.530 C 24.636 318.999,24.996 320.353,25.365 320.761 C 25.714 321.147,26.000 321.584,26.000 321.731 C 26.000 321.994,27.480 323.600,27.723 323.600 C 27.790 323.600,28.708 324.404,29.763 325.386 C 30.818 326.368,32.068 327.292,32.540 327.440 C 33.013 327.587,33.505 327.870,33.632 328.068 C 33.760 328.266,34.570 328.540,35.432 328.676 C 36.295 328.812,37.106 329.085,37.235 329.281 C 37.365 329.478,40.020 329.747,43.135 329.881 L 48.800 330.123 48.800 334.461 C 48.800 336.848,48.957 338.800,49.148 338.800 C 49.340 338.800,49.616 339.700,49.762 340.800 C 49.908 341.900,50.187 342.800,50.382 342.800 C 50.577 342.800,50.855 343.340,51.000 344.000 C 51.145 344.660,51.429 345.200,51.632 345.200 C 51.834 345.200,52.000 345.476,52.000 345.813 C 52.000 346.149,52.270 346.529,52.600 346.655 C 52.930 346.782,53.200 347.118,53.200 347.402 C 53.200 348.107,55.257 350.400,55.889 350.400 C 56.170 350.400,56.400 350.538,56.400 350.706 C 56.400 351.068,60.057 353.515,60.850 353.684 C 61.151 353.748,61.578 354.008,61.799 354.263 C 62.098 354.608,79.579 354.794,130.600 354.994 C 168.220 355.142,199.115 355.383,199.255 355.531 C 199.395 355.679,199.631 358.496,199.780 361.792 C 199.941 365.372,200.224 367.892,200.483 368.052 C 200.722 368.199,200.797 368.630,200.651 369.010 C 200.506 369.390,200.547 369.904,200.743 370.151 C 200.939 370.398,201.223 371.455,201.374 372.500 C 201.525 373.545,201.795 374.400,201.973 374.400 C 202.152 374.400,202.413 375.120,202.554 376.000 C 202.694 376.880,202.975 377.600,203.177 377.600 C 203.379 377.600,203.606 378.005,203.682 378.500 C 203.757 378.995,204.021 379.361,204.268 379.314 C 204.514 379.267,204.833 379.852,204.976 380.614 C 205.119 381.376,205.408 382.000,205.618 382.000 C 205.828 382.000,206.000 382.233,206.000 382.519 C 206.000 383.512,213.795 392.000,214.707 392.000 C 214.942 392.000,215.193 392.135,215.267 392.300 C 215.459 392.733,217.899 394.400,218.341 394.400 C 218.546 394.400,218.812 394.653,218.930 394.962 C 219.049 395.272,219.698 395.646,220.373 395.794 C 221.048 395.942,221.600 396.215,221.600 396.400 C 221.600 396.585,222.140 396.855,222.800 397.000 C 223.460 397.145,224.000 397.450,224.000 397.678 C 224.000 397.907,224.445 398.008,224.988 397.904 C 225.531 397.801,225.881 397.870,225.764 398.058 C 225.648 398.246,226.088 398.400,226.743 398.400 C 227.398 398.400,228.003 398.608,228.088 398.863 C 228.581 400.343,346.641 400.395,348.474 398.917 C 348.763 398.683,349.585 398.367,350.300 398.214 C 351.015 398.062,351.600 397.771,351.600 397.568 C 351.600 397.366,351.945 397.200,352.367 397.200 C 353.509 397.200,354.426 396.766,354.168 396.348 C 354.043 396.146,354.089 396.022,354.270 396.072 C 354.845 396.232,357.600 395.154,357.600 394.769 C 357.600 394.566,357.859 394.400,358.176 394.400 C 358.493 394.400,358.881 394.192,359.038 393.938 C 359.227 393.633,359.146 393.586,358.800 393.800 C 358.454 394.014,358.373 393.967,358.562 393.662 C 358.719 393.408,359.160 393.200,359.542 393.200 C 360.630 393.200,367.600 386.949,367.600 385.974 C 367.600 385.754,367.880 385.467,368.223 385.336 C 368.595 385.193,368.748 384.841,368.602 384.461 C 368.468 384.111,368.481 383.948,368.632 384.099 C 368.933 384.400,370.400 382.717,370.400 382.070 C 370.400 381.848,370.549 381.607,370.732 381.533 C 371.180 381.353,373.200 377.009,373.200 376.225 C 373.200 375.881,373.369 375.600,373.575 375.600 C 373.782 375.600,374.072 374.790,374.221 373.800 C 374.369 372.810,374.637 372.000,374.817 372.000 C 374.996 372.000,375.257 370.965,375.398 369.700 C 375.538 368.435,375.866 366.968,376.127 366.440 C 376.788 365.098,376.814 258.108,376.153 257.685 C 375.907 257.528,375.578 256.185,375.421 254.700 C 375.265 253.215,374.994 252.000,374.819 252.000 C 374.645 252.000,374.387 251.280,374.246 250.400 C 374.106 249.520,373.836 248.800,373.646 248.800 C 373.457 248.800,373.187 248.080,373.046 247.200 C 372.906 246.320,372.641 245.600,372.459 245.600 C 372.276 245.600,371.917 244.901,371.661 244.047 C 371.406 243.194,370.927 242.272,370.598 241.998 C 370.269 241.725,370.000 241.273,370.000 240.994 C 370.000 240.714,369.730 240.382,369.400 240.255 C 369.070 240.129,368.800 239.815,368.800 239.558 C 368.800 239.302,368.395 238.710,367.900 238.242 C 367.405 237.775,366.551 236.727,366.003 235.912 C 365.455 235.098,364.569 234.199,364.035 233.916 C 363.501 233.632,362.360 232.725,361.499 231.899 C 360.638 231.074,359.511 230.293,358.995 230.163 C 358.480 230.034,357.961 229.674,357.841 229.364 C 357.722 229.054,357.364 228.800,357.046 228.800 C 356.727 228.800,356.407 228.665,356.333 228.500 C 356.071 227.910,352.355 226.332,351.763 226.559 C 351.430 226.687,351.261 226.625,351.386 226.423 C 351.511 226.221,351.430 225.942,351.207 225.804 C 350.983 225.666,350.800 225.778,350.800 226.053 C 350.800 226.374,350.621 226.321,350.300 225.905 C 350.025 225.548,349.170 225.208,348.400 225.149 C 347.630 225.090,346.749 224.853,346.442 224.623 C 345.636 224.020,331.857 223.671,307.300 223.633 L 286.000 223.600 286.000 130.358 L 286.000 37.116 290.867 37.259 C 294.290 37.360,295.784 37.551,295.901 37.902 C 295.992 38.176,296.315 38.400,296.618 38.400 C 298.760 38.400,299.038 42.877,299.325 82.100 C 299.366 87.765,299.253 92.400,299.072 92.400 C 298.715 92.400,298.947 119.325,299.324 121.600 C 299.452 122.370,299.571 141.765,299.588 164.700 C 299.609 191.502,299.759 206.400,300.010 206.400 C 300.224 206.400,300.760 206.760,301.200 207.200 C 301.640 207.640,302.270 208.000,302.600 208.000 C 302.930 208.000,303.200 208.187,303.200 208.416 C 303.200 208.954,306.416 208.808,307.177 208.235 C 307.613 207.906,307.680 207.922,307.453 208.300 C 307.264 208.615,307.384 208.800,307.776 208.800 C 308.119 208.800,308.400 208.620,308.400 208.400 C 308.400 208.180,308.642 208.000,308.938 208.000 C 309.686 208.000,310.867 206.615,310.501 206.168 C 310.335 205.965,310.363 205.933,310.563 206.097 C 312.015 207.282,312.000 208.134,312.000 123.631 C 312.000 75.748,311.851 41.602,311.641 41.380 C 311.443 41.171,311.210 39.662,311.123 38.028 C 311.026 36.186,310.782 34.994,310.483 34.894 C 310.217 34.806,310.000 34.473,310.000 34.154 C 310.000 33.836,309.737 33.474,309.415 33.350 C 309.094 33.227,308.714 32.760,308.572 32.312 C 308.273 31.371,304.822 28.017,304.143 28.007 C 303.891 28.003,303.582 27.730,303.455 27.400 C 303.329 27.070,302.949 26.800,302.613 26.800 C 302.276 26.800,302.000 26.622,302.000 26.405 C 302.000 26.187,301.280 25.894,300.400 25.754 C 299.520 25.613,298.800 25.339,298.800 25.144 C 298.800 24.779,296.073 24.673,289.749 24.794 L 286.099 24.864 285.931 18.606 C 285.827 14.750,285.597 12.243,285.332 12.074 C 285.095 11.923,284.774 11.215,284.618 10.500 C 284.463 9.785,284.190 9.200,284.012 9.200 C 283.833 9.200,283.574 8.750,283.436 8.200 C 283.298 7.650,283.008 7.200,282.792 7.200 C 282.577 7.200,282.400 6.959,282.400 6.664 C 282.400 6.051,279.749 3.492,278.700 3.092 C 278.315 2.945,278.000 2.654,278.000 2.444 C 278.000 2.235,277.460 1.945,276.800 1.800 C 276.140 1.655,275.600 1.401,275.600 1.235 C 275.600 0.055,271.924 0.002,196.090 0.101 L 119.580 0.200 118.190 1.673 C 116.094 3.895,116.103 7.970,118.208 10.075 C 120.201 12.067,117.198 11.995,197.856 11.998 L 269.512 12.000 271.756 14.208 L 274.000 16.417 274.000 119.949 L 274.000 223.481 253.300 223.701 C 233.417 223.912,228.800 224.196,228.800 225.210 C 228.800 225.383,228.443 225.432,228.006 225.317 C 227.569 225.203,226.894 225.249,226.506 225.418 C 226.118 225.588,225.665 225.698,225.500 225.664 C 225.335 225.629,225.200 225.780,225.200 226.000 C 225.200 226.220,224.905 226.400,224.544 226.400 C 223.888 226.400,220.378 227.980,220.000 228.446 C 219.890 228.581,219.364 228.828,218.831 228.995 C 217.795 229.319,217.560 229.487,215.329 231.500 C 214.536 232.215,213.743 232.800,213.565 232.800 C 212.955 232.800,211.127 234.759,211.370 235.152 C 211.504 235.368,211.402 235.675,211.145 235.834 C 210.852 236.015,210.784 235.950,210.962 235.662 C 211.433 234.899,210.777 235.139,209.763 236.100 C 209.241 236.595,208.811 237.211,208.807 237.469 C 208.803 237.727,208.295 238.447,207.677 239.069 C 207.059 239.691,206.435 240.515,206.289 240.900 C 206.144 241.285,205.859 241.600,205.656 241.600 C 205.453 241.600,205.168 242.072,205.024 242.648 C 204.879 243.225,204.499 243.958,204.180 244.277 C 203.861 244.596,203.600 245.204,203.600 245.629 C 203.600 246.053,203.434 246.400,203.232 246.400 C 203.029 246.400,202.745 246.940,202.600 247.600 C 202.455 248.260,202.201 248.800,202.036 248.800 C 201.628 248.800,200.721 252.317,200.753 253.772 C 200.767 254.416,200.567 255.199,200.308 255.511 C 199.959 255.931,199.798 264.052,199.684 286.939 C 199.599 303.913,199.481 317.850,199.420 317.911 C 199.360 317.972,198.824 317.837,198.229 317.611 C 196.534 316.966,152.527 317.052,152.265 317.700 C 152.104 318.100,152.057 318.100,152.032 317.700 C 151.986 316.978,138.141 316.978,137.900 317.700 C 137.767 318.099,137.359 318.100,135.886 317.707 C 134.472 317.329,123.005 317.212,86.967 317.208 L 39.895 317.203 38.947 316.181 C 38.426 315.619,37.989 315.303,37.975 315.479 C 37.961 315.656,37.753 315.350,37.512 314.800 C 36.776 313.116,36.593 281.406,36.717 176.700 L 36.834 77.600 60.393 77.600 C 74.601 77.600,84.045 77.451,84.184 77.225 C 84.312 77.019,84.760 76.877,85.180 76.908 C 85.601 76.940,85.867 77.092,85.772 77.245 C 85.536 77.628,88.949 77.157,89.204 76.772 C 89.316 76.602,89.901 76.340,90.504 76.188 C 91.107 76.037,91.600 75.753,91.600 75.557 C 91.600 75.360,91.787 75.200,92.016 75.200 C 92.866 75.200,98.800 70.077,98.800 69.344 C 98.800 69.224,99.160 68.669,99.600 68.109 C 100.040 67.550,100.400 66.681,100.400 66.179 C 100.400 65.677,100.555 65.207,100.744 65.133 C 101.362 64.894,101.726 59.201,101.124 59.194 C 100.753 59.190,100.733 59.102,101.057 58.894 C 102.264 58.118,102.076 3.292,100.865 2.888 C 100.609 2.803,100.400 2.476,100.400 2.161 C 100.400 0.214,93.869 -0.856,92.092 0.800 M88.794 23.300 C 88.790 23.795,88.870 27.440,88.969 31.400 C 89.379 47.602,89.136 60.016,88.392 60.932 C 88.183 61.189,87.543 61.985,86.970 62.700 C 86.398 63.415,85.690 64.000,85.398 64.000 C 85.106 64.000,84.802 64.193,84.724 64.428 C 84.571 64.886,46.000 65.539,46.000 65.085 C 46.000 64.952,46.916 63.943,48.035 62.841 C 49.292 61.604,49.957 60.654,49.773 60.357 C 49.581 60.046,49.646 59.981,49.956 60.173 C 50.598 60.570,57.763 53.388,57.366 52.745 C 57.183 52.450,57.250 52.384,57.545 52.566 C 58.034 52.868,67.600 43.589,67.600 42.814 C 67.600 42.586,67.801 42.400,68.047 42.400 C 68.828 42.400,71.686 39.263,71.371 38.753 C 71.182 38.447,71.247 38.382,71.553 38.571 C 72.192 38.966,75.366 35.792,74.971 35.153 C 74.785 34.852,74.847 34.782,75.140 34.963 C 75.424 35.139,78.038 32.785,81.902 28.874 C 88.634 22.060,88.803 21.923,88.794 23.300 M131.500 34.683 C 131.115 34.780,130.800 35.005,130.800 35.185 C 130.800 35.364,130.170 35.629,129.400 35.774 C 128.630 35.918,128.000 36.196,128.000 36.391 C 128.000 36.586,127.640 36.860,127.200 37.000 C 126.760 37.140,126.386 37.557,126.368 37.927 C 126.351 38.297,126.252 38.394,126.149 38.142 C 125.889 37.506,120.863 42.612,120.559 43.819 C 120.424 44.359,120.142 44.800,119.933 44.800 C 119.724 44.800,119.676 45.000,119.828 45.245 C 119.979 45.489,119.933 45.804,119.726 45.945 C 118.234 46.957,117.438 57.198,118.749 58.509 C 118.997 58.757,119.200 59.352,119.200 59.831 C 119.200 60.310,119.470 60.926,119.800 61.200 C 120.130 61.474,120.400 62.061,120.400 62.505 C 120.400 63.458,126.074 69.200,127.016 69.200 C 127.363 69.200,127.536 69.380,127.400 69.600 C 127.264 69.820,127.421 70.000,127.748 70.000 C 128.075 70.000,128.635 70.292,128.992 70.649 C 129.481 71.138,130.719 71.349,134.020 71.506 C 136.429 71.620,138.400 71.868,138.400 72.057 C 138.400 72.627,144.703 72.476,144.935 71.900 C 145.081 71.538,145.146 71.532,145.168 71.877 C 145.206 72.451,189.437 72.623,190.159 72.051 C 190.402 71.859,192.647 71.610,195.148 71.497 C 197.650 71.384,199.810 71.115,199.948 70.900 C 200.087 70.684,200.611 70.380,201.113 70.223 C 202.210 69.880,204.000 68.288,204.000 67.654 C 204.000 67.404,204.154 67.245,204.342 67.300 C 204.852 67.449,208.000 64.093,208.000 63.400 C 208.000 63.070,208.160 62.800,208.357 62.800 C 208.553 62.800,208.837 62.307,208.988 61.704 C 209.140 61.101,209.433 60.503,209.640 60.375 C 209.847 60.247,210.129 58.940,210.266 57.471 C 210.403 56.002,210.670 54.800,210.858 54.800 C 211.324 54.800,211.293 50.959,210.820 50.095 C 210.612 49.713,210.331 48.545,210.196 47.500 C 210.061 46.455,209.796 45.600,209.607 45.600 C 209.418 45.600,209.145 45.060,209.000 44.400 C 208.855 43.740,208.571 43.200,208.368 43.200 C 208.166 43.200,208.000 42.929,208.000 42.598 C 208.000 41.765,203.621 37.373,202.419 36.999 C 201.879 36.832,201.191 36.448,200.890 36.147 C 200.589 35.846,199.996 35.600,199.571 35.600 C 199.147 35.600,198.800 35.413,198.800 35.184 C 198.800 34.955,198.125 34.748,197.300 34.724 C 192.217 34.577,132.072 34.540,131.500 34.683 M188.400 46.749 C 188.400 46.940,189.817 47.179,191.549 47.279 C 194.711 47.463,197.600 49.115,197.600 50.740 C 197.600 50.993,197.760 51.200,197.956 51.200 C 198.518 51.200,198.705 54.038,198.178 54.565 C 197.918 54.825,197.577 55.443,197.419 55.939 C 197.262 56.434,196.513 57.460,195.755 58.218 L 194.376 59.597 166.294 59.616 C 147.108 59.630,138.168 59.503,138.073 59.218 C 137.996 58.988,137.309 58.800,136.546 58.800 C 134.564 58.800,132.014 57.265,131.729 55.900 C 131.603 55.295,131.343 54.800,131.150 54.800 C 130.958 54.800,130.800 54.260,130.800 53.600 C 130.800 52.940,130.958 52.400,131.150 52.400 C 131.343 52.400,131.606 51.870,131.736 51.221 C 131.998 49.908,133.127 48.400,133.846 48.400 C 134.104 48.400,134.418 48.130,134.545 47.800 C 134.731 47.315,135.654 47.200,139.364 47.200 C 141.992 47.200,144.058 47.029,144.200 46.800 C 144.511 46.296,188.400 46.245,188.400 46.749 M70.000 110.339 C 70.000 110.637,69.563 111.239,68.007 113.083 C 67.185 114.058,67.522 117.564,68.530 118.519 C 69.041 119.004,69.576 119.715,69.717 120.100 C 69.859 120.485,70.171 120.800,70.411 120.800 C 70.651 120.800,70.739 120.975,70.607 121.188 C 70.475 121.402,70.780 121.676,71.284 121.798 C 73.125 122.242,238.415 121.821,238.715 121.371 C 238.872 121.135,239.310 120.827,239.688 120.688 C 240.067 120.548,240.491 119.977,240.631 119.417 C 240.772 118.858,241.137 118.400,241.443 118.400 C 241.750 118.400,242.000 118.040,242.000 117.600 C 242.000 117.160,242.180 116.800,242.400 116.800 C 242.620 116.800,242.800 116.440,242.800 116.000 C 242.800 115.560,242.643 115.200,242.451 115.200 C 242.259 115.200,241.987 114.480,241.846 113.600 C 241.706 112.720,241.408 112.000,241.185 112.000 C 240.963 112.000,240.609 111.550,240.400 111.000 L 240.020 110.000 155.010 110.000 C 108.254 110.000,70.000 110.152,70.000 110.339 M69.900 145.270 C 69.075 146.173,68.400 147.157,68.400 147.456 C 68.400 147.755,68.220 148.000,68.000 148.000 C 67.780 148.000,67.600 148.990,67.600 150.200 C 67.600 151.410,67.780 152.400,68.000 152.400 C 68.220 152.400,68.400 152.648,68.400 152.952 C 68.400 153.255,69.120 154.245,70.000 155.152 L 71.599 156.800 155.200 156.800 C 247.846 156.800,239.768 157.020,240.576 154.476 C 240.716 154.035,241.094 153.573,241.415 153.450 C 241.737 153.326,242.000 152.769,242.000 152.213 C 242.000 151.656,242.180 151.200,242.400 151.200 C 242.620 151.200,242.800 150.750,242.800 150.200 C 242.800 149.650,242.640 149.200,242.443 149.200 C 242.247 149.200,241.973 148.747,241.834 148.194 C 241.566 147.126,240.826 146.101,239.204 144.551 L 238.208 143.600 154.804 143.614 L 71.400 143.628 69.900 145.270 M196.500 144.300 C 173.565 144.357,136.035 144.357,113.100 144.300 C 90.165 144.243,108.930 144.196,154.800 144.196 C 200.670 144.196,219.435 144.243,196.500 144.300 M70.300 179.557 C 69.915 179.948,69.600 180.400,69.600 180.562 C 69.600 180.724,69.328 181.129,68.996 181.461 C 68.664 181.793,68.496 182.231,68.622 182.435 C 68.748 182.639,68.569 182.914,68.225 183.046 C 67.514 183.318,67.304 187.200,68.000 187.200 C 68.220 187.200,68.400 187.430,68.400 187.711 C 68.400 187.992,68.715 188.494,69.100 188.826 C 69.485 189.158,70.082 189.857,70.426 190.380 C 70.993 191.242,71.444 191.359,75.226 191.634 C 82.285 192.147,166.833 192.070,167.460 191.550 C 167.859 191.219,168.000 191.219,168.000 191.551 C 168.000 192.110,172.454 192.158,174.330 191.620 C 175.059 191.411,176.768 191.204,178.128 191.161 C 181.557 191.051,183.525 189.931,183.857 187.900 C 183.992 187.075,184.259 186.400,184.451 186.400 C 184.643 186.400,184.800 186.029,184.800 185.576 C 184.800 185.091,184.623 184.862,184.370 185.018 C 184.126 185.169,184.156 184.939,184.441 184.483 C 184.856 183.818,184.827 183.570,184.270 183.013 C 183.902 182.644,183.600 182.095,183.600 181.791 C 183.600 181.488,183.356 181.096,183.058 180.920 C 182.761 180.744,182.304 180.195,182.044 179.700 L 181.572 178.800 126.286 178.824 C 73.890 178.846,70.963 178.885,70.300 179.557 M202.400 179.217 C 202.400 179.446,202.049 180.010,201.620 180.471 C 199.735 182.494,198.933 187.044,200.377 187.526 C 200.612 187.604,200.720 187.807,200.615 187.976 C 200.201 188.646,203.084 191.258,204.619 191.604 C 207.008 192.143,231.204 192.095,231.860 191.550 C 232.259 191.219,232.400 191.219,232.400 191.551 C 232.400 192.174,234.332 192.112,237.059 191.402 C 239.635 190.730,241.966 188.790,241.987 187.300 C 241.994 186.805,242.180 186.400,242.400 186.400 C 242.620 186.400,242.800 185.961,242.800 185.424 C 242.800 184.887,242.620 184.336,242.400 184.200 C 242.180 184.064,242.000 183.540,242.000 183.035 C 242.000 181.624,240.169 179.908,238.464 179.721 C 237.659 179.632,236.829 179.389,236.620 179.180 C 236.074 178.634,202.400 178.671,202.400 179.217 M70.449 214.440 C 69.997 214.925,69.709 215.453,69.809 215.615 C 69.909 215.777,69.633 216.003,69.196 216.117 C 68.758 216.231,68.400 216.612,68.400 216.963 C 68.400 217.313,68.247 217.600,68.060 217.600 C 67.873 217.600,67.687 218.702,67.646 220.048 C 67.586 222.066,67.677 222.456,68.166 222.268 C 68.564 222.116,68.687 222.229,68.540 222.612 C 68.411 222.948,68.991 223.848,69.945 224.792 L 71.569 226.400 106.384 226.400 C 126.674 226.400,141.200 226.250,141.200 226.041 C 141.200 225.844,142.737 225.619,144.615 225.541 C 146.493 225.463,148.158 225.207,148.315 224.971 C 148.472 224.735,148.918 224.424,149.306 224.281 C 151.643 223.419,150.951 214.800,148.544 214.800 C 148.282 214.800,147.992 214.575,147.900 214.300 C 147.769 213.906,139.645 213.774,109.502 213.679 L 71.270 213.558 70.449 214.440 M115.329 225.900 C 107.371 225.960,94.231 225.960,86.129 225.900 C 78.028 225.839,84.540 225.790,100.600 225.790 C 116.660 225.790,123.288 225.839,115.329 225.900 M297.585 236.598 C 324.394 236.728,345.065 236.982,345.189 237.182 C 345.309 237.377,345.901 237.660,346.504 237.812 C 347.107 237.963,347.601 238.202,347.601 238.343 C 347.602 238.485,348.631 239.140,349.888 239.800 C 351.144 240.460,352.575 241.421,353.066 241.936 C 353.557 242.451,354.148 242.756,354.379 242.613 C 354.611 242.470,354.800 242.573,354.800 242.843 C 354.800 243.113,355.239 243.798,355.776 244.367 C 357.682 246.386,359.200 248.311,359.200 248.710 C 359.200 248.932,359.470 249.218,359.800 249.345 C 360.130 249.471,360.400 249.861,360.400 250.211 C 360.400 250.561,360.568 250.743,360.774 250.616 C 360.980 250.489,361.271 251.198,361.420 252.192 C 361.569 253.187,361.830 254.000,362.001 254.000 C 362.789 254.000,362.885 260.472,362.866 312.538 C 362.848 365.575,362.775 370.400,362.000 370.400 C 361.815 370.400,361.545 370.940,361.400 371.600 C 361.255 372.260,360.985 372.800,360.800 372.800 C 360.615 372.800,360.345 373.340,360.200 374.000 C 360.055 374.660,359.765 375.200,359.556 375.200 C 359.346 375.200,359.056 375.515,358.911 375.900 C 358.765 376.285,358.186 377.075,357.623 377.657 C 357.060 378.238,356.303 379.048,355.939 379.457 C 354.725 380.822,353.292 382.000,352.844 382.000 C 352.600 382.000,352.400 382.168,352.400 382.373 C 352.400 382.578,351.995 382.872,351.500 383.027 C 351.005 383.181,350.510 383.419,350.400 383.554 C 350.290 383.689,349.300 384.250,348.200 384.800 C 347.100 385.350,346.108 385.921,345.996 386.068 C 345.884 386.216,345.299 386.460,344.696 386.612 C 344.093 386.763,343.600 387.047,343.600 387.243 C 343.600 387.450,320.376 387.600,288.200 387.600 C 254.721 387.600,232.800 387.454,232.800 387.232 C 232.800 387.029,232.260 386.745,231.600 386.600 C 230.940 386.455,230.400 386.191,230.400 386.013 C 230.400 385.835,229.770 385.571,229.000 385.426 C 228.230 385.282,227.600 384.995,227.600 384.789 C 227.600 384.584,227.150 384.302,226.600 384.164 C 226.050 384.026,225.600 383.753,225.600 383.557 C 225.600 383.360,225.324 383.200,224.987 383.200 C 224.651 383.200,224.271 382.930,224.145 382.600 C 224.018 382.270,223.706 382.000,223.451 382.000 C 222.846 382.000,218.418 377.744,217.417 376.200 C 216.081 374.137,214.800 371.582,214.800 370.979 C 214.800 370.660,214.626 370.400,214.414 370.400 C 214.201 370.400,213.908 369.500,213.762 368.400 C 213.616 367.300,213.365 366.400,213.203 366.400 C 212.506 366.400,212.369 356.854,212.374 308.670 C 212.380 260.060,212.450 255.600,213.212 255.600 C 213.390 255.600,213.655 255.060,213.800 254.400 C 213.945 253.740,214.229 253.200,214.432 253.200 C 214.634 253.200,214.800 252.974,214.800 252.697 C 214.800 252.157,216.588 248.646,217.344 247.703 C 219.020 245.608,224.682 240.161,225.054 240.285 C 225.303 240.368,225.776 240.167,226.105 239.838 C 226.434 239.509,227.175 239.121,227.752 238.976 C 228.328 238.832,228.800 238.573,228.800 238.401 C 228.800 238.229,229.475 237.963,230.300 237.809 C 231.125 237.655,231.990 237.371,232.222 237.180 C 232.455 236.988,236.482 236.803,241.172 236.770 C 246.701 236.730,249.506 236.575,249.150 236.328 C 248.743 236.047,248.809 236.003,249.400 236.158 C 249.840 236.274,271.523 236.472,297.585 236.598 M337.105 236.275 C 336.722 236.375,336.002 236.379,335.505 236.283 C 335.007 236.187,335.320 236.105,336.200 236.101 C 337.080 236.096,337.487 236.175,337.105 236.275 M75.600 248.355 C 75.600 248.548,74.433 248.781,73.006 248.872 C 70.187 249.051,69.071 249.780,68.573 251.766 C 68.430 252.335,68.153 252.800,67.957 252.800 C 67.760 252.800,67.600 253.700,67.600 254.800 C 67.600 255.900,67.780 256.800,68.000 256.800 C 68.220 256.800,68.400 257.045,68.400 257.344 C 68.400 257.643,68.833 258.213,69.362 258.610 C 69.891 259.008,70.232 259.573,70.119 259.866 C 69.949 260.309,76.580 260.400,108.986 260.400 C 149.726 260.400,149.200 260.420,149.200 258.848 C 149.200 258.624,149.451 258.296,149.757 258.120 C 151.807 256.943,151.295 252.564,148.804 249.965 L 146.925 248.006 111.263 248.004 C 91.009 248.004,75.600 248.155,75.600 248.355 M283.100 251.884 C 282.275 251.974,281.600 252.194,281.600 252.373 C 281.600 252.552,280.880 252.813,280.000 252.954 C 279.120 253.094,278.400 253.387,278.400 253.605 C 278.400 253.822,278.124 254.000,277.787 254.000 C 277.451 254.000,277.078 254.254,276.959 254.564 C 276.839 254.874,276.338 255.229,275.844 255.353 C 275.351 255.477,274.703 256.033,274.406 256.589 C 274.108 257.145,273.755 257.600,273.622 257.600 C 273.244 257.600,271.097 259.666,270.088 261.000 C 268.944 262.513,266.197 265.691,264.500 267.467 C 263.785 268.215,263.200 268.987,263.200 269.183 C 263.200 269.378,262.660 270.078,262.000 270.738 C 261.340 271.398,260.800 272.096,260.800 272.288 C 260.800 272.480,260.268 273.079,259.617 273.619 C 258.966 274.158,258.426 274.803,258.417 275.051 C 258.408 275.299,258.132 275.724,257.804 275.996 C 257.477 276.268,257.310 276.655,257.434 276.855 C 257.558 277.056,257.421 277.170,257.130 277.110 C 256.838 277.049,256.623 277.301,256.650 277.668 C 256.681 278.082,256.491 278.256,256.150 278.126 C 255.828 278.002,255.600 278.173,255.600 278.537 C 255.600 278.880,255.375 279.304,255.100 279.480 C 254.442 279.901,251.605 283.440,251.583 283.867 C 251.574 284.050,251.034 284.642,250.383 285.181 C 249.732 285.721,249.200 286.371,249.200 286.625 C 249.200 287.025,248.094 288.392,245.796 290.834 C 245.468 291.182,245.200 291.601,245.200 291.764 C 245.200 291.928,244.660 292.602,244.000 293.262 C 243.340 293.922,242.800 294.709,242.800 295.011 C 242.800 295.313,242.575 295.704,242.300 295.880 C 241.697 296.266,240.939 297.410,240.298 298.900 C 240.038 299.505,239.686 300.000,239.517 300.000 C 239.348 300.000,239.094 300.720,238.954 301.600 C 238.813 302.480,238.541 303.200,238.349 303.200 C 238.157 303.200,238.000 305.000,238.000 307.200 C 238.000 309.400,238.154 311.200,238.343 311.200 C 238.532 311.200,238.803 312.325,238.947 313.700 C 239.090 315.075,239.386 316.260,239.604 316.333 C 239.822 316.407,240.000 316.679,240.000 316.939 C 240.000 318.765,246.194 325.718,248.300 326.257 C 248.795 326.383,249.200 326.641,249.200 326.830 C 249.200 327.018,250.100 327.292,251.200 327.438 C 252.300 327.584,253.200 327.860,253.200 328.052 C 253.200 328.243,255.360 328.400,258.000 328.400 L 262.800 328.400 262.783 332.700 C 262.733 345.026,263.177 362.938,263.538 363.162 C 263.757 363.297,264.060 363.901,264.212 364.504 C 264.363 365.107,264.647 365.600,264.843 365.600 C 265.040 365.600,265.200 365.876,265.200 366.213 C 265.200 367.194,268.417 370.025,270.800 371.141 C 273.766 372.532,305.453 372.220,305.933 370.796 C 306.007 370.578,306.251 370.400,306.477 370.400 C 307.257 370.400,311.293 366.019,311.063 365.421 C 310.921 365.051,311.033 364.914,311.371 365.044 C 311.746 365.188,311.986 364.683,312.188 363.324 C 312.346 362.266,312.683 361.147,312.937 360.839 C 313.265 360.441,313.441 355.623,313.541 344.339 L 313.683 328.400 318.418 328.400 C 321.143 328.400,323.258 328.230,323.400 328.000 C 323.536 327.780,324.110 327.600,324.676 327.600 C 325.590 327.600,328.269 326.284,328.800 325.575 C 328.910 325.428,329.376 325.191,329.836 325.047 C 330.296 324.904,330.911 324.340,331.204 323.793 C 331.496 323.247,331.845 322.800,331.978 322.800 C 332.589 322.800,334.792 320.370,335.026 319.438 C 335.169 318.867,335.433 318.400,335.612 318.400 C 335.790 318.400,336.055 317.860,336.200 317.200 C 336.345 316.540,336.605 316.000,336.779 316.000 C 337.720 316.000,338.905 304.908,338.074 303.875 C 337.864 303.614,337.567 302.815,337.414 302.100 C 337.262 301.385,336.985 300.800,336.800 300.800 C 336.615 300.800,336.348 300.275,336.207 299.633 C 336.066 298.992,335.692 298.367,335.376 298.246 C 335.059 298.124,334.800 297.749,334.800 297.413 C 334.800 297.076,334.623 296.800,334.408 296.800 C 334.192 296.800,333.906 296.363,333.772 295.829 C 333.637 295.295,333.274 294.761,332.964 294.641 C 332.654 294.522,332.400 294.164,332.400 293.846 C 332.400 293.527,332.265 293.207,332.100 293.133 C 331.935 293.060,331.270 292.280,330.622 291.400 C 329.974 290.520,329.209 289.656,328.922 289.480 C 328.635 289.304,328.400 288.899,328.400 288.580 C 328.400 288.261,328.119 288.000,327.776 288.000 C 327.433 288.000,327.265 287.819,327.402 287.597 C 327.539 287.376,327.369 287.086,327.025 286.954 C 326.681 286.822,326.400 286.489,326.400 286.213 C 326.400 285.937,325.768 285.012,324.996 284.156 C 322.795 281.716,322.599 281.479,321.657 280.117 C 320.508 278.456,319.315 277.030,317.700 275.388 C 316.985 274.661,316.400 273.881,316.400 273.653 C 316.400 273.426,316.166 273.096,315.880 272.920 C 315.594 272.744,314.934 271.970,314.413 271.200 C 313.893 270.430,312.957 269.315,312.333 268.723 C 311.710 268.130,311.200 267.484,311.200 267.287 C 311.200 267.090,310.570 266.355,309.800 265.655 C 309.030 264.954,308.400 264.211,308.400 264.004 C 308.400 263.796,307.793 263.020,307.052 262.279 C 306.311 261.537,305.390 260.451,305.006 259.865 C 304.622 259.279,303.924 258.786,303.454 258.768 C 302.984 258.751,302.833 258.644,303.117 258.530 C 303.511 258.371,303.524 258.191,303.171 257.766 C 302.917 257.459,302.545 257.310,302.345 257.434 C 302.144 257.558,302.030 257.421,302.090 257.130 C 302.151 256.838,301.975 256.645,301.700 256.700 C 301.425 256.755,301.200 256.524,301.200 256.187 C 301.200 255.851,300.885 255.459,300.500 255.317 C 300.115 255.175,299.710 254.951,299.600 254.820 C 299.076 254.196,297.249 253.275,295.994 253.002 C 295.227 252.836,294.482 252.514,294.337 252.286 C 294.070 251.866,285.921 251.575,283.100 251.884 M289.807 264.811 C 289.946 265.036,290.272 265.179,290.530 265.127 C 291.627 264.906,295.333 268.119,297.580 271.239 C 298.561 272.600,299.461 273.642,301.900 276.241 C 302.615 277.003,303.200 277.773,303.200 277.953 C 303.200 278.279,304.660 280.033,307.100 282.639 C 307.815 283.402,308.400 284.187,308.400 284.383 C 308.400 284.578,308.940 285.278,309.600 285.938 C 310.260 286.598,310.800 287.272,310.800 287.436 C 310.800 287.599,311.068 288.018,311.396 288.366 C 313.755 290.872,314.800 292.184,314.800 292.636 C 314.800 292.924,315.025 293.304,315.300 293.480 C 315.575 293.656,316.237 294.430,316.770 295.200 C 317.304 295.970,317.979 296.744,318.270 296.920 C 318.562 297.096,318.800 297.419,318.800 297.639 C 318.800 297.859,319.250 298.455,319.800 298.965 C 320.350 299.475,320.800 300.102,320.800 300.358 C 320.800 300.615,321.070 300.929,321.400 301.055 C 321.730 301.182,322.000 301.547,322.000 301.866 C 322.000 302.186,322.178 302.337,322.395 302.203 C 322.622 302.063,322.689 302.223,322.554 302.576 C 322.414 302.940,322.581 303.294,322.958 303.439 C 323.311 303.575,323.600 303.863,323.600 304.080 C 323.600 304.296,323.969 304.943,324.421 305.517 C 325.198 306.506,325.509 312.229,324.760 311.773 C 324.412 311.561,322.820 313.486,323.106 313.773 C 323.239 313.905,322.774 314.230,322.074 314.495 C 321.373 314.759,320.800 315.102,320.800 315.258 C 320.800 315.413,320.127 315.477,319.304 315.401 C 318.481 315.324,317.623 315.415,317.398 315.602 C 317.172 315.789,314.052 316.000,310.465 316.071 C 304.751 316.184,303.894 316.287,303.551 316.900 C 303.336 317.285,302.991 317.600,302.785 317.600 C 300.801 317.600,300.786 317.743,300.817 336.786 C 300.836 348.953,300.711 354.630,300.423 354.726 C 300.190 354.803,300.000 355.729,300.000 356.783 C 300.000 359.264,300.358 359.200,286.550 359.200 L 275.600 359.200 275.600 341.400 C 275.600 331.610,275.445 323.600,275.256 323.600 C 275.066 323.600,274.814 322.529,274.695 321.221 C 274.356 317.477,273.057 316.334,268.729 315.974 C 266.898 315.821,265.015 315.569,264.545 315.414 C 264.065 315.254,263.577 315.314,263.431 315.550 C 263.252 315.840,262.838 315.842,262.090 315.558 C 261.495 315.332,260.424 315.257,259.710 315.391 C 258.996 315.525,258.081 315.458,257.678 315.242 C 257.274 315.026,256.029 314.794,254.910 314.726 C 253.791 314.658,252.967 314.453,253.080 314.270 C 253.193 314.088,252.906 313.586,252.443 313.154 C 251.979 312.722,251.600 312.016,251.600 311.584 C 251.600 311.153,251.420 310.800,251.200 310.800 C 250.520 310.800,250.708 306.521,251.400 306.255 C 251.730 306.129,252.000 305.769,252.000 305.455 C 252.000 305.142,252.270 304.782,252.600 304.655 C 252.930 304.529,253.200 304.149,253.200 303.813 C 253.200 303.476,253.399 303.200,253.643 303.200 C 253.886 303.200,253.978 302.921,253.847 302.579 C 253.711 302.223,253.778 302.063,254.005 302.203 C 254.222 302.337,254.400 302.167,254.400 301.824 C 254.400 301.481,254.586 301.200,254.813 301.200 C 255.039 301.200,255.345 300.885,255.492 300.500 C 255.639 300.115,256.084 299.451,256.480 299.025 C 256.876 298.598,257.200 297.912,257.200 297.501 C 257.200 297.089,257.357 296.850,257.550 296.969 C 257.742 297.088,258.237 296.724,258.650 296.160 C 259.062 295.596,259.736 294.745,260.146 294.268 C 260.556 293.790,261.182 292.950,261.537 292.400 C 261.891 291.850,262.410 291.256,262.690 291.080 C 262.971 290.904,263.200 290.581,263.200 290.361 C 263.200 290.141,263.618 289.565,264.130 289.081 C 265.052 288.207,265.786 286.877,265.664 286.300 C 265.629 286.135,265.876 286.000,266.213 286.000 C 266.549 286.000,266.942 285.685,267.084 285.300 C 267.227 284.915,268.031 283.925,268.872 283.100 C 269.712 282.276,270.406 281.466,270.413 281.300 C 270.420 281.135,271.050 280.379,271.813 279.619 C 272.576 278.860,273.200 278.068,273.200 277.860 C 273.200 277.651,273.830 276.869,274.600 276.121 C 275.370 275.373,276.000 274.579,276.000 274.355 C 276.000 274.131,276.540 273.494,277.200 272.939 C 277.860 272.383,278.400 271.779,278.400 271.596 C 278.400 270.588,284.003 265.549,285.371 265.327 C 286.167 265.198,286.916 264.936,287.033 264.746 C 287.332 264.262,289.499 264.312,289.807 264.811 M301.499 334.123 C 301.430 336.805,301.373 334.500,301.373 329.000 C 301.374 323.500,301.430 321.305,301.499 324.123 C 301.568 326.941,301.568 331.441,301.499 334.123 M199.600 336.200 L 199.600 342.400 138.233 342.400 C 103.113 342.400,76.810 342.249,76.733 342.047 C 76.660 341.853,74.021 341.616,70.870 341.521 C 67.493 341.420,65.028 341.176,64.870 340.928 C 64.721 340.697,64.195 340.381,63.700 340.227 C 63.205 340.072,62.800 339.678,62.800 339.349 C 62.800 339.021,62.653 338.844,62.472 338.955 C 62.292 339.067,62.226 338.607,62.324 337.935 C 62.423 337.262,62.312 336.593,62.077 336.447 C 61.842 336.302,61.542 334.792,61.410 333.092 L 61.171 330.000 130.386 330.000 L 199.600 330.000 199.600 336.200 " stroke="none" fill="#2ca40c" fill-rule="evenodd"></path><path id="path1" d="M273.797 119.800 C 273.797 177.000,273.843 200.459,273.900 171.932 C 273.957 143.405,273.957 96.605,273.900 67.932 C 273.843 39.259,273.797 62.600,273.797 119.800 M287.091 24.689 C 287.801 24.777,289.061 24.779,289.891 24.692 C 290.721 24.605,290.140 24.533,288.600 24.531 C 287.060 24.529,286.381 24.600,287.091 24.689 M298.800 76.533 C 298.800 85.260,298.935 92.400,299.100 92.400 C 299.431 92.400,299.339 61.206,299.007 60.874 C 298.893 60.760,298.800 67.807,298.800 76.533 M113.100 144.300 C 136.035 144.357,173.565 144.357,196.500 144.300 C 219.435 144.243,200.670 144.196,154.800 144.196 C 108.930 144.196,90.165 144.243,113.100 144.300 M108.505 191.887 C 109.114 191.979,110.014 191.977,110.505 191.882 C 110.997 191.787,110.500 191.711,109.400 191.714 C 108.300 191.717,107.897 191.795,108.505 191.887 M86.129 225.900 C 94.231 225.960,107.371 225.960,115.329 225.900 C 123.288 225.839,116.660 225.790,100.600 225.790 C 84.540 225.790,78.028 225.839,86.129 225.900 M335.505 236.283 C 336.002 236.379,336.722 236.375,337.105 236.275 C 337.487 236.175,337.080 236.096,336.200 236.101 C 335.320 236.105,335.007 236.187,335.505 236.283 M340.700 236.682 C 341.195 236.778,342.005 236.778,342.500 236.682 C 342.995 236.587,342.590 236.509,341.600 236.509 C 340.610 236.509,340.205 236.587,340.700 236.682 M23.200 264.333 C 23.200 265.030,23.383 265.600,23.608 265.600 C 23.850 265.600,23.908 265.153,23.751 264.500 C 23.375 262.930,23.200 262.877,23.200 264.333 M36.559 272.800 C 36.559 275.990,36.621 277.295,36.697 275.700 C 36.773 274.105,36.773 271.495,36.697 269.900 C 36.621 268.305,36.559 269.610,36.559 272.800 M212.093 292.000 C 212.093 292.770,212.175 293.085,212.276 292.700 C 212.376 292.315,212.376 291.685,212.276 291.300 C 212.175 290.915,212.093 291.230,212.093 292.000 M261.600 315.353 C 261.600 315.708,263.218 315.894,263.423 315.562 C 263.546 315.363,263.187 315.200,262.624 315.200 C 262.061 315.200,261.600 315.269,261.600 315.353 M135.400 317.600 C 136.516 318.079,138.000 318.079,138.000 317.600 C 138.000 317.380,137.235 317.213,136.300 317.228 C 134.983 317.250,134.780 317.334,135.400 317.600 M198.200 317.600 C 199.293 318.069,199.600 318.069,199.600 317.600 C 199.600 317.380,199.105 317.213,198.500 317.228 C 197.525 317.253,197.491 317.295,198.200 317.600 M301.373 329.000 C 301.373 334.500,301.430 336.805,301.499 334.123 C 301.568 331.441,301.568 326.941,301.499 324.123 C 301.430 321.305,301.374 323.500,301.373 329.000 " stroke="none" fill="#30a40c" fill-rule="evenodd"></path><path id="path2" d="M273.797 119.800 C 273.797 177.000,273.843 200.459,273.900 171.932 C 273.957 143.405,273.957 96.605,273.900 67.932 C 273.843 39.259,273.797 62.600,273.797 119.800 M287.091 24.689 C 287.801 24.777,289.061 24.779,289.891 24.692 C 290.721 24.605,290.140 24.533,288.600 24.531 C 287.060 24.529,286.381 24.600,287.091 24.689 M298.800 76.533 C 298.800 85.260,298.935 92.400,299.100 92.400 C 299.431 92.400,299.339 61.206,299.007 60.874 C 298.893 60.760,298.800 67.807,298.800 76.533 M113.100 144.300 C 136.035 144.357,173.565 144.357,196.500 144.300 C 219.435 144.243,200.670 144.196,154.800 144.196 C 108.930 144.196,90.165 144.243,113.100 144.300 M108.505 191.887 C 109.114 191.979,110.014 191.977,110.505 191.882 C 110.997 191.787,110.500 191.711,109.400 191.714 C 108.300 191.717,107.897 191.795,108.505 191.887 M86.129 225.900 C 94.231 225.960,107.371 225.960,115.329 225.900 C 123.288 225.839,116.660 225.790,100.600 225.790 C 84.540 225.790,78.028 225.839,86.129 225.900 M335.505 236.283 C 336.002 236.379,336.722 236.375,337.105 236.275 C 337.487 236.175,337.080 236.096,336.200 236.101 C 335.320 236.105,335.007 236.187,335.505 236.283 M340.700 236.682 C 341.195 236.778,342.005 236.778,342.500 236.682 C 342.995 236.587,342.590 236.509,341.600 236.509 C 340.610 236.509,340.205 236.587,340.700 236.682 M23.200 264.333 C 23.200 265.030,23.383 265.600,23.608 265.600 C 23.850 265.600,23.908 265.153,23.751 264.500 C 23.375 262.930,23.200 262.877,23.200 264.333 M36.559 272.800 C 36.559 275.990,36.621 277.295,36.697 275.700 C 36.773 274.105,36.773 271.495,36.697 269.900 C 36.621 268.305,36.559 269.610,36.559 272.800 M212.093 292.000 C 212.093 292.770,212.175 293.085,212.276 292.700 C 212.376 292.315,212.376 291.685,212.276 291.300 C 212.175 290.915,212.093 291.230,212.093 292.000 M261.600 315.353 C 261.600 315.708,263.218 315.894,263.423 315.562 C 263.546 315.363,263.187 315.200,262.624 315.200 C 262.061 315.200,261.600 315.269,261.600 315.353 M135.400 317.600 C 136.516 318.079,138.000 318.079,138.000 317.600 C 138.000 317.380,137.235 317.213,136.300 317.228 C 134.983 317.250,134.780 317.334,135.400 317.600 M198.200 317.600 C 199.293 318.069,199.600 318.069,199.600 317.600 C 199.600 317.380,199.105 317.213,198.500 317.228 C 197.525 317.253,197.491 317.295,198.200 317.600 M301.373 329.000 C 301.373 334.500,301.430 336.805,301.499 334.123 C 301.568 331.441,301.568 326.941,301.499 324.123 C 301.430 321.305,301.374 323.500,301.373 329.000 " stroke="none" fill="#30a40c" fill-rule="evenodd"></path><path id="path3" d="M273.797 119.800 C 273.797 177.000,273.843 200.459,273.900 171.932 C 273.957 143.405,273.957 96.605,273.900 67.932 C 273.843 39.259,273.797 62.600,273.797 119.800 M287.091 24.689 C 287.801 24.777,289.061 24.779,289.891 24.692 C 290.721 24.605,290.140 24.533,288.600 24.531 C 287.060 24.529,286.381 24.600,287.091 24.689 M298.800 76.533 C 298.800 85.260,298.935 92.400,299.100 92.400 C 299.431 92.400,299.339 61.206,299.007 60.874 C 298.893 60.760,298.800 67.807,298.800 76.533 M113.100 144.300 C 136.035 144.357,173.565 144.357,196.500 144.300 C 219.435 144.243,200.670 144.196,154.800 144.196 C 108.930 144.196,90.165 144.243,113.100 144.300 M108.505 191.887 C 109.114 191.979,110.014 191.977,110.505 191.882 C 110.997 191.787,110.500 191.711,109.400 191.714 C 108.300 191.717,107.897 191.795,108.505 191.887 M86.129 225.900 C 94.231 225.960,107.371 225.960,115.329 225.900 C 123.288 225.839,116.660 225.790,100.600 225.790 C 84.540 225.790,78.028 225.839,86.129 225.900 M335.505 236.283 C 336.002 236.379,336.722 236.375,337.105 236.275 C 337.487 236.175,337.080 236.096,336.200 236.101 C 335.320 236.105,335.007 236.187,335.505 236.283 M340.700 236.682 C 341.195 236.778,342.005 236.778,342.500 236.682 C 342.995 236.587,342.590 236.509,341.600 236.509 C 340.610 236.509,340.205 236.587,340.700 236.682 M23.200 264.333 C 23.200 265.030,23.383 265.600,23.608 265.600 C 23.850 265.600,23.908 265.153,23.751 264.500 C 23.375 262.930,23.200 262.877,23.200 264.333 M36.559 272.800 C 36.559 275.990,36.621 277.295,36.697 275.700 C 36.773 274.105,36.773 271.495,36.697 269.900 C 36.621 268.305,36.559 269.610,36.559 272.800 M212.093 292.000 C 212.093 292.770,212.175 293.085,212.276 292.700 C 212.376 292.315,212.376 291.685,212.276 291.300 C 212.175 290.915,212.093 291.230,212.093 292.000 M261.600 315.353 C 261.600 315.708,263.218 315.894,263.423 315.562 C 263.546 315.363,263.187 315.200,262.624 315.200 C 262.061 315.200,261.600 315.269,261.600 315.353 M135.400 317.600 C 136.516 318.079,138.000 318.079,138.000 317.600 C 138.000 317.380,137.235 317.213,136.300 317.228 C 134.983 317.250,134.780 317.334,135.400 317.600 M198.200 317.600 C 199.293 318.069,199.600 318.069,199.600 317.600 C 199.600 317.380,199.105 317.213,198.500 317.228 C 197.525 317.253,197.491 317.295,198.200 317.600 M301.373 329.000 C 301.373 334.500,301.430 336.805,301.499 334.123 C 301.568 331.441,301.568 326.941,301.499 324.123 C 301.430 321.305,301.374 323.500,301.373 329.000 " stroke="none" fill="#30a40c" fill-rule="evenodd"></path><path id="path4" d="M273.797 119.800 C 273.797 177.000,273.843 200.459,273.900 171.932 C 273.957 143.405,273.957 96.605,273.900 67.932 C 273.843 39.259,273.797 62.600,273.797 119.800 M287.091 24.689 C 287.801 24.777,289.061 24.779,289.891 24.692 C 290.721 24.605,290.140 24.533,288.600 24.531 C 287.060 24.529,286.381 24.600,287.091 24.689 M298.800 76.533 C 298.800 85.260,298.935 92.400,299.100 92.400 C 299.431 92.400,299.339 61.206,299.007 60.874 C 298.893 60.760,298.800 67.807,298.800 76.533 M113.100 144.300 C 136.035 144.357,173.565 144.357,196.500 144.300 C 219.435 144.243,200.670 144.196,154.800 144.196 C 108.930 144.196,90.165 144.243,113.100 144.300 M108.505 191.887 C 109.114 191.979,110.014 191.977,110.505 191.882 C 110.997 191.787,110.500 191.711,109.400 191.714 C 108.300 191.717,107.897 191.795,108.505 191.887 M86.129 225.900 C 94.231 225.960,107.371 225.960,115.329 225.900 C 123.288 225.839,116.660 225.790,100.600 225.790 C 84.540 225.790,78.028 225.839,86.129 225.900 M335.505 236.283 C 336.002 236.379,336.722 236.375,337.105 236.275 C 337.487 236.175,337.080 236.096,336.200 236.101 C 335.320 236.105,335.007 236.187,335.505 236.283 M340.700 236.682 C 341.195 236.778,342.005 236.778,342.500 236.682 C 342.995 236.587,342.590 236.509,341.600 236.509 C 340.610 236.509,340.205 236.587,340.700 236.682 M23.200 264.333 C 23.200 265.030,23.383 265.600,23.608 265.600 C 23.850 265.600,23.908 265.153,23.751 264.500 C 23.375 262.930,23.200 262.877,23.200 264.333 M36.559 272.800 C 36.559 275.990,36.621 277.295,36.697 275.700 C 36.773 274.105,36.773 271.495,36.697 269.900 C 36.621 268.305,36.559 269.610,36.559 272.800 M212.093 292.000 C 212.093 292.770,212.175 293.085,212.276 292.700 C 212.376 292.315,212.376 291.685,212.276 291.300 C 212.175 290.915,212.093 291.230,212.093 292.000 M261.600 315.353 C 261.600 315.708,263.218 315.894,263.423 315.562 C 263.546 315.363,263.187 315.200,262.624 315.200 C 262.061 315.200,261.600 315.269,261.600 315.353 M135.400 317.600 C 136.516 318.079,138.000 318.079,138.000 317.600 C 138.000 317.380,137.235 317.213,136.300 317.228 C 134.983 317.250,134.780 317.334,135.400 317.600 M198.200 317.600 C 199.293 318.069,199.600 318.069,199.600 317.600 C 199.600 317.380,199.105 317.213,198.500 317.228 C 197.525 317.253,197.491 317.295,198.200 317.600 M301.373 329.000 C 301.373 334.500,301.430 336.805,301.499 334.123 C 301.568 331.441,301.568 326.941,301.499 324.123 C 301.430 321.305,301.374 323.500,301.373 329.000 " stroke="none" fill="#30a40c" fill-rule="evenodd"></path></g></svg>