<svg width="100" height="100" viewBox="0 0 100 100" xmlns="http://www.w3.org/2000/svg">
  <!-- Cercle gris -->
  <circle cx="50" cy="50" r="45" fill="none" stroke="#008F00" stroke-width="10"/>

  <!-- Engrenage centré et agrandi -->
  <g transform="translate(38, 50) scale(0.8) translate(-50, -50)">
    <path d="M94.43,56.86a38.82,38.82,0,0,0,.3-5.14,38.82,38.82,0,0,0-.3-5.14l9.25-7.23a1.22,1.22,0,0,0,.3-1.58l-8.75-15.14a1.23,1.23,0,0,0-1.51-.52L85.29,27.7a38.63,38.63,0,0,0-8.88-5.14L75,11.16a1.25,1.25,0,0,0-1.2-1H58.73a1.24,1.24,0,0,0-1.2,1l-1.41,11.4a38.35,38.35,0,0,0-8.88,5.14L35.48,22.25a1.24,1.24,0,0,0-1.51.52L25.22,37.91a1.22,1.22,0,0,0,.3,1.58L34.77,46.73a38.84,38.84,0,0,0-.3,5.14,38.84,38.84,0,0,0,.3,5.14L25.52,64.24a1.22,1.22,0,0,0-.3,1.58l8.75,15.14a1.23,1.23,0,0,0,1.51.52l10.93-4.53a38.63,38.63,0,0,0,8.88,5.14l1.41,11.4a1.24,1.24,0,0,0,1.2,1H73.77a1.24,1.24,0,0,0,1.2-1l1.41-11.4a38.35,38.35,0,0,0,8.88-5.14l10.93,4.53a1.24,1.24,0,0,0,1.51-.52l8.75-15.14a1.22,1.22,0,0,0-.3-1.58ZM60,70.4A20.4,20.4,0,1,1,80.4,50,20.42,20.42,0,0,1,60,70.4Z" fill="#008F00"/>
  </g>
</svg>
