<svg id="svg" version="1.1" xmlns="http://www.w3.org/2000/svg" xmlns:xlink="http://www.w3.org/1999/xlink" width="400" height="400" viewBox="0, 0, 400,400"><g id="svgg"><path id="path0" d="M195.200 21.630 C 194.870 21.812,193.565 22.073,192.300 22.210 C 191.035 22.346,190.000 22.605,190.000 22.784 C 190.000 22.964,189.370 23.229,188.600 23.374 C 187.830 23.518,187.200 23.805,187.200 24.011 C 187.200 24.216,186.750 24.498,186.200 24.636 C 185.650 24.774,185.200 25.053,185.200 25.256 C 185.200 25.459,184.929 25.729,184.597 25.856 C 183.726 26.191,178.400 31.436,178.400 31.959 C 178.400 32.202,178.238 32.400,178.039 32.400 C 177.841 32.400,177.490 32.940,177.260 33.600 C 177.030 34.260,176.673 34.800,176.466 34.800 C 176.260 34.800,175.969 35.613,175.820 36.608 C 175.671 37.602,175.387 38.316,175.190 38.194 C 174.993 38.072,174.711 38.878,174.564 39.986 C 174.417 41.094,174.140 42.000,173.948 42.000 C 173.757 42.000,173.600 44.070,173.600 46.600 C 173.600 49.130,173.754 51.200,173.943 51.200 C 174.131 51.200,174.406 52.505,174.554 54.100 C 174.701 55.695,174.997 57.060,175.211 57.133 C 175.425 57.207,175.600 57.478,175.600 57.737 C 175.600 58.473,177.649 62.164,178.255 62.520 C 178.555 62.696,178.800 63.039,178.800 63.283 C 178.800 63.973,184.006 68.786,185.030 69.043 C 185.532 69.169,186.039 69.526,186.159 69.836 C 186.278 70.146,186.651 70.400,186.987 70.400 C 187.324 70.400,187.600 70.560,187.600 70.757 C 187.600 70.953,188.093 71.237,188.696 71.388 C 189.299 71.540,189.898 71.836,190.028 72.046 C 190.158 72.256,190.970 72.540,191.832 72.676 C 193.659 72.965,193.986 73.331,193.994 75.100 C 193.997 75.815,194.180 76.400,194.400 76.400 C 195.124 76.400,194.930 117.527,194.203 118.254 C 193.875 118.582,193.417 118.734,193.186 118.591 C 192.954 118.448,192.548 118.503,192.282 118.713 C 192.017 118.924,191.125 119.217,190.300 119.366 C 189.475 119.515,188.800 119.794,188.800 119.986 C 188.800 120.179,188.260 120.455,187.600 120.600 C 186.940 120.745,186.400 121.029,186.400 121.232 C 186.400 121.434,186.124 121.600,185.787 121.600 C 185.451 121.600,185.071 121.870,184.945 122.200 C 184.818 122.530,184.527 122.800,184.298 122.800 C 184.068 122.800,183.269 123.430,182.521 124.200 C 181.773 124.970,180.984 125.600,180.767 125.600 C 180.550 125.600,179.845 126.140,179.200 126.800 C 177.980 128.048,177.200 128.334,177.200 127.533 C 177.200 127.277,177.089 127.178,176.952 127.314 C 176.816 127.450,176.462 127.345,176.166 127.081 C 174.872 125.925,174.411 125.600,174.066 125.600 C 173.864 125.600,173.476 125.332,173.204 125.004 C 172.932 124.677,172.583 124.487,172.428 124.583 C 172.273 124.679,171.893 124.407,171.585 123.979 C 171.276 123.550,170.787 123.200,170.499 123.200 C 170.211 123.200,169.871 122.930,169.745 122.600 C 169.618 122.270,169.309 121.999,169.057 121.997 C 168.806 121.996,167.164 121.006,165.408 119.797 C 163.653 118.589,162.007 117.600,161.751 117.600 C 161.495 117.600,161.182 117.330,161.055 117.000 C 160.929 116.670,160.549 116.400,160.213 116.400 C 159.876 116.400,159.600 116.261,159.600 116.092 C 159.600 115.922,158.790 115.341,157.800 114.800 C 156.810 114.259,156.000 113.678,156.000 113.508 C 156.000 113.339,155.724 113.200,155.387 113.200 C 155.051 113.200,154.671 112.930,154.545 112.600 C 154.418 112.270,154.077 112.000,153.786 112.000 C 153.495 112.000,152.976 111.719,152.632 111.374 C 152.288 111.030,151.844 110.849,151.645 110.972 C 151.446 111.095,151.181 110.926,151.054 110.598 C 150.928 110.269,150.569 110.000,150.255 110.000 C 149.942 110.000,149.582 109.730,149.455 109.400 C 149.329 109.070,148.949 108.800,148.613 108.800 C 148.276 108.800,148.000 108.623,148.000 108.408 C 148.000 108.192,147.563 107.906,147.029 107.772 C 146.495 107.637,145.961 107.274,145.841 106.964 C 145.722 106.654,145.364 106.400,145.046 106.400 C 144.727 106.400,144.407 106.265,144.333 106.100 C 144.131 105.645,141.690 104.000,141.216 104.000 C 140.987 104.000,140.800 103.830,140.800 103.622 C 140.800 103.261,139.644 102.518,137.700 101.631 C 137.205 101.405,136.800 101.035,136.800 100.810 C 136.800 100.584,136.558 100.400,136.261 100.400 C 135.787 100.400,135.245 100.034,133.317 98.407 C 133.051 98.183,132.686 98.000,132.506 98.000 C 132.325 98.000,131.870 97.640,131.493 97.200 C 131.116 96.760,130.555 96.400,130.247 96.400 C 129.938 96.400,129.582 96.130,129.455 95.800 C 129.329 95.470,128.949 95.200,128.613 95.200 C 128.276 95.200,128.000 95.050,128.000 94.868 C 128.000 94.685,127.511 94.280,126.914 93.968 C 123.565 92.218,121.743 88.026,123.761 86.715 C 124.386 86.308,124.364 74.472,123.737 74.084 C 123.482 73.927,123.147 73.124,122.992 72.299 C 122.838 71.475,122.565 70.800,122.387 70.800 C 122.209 70.800,121.945 70.260,121.800 69.600 C 121.655 68.940,121.371 68.400,121.168 68.400 C 120.966 68.400,120.800 68.158,120.800 67.861 C 120.800 67.565,120.485 66.949,120.100 66.494 C 119.715 66.038,119.040 65.155,118.600 64.532 C 117.125 62.444,112.932 58.671,112.430 58.982 C 112.225 59.108,111.937 58.833,111.790 58.369 C 111.605 57.785,111.288 57.588,110.758 57.727 C 110.296 57.848,109.791 57.637,109.479 57.192 C 109.196 56.787,108.432 56.329,107.782 56.173 C 107.132 56.017,106.403 55.736,106.163 55.548 C 105.137 54.746,95.828 53.785,95.000 54.395 C 94.780 54.557,93.440 54.806,92.022 54.947 C 90.605 55.088,89.345 55.360,89.222 55.552 C 89.100 55.743,88.415 56.026,87.700 56.182 C 86.985 56.337,86.400 56.615,86.400 56.800 C 86.400 56.985,85.875 57.252,85.233 57.393 C 84.592 57.534,83.967 57.908,83.846 58.224 C 83.724 58.541,83.428 58.800,83.187 58.800 C 82.797 58.800,82.289 59.210,79.679 61.629 C 78.339 62.870,76.557 65.014,76.294 65.700 C 76.146 66.085,75.854 66.400,75.644 66.400 C 75.435 66.400,75.145 66.940,75.000 67.600 C 74.855 68.260,74.585 68.800,74.400 68.800 C 74.215 68.800,73.937 69.385,73.782 70.100 C 73.626 70.815,73.338 71.503,73.141 71.629 C 72.944 71.755,72.671 73.060,72.534 74.529 C 72.397 75.998,72.130 77.200,71.942 77.200 C 71.474 77.200,71.507 83.841,71.980 84.705 C 72.188 85.087,72.469 86.255,72.604 87.300 C 72.739 88.345,72.995 89.200,73.173 89.200 C 73.352 89.200,73.613 89.920,73.754 90.800 C 73.894 91.680,74.187 92.400,74.405 92.400 C 74.622 92.400,74.800 92.642,74.800 92.939 C 74.800 93.235,75.160 93.893,75.600 94.400 C 76.040 94.907,76.400 95.460,76.400 95.627 C 76.400 96.075,77.948 97.901,80.000 99.875 C 82.673 102.446,83.084 102.756,84.190 103.033 C 84.745 103.173,85.200 103.433,85.200 103.612 C 85.200 103.790,85.740 104.055,86.400 104.200 C 87.060 104.345,87.600 104.599,87.600 104.765 C 87.600 104.931,87.825 105.094,88.100 105.127 C 89.958 105.350,91.441 105.775,91.685 106.155 C 92.088 106.782,104.731 106.759,105.119 106.131 C 105.275 105.879,106.117 105.539,106.991 105.375 C 107.865 105.211,108.822 104.835,109.119 104.539 C 109.415 104.242,109.914 104.000,110.229 104.000 C 110.543 104.000,110.800 103.820,110.800 103.600 C 110.800 103.380,111.057 103.200,111.371 103.200 C 111.686 103.200,112.188 102.975,112.487 102.700 C 112.786 102.425,113.474 101.947,114.015 101.638 C 114.557 101.328,115.270 100.909,115.600 100.707 C 116.164 100.361,116.945 100.706,120.600 102.916 C 121.040 103.182,121.544 103.625,121.720 103.900 C 121.896 104.175,122.301 104.400,122.620 104.400 C 122.939 104.400,123.200 104.599,123.200 104.843 C 123.200 105.086,123.479 105.178,123.821 105.047 C 124.177 104.911,124.337 104.978,124.197 105.205 C 124.063 105.422,124.214 105.600,124.534 105.600 C 124.853 105.600,125.218 105.870,125.345 106.200 C 125.471 106.530,125.836 106.800,126.154 106.800 C 126.473 106.800,126.793 106.935,126.867 107.100 C 127.069 107.555,129.510 109.200,129.984 109.200 C 130.213 109.200,130.400 109.389,130.400 109.621 C 130.400 109.852,130.940 110.230,131.600 110.460 C 132.260 110.690,132.800 111.041,132.800 111.239 C 132.800 111.438,133.076 111.600,133.413 111.600 C 133.749 111.600,134.129 111.870,134.255 112.200 C 134.382 112.530,134.654 112.800,134.859 112.800 C 135.236 112.800,137.627 114.372,138.004 114.868 C 138.116 115.016,138.688 115.257,139.275 115.404 C 139.862 115.552,140.439 115.926,140.559 116.236 C 140.678 116.546,141.051 116.800,141.387 116.800 C 141.724 116.800,142.000 116.958,142.000 117.151 C 142.000 117.345,142.540 117.727,143.200 118.000 C 143.860 118.273,144.400 118.655,144.400 118.849 C 144.400 119.042,144.676 119.200,145.013 119.200 C 145.349 119.200,145.722 119.454,145.841 119.764 C 145.961 120.074,146.495 120.437,147.029 120.572 C 147.563 120.706,148.000 120.992,148.000 121.208 C 148.000 121.423,148.276 121.600,148.613 121.600 C 148.949 121.600,149.329 121.870,149.455 122.200 C 149.582 122.530,149.909 122.800,150.182 122.800 C 150.454 122.800,151.110 123.157,151.639 123.593 C 153.401 125.046,154.450 125.731,156.400 126.702 C 157.170 127.086,157.944 127.625,158.120 127.900 C 158.296 128.175,158.686 128.400,158.987 128.400 C 159.287 128.400,159.593 128.535,159.667 128.700 C 159.859 129.133,162.299 130.800,162.741 130.800 C 162.946 130.800,163.218 131.070,163.345 131.400 C 163.471 131.730,163.851 132.000,164.187 132.000 C 164.524 132.000,164.800 132.162,164.800 132.361 C 164.800 132.559,165.340 132.910,166.000 133.140 C 166.660 133.370,167.200 133.748,167.200 133.979 C 167.200 134.211,167.387 134.400,167.616 134.400 C 168.090 134.400,170.531 136.045,170.733 136.500 C 170.807 136.665,171.082 136.800,171.344 136.800 C 172.807 136.800,173.388 138.523,173.538 143.300 C 173.618 145.885,173.822 148.000,173.990 148.000 C 174.159 148.000,174.421 149.260,174.573 150.800 C 174.724 152.340,174.995 153.600,175.173 153.600 C 175.352 153.600,175.608 154.291,175.743 155.135 C 176.105 157.398,182.276 164.800,183.801 164.800 C 184.083 164.800,184.418 165.070,184.545 165.400 C 184.671 165.730,185.031 166.000,185.345 166.000 C 185.658 166.000,186.012 166.253,186.130 166.562 C 186.249 166.872,186.898 167.246,187.573 167.394 C 188.248 167.542,188.800 167.810,188.800 167.988 C 188.800 168.167,189.293 168.437,189.896 168.588 C 190.499 168.740,191.087 169.017,191.203 169.206 C 191.320 169.394,191.952 169.619,192.607 169.706 C 194.418 169.946,194.495 171.158,194.661 202.081 L 194.811 229.962 193.405 230.225 C 192.632 230.370,192.000 230.626,192.000 230.793 C 192.000 230.961,191.272 231.214,190.381 231.357 C 189.491 231.499,188.859 231.772,188.978 231.964 C 189.096 232.155,188.583 232.427,187.837 232.567 C 187.091 232.707,186.030 233.176,185.477 233.611 C 184.925 234.045,184.322 234.408,184.137 234.417 C 183.952 234.426,183.358 234.966,182.819 235.617 C 182.279 236.268,181.696 236.800,181.523 236.800 C 181.057 236.800,179.600 238.121,179.600 238.543 C 179.600 238.744,179.185 239.293,178.678 239.763 C 178.171 240.233,177.636 240.929,177.490 241.309 C 177.095 242.340,175.528 241.986,174.080 240.537 C 173.784 240.242,173.305 240.000,173.014 240.000 C 172.723 240.000,172.382 239.730,172.255 239.400 C 172.129 239.070,171.749 238.800,171.413 238.800 C 171.076 238.800,170.800 238.640,170.800 238.443 C 170.800 238.247,170.350 237.974,169.800 237.836 C 169.250 237.698,168.800 237.408,168.800 237.192 C 168.800 236.977,168.524 236.800,168.187 236.800 C 167.851 236.800,167.471 236.530,167.345 236.200 C 167.218 235.870,166.946 235.600,166.741 235.600 C 166.298 235.600,163.859 233.932,163.666 233.498 C 163.592 233.331,163.387 233.284,163.211 233.393 C 163.035 233.502,162.668 233.323,162.396 232.996 C 162.124 232.668,161.736 232.400,161.534 232.400 C 161.332 232.400,160.949 232.217,160.683 231.993 C 158.767 230.377,158.218 230.000,157.782 230.000 C 157.509 230.000,157.182 229.730,157.055 229.400 C 156.929 229.070,156.549 228.800,156.213 228.800 C 155.876 228.800,155.600 228.623,155.600 228.408 C 155.600 228.192,155.163 227.906,154.629 227.772 C 154.095 227.637,153.561 227.274,153.441 226.964 C 153.322 226.654,152.977 226.400,152.674 226.400 C 152.188 226.400,151.649 226.037,149.717 224.407 C 149.451 224.183,149.041 224.000,148.804 224.000 C 148.568 224.000,148.278 223.746,148.159 223.436 C 148.039 223.126,147.505 222.763,146.971 222.628 C 146.437 222.494,146.000 222.208,146.000 221.992 C 146.000 221.777,145.724 221.600,145.387 221.600 C 145.051 221.600,144.671 221.330,144.545 221.000 C 144.418 220.670,144.146 220.400,143.941 220.400 C 143.617 220.400,141.368 218.968,140.800 218.400 C 140.570 218.170,139.138 217.340,137.400 216.429 C 136.740 216.083,136.056 215.575,135.880 215.300 C 135.704 215.025,135.382 214.800,135.163 214.800 C 134.945 214.800,134.549 214.617,134.283 214.393 C 132.367 212.777,131.818 212.400,131.382 212.400 C 131.109 212.400,130.782 212.130,130.655 211.800 C 130.529 211.470,130.149 211.200,129.813 211.200 C 129.476 211.200,129.200 211.023,129.200 210.808 C 129.200 210.592,128.763 210.306,128.229 210.172 C 127.695 210.037,127.161 209.674,127.041 209.364 C 126.922 209.054,126.632 208.800,126.396 208.800 C 125.913 208.800,123.472 207.162,123.267 206.700 C 123.193 206.535,122.873 206.400,122.554 206.400 C 122.236 206.400,121.878 206.146,121.759 205.836 C 121.639 205.526,121.105 205.163,120.571 205.028 C 120.037 204.894,119.600 204.608,119.600 204.392 C 119.600 204.177,119.324 204.000,118.987 204.000 C 118.651 204.000,118.271 203.730,118.145 203.400 C 118.018 203.070,117.766 202.800,117.585 202.800 C 117.405 202.800,116.173 202.080,114.848 201.200 C 113.523 200.320,112.250 199.600,112.019 199.600 C 111.789 199.600,111.600 199.420,111.600 199.200 C 111.600 198.980,111.358 198.800,111.061 198.800 C 110.587 198.800,110.045 198.434,108.117 196.807 C 107.851 196.583,107.441 196.400,107.204 196.400 C 106.968 196.400,106.678 196.146,106.559 195.836 C 106.439 195.526,105.905 195.163,105.371 195.028 C 104.837 194.894,104.400 194.608,104.400 194.392 C 104.400 194.177,104.124 194.000,103.787 194.000 C 103.451 194.000,103.072 193.731,102.946 193.402 C 102.819 193.074,102.575 192.892,102.403 192.998 C 102.231 193.104,101.868 192.923,101.596 192.596 C 101.324 192.268,100.854 192.000,100.551 192.000 C 100.248 192.000,100.000 191.823,100.000 191.608 C 100.000 191.392,99.563 191.106,99.029 190.972 C 98.495 190.837,97.961 190.474,97.841 190.164 C 97.722 189.854,97.349 189.600,97.013 189.600 C 96.676 189.600,96.400 189.423,96.400 189.208 C 96.400 188.992,95.963 188.706,95.429 188.572 C 94.895 188.437,94.361 188.074,94.241 187.764 C 94.122 187.454,93.769 187.200,93.455 187.200 C 93.142 187.200,92.782 186.930,92.655 186.600 C 92.529 186.270,92.149 186.000,91.813 186.000 C 91.476 186.000,91.200 185.838,91.200 185.639 C 91.200 185.441,90.660 185.090,90.000 184.860 C 89.340 184.630,88.800 184.272,88.800 184.064 C 88.800 183.857,88.350 183.574,87.800 183.436 C 87.250 183.298,86.800 183.008,86.800 182.792 C 86.800 182.577,86.524 182.400,86.187 182.400 C 85.851 182.400,85.471 182.130,85.345 181.800 C 85.218 181.470,84.858 181.200,84.545 181.200 C 84.231 181.200,83.867 180.920,83.736 180.577 C 83.604 180.234,83.278 180.038,83.010 180.141 C 82.743 180.243,82.276 179.984,81.974 179.564 C 81.671 179.144,81.202 178.800,80.932 178.800 C 80.661 178.800,80.296 178.575,80.120 178.300 C 79.944 178.025,79.170 177.486,78.400 177.102 C 76.402 176.107,75.447 175.473,75.080 174.900 C 74.904 174.625,74.565 174.400,74.326 174.400 C 74.087 174.400,73.494 173.971,73.008 173.447 C 72.522 172.923,71.737 172.370,71.262 172.220 C 70.788 172.069,70.400 171.778,70.400 171.573 C 70.400 171.368,70.124 171.200,69.787 171.200 C 69.451 171.200,69.071 170.930,68.945 170.600 C 68.818 170.270,68.486 170.000,68.206 170.000 C 67.927 170.000,67.467 169.722,67.185 169.382 C 66.903 169.042,66.391 168.871,66.048 169.003 C 65.705 169.135,65.553 169.114,65.710 168.957 C 65.967 168.700,63.583 166.800,63.004 166.800 C 62.756 166.800,62.688 166.748,60.400 164.800 C 59.630 164.144,58.685 163.504,58.300 163.377 C 57.915 163.250,57.600 162.978,57.600 162.773 C 57.600 162.568,57.324 162.400,56.987 162.400 C 56.651 162.400,56.274 162.137,56.150 161.815 C 56.027 161.494,55.586 161.122,55.170 160.990 C 52.419 160.117,49.787 154.520,51.600 153.400 C 52.094 153.095,52.145 142.800,51.653 142.800 C 51.462 142.800,51.211 142.093,51.095 141.230 C 50.856 139.450,49.611 136.400,49.123 136.400 C 48.945 136.400,48.800 136.128,48.800 135.796 C 48.800 135.464,48.449 134.892,48.020 134.525 C 47.592 134.158,47.327 133.718,47.432 133.549 C 47.537 133.379,47.257 133.045,46.811 132.806 C 46.365 132.567,45.992 132.063,45.982 131.686 C 45.971 131.309,45.566 130.687,45.082 130.304 C 44.597 129.921,43.660 129.156,43.000 128.604 C 42.340 128.052,41.575 127.601,41.300 127.600 C 41.025 127.600,40.800 127.432,40.800 127.227 C 40.800 127.022,40.395 126.728,39.900 126.573 C 39.405 126.419,38.910 126.181,38.800 126.046 C 38.402 125.557,35.771 124.397,34.500 124.151 C 33.785 124.013,33.200 123.761,33.200 123.590 C 33.200 122.907,18.888 122.820,18.454 123.500 C 18.314 123.720,17.615 124.026,16.900 124.182 C 16.185 124.337,15.600 124.629,15.600 124.832 C 15.600 125.034,15.178 125.200,14.661 125.200 C 14.145 125.200,13.307 125.560,12.800 126.000 C 12.293 126.440,11.635 126.800,11.339 126.800 C 11.042 126.800,10.800 126.986,10.800 127.213 C 10.800 127.439,10.493 127.743,10.118 127.887 C 8.706 128.429,5.418 131.625,4.550 133.300 C 4.236 133.905,3.818 134.400,3.622 134.400 C 3.425 134.400,3.145 134.940,3.000 135.600 C 2.855 136.260,2.585 136.800,2.400 136.800 C 2.215 136.800,1.937 137.385,1.782 138.100 C 1.626 138.815,1.349 139.497,1.164 139.615 C 0.418 140.092,-0.128 148.882,0.345 152.800 C 0.597 154.890,0.814 156.915,0.826 157.300 C 0.839 157.685,0.998 158.000,1.180 158.000 C 1.362 158.000,1.629 158.630,1.774 159.400 C 1.918 160.170,2.194 160.800,2.386 160.800 C 2.579 160.800,2.852 161.325,2.993 161.967 C 3.134 162.608,3.508 163.233,3.824 163.354 C 4.141 163.476,4.400 163.787,4.400 164.045 C 4.400 164.647,9.746 170.000,10.348 170.000 C 10.596 170.000,10.800 170.139,10.800 170.308 C 10.800 170.478,11.655 171.063,12.700 171.608 C 13.745 172.154,14.658 172.729,14.729 172.887 C 14.800 173.045,15.520 173.296,16.329 173.445 C 17.138 173.594,17.905 173.876,18.033 174.072 C 18.161 174.269,19.871 174.540,21.833 174.675 C 23.795 174.810,25.521 175.107,25.670 175.335 C 25.855 175.619,26.105 175.617,26.470 175.327 C 26.761 175.095,28.492 174.808,30.315 174.690 C 32.138 174.571,33.848 174.298,34.115 174.083 C 34.382 173.868,35.185 173.567,35.900 173.414 C 36.615 173.262,37.200 172.985,37.200 172.800 C 37.200 172.615,37.740 172.345,38.400 172.200 C 39.060 172.055,39.600 171.771,39.600 171.568 C 39.600 171.366,39.861 171.200,40.180 171.200 C 40.499 171.200,40.904 170.975,41.080 170.700 C 42.424 168.600,46.388 167.763,47.297 169.387 C 47.485 169.724,47.901 170.000,48.220 170.000 C 48.539 170.000,48.800 170.177,48.800 170.392 C 48.800 170.608,49.237 170.894,49.771 171.028 C 50.305 171.163,50.839 171.526,50.959 171.836 C 51.078 172.146,51.451 172.400,51.787 172.400 C 52.124 172.400,52.400 172.577,52.400 172.792 C 52.400 173.008,52.837 173.294,53.371 173.428 C 53.905 173.563,54.439 173.926,54.559 174.236 C 54.678 174.546,55.031 174.800,55.345 174.800 C 55.658 174.800,56.022 175.081,56.154 175.425 C 56.286 175.769,56.548 175.956,56.737 175.839 C 56.925 175.723,57.459 175.981,57.923 176.414 C 58.387 176.846,58.960 177.200,59.196 177.200 C 59.432 177.200,59.729 177.470,59.855 177.800 C 59.982 178.130,60.309 178.400,60.582 178.400 C 61.018 178.400,61.567 178.777,63.483 180.393 C 63.749 180.617,64.051 180.800,64.155 180.800 C 64.259 180.800,65.427 181.520,66.752 182.400 C 68.077 183.280,69.267 184.000,69.397 184.000 C 69.527 184.000,69.851 184.183,70.117 184.407 C 72.033 186.023,72.582 186.400,73.018 186.400 C 73.291 186.400,73.618 186.670,73.745 187.000 C 73.871 187.330,74.251 187.600,74.587 187.600 C 74.924 187.600,75.200 187.777,75.200 187.992 C 75.200 188.208,75.637 188.494,76.171 188.628 C 76.705 188.763,77.239 189.126,77.359 189.436 C 77.478 189.746,77.836 190.000,78.154 190.000 C 78.473 190.000,78.793 190.135,78.867 190.300 C 79.072 190.762,81.513 192.400,81.996 192.400 C 82.232 192.400,82.522 192.654,82.641 192.964 C 82.761 193.274,83.295 193.637,83.829 193.772 C 84.363 193.906,84.800 194.192,84.800 194.408 C 84.800 194.623,85.076 194.800,85.413 194.800 C 85.749 194.800,86.129 195.070,86.255 195.400 C 86.382 195.730,86.709 196.000,86.982 196.000 C 87.254 196.000,87.910 196.357,88.439 196.793 C 90.078 198.144,91.011 198.743,93.484 200.030 C 94.191 200.397,94.656 200.811,94.518 200.949 C 94.289 201.178,94.984 201.357,95.688 201.251 C 95.846 201.227,96.168 201.566,96.402 202.004 C 96.636 202.442,97.092 202.800,97.414 202.800 C 97.736 202.800,98.000 202.968,98.000 203.173 C 98.000 203.378,98.388 203.669,98.862 203.820 C 99.337 203.970,100.122 204.523,100.608 205.047 C 101.094 205.571,101.702 206.000,101.958 206.000 C 102.215 206.000,102.529 206.270,102.655 206.600 C 102.782 206.930,103.102 207.200,103.367 207.200 C 103.632 207.200,104.236 207.560,104.708 208.000 C 105.180 208.440,105.714 208.800,105.894 208.800 C 106.302 208.800,107.600 210.286,107.600 210.752 C 107.600 210.941,106.968 211.198,106.196 211.323 C 105.424 211.448,104.511 211.832,104.167 212.176 C 103.824 212.519,103.121 212.800,102.605 212.800 C 102.089 212.800,101.597 213.009,101.512 213.263 C 101.427 213.518,100.925 213.793,100.396 213.873 C 99.867 213.954,99.337 214.151,99.217 214.310 C 98.775 214.901,97.155 215.619,96.784 215.390 C 96.573 215.260,96.400 215.320,96.400 215.524 C 96.400 215.729,95.590 216.123,94.600 216.400 C 93.610 216.677,92.800 217.041,92.800 217.207 C 92.800 217.374,92.170 217.629,91.400 217.774 C 90.630 217.918,90.000 218.194,90.000 218.386 C 90.000 218.579,89.460 218.855,88.800 219.000 C 88.140 219.145,87.600 219.409,87.600 219.587 C 87.600 219.765,86.965 220.030,86.189 220.176 C 85.413 220.321,84.876 220.600,84.997 220.795 C 85.117 220.989,84.402 221.271,83.408 221.420 C 82.413 221.569,81.600 221.836,81.600 222.014 C 81.600 222.191,81.060 222.455,80.400 222.600 C 79.740 222.745,79.200 223.017,79.200 223.205 C 79.200 223.609,77.616 224.198,76.900 224.061 C 76.625 224.008,76.400 224.153,76.400 224.382 C 76.400 224.612,76.232 224.800,76.026 224.800 C 75.820 224.800,75.145 225.009,74.526 225.265 C 73.907 225.520,73.265 225.700,73.100 225.665 C 72.935 225.629,72.800 225.780,72.800 226.000 C 72.800 226.220,72.529 226.400,72.199 226.400 C 71.868 226.400,70.925 226.760,70.104 227.200 C 69.284 227.640,68.384 228.000,68.106 228.000 C 67.828 228.000,67.600 228.160,67.600 228.355 C 67.600 228.551,66.970 228.829,66.200 228.974 C 65.430 229.118,64.800 229.400,64.800 229.600 C 64.800 229.800,64.170 230.082,63.400 230.226 C 62.630 230.371,62.000 230.635,62.000 230.813 C 62.000 230.991,61.460 231.255,60.800 231.400 C 60.140 231.545,59.600 231.821,59.600 232.014 C 59.600 232.206,58.927 232.490,58.103 232.645 C 57.280 232.799,55.810 233.349,54.836 233.867 C 53.862 234.385,52.376 235.015,51.533 235.267 C 50.690 235.520,50.000 235.878,50.000 236.063 C 50.000 237.093,47.841 236.248,46.262 234.600 C 45.313 233.610,44.366 232.800,44.157 232.800 C 43.949 232.800,43.470 232.440,43.093 232.000 C 42.716 231.560,42.155 231.200,41.847 231.200 C 41.538 231.200,41.182 230.930,41.055 230.600 C 40.929 230.270,40.549 230.000,40.213 230.000 C 39.876 230.000,39.600 229.834,39.600 229.632 C 39.600 229.429,39.060 229.145,38.400 229.000 C 37.740 228.855,37.200 228.585,37.200 228.400 C 37.200 228.215,36.615 227.938,35.900 227.786 C 35.185 227.633,34.376 227.327,34.102 227.107 C 33.829 226.886,33.159 226.791,32.614 226.895 C 32.031 227.007,31.723 226.924,31.865 226.695 C 32.019 226.446,29.630 226.362,25.232 226.463 C 20.703 226.567,18.263 226.775,18.078 227.074 C 17.924 227.323,17.124 227.653,16.299 227.808 C 15.475 227.962,14.800 228.249,14.800 228.445 C 14.800 228.640,14.558 228.800,14.261 228.800 C 13.965 228.800,13.307 229.160,12.800 229.600 C 12.293 230.040,11.654 230.400,11.382 230.400 C 11.109 230.400,10.782 230.670,10.655 231.000 C 10.529 231.330,10.237 231.600,10.007 231.600 C 9.388 231.600,5.600 235.281,5.600 235.883 C 5.600 236.167,5.416 236.400,5.191 236.400 C 4.967 236.400,4.565 236.895,4.300 237.500 C 4.034 238.105,3.722 238.690,3.608 238.800 C 3.224 239.168,1.600 242.682,1.600 243.144 C 1.600 243.395,1.420 243.600,1.200 243.600 C 0.980 243.600,0.800 243.791,0.800 244.024 C 0.800 244.257,0.999 244.324,1.241 244.174 C 1.484 244.024,1.398 244.337,1.049 244.869 C -0.205 246.783,-0.129 259.946,1.141 260.775 C 1.330 260.899,1.609 261.675,1.760 262.500 C 1.912 263.325,2.208 264.000,2.418 264.000 C 2.628 264.000,2.800 264.276,2.800 264.613 C 2.800 264.949,3.054 265.322,3.364 265.441 C 3.674 265.561,4.047 266.133,4.193 266.713 C 4.492 267.905,10.079 273.600,10.949 273.600 C 11.260 273.600,11.618 273.870,11.745 274.200 C 11.871 274.530,12.251 274.800,12.587 274.800 C 12.924 274.800,13.200 274.966,13.200 275.168 C 13.200 275.371,13.740 275.655,14.400 275.800 C 15.060 275.945,15.600 276.215,15.600 276.400 C 15.600 276.585,16.185 276.863,16.900 277.018 C 17.615 277.174,18.328 277.503,18.485 277.750 C 18.884 278.379,33.116 278.377,33.514 277.749 C 33.671 277.501,34.565 277.170,35.500 277.014 C 36.435 276.858,37.200 276.580,37.200 276.397 C 37.200 276.213,37.725 275.948,38.367 275.807 C 39.008 275.666,39.633 275.292,39.754 274.976 C 39.876 274.659,40.251 274.400,40.587 274.400 C 40.924 274.400,41.200 274.232,41.200 274.027 C 41.200 273.822,41.572 273.536,42.027 273.392 C 43.099 273.051,47.051 269.099,47.392 268.027 C 47.536 267.572,47.822 267.200,48.027 267.200 C 48.232 267.200,48.400 266.924,48.400 266.587 C 48.400 266.251,48.659 265.876,48.976 265.754 C 49.292 265.633,49.666 265.008,49.807 264.367 C 49.948 263.725,50.229 263.200,50.432 263.200 C 50.634 263.200,50.801 262.885,50.802 262.500 C 50.804 262.115,51.106 261.260,51.475 260.600 C 52.000 259.658,52.181 258.000,52.313 252.900 C 52.449 247.682,52.592 246.400,53.041 246.400 C 53.348 246.400,53.600 246.240,53.600 246.045 C 53.600 245.849,54.230 245.571,55.000 245.426 C 55.770 245.282,56.400 245.015,56.400 244.833 C 56.400 244.651,57.120 244.387,58.000 244.246 C 58.880 244.106,59.600 243.821,59.600 243.613 C 59.600 243.406,60.230 243.118,61.000 242.974 C 61.770 242.829,62.400 242.565,62.400 242.387 C 62.400 242.209,62.940 241.945,63.600 241.800 C 64.260 241.655,64.800 241.389,64.800 241.208 C 64.800 241.028,65.700 240.664,66.800 240.400 C 67.900 240.136,68.800 239.766,68.800 239.578 C 68.800 239.390,69.430 239.118,70.200 238.974 C 70.970 238.829,71.600 238.565,71.600 238.387 C 71.600 238.209,72.140 237.945,72.800 237.800 C 73.460 237.655,74.000 237.379,74.000 237.186 C 74.000 236.994,74.630 236.718,75.400 236.574 C 76.170 236.429,76.800 236.165,76.800 235.987 C 76.800 235.809,77.340 235.545,78.000 235.400 C 78.660 235.255,79.200 234.973,79.200 234.773 C 79.200 234.573,79.920 234.294,80.800 234.154 C 81.680 234.013,82.400 233.769,82.400 233.612 C 82.400 233.455,83.120 233.111,84.000 232.847 C 84.880 232.584,85.600 232.218,85.600 232.035 C 85.600 231.852,86.320 231.587,87.200 231.446 C 88.080 231.306,88.800 231.027,88.800 230.827 C 88.800 230.627,89.340 230.345,90.000 230.200 C 90.660 230.055,91.200 229.791,91.200 229.613 C 91.200 229.435,91.830 229.171,92.600 229.026 C 93.370 228.882,94.000 228.606,94.000 228.414 C 94.000 228.221,94.540 227.945,95.200 227.800 C 95.860 227.655,96.400 227.391,96.400 227.213 C 96.400 227.035,97.030 226.771,97.800 226.626 C 98.570 226.482,99.200 226.200,99.200 226.000 C 99.200 225.800,99.830 225.518,100.600 225.374 C 101.370 225.229,102.000 224.974,102.000 224.807 C 102.000 224.641,102.810 224.277,103.800 224.000 C 104.790 223.723,105.600 223.339,105.600 223.148 C 105.600 222.957,105.977 222.800,106.438 222.800 C 107.263 222.800,109.686 221.646,109.919 221.142 C 109.985 221.001,110.390 220.977,110.819 221.089 C 111.249 221.201,111.600 221.107,111.600 220.878 C 111.600 220.650,112.140 220.345,112.800 220.200 C 113.460 220.055,114.000 219.791,114.000 219.613 C 114.000 219.435,114.617 219.173,115.371 219.032 C 116.125 218.890,116.800 218.615,116.871 218.421 C 117.182 217.567,119.802 217.534,120.769 218.373 C 121.293 218.828,121.946 219.200,122.218 219.200 C 122.491 219.200,122.818 219.470,122.945 219.800 C 123.071 220.130,123.451 220.400,123.787 220.400 C 124.124 220.400,124.400 220.560,124.400 220.757 C 124.400 220.953,124.850 221.226,125.400 221.364 C 125.950 221.502,126.400 221.792,126.400 222.008 C 126.400 222.223,126.592 222.400,126.827 222.400 C 127.061 222.400,127.843 222.850,128.564 223.400 C 129.286 223.950,130.084 224.400,130.338 224.400 C 130.592 224.400,130.800 224.577,130.800 224.792 C 130.800 225.008,131.250 225.298,131.800 225.436 C 132.350 225.574,132.800 225.847,132.800 226.043 C 132.800 226.240,133.076 226.400,133.413 226.400 C 133.749 226.400,134.129 226.670,134.255 227.000 C 134.382 227.330,134.654 227.600,134.859 227.600 C 135.301 227.600,137.741 229.267,137.933 229.700 C 138.007 229.865,138.239 230.000,138.450 230.000 C 138.781 230.000,141.028 231.427,141.600 232.001 C 141.710 232.111,142.340 232.471,143.000 232.800 C 143.660 233.129,144.344 233.624,144.520 233.899 C 144.696 234.175,145.101 234.400,145.420 234.400 C 145.739 234.400,146.000 234.577,146.000 234.792 C 146.000 235.008,146.437 235.294,146.971 235.428 C 147.505 235.563,148.039 235.926,148.159 236.236 C 148.278 236.546,148.636 236.800,148.954 236.800 C 149.273 236.800,149.593 236.935,149.667 237.100 C 149.869 237.555,152.310 239.200,152.784 239.200 C 153.013 239.200,153.200 239.389,153.200 239.621 C 153.200 239.852,153.740 240.230,154.400 240.460 C 155.060 240.690,155.600 241.041,155.600 241.239 C 155.600 241.438,155.876 241.600,156.213 241.600 C 156.549 241.600,156.922 241.854,157.041 242.164 C 157.161 242.474,157.695 242.837,158.229 242.972 C 158.763 243.106,159.200 243.392,159.200 243.608 C 159.200 243.823,159.476 244.000,159.813 244.000 C 160.149 244.000,160.524 244.259,160.646 244.576 C 160.767 244.892,161.377 245.263,162.000 245.400 C 162.623 245.537,163.233 245.908,163.354 246.224 C 163.476 246.541,163.851 246.800,164.187 246.800 C 164.524 246.800,164.800 246.977,164.800 247.192 C 164.800 247.408,165.250 247.698,165.800 247.836 C 166.350 247.974,166.800 248.252,166.800 248.453 C 166.800 248.655,167.250 248.991,167.800 249.200 C 168.350 249.409,168.800 249.745,168.800 249.947 C 168.800 250.148,169.250 250.426,169.800 250.564 C 170.350 250.702,170.800 250.992,170.800 251.208 C 170.800 251.423,171.076 251.600,171.413 251.600 C 171.749 251.600,172.129 251.870,172.255 252.200 C 172.382 252.530,172.736 252.800,173.043 252.800 C 173.485 252.800,173.600 253.706,173.600 257.200 C 173.600 259.620,173.757 261.600,173.948 261.600 C 174.140 261.600,174.416 262.500,174.562 263.600 C 174.708 264.700,175.001 265.600,175.214 265.600 C 175.426 265.600,175.606 265.825,175.613 266.100 C 175.629 266.764,177.244 270.034,178.000 270.935 C 179.831 273.116,183.934 277.200,184.294 277.200 C 184.525 277.200,184.818 277.470,184.945 277.800 C 185.071 278.130,185.451 278.400,185.787 278.400 C 186.124 278.400,186.400 278.566,186.400 278.768 C 186.400 278.971,186.940 279.255,187.600 279.400 C 188.260 279.545,188.800 279.821,188.800 280.014 C 188.800 280.206,189.475 280.485,190.300 280.634 C 191.125 280.783,191.980 281.036,192.200 281.197 C 192.420 281.358,193.095 281.608,193.700 281.752 L 194.800 282.015 194.800 325.008 L 194.800 368.000 174.384 368.000 L 153.968 368.000 152.378 369.700 C 150.101 372.135,149.734 375.063,151.484 376.836 C 151.878 377.235,152.432 377.840,152.716 378.181 C 153.340 378.930,230.539 379.146,231.000 378.400 C 231.151 378.155,234.317 378.000,239.162 378.000 C 248.661 378.000,248.610 378.021,248.763 374.043 C 248.817 372.636,248.712 371.376,248.531 371.243 C 248.349 371.109,248.003 370.644,247.762 370.209 C 247.254 369.290,246.083 368.896,243.700 368.840 C 242.765 368.818,242.000 368.627,242.000 368.415 C 242.000 368.186,240.177 368.064,237.500 368.115 C 235.025 368.162,226.745 368.155,219.100 368.100 L 205.200 368.000 205.200 325.800 C 205.200 297.933,205.336 283.600,205.600 283.600 C 205.820 283.600,206.000 283.150,206.000 282.600 C 206.000 281.867,206.213 281.600,206.800 281.600 C 207.240 281.600,207.600 281.420,207.600 281.200 C 207.600 280.980,207.971 280.800,208.424 280.800 C 208.877 280.800,209.146 280.637,209.023 280.437 C 208.900 280.238,209.159 280.169,209.599 280.284 C 210.040 280.399,210.400 280.307,210.400 280.078 C 210.400 279.850,210.940 279.545,211.600 279.400 C 212.260 279.255,212.800 278.971,212.800 278.768 C 212.800 278.566,212.987 278.400,213.216 278.400 C 213.744 278.400,216.096 276.762,216.520 276.100 C 216.696 275.825,217.056 275.596,217.320 275.592 C 217.584 275.587,218.340 274.953,219.000 274.183 C 219.660 273.413,220.686 272.270,221.280 271.643 C 221.873 271.016,222.478 270.029,222.623 269.451 C 222.768 268.873,223.024 268.400,223.191 268.400 C 223.359 268.400,223.731 267.545,224.018 266.500 C 224.306 265.455,224.684 264.502,224.860 264.383 C 225.035 264.263,225.300 262.868,225.447 261.283 C 225.594 259.697,225.869 258.400,226.057 258.400 C 226.246 258.400,226.400 257.140,226.400 255.600 C 226.400 253.473,226.534 252.800,226.957 252.800 C 227.264 252.800,227.618 252.530,227.745 252.200 C 227.871 251.870,228.236 251.600,228.554 251.600 C 228.873 251.600,229.193 251.465,229.267 251.300 C 229.469 250.845,231.910 249.200,232.384 249.200 C 232.613 249.200,232.800 249.011,232.800 248.779 C 232.800 248.548,233.340 248.170,234.000 247.940 C 234.660 247.710,235.200 247.359,235.200 247.161 C 235.200 246.962,235.476 246.800,235.813 246.800 C 236.149 246.800,236.529 246.530,236.655 246.200 C 236.782 245.870,237.109 245.600,237.382 245.600 C 237.818 245.600,238.367 245.223,240.283 243.607 C 240.549 243.383,240.914 243.200,241.094 243.200 C 241.275 243.200,241.730 242.840,242.107 242.400 C 242.484 241.960,243.064 241.600,243.396 241.600 C 243.728 241.600,244.000 241.420,244.000 241.200 C 244.000 240.980,244.184 240.800,244.409 240.800 C 244.851 240.800,247.870 238.914,248.729 238.101 C 249.019 237.825,249.495 237.600,249.786 237.600 C 250.077 237.600,250.418 237.330,250.545 237.000 C 250.671 236.670,251.051 236.400,251.387 236.400 C 251.724 236.400,252.000 236.223,252.000 236.008 C 252.000 235.792,252.437 235.506,252.971 235.372 C 253.505 235.237,254.039 234.874,254.159 234.564 C 254.278 234.254,254.651 234.000,254.987 234.000 C 255.324 234.000,255.600 233.842,255.600 233.649 C 255.600 233.455,256.140 233.073,256.800 232.800 C 257.460 232.527,258.000 232.145,258.000 231.951 C 258.000 231.758,258.276 231.600,258.613 231.600 C 258.949 231.600,259.322 231.346,259.441 231.036 C 259.561 230.726,260.095 230.363,260.629 230.228 C 261.163 230.094,261.600 229.808,261.600 229.592 C 261.600 229.377,261.876 229.200,262.213 229.200 C 262.549 229.200,262.929 228.930,263.055 228.600 C 263.182 228.270,263.509 228.000,263.782 228.000 C 264.226 228.000,264.909 227.525,266.790 225.907 C 267.115 225.628,267.526 225.400,267.705 225.400 C 267.883 225.400,268.158 225.220,268.315 225.000 C 268.472 224.780,269.230 224.286,270.000 223.902 C 271.998 222.907,272.953 222.273,273.320 221.700 C 273.496 221.425,273.901 221.200,274.220 221.200 C 274.539 221.200,274.800 221.023,274.800 220.808 C 274.800 220.592,275.237 220.306,275.771 220.172 C 276.305 220.037,276.839 219.674,276.959 219.364 C 277.078 219.054,277.451 218.800,277.787 218.800 C 278.124 218.800,278.400 218.620,278.400 218.400 C 278.400 218.180,278.633 218.000,278.919 218.000 C 279.204 218.000,279.789 217.730,280.219 217.400 C 281.721 216.246,284.038 214.800,284.384 214.800 C 284.576 214.800,284.793 214.665,284.867 214.500 C 285.069 214.045,287.510 212.400,287.984 212.400 C 288.213 212.400,288.400 212.220,288.400 212.000 C 288.400 211.780,288.676 211.600,289.013 211.600 C 289.349 211.600,289.729 211.330,289.855 211.000 C 289.982 210.670,290.323 210.400,290.614 210.400 C 290.905 210.400,291.458 210.085,291.843 209.700 C 292.228 209.315,292.697 209.000,292.886 209.000 C 293.075 209.000,293.358 208.794,293.515 208.541 C 294.095 207.608,295.505 207.783,296.560 208.921 C 297.132 209.537,297.600 209.899,297.600 209.725 C 297.600 209.551,298.057 209.901,298.616 210.504 C 299.175 211.107,299.850 211.608,300.116 211.617 C 300.382 211.626,301.042 212.166,301.581 212.817 C 302.121 213.468,302.796 214.000,303.081 214.000 C 303.367 214.000,303.604 214.135,303.609 214.300 C 303.614 214.465,304.423 215.140,305.408 215.800 C 306.393 216.460,307.199 217.135,307.199 217.300 C 307.200 217.465,307.461 217.600,307.780 217.600 C 308.099 217.600,308.518 217.881,308.710 218.225 C 308.902 218.569,309.334 218.891,309.670 218.940 C 310.005 218.989,310.733 219.518,311.286 220.115 C 311.839 220.712,312.487 221.200,312.726 221.200 C 312.965 221.200,313.304 221.435,313.480 221.722 C 313.656 222.009,314.520 222.774,315.400 223.422 C 316.280 224.070,317.060 224.735,317.133 224.900 C 317.207 225.065,317.527 225.200,317.846 225.200 C 318.164 225.200,318.526 225.463,318.650 225.785 C 318.773 226.106,319.255 226.490,319.720 226.638 C 320.185 226.786,321.018 227.423,321.572 228.053 C 322.125 228.684,322.793 229.200,323.056 229.200 C 323.318 229.200,323.593 229.359,323.667 229.554 C 323.834 230.000,327.499 232.800,327.914 232.800 C 328.083 232.800,328.675 233.316,329.228 233.947 C 329.782 234.577,330.615 235.214,331.080 235.362 C 331.545 235.510,332.027 235.894,332.150 236.215 C 332.274 236.537,332.569 236.800,332.807 236.800 C 333.044 236.800,333.655 237.250,334.165 237.800 C 334.675 238.350,335.256 238.800,335.457 238.800 C 335.658 238.800,336.130 239.160,336.507 239.600 C 336.884 240.040,337.421 240.400,337.700 240.400 C 337.980 240.400,338.655 240.940,339.200 241.600 C 339.745 242.260,340.390 242.800,340.634 242.800 C 340.877 242.800,341.402 243.160,341.800 243.600 C 342.198 244.040,342.685 244.400,342.881 244.400 C 343.078 244.400,343.655 244.850,344.165 245.400 C 344.675 245.950,345.256 246.400,345.457 246.400 C 346.302 246.400,347.316 248.122,346.881 248.818 C 346.647 249.194,346.326 250.199,346.170 251.051 C 346.013 251.903,345.716 252.710,345.509 252.844 C 345.303 252.978,345.034 254.193,344.912 255.544 C 344.789 256.895,344.534 258.000,344.344 258.000 C 344.155 258.000,344.000 259.440,344.000 261.200 C 344.000 262.960,344.154 264.400,344.343 264.400 C 344.531 264.400,344.806 265.705,344.954 267.300 C 345.101 268.895,345.391 270.258,345.598 270.329 C 345.805 270.400,346.090 271.075,346.232 271.829 C 346.373 272.583,346.649 273.200,346.845 273.200 C 347.040 273.200,347.200 273.476,347.200 273.813 C 347.200 274.149,347.480 274.533,347.823 274.664 C 348.166 274.796,348.348 275.159,348.228 275.472 C 348.107 275.785,348.149 275.955,348.320 275.850 C 348.491 275.744,348.854 276.163,349.127 276.780 C 349.782 278.260,353.897 282.400,354.714 282.400 C 354.934 282.400,355.218 282.670,355.345 283.000 C 355.471 283.330,355.851 283.600,356.187 283.600 C 356.524 283.600,356.800 283.777,356.800 283.992 C 356.800 284.208,357.250 284.498,357.800 284.636 C 358.350 284.774,358.800 285.027,358.800 285.199 C 358.800 285.371,359.417 285.627,360.171 285.768 C 360.925 285.910,361.602 286.205,361.675 286.425 C 361.748 286.645,363.382 286.936,365.304 287.072 C 367.227 287.208,368.800 287.472,368.800 287.659 C 368.800 287.847,369.520 288.000,370.400 288.000 C 371.280 288.000,372.000 287.847,372.000 287.659 C 372.000 287.472,373.573 287.208,375.496 287.072 C 377.418 286.936,379.052 286.645,379.125 286.425 C 379.198 286.205,379.875 285.910,380.629 285.768 C 381.383 285.627,382.000 285.371,382.000 285.199 C 382.000 285.027,382.450 284.774,383.000 284.636 C 383.550 284.498,384.000 284.208,384.000 283.992 C 384.000 283.777,384.276 283.600,384.613 283.600 C 384.949 283.600,385.329 283.330,385.455 283.000 C 385.582 282.670,385.935 282.400,386.240 282.400 C 386.935 282.400,392.000 277.300,392.000 276.601 C 392.000 276.318,392.270 275.982,392.600 275.855 C 392.930 275.729,393.200 275.349,393.200 275.013 C 393.200 274.676,393.360 274.400,393.557 274.400 C 393.753 274.400,394.037 273.907,394.188 273.304 C 394.340 272.701,394.632 272.104,394.837 271.977 C 397.019 270.629,395.885 248.800,393.633 248.800 C 393.443 248.800,393.174 248.350,393.036 247.800 C 392.898 247.250,392.608 246.800,392.392 246.800 C 392.177 246.800,392.000 246.570,392.000 246.289 C 392.000 246.008,391.685 245.485,391.300 245.128 C 390.915 244.771,390.081 243.825,389.447 243.026 C 388.813 242.227,388.217 241.649,388.124 241.743 C 388.030 241.836,387.374 241.316,386.666 240.586 C 385.957 239.857,384.887 239.137,384.289 238.986 C 383.690 238.836,383.200 238.553,383.200 238.357 C 383.200 238.160,382.924 238.000,382.587 238.000 C 382.251 238.000,381.879 237.751,381.763 237.447 C 381.646 237.143,380.802 236.775,379.887 236.628 C 378.972 236.482,378.090 236.146,377.927 235.881 C 377.521 235.225,364.101 235.197,363.686 235.851 C 363.529 236.099,362.635 236.430,361.700 236.586 C 360.765 236.742,360.000 237.020,360.000 237.203 C 360.000 237.387,359.460 237.655,358.800 237.800 C 358.140 237.945,357.600 238.209,357.600 238.387 C 357.600 238.565,356.970 238.829,356.200 238.974 C 355.430 239.118,354.800 239.415,354.800 239.634 C 354.800 240.047,354.020 239.504,352.883 238.300 C 352.520 237.915,352.068 237.600,351.880 237.600 C 351.692 237.600,350.998 237.060,350.338 236.400 C 349.678 235.740,348.972 235.200,348.769 235.200 C 348.566 235.200,348.053 234.885,347.629 234.500 C 346.606 233.572,346.068 233.152,344.400 231.982 C 343.630 231.442,342.856 230.775,342.680 230.500 C 342.504 230.225,342.165 230.000,341.926 230.000 C 341.687 230.000,341.075 229.550,340.565 229.000 C 340.055 228.450,339.403 228.000,339.115 228.000 C 338.828 228.000,338.368 227.640,338.093 227.200 C 337.818 226.760,337.409 226.400,337.183 226.400 C 336.958 226.400,336.265 225.880,335.644 225.245 C 335.023 224.610,334.146 223.973,333.695 223.830 C 333.243 223.687,332.773 223.306,332.650 222.985 C 332.526 222.663,332.231 222.400,331.993 222.400 C 331.756 222.400,331.145 221.950,330.635 221.400 C 330.125 220.850,329.544 220.400,329.343 220.400 C 329.142 220.400,328.670 220.040,328.293 219.600 C 327.916 219.160,327.355 218.800,327.047 218.800 C 326.738 218.800,326.382 218.530,326.255 218.200 C 326.129 217.870,325.786 217.600,325.493 217.600 C 325.201 217.600,324.340 216.976,323.581 216.213 C 322.821 215.450,321.994 214.820,321.743 214.813 C 321.491 214.806,321.178 214.519,321.046 214.175 C 320.914 213.831,320.624 213.661,320.403 213.798 C 320.181 213.935,320.000 213.767,320.000 213.424 C 320.000 213.081,319.724 212.800,319.387 212.800 C 319.051 212.800,318.674 212.537,318.550 212.215 C 318.427 211.894,317.945 211.510,317.480 211.362 C 317.015 211.214,316.182 210.577,315.628 209.947 C 315.075 209.316,314.386 208.800,314.098 208.800 C 313.810 208.800,313.474 208.537,313.350 208.215 C 313.227 207.894,312.755 207.513,312.301 207.368 C 311.847 207.224,311.078 206.677,310.592 206.153 C 310.106 205.629,309.498 205.200,309.242 205.200 C 308.985 205.200,308.674 204.937,308.550 204.615 C 308.427 204.294,307.956 203.913,307.505 203.770 C 305.210 203.041,304.280 200.712,306.000 200.000 C 306.660 199.727,307.200 199.345,307.200 199.151 C 307.200 198.958,307.476 198.800,307.813 198.800 C 308.149 198.800,308.522 198.546,308.641 198.236 C 308.761 197.926,309.295 197.563,309.829 197.428 C 310.363 197.294,310.800 197.008,310.800 196.792 C 310.800 196.577,311.076 196.400,311.413 196.400 C 311.749 196.400,312.129 196.130,312.255 195.800 C 312.382 195.470,312.709 195.200,312.982 195.200 C 313.426 195.200,314.109 194.725,315.990 193.107 C 316.315 192.828,316.675 192.584,316.790 192.565 C 317.224 192.494,318.608 191.849,318.800 191.629 C 319.249 191.115,321.594 189.600,321.941 189.600 C 322.146 189.600,322.418 189.330,322.545 189.000 C 322.671 188.670,323.051 188.400,323.387 188.400 C 323.724 188.400,324.000 188.223,324.000 188.008 C 324.000 187.792,324.437 187.506,324.971 187.372 C 325.505 187.237,326.039 186.874,326.159 186.564 C 326.278 186.254,326.651 186.000,326.987 186.000 C 327.324 186.000,327.600 185.823,327.600 185.608 C 327.600 185.392,328.050 185.102,328.600 184.964 C 329.150 184.826,329.600 184.555,329.600 184.362 C 329.600 184.169,330.185 183.742,330.900 183.413 C 332.184 182.823,333.612 181.988,334.000 181.600 C 334.437 181.163,336.782 179.600,337.001 179.600 C 337.129 179.600,337.451 179.417,337.717 179.193 C 339.645 177.566,340.187 177.200,340.661 177.200 C 340.958 177.200,341.200 177.030,341.200 176.822 C 341.200 176.461,342.356 175.718,344.300 174.831 C 344.795 174.605,345.200 174.235,345.200 174.010 C 345.200 173.784,345.476 173.600,345.813 173.600 C 346.149 173.600,346.522 173.346,346.641 173.036 C 346.761 172.726,347.295 172.363,347.829 172.228 C 348.363 172.094,348.800 171.808,348.800 171.592 C 348.800 171.377,349.076 171.200,349.413 171.200 C 349.749 171.200,350.122 170.946,350.241 170.636 C 350.361 170.326,350.895 169.963,351.429 169.828 C 351.963 169.694,352.400 169.408,352.400 169.192 C 352.400 168.977,352.661 168.800,352.980 168.800 C 353.299 168.800,353.749 168.485,353.980 168.100 C 354.380 167.433,354.420 167.433,354.820 168.100 C 355.051 168.485,355.419 168.800,355.639 168.800 C 355.859 168.800,356.435 169.218,356.919 169.730 C 357.404 170.241,358.115 170.776,358.500 170.917 C 358.885 171.059,359.200 171.346,359.200 171.556 C 359.200 171.765,359.740 172.055,360.400 172.200 C 361.060 172.345,361.600 172.615,361.600 172.800 C 361.600 172.985,362.140 173.255,362.800 173.400 C 363.460 173.545,364.000 173.815,364.000 174.000 C 364.000 174.185,365.173 174.462,366.606 174.615 C 368.039 174.769,369.297 175.033,369.401 175.202 C 369.672 175.640,377.093 175.697,377.360 175.264 C 377.482 175.067,378.846 174.781,380.391 174.628 C 381.936 174.476,383.200 174.202,383.200 174.019 C 383.200 173.836,383.695 173.571,384.300 173.430 C 385.709 173.100,388.000 171.911,388.000 171.509 C 388.000 171.339,388.204 171.200,388.453 171.200 C 388.703 171.200,389.774 170.345,390.834 169.300 C 391.894 168.255,393.400 166.779,394.181 166.019 C 394.961 165.260,395.600 164.399,395.600 164.107 C 395.600 163.814,395.870 163.471,396.200 163.345 C 396.530 163.218,396.800 162.877,396.800 162.586 C 396.800 162.295,397.040 161.818,397.333 161.525 C 397.625 161.232,398.000 160.456,398.164 159.800 C 398.329 159.144,398.674 158.478,398.932 158.319 C 399.613 157.898,399.595 141.132,398.913 140.904 C 398.645 140.815,398.310 140.125,398.168 139.371 C 398.027 138.617,397.780 138.000,397.621 138.000 C 397.461 138.000,396.814 136.965,396.183 135.700 C 395.552 134.435,394.803 133.256,394.518 133.080 C 394.233 132.904,394.000 132.575,394.000 132.349 C 394.000 131.883,390.621 128.400,390.169 128.400 C 390.008 128.400,389.286 127.950,388.564 127.400 C 387.843 126.850,387.061 126.400,386.827 126.400 C 386.592 126.400,386.400 126.222,386.400 126.005 C 386.400 125.787,385.680 125.494,384.800 125.354 C 383.920 125.213,383.200 124.952,383.200 124.773 C 383.200 124.595,382.345 124.335,381.300 124.195 C 380.255 124.055,379.130 123.840,378.800 123.717 C 377.838 123.359,368.000 123.236,368.000 123.582 C 368.000 123.755,367.100 124.016,366.000 124.162 C 364.900 124.308,364.000 124.587,364.000 124.782 C 364.000 124.977,363.460 125.255,362.800 125.400 C 362.140 125.545,361.600 125.829,361.600 126.032 C 361.600 126.234,361.339 126.400,361.020 126.400 C 360.701 126.400,360.264 126.714,360.050 127.097 C 359.835 127.480,359.529 127.663,359.370 127.503 C 359.210 127.344,358.665 127.660,358.159 128.207 C 357.653 128.753,357.118 129.200,356.972 129.200 C 356.604 129.200,353.600 132.235,353.600 132.607 C 353.600 132.773,353.150 133.325,352.600 133.835 C 352.050 134.345,351.600 134.938,351.600 135.152 C 351.600 135.367,351.368 135.781,351.084 136.071 C 350.184 136.994,348.800 139.988,348.800 141.012 C 348.800 141.556,348.616 142.000,348.390 142.000 C 348.165 142.000,347.974 142.675,347.965 143.500 C 347.957 144.325,347.861 147.385,347.753 150.300 C 347.608 154.198,347.680 155.600,348.024 155.600 C 348.293 155.600,348.406 155.934,348.289 156.381 C 348.177 156.810,348.270 157.223,348.496 157.299 C 348.731 157.377,348.635 157.708,348.273 158.070 C 347.924 158.419,347.750 158.816,347.886 158.952 C 348.022 159.089,347.950 159.200,347.725 159.200 C 347.501 159.200,346.831 159.650,346.238 160.200 C 345.644 160.750,344.917 161.200,344.622 161.200 C 344.327 161.200,343.982 161.470,343.855 161.800 C 343.729 162.130,343.349 162.400,343.013 162.400 C 342.676 162.400,342.400 162.568,342.400 162.773 C 342.400 162.978,342.085 163.250,341.700 163.377 C 341.315 163.504,340.370 164.144,339.600 164.800 C 338.830 165.455,337.983 166.173,337.717 166.396 C 337.451 166.618,337.055 166.800,336.837 166.800 C 336.618 166.800,336.296 167.025,336.120 167.300 C 335.944 167.575,334.765 168.334,333.500 168.986 C 332.235 169.638,331.200 170.313,331.200 170.486 C 331.200 170.659,330.936 170.800,330.614 170.800 C 330.292 170.800,329.833 171.165,329.594 171.611 C 329.355 172.057,329.003 172.326,328.812 172.208 C 328.621 172.089,328.193 172.264,327.861 172.596 C 327.529 172.928,327.059 173.200,326.816 173.200 C 326.573 173.200,326.271 173.470,326.145 173.800 C 326.018 174.130,325.700 174.400,325.439 174.400 C 324.950 174.400,323.683 175.262,322.353 176.500 C 321.939 176.885,321.555 177.188,321.500 177.174 C 321.202 177.097,319.727 177.827,319.271 178.278 C 318.981 178.565,318.505 178.800,318.214 178.800 C 317.923 178.800,317.582 179.070,317.455 179.400 C 317.329 179.730,317.032 180.000,316.796 180.000 C 316.559 180.000,316.149 180.183,315.883 180.407 C 313.955 182.034,313.413 182.400,312.939 182.400 C 312.642 182.400,312.400 182.584,312.400 182.810 C 312.400 183.035,311.922 183.402,311.337 183.624 C 310.753 183.846,309.484 184.562,308.517 185.214 C 307.551 185.866,306.608 186.400,306.423 186.400 C 306.237 186.400,305.982 186.670,305.855 187.000 C 305.729 187.330,305.349 187.600,305.013 187.600 C 304.676 187.600,304.400 187.777,304.400 187.992 C 304.400 188.208,303.963 188.494,303.429 188.628 C 302.895 188.763,302.361 189.126,302.241 189.436 C 302.122 189.746,301.789 190.000,301.501 190.000 C 301.213 190.000,300.724 190.350,300.415 190.779 C 300.107 191.207,299.727 191.479,299.572 191.383 C 299.417 191.287,299.068 191.477,298.796 191.804 C 298.524 192.132,298.048 192.400,297.738 192.400 C 297.429 192.400,297.078 192.654,296.959 192.964 C 296.839 193.274,296.305 193.637,295.771 193.772 C 295.237 193.906,294.800 194.192,294.800 194.408 C 294.800 194.623,294.536 194.800,294.214 194.800 C 293.892 194.800,293.433 195.165,293.194 195.611 C 292.955 196.057,292.612 196.331,292.432 196.220 C 292.142 196.041,291.651 196.362,289.717 197.993 C 289.451 198.217,289.055 198.400,288.837 198.400 C 288.618 198.400,288.296 198.625,288.120 198.900 C 287.944 199.175,287.095 199.760,286.233 200.200 C 283.383 201.654,283.194 201.787,282.968 202.502 C 282.844 202.892,282.574 203.108,282.368 202.980 C 282.162 202.853,281.712 203.030,281.368 203.374 C 281.024 203.719,280.505 204.000,280.214 204.000 C 279.923 204.000,279.582 204.270,279.455 204.600 C 279.329 204.930,279.032 205.200,278.796 205.200 C 278.559 205.200,278.149 205.383,277.883 205.607 C 276.022 207.177,275.433 207.600,275.110 207.600 C 274.908 207.600,274.492 207.825,274.185 208.100 C 272.838 209.309,272.470 209.537,272.243 209.309 C 272.109 209.176,272.000 209.277,272.000 209.533 C 272.000 209.790,271.724 210.000,271.387 210.000 C 271.051 210.000,270.678 210.254,270.559 210.564 C 270.439 210.874,269.905 211.237,269.371 211.372 C 268.837 211.506,268.400 211.792,268.400 212.008 C 268.400 212.223,268.124 212.400,267.787 212.400 C 267.451 212.400,267.071 212.670,266.945 213.000 C 266.818 213.330,266.458 213.600,266.145 213.600 C 265.831 213.600,265.471 213.870,265.345 214.200 C 265.218 214.530,264.877 214.800,264.586 214.800 C 264.295 214.800,263.819 215.025,263.529 215.300 C 263.238 215.575,262.505 216.055,261.900 216.368 C 261.295 216.680,260.800 217.085,260.800 217.268 C 260.800 217.450,260.524 217.600,260.187 217.600 C 259.851 217.600,259.471 217.870,259.345 218.200 C 259.218 218.530,258.858 218.800,258.545 218.800 C 258.231 218.800,257.878 219.054,257.759 219.364 C 257.639 219.674,257.105 220.037,256.571 220.172 C 256.037 220.306,255.600 220.592,255.600 220.808 C 255.600 221.023,255.330 221.200,255.000 221.200 C 254.670 221.200,254.400 221.389,254.400 221.621 C 254.400 221.852,253.860 222.230,253.200 222.460 C 252.540 222.690,252.000 223.041,252.000 223.239 C 252.000 223.438,251.775 223.603,251.500 223.606 C 251.225 223.610,250.394 224.147,249.652 224.801 C 248.911 225.454,248.146 225.890,247.952 225.771 C 247.759 225.651,247.600 225.740,247.600 225.969 C 247.600 226.198,247.163 226.494,246.629 226.628 C 246.095 226.763,245.561 227.126,245.441 227.436 C 245.322 227.746,245.032 228.000,244.796 228.000 C 244.559 228.000,244.149 228.183,243.883 228.407 C 241.967 230.023,241.418 230.400,240.982 230.400 C 240.709 230.400,240.382 230.670,240.255 231.000 C 240.129 231.330,239.749 231.600,239.413 231.600 C 239.076 231.600,238.800 231.777,238.800 231.992 C 238.800 232.208,238.363 232.494,237.829 232.628 C 237.295 232.763,236.761 233.126,236.641 233.436 C 236.522 233.746,236.139 234.000,235.789 234.000 C 235.410 234.000,235.268 234.187,235.438 234.462 C 235.616 234.749,235.548 234.815,235.259 234.636 C 235.003 234.478,234.531 234.585,234.211 234.874 C 232.871 236.082,232.411 236.400,232.004 236.400 C 231.768 236.400,231.478 236.654,231.359 236.964 C 231.239 237.274,230.705 237.637,230.171 237.772 C 229.637 237.906,229.200 238.192,229.200 238.408 C 229.200 238.623,228.939 238.800,228.620 238.800 C 228.301 238.800,227.896 239.025,227.720 239.301 C 227.544 239.576,226.908 240.055,226.307 240.365 C 225.705 240.674,224.895 241.218,224.507 241.572 C 224.118 241.926,223.605 242.212,223.367 242.208 C 222.864 242.199,220.000 239.253,220.000 238.744 C 220.000 238.267,218.489 236.800,217.997 236.800 C 217.776 236.800,217.191 236.332,216.697 235.761 C 216.204 235.189,215.170 234.378,214.400 233.957 C 212.555 232.948,211.446 232.256,211.200 231.958 C 211.090 231.824,210.325 231.591,209.500 231.440 C 208.675 231.288,208.000 231.012,208.000 230.826 C 208.000 230.641,207.370 230.371,206.600 230.226 L 205.200 229.964 205.200 200.000 L 205.200 170.036 206.596 169.774 C 207.365 169.630,207.901 169.364,207.789 169.182 C 207.676 169.000,208.398 168.729,209.392 168.580 C 210.387 168.431,211.200 168.164,211.200 167.986 C 211.200 167.809,211.752 167.542,212.427 167.394 C 213.102 167.246,213.751 166.872,213.870 166.562 C 213.988 166.253,214.273 166.000,214.501 166.000 C 215.091 166.000,222.400 158.394,222.400 157.780 C 222.400 157.640,222.755 157.075,223.189 156.523 C 223.624 155.970,224.100 154.862,224.247 154.059 C 224.395 153.257,224.714 152.472,224.958 152.315 C 225.236 152.136,225.444 149.981,225.517 146.515 C 225.582 143.482,225.793 140.640,225.986 140.200 C 226.180 139.760,226.440 138.925,226.565 138.344 C 226.715 137.650,227.136 137.202,227.797 137.037 C 228.348 136.898,228.800 136.608,228.800 136.392 C 228.800 136.177,229.076 136.000,229.413 136.000 C 229.749 136.000,230.122 135.746,230.241 135.437 C 230.360 135.127,231.030 134.642,231.729 134.359 C 232.428 134.077,233.090 133.745,233.200 133.623 C 233.676 133.093,236.001 131.600,236.350 131.600 C 236.561 131.600,236.793 131.465,236.867 131.300 C 237.059 130.867,239.499 129.200,239.941 129.200 C 240.146 129.200,240.418 128.930,240.545 128.600 C 240.671 128.270,241.051 128.000,241.387 128.000 C 241.724 128.000,242.000 127.838,242.000 127.639 C 242.000 127.441,242.540 127.090,243.200 126.860 C 243.860 126.630,244.400 126.252,244.400 126.021 C 244.400 125.789,244.642 125.600,244.939 125.600 C 245.235 125.600,245.910 125.243,246.439 124.807 C 246.967 124.371,247.580 123.867,247.800 123.687 C 248.020 123.507,248.515 123.239,248.900 123.092 C 249.285 122.945,249.600 122.639,249.600 122.413 C 249.600 121.765,251.488 121.930,251.745 122.600 C 251.871 122.930,252.251 123.200,252.587 123.200 C 252.924 123.200,253.200 123.377,253.200 123.592 C 253.200 123.808,253.637 124.094,254.171 124.228 C 254.705 124.363,255.239 124.726,255.359 125.036 C 255.478 125.346,255.851 125.600,256.187 125.600 C 256.524 125.600,256.800 125.750,256.800 125.932 C 256.800 126.115,257.294 126.520,257.897 126.832 C 258.500 127.145,259.355 127.773,259.797 128.230 C 260.239 128.686,260.915 129.176,261.300 129.317 C 261.685 129.459,262.000 129.748,262.000 129.960 C 262.000 130.173,262.371 130.464,262.824 130.608 C 265.625 131.497,268.024 135.796,266.310 136.856 C 266.075 137.001,265.998 137.417,266.137 137.780 C 266.277 138.144,266.235 138.345,266.044 138.227 C 265.644 137.980,265.200 139.884,265.200 141.850 C 265.200 142.593,265.020 143.200,264.800 143.200 C 264.560 143.200,264.400 144.800,264.400 147.200 C 264.400 149.400,264.554 151.200,264.743 151.200 C 264.931 151.200,265.206 152.497,265.353 154.083 C 265.500 155.668,265.760 157.063,265.930 157.183 C 266.100 157.302,266.462 158.165,266.736 159.100 C 267.009 160.035,267.405 160.800,267.616 160.800 C 267.827 160.800,268.000 161.076,268.000 161.413 C 268.000 161.749,268.270 162.129,268.600 162.255 C 268.930 162.382,269.200 162.710,269.200 162.984 C 269.200 163.607,271.014 165.600,271.581 165.600 C 271.811 165.600,272.000 165.870,272.000 166.200 C 272.000 166.530,272.135 166.800,272.300 166.800 C 272.598 166.801,274.424 168.217,275.634 169.387 C 275.982 169.724,276.477 170.000,276.734 170.000 C 276.990 170.000,277.200 170.166,277.200 170.368 C 277.200 170.571,277.740 170.855,278.400 171.000 C 279.060 171.145,279.600 171.449,279.600 171.675 C 279.600 171.901,279.870 171.982,280.200 171.855 C 280.530 171.729,280.800 171.799,280.800 172.013 C 280.800 172.226,281.124 172.400,281.520 172.400 C 281.916 172.400,282.465 172.625,282.740 172.900 C 283.406 173.566,298.288 173.619,298.715 172.958 C 298.872 172.714,299.675 172.391,300.500 172.240 C 301.325 172.088,302.000 171.811,302.000 171.625 C 302.000 171.439,302.465 171.170,303.034 171.027 C 304.120 170.755,304.499 170.491,306.382 168.700 C 307.018 168.095,307.687 167.597,307.869 167.593 C 308.290 167.584,309.994 165.799,310.017 165.344 C 310.026 165.155,310.566 164.558,311.217 164.019 C 311.868 163.479,312.400 162.804,312.400 162.519 C 312.400 162.233,312.566 162.000,312.768 162.000 C 312.971 162.000,313.255 161.460,313.400 160.800 C 313.545 160.140,313.806 159.600,313.980 159.600 C 314.154 159.600,314.531 158.745,314.818 157.700 C 315.106 156.655,315.534 155.672,315.770 155.515 C 316.380 155.110,316.361 140.073,315.750 139.685 C 315.503 139.528,315.174 138.815,315.018 138.100 C 314.863 137.385,314.576 136.800,314.381 136.800 C 314.185 136.800,314.129 136.530,314.255 136.200 C 314.382 135.870,314.286 135.600,314.043 135.600 C 313.799 135.600,313.600 135.324,313.600 134.987 C 313.600 134.651,313.346 134.278,313.036 134.159 C 312.726 134.039,312.363 133.505,312.228 132.971 C 312.094 132.437,311.808 132.000,311.592 132.000 C 311.377 132.000,311.200 131.800,311.200 131.557 C 311.200 131.032,307.047 126.800,306.532 126.800 C 306.337 126.800,305.870 126.440,305.493 126.000 C 305.116 125.560,304.536 125.200,304.204 125.200 C 303.872 125.200,303.600 125.040,303.600 124.843 C 303.600 124.647,303.107 124.363,302.504 124.212 C 301.901 124.060,301.297 123.757,301.162 123.538 C 301.026 123.319,300.169 123.039,299.258 122.917 C 298.346 122.795,297.600 122.550,297.600 122.374 C 297.600 121.686,283.729 121.557,283.284 122.241 C 283.128 122.480,282.295 122.788,281.432 122.924 C 280.570 123.060,279.758 123.344,279.628 123.554 C 279.498 123.764,278.912 124.057,278.325 124.204 C 277.738 124.352,277.161 124.726,277.041 125.036 C 276.922 125.346,276.549 125.600,276.213 125.600 C 275.876 125.600,275.600 125.780,275.600 126.000 C 275.600 126.694,274.724 126.435,273.837 125.478 C 273.367 124.971,272.671 124.436,272.291 124.290 C 271.911 124.144,271.600 123.852,271.600 123.640 C 271.600 123.427,271.212 123.131,270.738 122.980 C 270.263 122.830,269.478 122.277,268.992 121.753 C 268.506 121.229,267.913 120.800,267.674 120.800 C 267.435 120.800,267.096 120.571,266.920 120.290 C 266.744 120.010,266.150 119.489,265.600 119.132 C 265.050 118.776,264.240 118.141,263.800 117.722 C 263.360 117.303,262.685 116.839,262.300 116.692 C 261.571 116.414,261.402 115.687,261.906 115.000 C 262.264 114.513,264.675 112.800,265.003 112.800 C 265.132 112.800,265.635 112.392,266.119 111.894 C 266.604 111.396,267.540 110.722,268.200 110.395 C 268.860 110.068,269.490 109.711,269.600 109.601 C 270.164 109.034,272.416 107.600,272.741 107.600 C 272.946 107.600,273.218 107.330,273.345 107.000 C 273.471 106.670,273.851 106.400,274.187 106.400 C 274.524 106.400,274.800 106.223,274.800 106.008 C 274.800 105.792,275.237 105.506,275.771 105.372 C 276.305 105.237,276.839 104.874,276.959 104.564 C 277.078 104.254,277.451 104.000,277.787 104.000 C 278.124 104.000,278.400 103.820,278.400 103.600 C 278.400 103.380,278.657 103.200,278.971 103.200 C 279.286 103.200,279.812 102.931,280.141 102.602 C 281.521 101.222,284.800 101.068,284.800 102.382 C 284.800 102.604,285.250 102.898,285.800 103.036 C 286.350 103.174,286.800 103.433,286.800 103.612 C 286.800 103.790,287.385 104.063,288.100 104.218 C 288.815 104.374,289.507 104.668,289.637 104.873 C 289.768 105.077,290.893 105.350,292.137 105.478 C 293.382 105.607,294.400 105.867,294.400 106.056 C 294.400 106.526,303.439 106.494,304.305 106.020 C 304.687 105.812,305.858 105.530,306.908 105.395 C 307.957 105.259,308.724 105.000,308.611 104.818 C 308.499 104.636,309.035 104.370,309.804 104.226 C 310.572 104.082,311.200 103.806,311.200 103.614 C 311.200 103.421,311.740 103.145,312.400 103.000 C 313.060 102.855,313.600 102.583,313.600 102.395 C 313.600 102.207,313.957 101.941,314.393 101.802 C 315.410 101.479,320.000 96.903,320.000 96.211 C 320.000 95.922,320.270 95.582,320.600 95.455 C 320.930 95.329,321.200 94.949,321.200 94.613 C 321.200 94.276,321.351 94.000,321.536 94.000 C 321.972 94.000,322.800 92.176,322.800 91.215 C 322.800 90.803,322.984 90.405,323.209 90.330 C 323.435 90.255,323.732 89.475,323.871 88.597 C 324.010 87.719,324.321 86.871,324.562 86.714 C 325.182 86.310,325.151 73.264,324.530 72.880 C 324.279 72.725,323.947 71.924,323.792 71.099 C 323.638 70.275,323.374 69.600,323.207 69.600 C 323.041 69.600,322.677 68.790,322.400 67.800 C 322.123 66.810,321.739 66.000,321.548 66.000 C 321.357 66.000,321.200 65.728,321.200 65.396 C 321.200 65.064,320.840 64.484,320.400 64.107 C 319.960 63.730,319.600 63.288,319.600 63.124 C 319.600 62.702,316.846 60.000,316.415 60.000 C 316.218 60.000,315.742 59.685,315.357 59.300 C 314.972 58.915,314.503 58.600,314.314 58.600 C 314.125 58.600,313.842 58.416,313.685 58.191 C 313.220 57.523,311.487 56.548,310.204 56.232 C 309.546 56.069,308.896 55.756,308.760 55.535 C 308.624 55.315,307.407 55.034,306.056 54.912 C 304.705 54.789,303.600 54.579,303.600 54.444 C 303.600 54.050,296.070 54.326,292.700 54.845 C 290.995 55.108,289.600 55.461,289.600 55.629 C 289.600 55.798,289.025 56.063,288.323 56.217 C 287.620 56.371,286.797 56.746,286.494 57.049 C 286.191 57.352,285.705 57.600,285.414 57.600 C 285.123 57.600,284.782 57.870,284.655 58.200 C 284.529 58.530,284.258 58.800,284.055 58.800 C 283.521 58.800,278.000 64.234,278.000 64.759 C 278.000 65.002,277.823 65.200,277.608 65.200 C 277.392 65.200,277.102 65.650,276.964 66.200 C 276.826 66.750,276.566 67.200,276.386 67.200 C 275.923 67.200,274.869 69.427,274.565 71.045 C 274.424 71.795,274.158 72.503,273.972 72.617 C 273.787 72.732,273.736 73.090,273.860 73.413 C 273.984 73.736,273.902 74.000,273.678 74.000 C 273.096 74.000,273.034 85.450,273.615 85.809 C 273.857 85.959,273.960 86.327,273.845 86.628 C 273.729 86.928,273.807 87.281,274.017 87.411 C 274.228 87.541,274.400 88.177,274.400 88.824 C 274.400 89.471,274.535 90.000,274.700 90.000 C 275.061 90.000,275.007 91.935,274.619 92.863 C 274.467 93.228,273.815 93.745,273.171 94.012 C 272.527 94.279,272.000 94.655,272.000 94.849 C 272.000 95.042,271.724 95.200,271.387 95.200 C 271.051 95.200,270.671 95.470,270.545 95.800 C 270.418 96.130,270.091 96.400,269.818 96.400 C 269.374 96.400,268.691 96.875,266.810 98.493 C 266.485 98.772,266.074 99.000,265.895 99.000 C 265.717 99.000,265.442 99.201,265.285 99.446 C 265.128 99.691,264.595 100.019,264.100 100.173 C 263.605 100.328,263.200 100.622,263.200 100.827 C 263.200 101.032,262.939 101.200,262.620 101.200 C 262.301 101.200,261.896 101.443,261.720 101.740 C 261.425 102.237,260.694 102.695,258.000 104.072 C 257.450 104.353,256.856 104.812,256.680 105.092 C 256.504 105.371,256.099 105.600,255.780 105.600 C 255.461 105.600,255.200 105.777,255.200 105.992 C 255.200 106.208,254.763 106.494,254.229 106.628 C 253.695 106.763,253.161 107.126,253.041 107.436 C 252.922 107.746,252.549 108.000,252.213 108.000 C 251.876 108.000,251.600 108.177,251.600 108.392 C 251.600 108.608,251.151 108.897,250.603 109.035 C 250.054 109.173,249.702 109.441,249.819 109.631 C 249.937 109.821,249.588 110.088,249.045 110.224 C 248.502 110.361,247.969 110.703,247.861 110.985 C 247.753 111.266,247.185 111.618,246.598 111.765 C 246.011 111.912,245.322 112.208,245.066 112.424 C 243.134 114.046,242.618 114.400,242.182 114.400 C 241.909 114.400,241.582 114.670,241.455 115.000 C 241.329 115.330,240.989 115.600,240.701 115.600 C 240.413 115.600,239.929 115.944,239.626 116.364 C 239.313 116.798,238.816 117.027,238.472 116.896 C 238.097 116.752,237.971 116.830,238.140 117.103 C 238.295 117.354,238.023 117.664,237.506 117.825 C 237.008 117.981,236.510 118.219,236.400 118.354 C 236.046 118.790,233.822 120.246,233.100 120.514 C 232.715 120.658,232.400 120.941,232.400 121.144 C 232.400 121.347,231.950 121.626,231.400 121.764 C 230.850 121.902,230.400 122.192,230.400 122.408 C 230.400 122.623,230.124 122.800,229.787 122.800 C 229.451 122.800,229.078 123.054,228.959 123.364 C 228.839 123.674,228.305 124.037,227.771 124.172 C 227.237 124.306,226.800 124.592,226.800 124.808 C 226.800 125.023,226.524 125.200,226.187 125.200 C 225.851 125.200,225.471 125.470,225.345 125.800 C 225.218 126.130,224.937 126.400,224.720 126.400 C 224.504 126.400,223.869 126.760,223.309 127.200 C 222.027 128.209,221.371 128.209,220.507 127.200 C 220.130 126.760,219.659 126.400,219.460 126.400 C 219.260 126.400,218.155 125.420,217.004 124.221 C 215.852 123.023,214.449 121.927,213.884 121.785 C 213.320 121.644,212.761 121.274,212.641 120.964 C 212.522 120.654,211.969 120.400,211.413 120.400 C 210.856 120.400,210.400 120.226,210.400 120.013 C 210.400 119.799,210.130 119.729,209.800 119.855 C 209.470 119.982,209.200 119.909,209.200 119.693 C 209.200 119.375,207.482 118.804,206.584 118.824 C 206.467 118.826,206.108 118.565,205.786 118.243 C 205.067 117.525,204.883 72.957,205.600 73.400 C 205.820 73.536,206.000 73.472,206.000 73.259 C 206.000 73.045,206.721 72.749,207.602 72.600 C 208.483 72.451,209.114 72.185,209.005 72.008 C 208.896 71.832,209.435 71.570,210.204 71.426 C 210.972 71.282,211.600 71.006,211.600 70.814 C 211.600 70.621,212.140 70.345,212.800 70.200 C 213.460 70.055,214.000 69.790,214.000 69.612 C 214.000 69.433,214.445 69.175,214.988 69.039 C 215.532 68.902,216.168 68.433,216.403 67.995 C 216.637 67.558,217.000 67.200,217.210 67.200 C 217.727 67.200,219.200 65.910,219.200 65.457 C 219.200 65.256,219.660 64.665,220.223 64.144 C 220.795 63.614,221.120 62.994,220.961 62.736 C 220.785 62.452,220.853 62.385,221.138 62.562 C 221.408 62.728,221.600 62.601,221.600 62.257 C 221.600 61.932,221.743 61.607,221.917 61.533 C 222.562 61.262,223.942 58.550,224.224 57.000 C 224.384 56.120,224.714 55.272,224.958 55.115 C 225.565 54.723,225.569 39.940,224.962 39.161 C 224.721 38.853,224.293 37.745,224.010 36.700 C 223.727 35.655,223.359 34.800,223.191 34.800 C 223.024 34.800,222.783 34.395,222.656 33.900 C 222.529 33.405,221.969 32.513,221.412 31.917 C 220.856 31.322,220.400 30.719,220.400 30.578 C 220.400 29.951,215.297 25.600,214.561 25.600 C 214.300 25.600,213.982 25.330,213.855 25.000 C 213.729 24.670,213.349 24.400,213.013 24.400 C 212.676 24.400,212.400 24.228,212.400 24.018 C 212.400 23.808,211.725 23.512,210.900 23.360 C 210.075 23.209,209.306 22.941,209.191 22.766 C 209.004 22.480,205.873 21.990,200.200 21.358 C 199.100 21.236,197.717 21.321,197.127 21.548 C 196.536 21.775,195.996 21.811,195.927 21.629 C 195.857 21.448,195.530 21.448,195.200 21.630 M205.103 32.709 C 205.193 32.979,205.707 33.200,206.246 33.200 C 206.784 33.200,207.329 33.470,207.455 33.800 C 207.582 34.130,207.854 34.400,208.059 34.400 C 208.911 34.400,212.400 37.303,212.400 38.013 C 212.400 38.239,212.659 38.524,212.976 38.646 C 213.292 38.767,213.666 39.392,213.807 40.033 C 213.948 40.675,214.212 41.200,214.394 41.200 C 214.576 41.200,214.849 42.100,215.000 43.200 C 215.151 44.300,215.438 45.200,215.638 45.200 C 215.837 45.200,216.000 46.010,216.000 47.000 C 216.000 47.990,215.845 48.800,215.656 48.800 C 215.467 48.800,215.207 49.818,215.078 51.063 C 214.950 52.307,214.679 53.432,214.476 53.563 C 214.274 53.693,213.973 54.233,213.807 54.762 C 213.642 55.292,213.077 56.122,212.553 56.608 C 212.029 57.094,211.600 57.671,211.600 57.890 C 211.600 58.109,211.130 58.628,210.556 59.044 C 209.981 59.460,209.274 60.025,208.984 60.300 C 208.694 60.575,208.337 60.800,208.190 60.800 C 208.044 60.800,207.424 61.156,206.813 61.590 C 206.203 62.025,204.690 62.500,203.452 62.646 C 202.213 62.791,201.200 63.065,201.200 63.255 C 201.200 63.738,198.502 63.688,198.200 63.200 C 198.064 62.980,197.396 62.800,196.716 62.800 C 194.197 62.800,187.200 58.134,187.200 56.453 C 187.200 56.204,187.032 56.000,186.827 56.000 C 186.622 56.000,186.328 55.603,186.174 55.119 C 186.020 54.634,185.648 53.991,185.347 53.690 C 185.046 53.389,184.800 52.616,184.800 51.971 C 184.800 51.327,184.620 50.800,184.400 50.800 C 184.163 50.800,184.000 49.333,184.000 47.200 C 184.000 45.220,184.169 43.600,184.375 43.600 C 184.582 43.600,184.872 42.790,185.021 41.800 C 185.169 40.810,185.450 40.000,185.645 40.000 C 185.840 40.000,186.000 39.724,186.000 39.387 C 186.000 39.051,186.270 38.671,186.600 38.545 C 186.930 38.418,187.200 38.095,187.200 37.827 C 187.200 37.559,187.855 36.813,188.656 36.170 C 189.457 35.526,190.453 34.679,190.869 34.288 C 191.285 33.896,192.159 33.468,192.813 33.337 C 193.466 33.207,194.000 32.954,194.000 32.777 C 194.000 31.917,204.817 31.851,205.103 32.709 M302.000 64.386 C 302.000 64.599,302.897 64.891,303.992 65.037 C 305.088 65.182,305.896 65.445,305.787 65.622 C 305.678 65.798,305.982 66.067,306.463 66.220 C 307.511 66.553,307.865 66.830,310.424 69.330 C 311.511 70.391,312.400 71.516,312.400 71.830 C 312.400 72.143,312.566 72.400,312.768 72.400 C 312.971 72.400,313.263 72.985,313.418 73.700 C 313.574 74.415,313.903 75.128,314.150 75.285 C 314.441 75.470,314.600 77.208,314.600 80.199 C 314.600 83.191,314.441 84.930,314.150 85.114 C 313.903 85.271,313.574 85.985,313.418 86.700 C 313.263 87.415,312.983 88.000,312.795 88.000 C 312.607 88.000,312.342 88.354,312.205 88.786 C 311.772 90.149,308.260 93.452,306.693 93.969 C 305.868 94.242,305.298 94.634,305.426 94.842 C 305.554 95.050,305.511 95.185,305.330 95.141 C 304.661 94.982,300.970 95.670,300.035 96.127 C 299.279 96.497,299.033 96.491,298.901 96.100 C 298.809 95.825,298.217 95.600,297.586 95.600 C 295.843 95.600,292.400 94.781,292.400 94.367 C 292.400 94.165,292.124 94.000,291.787 94.000 C 291.451 94.000,291.071 93.730,290.945 93.400 C 290.818 93.070,290.532 92.800,290.310 92.800 C 289.867 92.800,286.800 89.856,286.800 89.430 C 286.800 89.178,286.399 88.639,285.295 87.409 C 285.017 87.100,284.673 86.251,284.532 85.523 C 284.390 84.795,284.086 84.077,283.856 83.926 C 283.279 83.549,283.278 76.675,283.854 75.962 C 284.103 75.653,284.429 74.830,284.578 74.133 C 284.727 73.437,285.108 72.767,285.424 72.646 C 285.741 72.524,286.000 72.227,286.000 71.984 C 286.000 71.741,286.225 71.310,286.500 71.025 C 286.775 70.740,287.375 70.077,287.833 69.553 C 289.326 67.845,291.146 66.429,292.183 66.168 C 292.742 66.028,293.200 65.761,293.200 65.575 C 293.200 65.389,293.830 65.118,294.600 64.974 C 295.370 64.829,296.000 64.551,296.000 64.355 C 296.000 64.160,297.350 64.000,299.000 64.000 C 300.662 64.000,302.000 64.172,302.000 64.386 M102.178 65.570 C 102.410 65.756,103.185 66.033,103.900 66.186 C 104.615 66.338,105.200 66.629,105.200 66.832 C 105.200 67.034,105.372 67.200,105.582 67.200 C 106.193 67.200,108.540 68.906,110.236 70.584 C 111.096 71.435,111.586 72.008,111.324 71.857 C 111.062 71.706,111.375 72.621,112.019 73.891 C 112.663 75.161,113.192 76.785,113.195 77.500 C 113.198 78.215,113.380 78.800,113.600 78.800 C 113.820 78.800,114.000 79.610,114.000 80.600 C 114.000 81.590,113.843 82.400,113.652 82.400 C 113.460 82.400,113.181 83.480,113.032 84.800 C 112.882 86.120,112.618 87.200,112.444 87.200 C 112.140 87.200,111.268 88.790,111.347 89.200 C 111.425 89.600,106.697 94.000,106.189 94.000 C 105.902 94.000,105.604 94.188,105.527 94.418 C 105.451 94.647,104.266 95.048,102.894 95.309 C 101.522 95.570,100.400 95.922,100.400 96.092 C 100.400 96.261,99.230 96.400,97.800 96.400 C 96.333 96.400,95.200 96.226,95.200 96.000 C 95.200 95.780,94.722 95.600,94.139 95.600 C 92.891 95.600,88.800 93.752,88.800 93.188 C 88.800 92.975,88.556 92.800,88.258 92.800 C 87.331 92.800,85.849 91.080,84.630 88.590 C 83.987 87.275,83.267 86.072,83.030 85.915 C 82.414 85.506,82.449 75.664,83.068 75.281 C 83.326 75.122,83.660 74.499,83.812 73.896 C 83.963 73.293,84.247 72.800,84.443 72.800 C 84.640 72.800,84.800 72.558,84.800 72.261 C 84.800 71.427,88.755 67.600,89.617 67.600 C 89.842 67.600,90.127 67.335,90.251 67.011 C 90.376 66.687,91.090 66.307,91.839 66.166 C 92.587 66.026,93.200 65.763,93.200 65.582 C 93.200 64.805,101.210 64.794,102.178 65.570 M200.985 128.824 C 200.889 128.980,201.990 129.183,203.432 129.274 C 204.875 129.366,206.177 129.633,206.327 129.867 C 206.477 130.101,207.007 130.419,207.504 130.574 C 208.747 130.962,213.415 135.585,213.797 136.806 C 213.968 137.352,214.278 137.910,214.487 138.044 C 214.695 138.178,214.966 139.393,215.088 140.744 C 215.211 142.095,215.466 143.200,215.656 143.200 C 215.845 143.200,216.000 143.560,216.000 144.000 C 216.000 144.440,215.846 144.800,215.658 144.800 C 215.470 144.800,215.206 145.977,215.071 147.415 C 214.929 148.943,214.572 150.285,214.214 150.643 C 213.876 150.981,213.600 151.499,213.600 151.795 C 213.600 152.091,213.410 152.397,213.178 152.474 C 212.946 152.551,212.714 152.907,212.661 153.264 C 212.609 153.621,212.052 154.337,211.425 154.856 C 210.797 155.375,209.756 156.295,209.111 156.900 C 208.466 157.505,207.502 158.110,206.969 158.243 C 206.436 158.377,206.000 158.627,206.000 158.798 C 206.000 158.969,205.415 159.218,204.700 159.351 C 203.985 159.483,202.950 159.692,202.400 159.814 C 200.438 160.248,194.000 159.422,194.000 158.736 C 194.000 158.551,193.634 158.400,193.187 158.400 C 192.741 158.400,192.274 158.137,192.150 157.815 C 192.027 157.494,191.578 157.120,191.151 156.985 C 189.998 156.618,186.445 152.917,186.160 151.785 C 186.024 151.243,185.761 150.800,185.575 150.800 C 185.389 150.800,185.118 150.172,184.974 149.404 C 184.830 148.635,184.552 148.106,184.356 148.227 C 184.157 148.350,184.000 146.757,184.000 144.624 C 184.000 142.521,184.156 140.800,184.347 140.800 C 184.538 140.800,184.795 140.054,184.917 139.142 C 185.039 138.231,185.309 137.376,185.516 137.242 C 185.723 137.109,186.028 136.565,186.194 136.033 C 186.586 134.780,191.278 130.400,192.228 130.400 C 192.506 130.400,192.801 130.197,192.884 129.949 C 192.966 129.701,193.971 129.408,195.117 129.298 C 196.263 129.188,197.200 128.932,197.200 128.729 C 197.200 128.526,198.091 128.401,199.180 128.451 C 200.269 128.500,201.081 128.669,200.985 128.824 M294.459 132.518 C 294.602 132.736,295.097 132.816,295.560 132.695 C 296.022 132.574,296.300 132.638,296.177 132.837 C 296.054 133.037,296.233 133.200,296.576 133.200 C 296.919 133.200,297.200 133.360,297.200 133.557 C 297.200 133.753,297.647 134.025,298.193 134.163 C 299.264 134.431,303.200 138.022,303.200 138.730 C 303.200 138.967,303.439 139.304,303.730 139.480 C 304.228 139.780,304.807 140.899,304.755 141.459 C 304.742 141.598,304.972 141.859,305.266 142.041 C 305.961 142.470,306.042 153.074,305.354 153.515 C 305.109 153.672,304.769 154.250,304.600 154.800 C 304.431 155.350,304.124 155.908,303.919 156.040 C 303.715 156.172,303.507 156.551,303.458 156.883 C 303.353 157.600,300.667 160.131,299.223 160.873 C 298.660 161.162,298.095 161.540,297.968 161.714 C 297.840 161.887,297.030 162.140,296.168 162.276 C 295.305 162.412,294.491 162.690,294.357 162.893 C 294.032 163.388,286.342 163.353,286.034 162.855 C 285.901 162.640,285.299 162.340,284.696 162.188 C 284.093 162.037,283.600 161.753,283.600 161.557 C 283.600 161.360,283.465 161.244,283.300 161.299 C 282.552 161.545,278.000 157.496,278.000 156.584 C 278.000 156.310,277.730 155.982,277.400 155.855 C 277.070 155.729,276.800 155.349,276.800 155.013 C 276.800 154.676,276.628 154.400,276.418 154.400 C 276.208 154.400,275.918 153.770,275.774 153.000 C 275.629 152.230,275.351 151.600,275.155 151.600 C 274.960 151.600,274.800 149.980,274.800 148.000 C 274.800 146.020,274.960 144.400,275.155 144.400 C 275.350 144.400,275.628 143.606,275.774 142.635 C 275.920 141.663,276.299 140.771,276.619 140.648 C 276.939 140.525,277.200 140.149,277.200 139.813 C 277.200 139.476,277.368 139.200,277.573 139.200 C 277.778 139.200,278.071 138.806,278.224 138.324 C 278.377 137.843,278.884 137.129,279.351 136.739 C 281.815 134.678,282.757 134.000,283.158 134.000 C 283.401 134.000,283.600 133.822,283.600 133.605 C 283.600 133.387,284.320 133.094,285.200 132.954 C 286.080 132.813,286.800 132.551,286.800 132.372 C 286.800 131.609,293.954 131.746,294.459 132.518 M30.400 133.800 C 30.950 134.114,31.895 134.378,32.500 134.386 C 33.166 134.394,33.600 134.619,33.600 134.957 C 33.600 135.263,34.050 135.626,34.600 135.764 C 35.150 135.902,35.600 136.192,35.600 136.408 C 35.600 136.623,35.830 136.800,36.111 136.800 C 36.630 136.800,37.830 137.978,37.810 138.468 C 37.805 138.615,38.205 139.202,38.700 139.771 C 39.195 140.340,39.600 140.972,39.600 141.174 C 39.600 141.377,39.876 141.819,40.214 142.157 C 40.579 142.522,40.927 143.868,41.075 145.485 C 41.210 146.978,41.519 148.335,41.761 148.500 C 42.080 148.718,42.080 148.882,41.761 149.100 C 41.519 149.265,41.198 150.480,41.047 151.800 C 40.896 153.120,40.599 154.260,40.386 154.333 C 40.174 154.407,40.000 154.799,40.000 155.205 C 40.000 155.611,39.765 156.181,39.478 156.471 C 38.888 157.068,38.240 158.446,38.336 158.900 C 38.371 159.065,38.175 159.202,37.900 159.203 C 37.625 159.205,36.770 159.801,36.000 160.527 C 35.230 161.253,34.285 161.966,33.900 162.111 C 33.515 162.256,33.200 162.538,33.200 162.736 C 33.200 162.935,32.495 163.210,31.634 163.348 C 30.772 163.486,29.997 163.808,29.912 164.064 C 29.690 164.729,22.317 164.751,22.096 164.088 C 22.006 163.819,21.653 163.600,21.310 163.600 C 20.481 163.600,17.200 161.947,17.200 161.529 C 17.200 161.348,16.939 161.200,16.620 161.200 C 16.301 161.200,15.856 160.885,15.632 160.500 C 15.408 160.115,15.219 159.935,15.212 160.100 C 15.191 160.629,13.689 158.909,13.413 158.039 C 13.266 157.578,12.978 157.200,12.773 157.200 C 12.568 157.200,12.400 156.968,12.400 156.685 C 12.400 156.401,12.002 155.456,11.516 154.585 C 10.531 152.818,10.144 144.278,11.023 143.685 C 11.255 143.528,11.695 142.770,12.000 142.000 C 12.305 141.230,12.712 140.492,12.904 140.360 C 13.096 140.228,13.293 139.850,13.341 139.520 C 13.439 138.857,15.508 136.800,16.078 136.800 C 16.276 136.800,16.852 136.353,17.359 135.807 C 17.907 135.215,19.112 134.622,20.339 134.338 C 21.473 134.077,22.400 133.714,22.400 133.531 C 22.400 132.945,29.310 133.177,30.400 133.800 M375.905 133.586 C 376.287 133.799,377.637 134.172,378.905 134.416 C 380.173 134.660,381.108 135.026,380.982 135.229 C 380.856 135.433,381.035 135.600,381.380 135.600 C 381.725 135.600,382.316 135.960,382.693 136.400 C 383.070 136.840,383.516 137.200,383.684 137.200 C 384.144 137.200,385.600 138.524,385.600 138.943 C 385.600 139.144,386.026 139.703,386.546 140.185 C 387.067 140.668,387.723 141.768,388.004 142.631 C 388.286 143.494,388.646 144.290,388.804 144.400 C 389.808 145.097,389.774 154.400,388.767 154.400 C 388.579 154.400,388.529 154.670,388.655 155.000 C 388.782 155.330,388.706 155.600,388.486 155.600 C 388.266 155.600,387.969 156.068,387.826 156.639 C 387.682 157.211,386.732 158.426,385.714 159.339 C 384.696 160.253,383.583 161.315,383.242 161.700 C 382.901 162.085,382.392 162.400,382.111 162.400 C 381.830 162.400,381.600 162.560,381.600 162.757 C 381.600 162.953,381.107 163.237,380.504 163.388 C 379.901 163.540,379.278 163.874,379.119 164.132 C 378.715 164.785,368.485 164.785,368.081 164.132 C 367.922 163.874,367.299 163.540,366.696 163.388 C 366.093 163.237,365.600 162.938,365.600 162.723 C 365.600 162.509,365.393 162.402,365.141 162.486 C 364.888 162.571,363.853 161.731,362.841 160.620 C 361.828 159.509,360.879 158.508,360.732 158.396 C 360.584 158.284,360.340 157.699,360.188 157.096 C 360.037 156.493,359.755 156.000,359.561 156.000 C 359.368 156.000,359.095 155.283,358.955 154.407 C 358.815 153.531,358.566 152.897,358.402 152.998 C 358.239 153.100,358.072 151.538,358.031 149.528 C 357.990 147.518,358.127 145.767,358.334 145.637 C 358.542 145.507,358.799 144.741,358.907 143.935 C 359.015 143.130,359.308 142.230,359.559 141.935 C 359.810 141.641,360.385 140.950,360.838 140.400 C 362.807 138.007,364.057 136.800,364.567 136.800 C 364.868 136.800,365.218 136.530,365.345 136.200 C 365.471 135.870,365.851 135.600,366.187 135.600 C 366.524 135.600,366.800 135.459,366.800 135.288 C 366.800 134.783,369.305 133.900,370.500 133.984 C 371.105 134.026,371.600 133.867,371.600 133.630 C 371.600 133.093,374.957 133.059,375.905 133.586 M30.777 237.151 C 30.900 237.343,31.585 237.626,32.300 237.782 C 33.015 237.937,33.600 238.217,33.600 238.405 C 33.600 238.593,33.994 238.871,34.476 239.024 C 35.634 239.392,38.979 242.853,39.658 244.386 C 39.953 245.054,40.317 245.600,40.466 245.600 C 40.615 245.600,40.862 246.185,41.014 246.900 C 41.167 247.615,41.497 248.453,41.746 248.762 C 42.325 249.478,42.308 255.959,41.726 256.329 C 41.492 256.478,41.174 257.185,41.018 257.900 C 40.863 258.615,40.592 259.200,40.415 259.200 C 40.238 259.200,40.011 259.515,39.910 259.900 C 39.810 260.285,39.691 260.728,39.647 260.884 C 39.496 261.423,36.462 264.400,36.065 264.400 C 35.846 264.400,35.607 264.557,35.533 264.749 C 35.328 265.286,31.330 267.200,30.413 267.200 C 29.966 267.200,29.600 267.380,29.600 267.600 C 29.600 267.837,28.133 268.000,26.000 268.000 C 23.867 268.000,22.400 267.837,22.400 267.600 C 22.400 267.380,22.119 267.200,21.775 267.200 C 20.924 267.200,16.800 265.222,16.800 264.814 C 16.800 264.634,16.362 264.377,15.827 264.242 C 15.291 264.108,14.730 263.610,14.580 263.137 C 14.429 262.663,13.904 261.898,13.412 261.438 C 12.921 260.977,12.288 259.880,12.007 259.000 C 11.726 258.120,11.294 257.147,11.048 256.839 C 10.183 255.754,10.523 248.418,11.522 246.615 C 12.005 245.744,12.400 244.799,12.400 244.515 C 12.400 244.232,12.568 244.000,12.773 244.000 C 12.978 244.000,13.266 243.622,13.413 243.161 C 13.754 242.083,14.723 241.129,16.105 240.509 C 16.707 240.238,17.200 239.848,17.200 239.640 C 17.200 239.433,17.725 239.148,18.367 239.007 C 19.008 238.866,19.617 238.533,19.719 238.267 C 19.821 238.000,20.411 237.740,21.030 237.689 C 21.649 237.638,22.255 237.435,22.378 237.238 C 22.894 236.407,30.253 236.331,30.777 237.151 M205.103 241.109 C 205.193 241.379,205.707 241.600,206.246 241.600 C 206.784 241.600,207.324 241.859,207.446 242.176 C 207.567 242.492,208.187 242.865,208.824 243.005 C 209.460 243.145,209.943 243.381,209.897 243.530 C 209.806 243.827,211.000 245.354,212.100 246.346 C 212.485 246.694,212.800 247.208,212.800 247.489 C 212.800 247.770,212.966 248.000,213.168 248.000 C 213.371 248.000,213.655 248.540,213.800 249.200 C 213.945 249.860,214.218 250.400,214.407 250.400 C 214.596 250.400,214.872 251.210,215.021 252.200 C 215.169 253.190,215.450 254.000,215.645 254.000 C 215.840 254.000,216.000 255.091,216.000 256.424 C 216.000 257.757,215.843 258.750,215.652 258.632 C 215.460 258.513,215.204 259.159,215.082 260.066 C 214.960 260.973,214.691 261.824,214.484 261.958 C 214.277 262.091,213.971 262.639,213.803 263.176 C 213.373 264.551,208.769 269.092,207.476 269.417 C 206.884 269.565,206.400 269.839,206.400 270.025 C 206.400 270.211,205.770 270.482,205.000 270.626 C 204.230 270.771,203.600 271.049,203.600 271.245 C 203.600 271.440,201.890 271.600,199.800 271.600 C 197.269 271.600,196.000 271.451,196.000 271.153 C 196.000 270.893,195.584 270.786,195.000 270.898 C 194.450 271.003,194.000 270.934,194.000 270.745 C 194.000 270.555,193.807 270.400,193.571 270.400 C 193.336 270.400,192.892 270.175,192.585 269.900 C 191.271 268.721,190.811 268.400,190.437 268.400 C 190.218 268.400,189.856 268.085,189.632 267.700 C 189.408 267.315,189.219 267.129,189.212 267.287 C 189.190 267.810,186.471 264.855,186.206 264.020 C 186.063 263.569,185.801 263.200,185.623 263.200 C 185.276 263.200,184.647 260.927,184.764 260.100 C 184.803 259.825,184.647 259.600,184.418 259.600 C 183.900 259.600,183.843 252.925,184.358 252.733 C 184.555 252.660,184.809 251.901,184.921 251.046 C 185.034 250.192,185.299 249.382,185.509 249.246 C 185.720 249.111,186.022 248.583,186.181 248.074 C 186.573 246.819,190.352 243.157,192.256 242.187 C 193.105 241.754,193.890 241.283,194.000 241.140 C 194.646 240.301,204.824 240.272,205.103 241.109 M374.572 245.955 C 374.693 246.150,375.423 246.428,376.196 246.573 C 376.968 246.718,377.600 247.008,377.600 247.218 C 377.600 247.428,377.838 247.600,378.128 247.600 C 378.869 247.600,383.840 252.861,384.206 254.033 C 384.372 254.565,384.668 255.104,384.864 255.230 C 385.061 255.357,385.331 256.392,385.466 257.530 C 385.601 258.669,385.866 259.600,386.056 259.600 C 386.245 259.600,386.400 260.140,386.400 260.800 C 386.400 261.460,386.244 262.000,386.054 262.000 C 385.863 262.000,385.616 263.280,385.504 264.845 C 385.392 266.410,385.122 267.805,384.904 267.945 C 384.686 268.085,384.381 268.606,384.226 269.102 C 383.728 270.698,379.980 274.168,377.493 275.334 C 376.885 275.620,376.497 275.964,376.633 276.100 C 376.768 276.235,376.501 276.247,376.040 276.126 C 375.557 276.000,375.200 276.097,375.200 276.353 C 375.200 276.599,374.761 276.800,374.224 276.800 C 373.687 276.800,373.159 276.943,373.050 277.119 C 372.795 277.531,365.935 276.935,365.631 276.474 C 365.504 276.281,364.861 275.991,364.202 275.829 C 362.620 275.441,358.000 271.716,358.000 270.829 C 358.000 270.624,357.775 270.211,357.500 269.909 C 356.514 268.829,355.200 266.022,355.200 264.997 C 355.200 264.423,355.065 264.036,354.900 264.138 C 354.562 264.347,354.947 258.495,355.403 256.500 C 355.566 255.785,355.838 255.200,356.007 255.200 C 356.175 255.200,356.426 254.750,356.564 254.200 C 356.702 253.650,356.992 253.200,357.208 253.200 C 357.423 253.200,357.600 252.993,357.600 252.740 C 357.600 252.004,361.905 248.039,363.002 247.764 C 363.551 247.626,364.000 247.355,364.000 247.161 C 364.000 246.968,364.724 246.694,365.609 246.552 C 366.494 246.411,367.314 246.139,367.432 245.947 C 367.715 245.490,374.289 245.496,374.572 245.955 " stroke="none" fill="#6cb42c" fill-rule="evenodd"></path><path id="path1" d="M298.100 54.287 C 298.705 54.378,299.695 54.378,300.300 54.287 C 300.905 54.195,300.410 54.120,299.200 54.120 C 297.990 54.120,297.495 54.195,298.100 54.287 M234.311 368.293 C 235.251 368.378,236.691 368.377,237.511 368.291 C 238.330 368.205,237.560 368.136,235.800 368.137 C 234.040 368.139,233.370 368.209,234.311 368.293 " stroke="none" fill="#70b42c" fill-rule="evenodd"></path><path id="path2" d="M298.100 54.287 C 298.705 54.378,299.695 54.378,300.300 54.287 C 300.905 54.195,300.410 54.120,299.200 54.120 C 297.990 54.120,297.495 54.195,298.100 54.287 M234.311 368.293 C 235.251 368.378,236.691 368.377,237.511 368.291 C 238.330 368.205,237.560 368.136,235.800 368.137 C 234.040 368.139,233.370 368.209,234.311 368.293 " stroke="none" fill="#70b42c" fill-rule="evenodd"></path><path id="path3" d="M298.100 54.287 C 298.705 54.378,299.695 54.378,300.300 54.287 C 300.905 54.195,300.410 54.120,299.200 54.120 C 297.990 54.120,297.495 54.195,298.100 54.287 M234.311 368.293 C 235.251 368.378,236.691 368.377,237.511 368.291 C 238.330 368.205,237.560 368.136,235.800 368.137 C 234.040 368.139,233.370 368.209,234.311 368.293 " stroke="none" fill="#70b42c" fill-rule="evenodd"></path><path id="path4" d="M298.100 54.287 C 298.705 54.378,299.695 54.378,300.300 54.287 C 300.905 54.195,300.410 54.120,299.200 54.120 C 297.990 54.120,297.495 54.195,298.100 54.287 M234.311 368.293 C 235.251 368.378,236.691 368.377,237.511 368.291 C 238.330 368.205,237.560 368.136,235.800 368.137 C 234.040 368.139,233.370 368.209,234.311 368.293 " stroke="none" fill="#70b42c" fill-rule="evenodd"></path></g></svg>