<?xml version="1.0" standalone="no"?>
<!DOCTYPE svg PUBLIC "-//W3C//DTD SVG 20010904//EN"
 "http://www.w3.org/TR/2001/REC-SVG-20010904/DTD/svg10.dtd">
<svg version="1.0" xmlns="http://www.w3.org/2000/svg"
 width="154.000000pt" height="156.000000pt" viewBox="0 0 154.000000 156.000000"
 preserveAspectRatio="xMidYMid meet">

<g transform="translate(0.000000,156.000000) scale(0.100000,-0.100000)"
fill="#000000" stroke="none">
<path d="M888 1453 c-43 -36 -765 -758 -801 -801 -34 -42 -36 -88 -4 -128 50
-64 439 -444 460 -449 12 -3 110 -4 217 -3 165 3 195 5 195 18 0 12 -22 15
-130 18 -71 1 -135 4 -142 7 -6 2 158 174 365 381 207 208 387 391 400 408 33
45 29 86 -17 143 -44 54 -370 378 -415 411 -40 30 -87 28 -128 -5z m107 -35
c49 -42 75 -69 75 -78 0 -6 6 -10 13 -10 6 0 21 -14 32 -30 11 -16 23 -30 26
-30 11 0 45 -35 52 -52 3 -10 12 -18 19 -18 8 0 20 -10 28 -21 8 -12 21 -27
28 -33 7 -6 21 -19 30 -30 9 -10 23 -24 30 -30 54 -47 102 -104 102 -122 0 -7
-58 -73 -130 -145 -71 -73 -130 -136 -130 -140 0 -5 -4 -9 -10 -9 -5 0 -46
-37 -90 -83 -312 -316 -466 -467 -482 -473 -10 -3 -29 1 -41 9 -30 20 -415
405 -434 433 -8 13 -12 31 -9 42 8 25 832 842 850 842 8 0 26 -10 41 -22z"/>
<path d="M940 1349 c0 -25 33 -22 38 4 2 12 -3 17 -17 17 -15 0 -21 -6 -21
-21z"/>
<path d="M877 1303 c-14 -13 -6 -33 13 -33 13 0 20 7 20 20 0 19 -20 27 -33
13z"/>
<path d="M1007 1303 c-14 -13 -6 -33 13 -33 13 0 20 7 20 20 0 19 -20 27 -33
13z"/>
<path d="M812 1223 c2 -10 10 -18 18 -18 8 0 16 8 18 18 2 12 -3 17 -18 17
-15 0 -20 -5 -18 -17z"/>
<path d="M942 1223 c2 -10 10 -18 18 -18 8 0 16 8 18 18 2 12 -3 17 -18 17
-15 0 -20 -5 -18 -17z"/>
<path d="M1070 1220 c0 -15 5 -20 18 -18 9 2 17 10 17 18 0 8 -8 16 -17 18
-13 2 -18 -3 -18 -18z"/>
<path d="M745 1170 c-4 -7 -3 -16 3 -22 14 -14 45 -2 40 15 -6 16 -34 21 -43
7z"/>
<path d="M875 1170 c-8 -14 3 -30 21 -30 8 0 14 9 14 20 0 21 -24 28 -35 10z"/>
<path d="M1000 1160 c0 -13 7 -20 20 -20 13 0 20 7 20 20 0 13 -7 20 -20 20
-13 0 -20 -7 -20 -20z"/>
<path d="M1130 1160 c0 -13 7 -20 20 -20 13 0 20 7 20 20 0 13 -7 20 -20 20
-13 0 -20 -7 -20 -20z"/>
<path d="M687 1114 c-14 -15 -6 -34 14 -34 14 0 19 5 17 17 -3 18 -20 27 -31
17z"/>
<path d="M817 1114 c-14 -15 -6 -34 14 -34 14 0 19 5 17 17 -3 18 -20 27 -31
17z"/>
<path d="M947 1114 c-14 -15 -6 -34 14 -34 14 0 19 5 17 17 -3 18 -20 27 -31
17z"/>
<path d="M1070 1100 c0 -15 5 -20 18 -18 9 2 17 10 17 18 0 8 -8 16 -17 18
-13 2 -18 -3 -18 -18z"/>
<path d="M1197 1114 c-14 -15 -6 -34 14 -34 14 0 19 5 17 17 -3 18 -20 27 -31
17z"/>
<path d="M620 1030 c0 -15 5 -20 18 -18 9 2 17 10 17 18 0 8 -8 16 -17 18 -13
2 -18 -3 -18 -18z"/>
<path d="M745 1040 c-4 -7 -3 -16 3 -22 14 -14 45 -2 40 15 -6 16 -34 21 -43
7z"/>
<path d="M872 1033 c5 -26 38 -29 38 -4 0 15 -6 21 -21 21 -14 0 -19 -5 -17
-17z"/>
<path d="M1002 1033 c5 -26 38 -29 38 -4 0 15 -6 21 -21 21 -14 0 -19 -5 -17
-17z"/>
<path d="M1130 1030 c0 -13 7 -20 20 -20 13 0 20 7 20 20 0 13 -7 20 -20 20
-13 0 -20 -7 -20 -20z"/>
<path d="M1260 1029 c0 -14 5 -19 17 -17 26 5 29 38 4 38 -15 0 -21 -6 -21
-21z"/>
<path d="M557 983 c-14 -13 -6 -33 13 -33 13 0 20 7 20 20 0 19 -20 27 -33 13z"/>
<path d="M687 983 c-14 -13 -6 -33 13 -33 13 0 20 7 20 20 0 19 -20 27 -33 13z"/>
<path d="M810 971 c0 -15 6 -21 21 -21 14 0 19 5 17 17 -5 26 -38 29 -38 4z"/>
<path d="M940 971 c0 -15 6 -21 21 -21 25 0 22 33 -4 38 -12 2 -17 -3 -17 -17z"/>
<path d="M1070 970 c0 -15 5 -20 18 -18 9 2 17 10 17 18 0 8 -8 16 -17 18 -13
2 -18 -3 -18 -18z"/>
<path d="M1195 980 c-8 -14 3 -30 21 -30 8 0 14 9 14 20 0 21 -24 28 -35 10z"/>
<path d="M1327 983 c-14 -13 -6 -33 13 -33 13 0 20 7 20 20 0 19 -20 27 -33
13z"/>
<path d="M620 899 c0 -14 5 -19 17 -17 26 5 29 38 4 38 -15 0 -21 -6 -21 -21z"/>
<path d="M747 914 c-9 -9 4 -34 18 -34 14 0 27 25 18 34 -4 3 -12 6 -18 6 -6
0 -14 -3 -18 -6z"/>
<path d="M872 903 c5 -26 38 -29 38 -4 0 15 -6 21 -21 21 -14 0 -19 -5 -17
-17z"/>
<path d="M1002 903 c2 -10 10 -18 18 -18 8 0 16 8 18 18 2 12 -3 17 -18 17
-15 0 -20 -5 -18 -17z"/>
<path d="M1132 903 c2 -10 10 -18 18 -18 8 0 16 8 18 18 2 12 -3 17 -18 17
-15 0 -20 -5 -18 -17z"/>
<path d="M1260 899 c0 -14 5 -19 17 -17 26 5 29 38 4 38 -15 0 -21 -6 -21 -21z"/>
<path d="M680 840 c0 -13 7 -20 20 -20 13 0 20 7 20 20 0 13 -7 20 -20 20 -13
0 -20 -7 -20 -20z"/>
<path d="M810 840 c0 -13 7 -20 20 -20 13 0 20 7 20 20 0 13 -7 20 -20 20 -13
0 -20 -7 -20 -20z"/>
<path d="M940 841 c0 -15 6 -21 21 -21 25 0 22 33 -4 38 -12 2 -17 -3 -17 -17z"/>
<path d="M1070 840 c0 -15 5 -20 18 -18 9 2 17 10 17 18 0 8 -8 16 -17 18 -13
2 -18 -3 -18 -18z"/>
<path d="M1195 850 c-8 -14 3 -30 21 -30 8 0 14 9 14 20 0 21 -24 28 -35 10z"/>
<path d="M751 786 c-9 -10 -8 -16 3 -25 10 -9 16 -8 25 3 9 10 8 16 -3 25 -10
9 -16 8 -25 -3z"/>
<path d="M883 793 c-18 -6 -16 -30 2 -37 9 -3 18 1 22 10 7 18 -7 33 -24 27z"/>
<path d="M1003 784 c-8 -21 13 -42 28 -27 13 13 5 43 -11 43 -6 0 -13 -7 -17
-16z"/>
<path d="M1133 784 c-8 -21 13 -42 28 -27 13 13 5 43 -11 43 -6 0 -13 -7 -17
-16z"/>
<path d="M810 710 c0 -13 7 -20 20 -20 13 0 20 7 20 20 0 13 -7 20 -20 20 -13
0 -20 -7 -20 -20z"/>
<path d="M940 709 c0 -14 5 -19 17 -17 26 5 29 38 4 38 -15 0 -21 -6 -21 -21z"/>
<path d="M1070 710 c0 -15 5 -20 18 -18 9 2 17 10 17 18 0 8 -8 16 -17 18 -13
2 -18 -3 -18 -18z"/>
<path d="M877 663 c-14 -13 -6 -33 13 -33 13 0 20 7 20 20 0 19 -20 27 -33 13z"/>
<path d="M1007 664 c-14 -15 -6 -34 14 -34 14 0 19 5 17 17 -3 18 -20 27 -31
17z"/>
<path d="M940 579 c0 -25 33 -22 38 4 2 12 -3 17 -17 17 -15 0 -21 -6 -21 -21z"/>
<path d="M1002 93 c5 -26 38 -29 38 -4 0 15 -6 21 -21 21 -14 0 -19 -5 -17
-17z"/>
<path d="M1090 90 c0 -15 5 -20 18 -18 22 4 22 32 0 36 -13 2 -18 -3 -18 -18z"/>
<path d="M1195 100 c-8 -14 3 -30 21 -30 8 0 14 9 14 20 0 21 -24 28 -35 10z"/>
</g>
</svg>
