<svg id="svg" version="1.1" xmlns="http://www.w3.org/2000/svg" xmlns:xlink="http://www.w3.org/1999/xlink" width="400" height="375.0830564784053" viewBox="0, 0, 400,375.0830564784053"><g id="svgg"><path id="path0" d="M70.598 9.833 C 70.233 9.891,65.598 10.005,60.299 10.086 C 51.964 10.214,50.328 10.325,48.173 10.908 C 32.984 15.016,19.944 28.134,16.088 43.185 C 15.140 46.886,15.049 59.736,15.046 189.867 C 15.043 347.996,14.825 338.225,18.538 346.422 C 24.084 358.669,33.701 367.485,45.949 371.551 C 51.394 373.359,42.229 373.256,197.342 373.256 L 341.694 373.256 345.565 372.180 C 363.920 367.081,377.160 351.386,378.432 333.223 C 378.948 325.853,378.654 49.567,378.126 45.885 C 376.377 33.680,366.361 20.406,354.444 14.499 C 345.658 10.145,342.491 9.635,324.253 9.635 L 311.437 9.635 309.871 11.224 C 307.545 13.586,307.523 16.467,309.812 18.915 L 311.318 20.525 324.513 20.690 C 342.083 20.910,345.079 21.541,352.682 26.625 C 363.964 34.169,367.414 42.240,367.966 62.375 L 368.196 70.764 197.013 70.764 L 25.830 70.764 26.000 61.047 C 26.121 54.173,26.328 50.481,26.707 48.431 C 29.194 34.985,39.281 24.645,52.990 21.492 C 55.979 20.804,56.008 20.804,175.249 20.696 L 294.518 20.587 296.132 18.919 L 297.746 17.250 297.621 14.781 C 297.502 12.425,297.437 12.251,296.187 10.972 L 294.878 9.631 183.070 9.680 C 121.576 9.707,70.963 9.776,70.598 9.833 M63.156 28.617 C 47.687 33.515,46.302 54.469,60.963 61.795 L 63.289 62.957 68.439 62.957 L 73.588 62.957 75.914 61.808 C 81.859 58.872,86.395 52.001,86.373 45.965 C 86.330 33.957,74.414 25.053,63.156 28.617 M103.705 28.264 C 97.882 29.409,91.742 35.576,90.666 41.362 C 89.045 50.070,92.367 57.313,99.910 61.518 L 102.492 62.957 107.807 62.957 L 113.123 62.957 115.615 61.665 C 134.385 51.935,124.488 24.177,103.705 28.264 M142.359 28.527 C 133.561 31.055,127.746 40.581,129.834 49.041 C 134.713 68.802,161.954 67.810,164.875 47.765 C 166.655 35.553,154.387 25.071,142.359 28.527 M72.038 40.208 C 74.859 41.794,75.811 45.730,74.097 48.719 C 70.601 54.813,61.685 52.174,62.190 45.194 C 62.549 40.221,67.553 37.688,72.038 40.208 M110.830 39.836 C 113.944 41.250,115.153 45.318,113.461 48.689 C 110.604 54.379,101.925 52.520,101.411 46.108 C 101.016 41.177,106.192 37.729,110.830 39.836 M150.138 39.853 C 155.974 42.830,154.465 51.201,147.944 52.016 C 140.720 52.918,137.967 43.017,144.542 39.779 C 146.087 39.018,148.566 39.051,150.138 39.853 M367.679 82.518 C 367.975 82.815,367.745 321.835,367.442 328.239 C 367.048 336.573,366.741 338.210,364.816 342.230 C 358.749 354.904,349.051 361.404,335.214 362.071 C 309.860 363.294,57.749 362.737,51.494 361.445 C 45.690 360.246,37.465 354.854,33.528 349.668 C 27.824 342.153,26.626 338.267,26.257 326.080 C 26.005 317.748,25.913 88.544,26.161 84.638 L 26.302 82.399 40.809 82.310 C 58.445 82.202,367.559 82.399,367.679 82.518 M68.004 89.867 C 61.887 91.549,56.832 96.973,56.131 102.606 C 53.892 120.605,63.054 143.801,78.141 158.331 C 80.053 160.172,81.731 161.864,81.871 162.090 C 82.037 162.358,80.864 163.797,78.507 166.217 C 67.919 177.092,61.904 187.138,58.180 200.166 C 54.868 211.749,55.324 234.023,58.987 239.609 C 61.216 243.008,66.565 242.534,68.600 238.756 L 69.240 237.567 68.133 230.907 C 64.399 208.462,71.794 186.926,88.101 172.755 C 92.461 168.966,91.421 169.046,97.809 172.007 C 103.172 174.492,103.342 174.601,102.610 175.082 C 89.245 183.869,81.261 195.443,78.413 210.162 C 72.761 239.369,94.681 268.164,124.278 270.413 C 126.913 270.613,131.082 270.930,133.542 271.118 C 162.644 273.337,186.107 295.295,190.375 324.307 C 191.781 333.866,190.859 337.339,186.730 338.037 C 182.558 338.741,181.118 336.855,180.390 329.734 C 177.561 302.040,158.125 283.184,130.897 281.719 C 107.174 280.442,91.709 272.697,78.561 255.508 C 74.662 250.411,72.594 249.427,69.467 251.185 C 64.129 254.185,66.392 259.844,77.517 271.316 L 82.125 276.068 77.965 280.476 C 62.840 296.504,55.814 312.817,55.814 331.905 C 55.814 349.940,78.196 356.246,86.741 340.619 L 87.874 338.546 129.084 338.542 L 170.293 338.538 171.206 340.399 C 178.411 355.090,200.679 350.843,201.962 334.533 C 203.505 314.914,194.189 293.245,177.789 278.306 L 175.678 276.383 179.962 271.995 C 191.577 260.102,198.143 247.951,201.229 232.641 C 202.081 228.417,202.085 212.092,201.237 206.743 C 198.914 192.107,191.754 178.655,180.019 166.883 L 175.654 162.503 179.380 158.932 C 194.747 144.207,203.434 123.083,201.988 103.959 C 201.331 95.272,195.067 89.701,185.960 89.701 L 181.152 89.701 178.759 90.898 C 175.811 92.373,172.281 95.782,171.123 98.271 L 170.318 100.000 129.096 99.996 L 87.874 99.992 86.738 97.925 C 83.179 91.448,75.020 87.939,68.004 89.867 M73.649 100.685 C 76.282 101.677,77.204 103.515,77.559 108.472 C 78.907 127.281,89.655 143.491,106.298 151.815 C 113.523 155.428,117.940 156.401,132.018 157.480 C 177.836 160.989,204.508 206.997,184.209 247.508 C 180.208 255.493,168.559 269.103,165.725 269.103 C 165.346 269.103,155.493 264.522,155.076 264.153 C 154.945 264.036,156.129 263.059,157.708 261.982 C 190.233 239.798,187.077 190.889,151.993 173.427 C 144.513 169.704,140.217 168.632,129.900 167.915 C 104.310 166.136,87.934 156.986,76.016 137.808 C 68.754 126.123,64.504 105.750,68.558 102.057 C 70.286 100.484,71.936 100.039,73.649 100.685 M188.353 101.290 C 190.935 102.605,191.543 105.430,190.712 112.243 C 188.658 129.088,180.283 144.264,167.480 154.344 L 165.691 155.753 161.500 153.693 C 159.195 152.561,156.711 151.406,155.980 151.128 L 154.651 150.622 156.287 149.480 C 171.068 139.167,178.740 126.271,180.387 108.970 C 180.926 103.312,181.377 102.228,183.721 100.965 C 185.042 100.254,186.521 100.357,188.353 101.290 M226.198 107.587 C 223.744 109.164,223.754 109.095,223.754 124.917 C 223.754 140.365,223.770 140.479,226.200 142.097 C 228.679 143.748,231.251 143.377,233.549 141.036 L 234.922 139.636 234.820 125.051 C 234.723 111.163,234.686 110.411,234.053 109.337 C 232.424 106.570,228.975 105.802,226.198 107.587 M256.931 106.989 C 252.865 107.794,247.910 111.872,245.808 116.142 L 244.684 118.425 244.684 124.910 C 244.684 131.203,244.710 131.449,245.548 133.223 C 252.199 147.299,272.600 145.716,276.610 130.812 C 280.405 116.703,270.210 104.361,256.931 106.989 M288.538 107.044 C 287.144 107.531,285.805 108.867,285.307 110.271 C 284.705 111.964,284.700 137.524,285.301 139.214 C 286.796 143.420,291.110 144.302,294.572 141.111 L 296.056 139.743 295.951 125.104 C 295.859 112.143,295.781 110.321,295.278 109.209 C 294.334 107.122,291.201 106.116,288.538 107.044 M307.232 107.308 C 304.819 108.623,304.830 108.552,304.713 123.204 C 304.577 140.262,304.719 141.146,307.807 142.565 C 310.423 143.766,313.517 142.787,314.764 140.365 C 315.424 139.084,315.449 138.524,315.449 124.585 L 315.449 110.133 314.675 109.048 C 313.127 106.878,309.554 106.042,307.232 107.308 M331.921 107.172 C 317.004 111.183,315.321 134.798,329.458 141.740 C 331.329 142.658,331.567 142.691,336.379 142.691 L 341.362 142.691 343.668 141.393 C 350.979 137.279,354.307 128.969,352.365 119.676 C 350.448 110.507,341.004 104.730,331.921 107.172 M167.553 111.513 C 168.810 111.721,168.824 111.740,168.605 112.922 C 168.275 114.704,166.127 121.244,165.402 122.674 L 164.771 123.920 128.944 123.920 L 93.118 123.920 91.850 120.717 C 91.153 118.956,90.249 116.227,89.841 114.654 L 89.100 111.794 92.307 111.609 C 96.856 111.347,166.014 111.259,167.553 111.513 M263.395 118.615 C 267.085 120.864,266.759 129.582,262.921 131.279 C 258.542 133.216,255.265 130.076,255.545 124.211 C 255.790 119.099,259.661 116.338,263.395 118.615 M338.874 118.688 C 340.988 120.127,341.296 120.869,341.464 124.930 L 341.615 128.616 340.492 129.785 C 336.207 134.244,331.219 131.608,331.237 124.895 C 331.251 119.193,335.063 116.094,338.874 118.688 M155.243 135.164 C 156.004 135.465,154.704 136.755,151.359 139.021 C 139.617 146.973,123.984 148.054,111.462 141.779 C 107.232 139.659,101.993 135.994,101.993 135.154 C 101.993 134.825,154.409 134.835,155.243 135.164 M235.876 154.113 C 216.932 159.228,220.662 189.859,240.230 189.866 L 244.413 189.867 246.934 188.588 C 250.249 186.905,253.711 183.400,255.234 180.183 L 256.312 177.907 256.312 171.761 L 256.312 165.615 255.237 163.344 C 251.726 155.930,243.561 152.037,235.876 154.113 M264.286 154.009 C 263.738 154.293,262.803 154.994,262.209 155.567 L 261.130 156.609 261.130 171.952 L 261.130 187.295 262.661 188.550 C 265.227 190.653,268.871 190.500,270.612 188.217 C 271.855 186.588,272.103 183.373,272.070 169.324 L 272.041 157.087 270.896 155.820 C 268.890 153.599,266.395 152.916,264.286 154.009 M283.795 154.040 C 280.473 155.677,280.320 156.537,280.453 172.732 C 280.560 185.584,280.596 186.266,281.241 187.364 C 283.043 190.431,287.348 190.847,290.026 188.212 L 291.708 186.557 291.670 173.262 C 291.627 158.353,291.516 156.875,290.342 155.618 C 288.491 153.635,285.889 153.008,283.795 154.040 M345.515 153.872 C 343.859 154.344,342.321 155.952,341.891 157.658 C 341.287 160.054,341.405 183.848,342.030 185.955 C 343.311 190.268,347.785 191.333,351.201 188.138 L 352.824 186.620 352.817 173.792 C 352.809 157.804,352.549 155.704,350.411 154.360 C 349.391 153.718,346.918 153.472,345.515 153.872 M310.963 154.119 C 307.294 155.298,303.498 158.531,301.329 162.325 L 299.834 164.940 299.725 171.190 C 299.580 179.506,300.618 182.166,305.641 186.346 C 314.926 194.073,329.673 188.771,331.864 176.917 C 334.290 163.795,327.652 154.098,316.122 153.920 C 313.742 153.883,311.420 153.973,310.963 154.119 M243.075 165.813 C 246.643 168.018,245.861 177.140,241.994 178.416 C 237.969 179.744,235.104 177.059,235.070 171.927 C 235.031 166.091,238.830 163.189,243.075 165.813 M318.826 165.864 C 321.932 167.987,321.557 176.365,318.278 178.119 C 314.174 180.313,310.934 177.711,310.692 172.028 C 310.443 166.157,314.623 162.990,318.826 165.864 M135.267 179.737 C 140.542 180.341,147.711 183.326,153.052 187.142 C 155.662 189.007,155.781 189.162,154.900 189.561 C 154.111 189.918,104.814 190.148,103.207 189.802 L 101.929 189.526 104.469 187.629 C 113.664 180.761,123.101 178.343,135.267 179.737 M226.212 201.416 C 223.807 203.018,223.762 203.300,223.687 217.442 C 223.601 233.697,223.796 234.921,226.687 236.233 C 229.339 237.437,231.410 237.029,233.561 234.878 L 234.922 233.517 234.820 219.001 C 234.706 202.864,234.681 202.670,232.495 201.337 C 230.900 200.365,227.731 200.405,226.212 201.416 M253.987 201.920 C 250.722 203.655,247.125 207.154,245.764 209.919 L 244.684 212.112 244.684 218.764 L 244.684 225.415 245.834 227.575 C 249.925 235.260,259.162 238.898,266.944 235.889 C 276.297 232.272,280.278 218.547,274.860 208.593 C 271.137 201.752,260.625 198.391,253.987 201.920 M287.341 201.416 C 284.902 203.041,284.884 203.166,284.884 218.439 C 284.884 233.703,284.896 233.800,287.127 235.709 C 289.617 237.840,293.498 237.084,295.464 234.084 C 296.331 232.762,296.171 205.200,295.286 203.246 C 294.129 200.695,289.891 199.718,287.341 201.416 M316.113 201.131 C 310.760 202.831,305.966 208.054,304.988 213.251 C 303.096 223.303,306.423 231.513,313.975 235.430 L 316.445 236.711 320.930 236.711 C 332.280 236.711,338.724 228.177,337.236 215.116 C 336.076 204.943,325.714 198.082,316.113 201.131 M344.850 201.037 C 343.331 201.641,342.236 203.006,341.847 204.784 C 341.156 207.943,341.555 232.444,342.323 233.990 C 344.131 237.629,348.410 237.920,351.603 234.622 L 352.875 233.309 352.751 219.063 C 352.613 203.233,352.557 202.787,350.532 201.424 C 349.303 200.597,346.447 200.402,344.850 201.037 M165.569 202.907 C 166.491 204.733,168.329 210.327,168.634 212.236 L 168.843 213.541 152.279 213.795 C 136.165 214.042,90.475 213.770,89.568 213.422 C 88.844 213.144,91.203 204.853,92.711 202.373 L 93.346 201.329 129.059 201.329 L 164.773 201.329 165.569 202.907 M263.551 212.478 C 265.435 213.201,266.526 217.806,265.636 221.281 C 263.638 229.079,254.099 225.571,255.367 217.505 C 256.114 212.748,259.245 210.825,263.551 212.478 M323.565 212.542 C 327.049 214.317,327.087 222.522,323.622 224.830 C 321.291 226.382,318.044 225.510,316.643 222.955 C 314.013 218.160,316.524 211.961,321.096 211.961 C 321.827 211.961,322.938 212.223,323.565 212.542 M168.619 226.454 C 168.263 228.351,166.863 233.009,166.015 235.119 L 165.241 237.043 129.181 237.128 L 93.120 237.212 91.960 234.636 C 90.622 231.662,89.187 226.533,89.480 225.770 C 89.660 225.301,93.615 225.249,129.262 225.249 L 168.845 225.249 168.619 226.454 M227.076 247.961 C 223.717 249.522,223.494 250.755,223.653 266.929 C 223.788 280.723,223.847 281.170,225.751 282.667 C 228.595 284.905,232.407 284.121,234.148 280.940 C 234.846 279.666,235.196 255.327,234.565 251.917 C 233.900 248.317,230.348 246.441,227.076 247.961 M246.645 248.450 C 244.343 250.122,244.483 248.959,244.588 265.498 C 244.697 282.475,244.593 281.785,247.239 283.225 C 249.815 284.627,253.170 283.883,254.396 281.639 C 254.929 280.665,254.993 279.157,255.085 265.486 L 255.187 250.408 254.255 249.427 C 252.140 247.202,248.929 246.790,246.645 248.450 M266.611 247.810 C 265.334 248.379,263.830 250.311,263.482 251.827 C 263.043 253.742,263.015 276.559,263.448 279.205 C 264.351 284.718,271.825 285.705,273.752 280.565 C 274.591 278.328,274.485 252.128,273.630 250.409 C 272.484 248.103,268.919 246.783,266.611 247.810 M294.768 248.022 C 279.609 252.104,278.279 275.688,292.818 282.593 L 295.332 283.787 299.742 283.664 C 306.064 283.487,310.601 280.661,314.051 274.751 L 315.312 272.591 315.214 265.449 L 315.116 258.306 313.799 256.152 C 309.543 249.190,302.153 246.033,294.768 248.022 M331.805 247.870 C 320.122 250.622,315.649 269.213,324.398 278.656 C 333.647 288.639,349.939 283.786,352.384 270.319 C 355.008 255.863,344.861 244.794,331.805 247.870 M155.638 248.807 C 156.717 249.229,148.937 254.511,144.316 256.495 C 131.223 262.115,111.331 258.801,102.513 249.531 L 101.537 248.505 128.260 248.528 C 142.958 248.541,155.278 248.667,155.638 248.807 M302.024 259.619 C 305.414 261.852,305.416 269.416,302.027 271.673 C 297.772 274.508,293.656 270.952,294.094 264.822 C 294.482 259.404,298.097 257.033,302.024 259.619 M339.213 259.642 C 342.332 261.803,342.088 270.214,338.859 271.843 C 333.761 274.415,329.734 269.121,331.595 262.292 C 332.546 258.802,336.178 257.539,339.213 259.642 M96.712 285.176 C 98.795 286.159,101.246 287.298,102.159 287.707 L 103.821 288.452 102.872 288.725 C 100.414 289.432,90.703 298.330,87.120 303.156 C 81.960 310.108,78.862 318.867,77.588 330.104 C 76.878 336.369,75.971 337.796,72.494 338.120 C 66.840 338.646,65.525 331.124,68.938 317.774 C 72.069 305.524,77.679 296.291,87.722 286.855 C 92.119 282.724,91.688 282.804,96.712 285.176 M133.972 293.197 C 140.163 294.118,144.103 295.456,149.169 298.358 C 152.524 300.280,155.916 302.889,155.639 303.336 C 155.516 303.535,145.390 303.654,128.653 303.654 L 101.863 303.654 103.008 302.472 C 109.395 295.872,123.518 291.642,133.972 293.197 M251.879 303.326 C 248.035 303.896,246.230 307.373,247.835 311.117 C 249.181 314.257,248.369 314.213,305.491 314.257 L 349.021 314.290 350.840 312.448 C 353.540 309.712,353.317 306.456,350.269 304.124 L 349.003 303.156 301.329 303.110 C 275.108 303.084,252.856 303.182,251.879 303.326 M165.117 315.033 C 165.118 315.079,165.576 316.238,166.136 317.608 C 167.064 319.880,168.760 325.824,168.768 326.827 C 168.771 327.283,103.490 327.453,94.069 327.022 L 89.301 326.804 89.503 325.538 C 89.787 323.762,91.263 319.132,92.268 316.860 L 93.114 314.950 129.115 314.950 C 148.916 314.950,165.117 314.988,165.117 315.033 M284.159 326.891 C 280.415 327.050,279.645 327.177,278.844 327.771 C 274.497 330.996,276.037 336.564,281.561 337.603 C 284.995 338.248,346.344 338.241,348.485 337.595 C 355.130 335.590,353.872 327.494,346.819 326.876 C 343.413 326.577,291.284 326.590,284.159 326.891 " stroke="none" fill="#8c9c9c" fill-rule="evenodd"></path><path id="path1" d="M198.920 82.294 C 199.331 82.373,200.004 82.373,200.415 82.294 C 200.826 82.215,200.490 82.150,199.668 82.150 C 198.846 82.150,198.509 82.215,198.920 82.294 M204.236 82.294 C 204.647 82.373,205.320 82.373,205.731 82.294 C 206.142 82.215,205.806 82.150,204.983 82.150 C 204.161 82.150,203.825 82.215,204.236 82.294 M228.488 82.294 C 228.900 82.373,229.572 82.373,229.983 82.294 C 230.395 82.215,230.058 82.150,229.236 82.150 C 228.414 82.150,228.077 82.215,228.488 82.294 M292.608 82.294 C 293.019 82.373,293.692 82.373,294.103 82.294 C 294.514 82.215,294.178 82.150,293.355 82.150 C 292.533 82.150,292.197 82.215,292.608 82.294 " stroke="none" fill="#909c9c" fill-rule="evenodd"></path><path id="path2" d="M198.920 82.294 C 199.331 82.373,200.004 82.373,200.415 82.294 C 200.826 82.215,200.490 82.150,199.668 82.150 C 198.846 82.150,198.509 82.215,198.920 82.294 M204.236 82.294 C 204.647 82.373,205.320 82.373,205.731 82.294 C 206.142 82.215,205.806 82.150,204.983 82.150 C 204.161 82.150,203.825 82.215,204.236 82.294 M228.488 82.294 C 228.900 82.373,229.572 82.373,229.983 82.294 C 230.395 82.215,230.058 82.150,229.236 82.150 C 228.414 82.150,228.077 82.215,228.488 82.294 M292.608 82.294 C 293.019 82.373,293.692 82.373,294.103 82.294 C 294.514 82.215,294.178 82.150,293.355 82.150 C 292.533 82.150,292.197 82.215,292.608 82.294 " stroke="none" fill="#909c9c" fill-rule="evenodd"></path><path id="path3" d="M198.920 82.294 C 199.331 82.373,200.004 82.373,200.415 82.294 C 200.826 82.215,200.490 82.150,199.668 82.150 C 198.846 82.150,198.509 82.215,198.920 82.294 M204.236 82.294 C 204.647 82.373,205.320 82.373,205.731 82.294 C 206.142 82.215,205.806 82.150,204.983 82.150 C 204.161 82.150,203.825 82.215,204.236 82.294 M228.488 82.294 C 228.900 82.373,229.572 82.373,229.983 82.294 C 230.395 82.215,230.058 82.150,229.236 82.150 C 228.414 82.150,228.077 82.215,228.488 82.294 M292.608 82.294 C 293.019 82.373,293.692 82.373,294.103 82.294 C 294.514 82.215,294.178 82.150,293.355 82.150 C 292.533 82.150,292.197 82.215,292.608 82.294 " stroke="none" fill="#909c9c" fill-rule="evenodd"></path><path id="path4" d="M198.920 82.294 C 199.331 82.373,200.004 82.373,200.415 82.294 C 200.826 82.215,200.490 82.150,199.668 82.150 C 198.846 82.150,198.509 82.215,198.920 82.294 M204.236 82.294 C 204.647 82.373,205.320 82.373,205.731 82.294 C 206.142 82.215,205.806 82.150,204.983 82.150 C 204.161 82.150,203.825 82.215,204.236 82.294 M228.488 82.294 C 228.900 82.373,229.572 82.373,229.983 82.294 C 230.395 82.215,230.058 82.150,229.236 82.150 C 228.414 82.150,228.077 82.215,228.488 82.294 M292.608 82.294 C 293.019 82.373,293.692 82.373,294.103 82.294 C 294.514 82.215,294.178 82.150,293.355 82.150 C 292.533 82.150,292.197 82.215,292.608 82.294 " stroke="none" fill="#909c9c" fill-rule="evenodd"></path></g></svg>