<?xml version="1.0" standalone="no"?>
<!DOCTYPE svg PUBLIC "-//W3C//DTD SVG 20010904//EN"
 "http://www.w3.org/TR/2001/REC-SVG-20010904/DTD/svg10.dtd">
<svg version="1.0" xmlns="http://www.w3.org/2000/svg"
 width="300.000000pt" height="300.000000pt" viewBox="0 0 300.000000 300.000000"
 preserveAspectRatio="xMidYMid meet">
<metadata>
Created by potrace 1.10, written by Peter Selinger 2001-2011
</metadata>
<g transform="translate(0.000000,300.000000) scale(0.100000,-0.100000)"
fill="#000000" stroke="none">
<path d="M940 2513 c-192 -29 -367 -181 -431 -371 -29 -85 -32 -250 -6 -325
60 -172 169 -289 330 -354 71 -29 138 -40 292 -48 61 -3 124 -8 141 -11 18 -2
99 -11 182 -18 119 -11 162 -19 204 -38 73 -34 134 -97 169 -174 55 -122 34
-280 -50 -375 -48 -54 -133 -106 -187 -115 -37 -5 -42 -4 -47 17 -4 13 -7 72
-7 130 0 165 -38 263 -147 377 -99 103 -234 162 -372 162 -223 0 -408 -131
-498 -351 -26 -61 -27 -74 -31 -274 -4 -204 -3 -211 18 -237 20 -26 26 -28
100 -28 73 0 81 2 95 24 9 13 20 63 25 111 13 124 58 194 160 246 36 19 61 24
125 24 123 0 198 -44 261 -151 20 -34 27 -62 31 -126 4 -65 10 -88 26 -106
l20 -22 347 0 c378 0 406 3 529 60 87 41 197 151 239 241 84 175 82 329 -4
506 -33 67 -133 170 -204 210 -104 59 -159 71 -431 93 -448 36 -481 43 -567
131 -173 174 -123 468 96 571 24 12 60 21 80 22 l37 1 6 -140 c6 -145 11 -170
49 -245 91 -183 275 -300 470 -300 197 0 383 116 470 294 52 106 60 153 60
370 0 227 0 226 -119 226 -99 0 -106 -7 -115 -115 -11 -139 -75 -231 -193
-275 -101 -38 -208 -19 -287 51 -72 64 -97 114 -103 211 -4 65 -10 88 -26 106
l-20 22 -346 -1 c-190 -1 -357 -3 -371 -6z m725 -62 c-8 -50 9 -141 37 -198
27 -53 105 -128 155 -149 62 -26 135 -34 200 -20 161 33 263 163 263 336 l0
70 86 0 86 0 -4 -207 c-5 -176 -9 -218 -27 -274 -72 -226 -299 -371 -530 -339
-111 15 -222 71 -295 151 -105 113 -136 207 -136 409 l0 133 -54 -6 c-122 -12
-234 -94 -293 -215 -36 -71 -38 -81 -37 -166 0 -70 6 -105 23 -148 38 -98 141
-194 243 -227 20 -7 187 -25 370 -40 364 -31 401 -39 501 -105 367 -244 280
-790 -145 -923 -46 -15 -104 -17 -412 -16 l-359 2 -2 73 c-5 168 -108 296
-267 328 -203 41 -388 -121 -388 -338 l0 -69 -82 2 -83 2 1 199 c0 175 3 207
22 270 74 240 321 391 559 341 193 -41 340 -178 388 -362 10 -39 15 -105 15
-193 l0 -135 51 6 c72 9 170 57 224 112 26 25 61 76 78 113 29 61 32 76 32
162 0 88 -3 101 -33 162 -42 86 -129 168 -209 198 -47 18 -122 27 -393 50
-368 31 -396 37 -506 109 -140 90 -224 243 -226 411 -2 145 49 273 150 374 67
67 188 131 272 145 30 5 207 9 393 10 l339 1 -7 -39z"/>
</g>
</svg>
