<?xml version="1.0" standalone="no"?>
<!DOCTYPE svg PUBLIC "-//W3C//DTD SVG 20010904//EN"
 "http://www.w3.org/TR/2001/REC-SVG-20010904/DTD/svg10.dtd">
<svg version="1.0" xmlns="http://www.w3.org/2000/svg"
 width="512.000000pt" height="512.000000pt" viewBox="0 0 512.000000 512.000000"
 preserveAspectRatio="xMidYMid meet">

<g transform="translate(0.000000,512.000000) scale(0.100000,-0.100000)"
fill="#000000" stroke="none">
<path d="M2191 5106 c-47 -26 -50 -45 -51 -293 l0 -233 -310 0 -310 0 -32 -29
c-44 -39 -46 -98 -5 -138 l27 -28 1654 -5 c1652 -5 1655 -5 1682 -26 15 -11
37 -33 48 -48 21 -27 21 -29 21 -1386 0 -1357 0 -1359 -21 -1386 -11 -15 -33
-37 -48 -48 l-27 -21 -2259 0 -2259 0 -27 21 c-15 11 -37 33 -48 48 -21 27
-21 29 -21 1386 0 1357 0 1359 21 1386 50 68 52 68 317 74 133 3 250 9 260 14
24 11 47 58 47 94 0 34 -37 78 -72 87 -14 4 -132 5 -264 3 -238 -3 -239 -3
-299 -31 -78 -36 -146 -104 -182 -181 l-28 -61 0 -1385 0 -1385 28 -60 c36
-78 104 -146 181 -182 l61 -28 578 -3 c317 -1 577 -5 577 -9 0 -3 -128 -259
-285 -568 -157 -309 -285 -572 -285 -583 0 -35 22 -73 51 -88 41 -21 697 -21
737 0 23 12 72 102 257 466 l230 452 5 -433 c3 -239 9 -442 14 -452 21 -44 46
-47 406 -47 360 0 385 3 406 47 5 10 11 213 14 452 l5 433 230 -452 c185 -364
234 -454 257 -466 40 -21 696 -21 737 0 29 15 51 53 51 88 0 11 -128 274 -285
583 -157 309 -285 565 -285 569 0 3 251 6 558 6 480 0 566 2 612 16 101 30
180 99 227 199 l28 60 0 1385 0 1385 -28 60 c-47 100 -126 169 -227 199 -47
14 -163 16 -967 16 l-913 0 0 230 c0 248 -4 271 -51 296 -39 20 -702 20 -738
0z m589 -356 l0 -170 -220 0 -220 0 0 170 0 170 220 0 220 0 0 -170z m-710
-3497 c0 -5 -119 -242 -265 -528 l-264 -520 -205 -3 c-113 -1 -206 0 -206 3 0
7 60 127 317 633 l215 422 204 0 c112 0 204 -3 204 -7z m710 -523 l0 -530
-220 0 -220 0 0 530 0 530 220 0 220 0 0 -530z m945 5 c146 -286 265 -523 265
-528 0 -4 -93 -6 -206 -5 l-205 3 -264 520 c-146 286 -265 523 -265 528 0 4
93 6 206 5 l205 -3 264 -520z"/>
<path d="M1088 4551 c-27 -24 -33 -36 -33 -71 0 -72 76 -121 138 -89 75 39 75
139 0 178 -36 18 -71 13 -105 -18z"/>
<path d="M2494 3916 c-38 -38 -43 -72 -17 -116 9 -16 27 -33 40 -39 35 -16
1203 -15 1238 1 29 13 55 55 55 88 0 31 -29 76 -57 89 -16 8 -214 11 -624 11
l-601 0 -34 -34z"/>
<path d="M4044 3916 c-37 -37 -43 -70 -20 -115 15 -28 53 -51 86 -51 51 0 100
49 100 100 0 31 -29 76 -57 89 -42 19 -73 13 -109 -23z"/>
<path d="M1290 3913 c-26 -23 -32 -38 -37 -85 l-6 -57 -56 -11 c-166 -32 -330
-115 -452 -228 -132 -123 -224 -276 -270 -447 -29 -109 -32 -306 -5 -419 124
-533 670 -840 1183 -666 299 102 524 352 595 663 l22 97 39 0 c54 0 103 25
118 61 16 40 6 187 -20 294 -48 195 -132 344 -281 496 -141 143 -266 222 -441
278 -84 27 -226 51 -300 51 -50 0 -63 -4 -89 -27z m345 -221 c213 -74 400
-234 498 -427 40 -81 76 -188 84 -252 l6 -53 -384 2 -384 3 -3 384 -2 384 50
-6 c28 -3 88 -19 135 -35z m-385 -354 l0 -233 -162 162 c-156 156 -162 163
-143 178 39 30 181 95 240 109 33 8 61 15 63 15 1 1 2 -104 2 -231z m67 -567
c15 -7 139 -11 383 -11 l360 0 -6 -27 c-58 -265 -241 -470 -489 -549 -327
-105 -694 52 -846 361 -55 113 -73 190 -73 315 -1 147 31 259 106 381 l31 51
256 -255 c141 -140 266 -260 278 -266z"/>
<path d="M2494 3436 c-38 -38 -43 -72 -17 -116 9 -16 27 -33 40 -39 16 -7 141
-11 364 -11 369 0 383 2 407 55 7 14 12 35 12 46 0 30 -30 76 -57 88 -16 7
-142 11 -369 11 l-346 0 -34 -34z"/>
<path d="M4584 3451 c-12 -5 -31 -22 -43 -37 -21 -27 -21 -29 -21 -645 l0
-619 -100 0 -100 0 0 510 0 510 -29 32 -29 33 -282 0 -282 0 -29 -33 c-28 -31
-29 -36 -29 -132 l0 -100 -207 0 c-275 -1 -273 1 -273 -204 l0 -126 -200 0
c-219 0 -246 -5 -268 -55 -8 -17 -12 -93 -12 -230 l0 -205 -76 0 c-73 0 -77
-1 -110 -34 -46 -46 -46 -86 0 -132 l34 -34 1056 0 c1148 0 1098 -2 1124 55 9
19 12 200 12 705 l0 680 -27 30 c-30 32 -75 45 -109 31z m-464 -856 l0 -445
-140 0 -140 0 0 445 0 445 140 0 140 0 0 -445z m-480 -135 l0 -310 -140 0
-140 0 0 310 0 310 140 0 140 0 0 -310z m-480 -165 l0 -145 -140 0 -140 0 0
145 0 145 140 0 140 0 0 -145z"/>
</g>
</svg>
