<svg id="svg" version="1.1" xmlns="http://www.w3.org/2000/svg" xmlns:xlink="http://www.w3.org/1999/xlink" width="400" height="400" viewBox="0, 0, 400,400"><g id="svgg"><path id="path0" d="M317.600 5.687 C 317.600 5.859,315.721 6.000,313.424 6.000 C 311.071 6.000,309.139 6.175,309.000 6.400 C 308.864 6.620,307.953 6.800,306.976 6.800 C 305.999 6.800,305.200 6.980,305.200 7.200 C 305.200 7.420,304.480 7.600,303.600 7.600 C 302.720 7.600,302.000 7.780,302.000 8.000 C 302.000 8.220,301.460 8.400,300.800 8.400 C 300.140 8.400,299.600 8.570,299.600 8.777 C 299.600 8.984,299.240 9.085,298.800 9.000 C 298.360 8.915,298.000 8.972,298.000 9.126 C 298.000 9.279,297.247 9.640,296.327 9.927 C 295.407 10.215,294.164 10.798,293.565 11.225 C 292.966 11.651,292.189 12.000,291.838 12.000 C 291.487 12.000,291.200 12.180,291.200 12.400 C 291.200 12.620,290.859 12.800,290.443 12.800 C 290.026 12.800,289.578 13.081,289.446 13.425 C 289.314 13.769,289.052 13.956,288.863 13.839 C 288.675 13.723,288.141 13.981,287.677 14.414 C 287.213 14.846,286.673 15.200,286.476 15.200 C 286.279 15.200,285.554 15.740,284.863 16.400 C 284.172 17.060,283.426 17.600,283.204 17.600 C 282.982 17.600,282.800 17.780,282.800 18.000 C 282.800 18.220,282.611 18.400,282.381 18.400 C 281.822 18.400,274.000 26.443,274.000 27.017 C 274.000 27.122,273.460 27.772,272.800 28.463 C 272.140 29.154,271.600 29.922,271.600 30.171 C 271.600 30.420,271.240 30.883,270.800 31.200 C 270.360 31.517,270.000 32.097,270.000 32.488 C 270.000 32.880,269.801 33.200,269.557 33.200 C 269.314 33.200,269.213 33.457,269.333 33.771 C 269.454 34.085,269.293 34.557,268.976 34.820 C 268.659 35.083,268.400 35.546,268.400 35.849 C 268.400 36.152,268.220 36.400,268.000 36.400 C 267.780 36.400,267.600 36.760,267.600 37.200 C 267.600 37.640,267.420 38.000,267.200 38.000 C 266.980 38.000,266.800 38.360,266.800 38.800 C 266.800 39.240,266.620 39.600,266.400 39.600 C 266.180 39.600,266.000 39.872,266.000 40.205 C 266.000 40.538,265.820 41.168,265.600 41.605 C 265.380 42.042,265.020 42.758,264.800 43.195 C 264.580 43.632,264.400 44.431,264.400 44.971 C 264.400 45.511,264.220 46.064,264.000 46.200 C 263.780 46.336,263.600 46.962,263.600 47.590 C 263.600 48.219,263.375 48.825,263.100 48.936 C 262.724 49.089,262.748 49.244,263.200 49.563 C 263.564 49.821,263.614 49.990,263.327 49.994 C 263.055 49.997,262.869 50.544,262.890 51.279 C 262.910 51.982,262.710 52.630,262.446 52.718 C 262.081 52.840,262.090 53.030,262.483 53.516 C 262.907 54.038,262.906 54.097,262.478 53.840 C 261.390 53.185,262.288 75.146,263.395 76.252 C 263.672 76.529,263.814 77.194,263.711 77.731 C 263.609 78.267,263.722 78.828,263.962 78.977 C 264.203 79.125,264.400 79.777,264.400 80.424 C 264.400 81.071,264.580 81.600,264.800 81.600 C 265.020 81.600,265.200 82.039,265.200 82.576 C 265.200 83.113,265.380 83.664,265.600 83.800 C 265.820 83.936,266.000 84.397,266.000 84.824 C 266.000 85.251,266.180 85.600,266.400 85.600 C 266.620 85.600,266.800 85.960,266.800 86.400 C 266.800 86.840,266.980 87.200,267.200 87.200 C 267.420 87.200,267.600 87.560,267.600 88.000 C 267.600 88.440,267.780 88.800,268.000 88.800 C 268.220 88.800,268.400 89.171,268.400 89.624 C 268.400 90.077,268.580 90.336,268.800 90.200 C 269.020 90.064,269.200 90.284,269.200 90.688 C 269.200 91.093,269.560 91.683,270.000 92.000 C 270.440 92.317,270.800 92.897,270.800 93.288 C 270.800 93.680,270.980 94.000,271.200 94.000 C 271.420 94.000,271.600 94.241,271.600 94.536 C 271.600 94.831,272.320 95.807,273.200 96.705 C 276.276 99.843,279.259 99.600,237.600 99.600 L 200.400 99.600 200.353 67.300 C 200.327 49.535,200.334 34.775,200.370 34.500 C 200.406 34.225,200.247 34.000,200.018 34.000 C 199.788 34.000,199.600 33.822,199.600 33.605 C 199.600 32.996,198.285 31.600,197.711 31.600 C 197.430 31.600,197.200 31.420,197.200 31.200 C 197.200 30.645,165.741 30.653,165.083 31.207 C 161.739 34.027,162.000 30.981,162.000 67.195 L 162.000 99.600 159.400 99.600 L 156.800 99.600 156.800 54.400 C 156.800 29.540,156.665 9.199,156.500 9.197 C 156.335 9.196,155.893 8.656,155.519 7.997 C 155.144 7.339,154.559 6.800,154.219 6.800 C 153.878 6.800,153.600 6.620,153.600 6.400 C 153.600 6.140,148.000 6.000,137.600 6.000 C 127.200 6.000,121.600 6.140,121.600 6.400 C 121.600 6.620,121.339 6.800,121.020 6.800 C 120.702 6.800,119.982 7.402,119.420 8.138 L 118.400 9.476 118.400 54.538 L 118.400 99.600 115.600 99.600 L 112.800 99.600 112.800 76.200 C 112.800 60.867,112.662 52.800,112.400 52.800 C 112.180 52.800,112.000 52.517,112.000 52.171 C 112.000 51.363,111.037 50.400,110.229 50.400 C 109.883 50.400,109.600 50.220,109.600 50.000 C 109.600 49.740,104.097 49.600,93.891 49.600 L 78.182 49.600 76.687 50.832 C 75.865 51.510,75.295 52.230,75.420 52.432 C 75.545 52.634,75.457 52.800,75.224 52.800 C 74.991 52.800,74.821 52.935,74.847 53.100 C 74.873 53.265,74.873 63.795,74.847 76.500 L 74.800 99.600 49.800 99.600 C 33.400 99.600,24.800 99.738,24.800 100.000 C 24.800 100.220,24.260 100.400,23.600 100.400 C 22.940 100.400,22.400 100.580,22.400 100.800 C 22.400 101.020,21.860 101.200,21.200 101.200 C 20.540 101.200,20.000 101.380,20.000 101.600 C 20.000 101.820,19.680 102.000,19.288 102.000 C 18.897 102.000,18.317 102.360,18.000 102.800 C 17.683 103.240,17.220 103.600,16.971 103.600 C 16.722 103.600,15.996 104.095,15.358 104.700 C 14.719 105.305,13.702 106.119,13.098 106.509 C 12.494 106.899,11.998 107.439,11.996 107.709 C 11.994 107.979,11.446 108.632,10.777 109.161 C 10.108 109.689,9.649 110.351,9.757 110.631 C 9.864 110.912,9.697 111.354,9.385 111.613 C 8.627 112.242,7.600 114.341,7.600 115.261 C 7.600 115.668,7.420 116.000,7.200 116.000 C 6.980 116.000,6.800 116.540,6.800 117.200 C 6.800 117.860,6.620 118.400,6.400 118.400 C 6.134 118.400,6.000 152.133,6.000 218.800 C 6.000 285.467,6.134 319.200,6.400 319.200 C 6.620 319.200,6.800 319.740,6.800 320.400 C 6.800 321.060,6.980 321.600,7.200 321.600 C 7.420 321.600,7.600 322.050,7.600 322.600 C 7.600 323.150,7.780 323.600,8.000 323.600 C 8.220 323.600,8.400 323.953,8.400 324.384 C 8.400 324.816,8.792 325.534,9.271 325.980 C 9.750 326.426,10.023 326.910,9.878 327.055 C 9.603 327.331,11.559 329.199,12.124 329.200 C 12.302 329.200,12.350 329.357,12.232 329.548 C 12.006 329.914,13.283 331.600,13.786 331.600 C 13.947 331.600,14.583 332.140,15.200 332.800 C 15.817 333.460,16.569 334.000,16.872 334.000 C 17.175 334.000,17.683 334.360,18.000 334.800 C 18.317 335.240,18.897 335.600,19.288 335.600 C 19.680 335.600,20.000 335.801,20.000 336.047 C 20.000 336.298,20.353 336.401,20.807 336.282 C 21.251 336.166,21.868 336.325,22.178 336.636 C 22.489 336.946,23.206 337.200,23.771 337.200 C 24.337 337.200,24.800 337.380,24.800 337.600 C 24.800 337.865,47.392 338.000,91.776 338.000 C 135.996 338.000,158.837 338.136,159.000 338.400 C 159.136 338.620,159.057 338.800,158.824 338.800 C 158.591 338.800,158.400 339.340,158.400 340.000 C 158.400 340.660,158.220 341.200,158.000 341.200 C 157.780 341.200,157.600 341.729,157.600 342.376 C 157.600 343.023,157.420 343.664,157.200 343.800 C 156.980 343.936,156.800 344.399,156.800 344.829 C 156.800 345.259,156.620 345.968,156.400 346.405 C 156.180 346.842,155.814 347.567,155.586 348.016 C 155.359 348.465,155.263 348.979,155.374 349.157 C 155.484 349.336,155.316 349.824,155.000 350.241 C 154.684 350.658,154.420 351.394,154.413 351.876 C 154.406 352.358,154.220 352.864,154.000 353.000 C 153.780 353.136,153.600 353.687,153.600 354.224 C 153.600 354.761,153.420 355.200,153.200 355.200 C 152.980 355.200,152.800 355.740,152.800 356.400 C 152.800 357.060,152.620 357.600,152.400 357.600 C 152.180 357.600,152.000 358.140,152.000 358.800 C 152.000 359.460,151.820 360.000,151.600 360.000 C 151.380 360.000,151.200 360.450,151.200 361.000 L 151.200 362.000 139.795 362.000 C 128.333 362.000,127.643 362.074,126.115 363.471 C 125.832 363.731,125.600 364.226,125.600 364.571 C 125.600 364.917,125.420 365.200,125.200 365.200 C 124.947 365.200,124.800 368.067,124.800 373.000 L 124.800 380.800 92.195 380.800 C 66.846 380.800,59.393 380.911,58.710 381.300 C 57.369 382.063,56.800 382.680,56.800 383.371 C 56.800 383.717,56.613 384.000,56.384 384.000 C 56.122 384.000,55.992 385.332,56.034 387.600 C 56.070 389.580,56.257 391.200,56.450 391.200 C 56.642 391.200,56.800 391.393,56.800 391.629 C 56.800 392.132,57.485 392.803,58.710 393.500 C 59.844 394.145,341.200 394.245,341.200 393.600 C 341.200 393.380,341.393 393.200,341.629 393.200 C 342.182 393.200,343.200 392.182,343.200 391.629 C 343.200 391.393,343.380 391.200,343.600 391.200 C 343.837 391.200,344.000 389.733,344.000 387.600 C 344.000 385.467,343.837 384.000,343.600 384.000 C 343.380 384.000,343.200 383.717,343.200 383.371 C 343.200 382.563,342.237 381.600,341.429 381.600 C 341.083 381.600,340.800 381.420,340.800 381.200 C 340.800 380.937,329.600 380.800,308.000 380.800 L 275.200 380.800 275.200 373.219 C 275.200 361.489,275.883 362.000,260.206 362.000 L 248.800 362.000 248.800 361.000 C 248.800 360.450,248.620 360.000,248.400 360.000 C 248.180 360.000,248.000 359.460,248.000 358.800 C 248.000 358.140,247.820 357.600,247.600 357.600 C 247.380 357.600,247.200 357.060,247.200 356.400 C 247.200 355.740,247.020 355.200,246.800 355.200 C 246.580 355.200,246.400 354.761,246.400 354.224 C 246.400 353.687,246.220 353.136,246.000 353.000 C 245.780 352.864,245.600 352.324,245.600 351.800 C 245.600 351.276,245.420 350.736,245.200 350.600 C 244.980 350.464,244.800 349.924,244.800 349.400 C 244.800 348.876,244.620 348.336,244.400 348.200 C 244.180 348.064,244.000 347.513,244.000 346.976 C 244.000 346.439,243.820 346.000,243.600 346.000 C 243.380 346.000,243.200 345.460,243.200 344.800 C 243.200 344.140,243.020 343.600,242.800 343.600 C 242.580 343.600,242.400 343.075,242.400 342.433 C 242.400 341.792,242.248 341.207,242.062 341.133 C 241.876 341.060,241.618 340.325,241.487 339.500 L 241.250 338.000 306.725 337.961 C 342.736 337.940,372.875 337.954,373.700 337.992 C 374.547 338.031,375.200 337.874,375.200 337.631 C 375.200 337.394,375.639 337.200,376.176 337.200 C 376.713 337.200,377.264 337.020,377.400 336.800 C 377.536 336.580,378.177 336.400,378.824 336.400 C 379.471 336.400,380.000 336.220,380.000 336.000 C 380.000 335.780,380.320 335.600,380.712 335.600 C 381.103 335.600,381.683 335.240,382.000 334.800 C 382.317 334.360,382.825 334.000,383.128 334.000 C 383.431 334.000,384.183 333.460,384.800 332.800 C 385.417 332.140,386.109 331.600,386.338 331.600 C 386.893 331.600,388.022 329.960,387.760 329.535 C 387.646 329.351,387.752 329.200,387.995 329.200 C 388.571 329.200,390.400 327.367,390.400 326.790 C 390.400 326.544,390.670 326.073,391.000 325.743 C 391.330 325.413,391.600 324.796,391.600 324.371 C 391.600 323.947,391.780 323.600,392.000 323.600 C 392.220 323.600,392.400 323.150,392.400 322.600 C 392.400 322.050,392.580 321.600,392.800 321.600 C 393.020 321.600,393.200 321.060,393.200 320.400 C 393.200 319.740,393.380 319.200,393.600 319.200 C 393.866 319.200,394.000 285.467,394.000 218.800 C 394.000 152.133,393.866 118.400,393.600 118.400 C 393.380 118.400,393.200 117.860,393.200 117.200 C 393.200 116.540,393.020 116.000,392.800 116.000 C 392.580 116.000,392.400 115.537,392.400 114.971 C 392.400 114.406,392.128 113.671,391.796 113.339 C 391.464 113.007,391.302 112.558,391.437 112.341 C 391.571 112.124,391.323 111.853,390.887 111.739 C 390.368 111.603,390.157 111.287,390.277 110.827 C 390.391 110.392,390.029 109.755,389.331 109.161 C 388.709 108.633,387.881 107.705,387.491 107.100 C 387.101 106.495,386.588 106.000,386.351 106.000 C 386.115 106.000,385.417 105.460,384.800 104.800 C 384.183 104.140,383.431 103.600,383.128 103.600 C 382.825 103.600,382.317 103.240,382.000 102.800 C 381.683 102.360,381.103 102.000,380.712 102.000 C 380.320 102.000,380.000 101.820,380.000 101.600 C 380.000 101.380,379.460 101.200,378.800 101.200 C 378.140 101.200,377.600 101.020,377.600 100.800 C 377.600 100.580,377.060 100.400,376.400 100.400 C 375.740 100.400,375.200 100.220,375.200 100.000 C 375.200 99.751,372.867 99.600,369.000 99.600 C 365.590 99.600,362.800 99.508,362.800 99.395 C 362.800 98.974,363.823 97.387,364.500 96.757 C 364.885 96.399,365.200 95.852,365.200 95.541 C 365.200 95.231,365.560 94.717,366.000 94.400 C 366.440 94.083,366.800 93.569,366.800 93.259 C 366.800 92.948,367.115 92.401,367.500 92.043 C 368.411 91.195,369.200 89.775,369.200 88.982 C 369.200 88.636,369.380 88.464,369.600 88.600 C 369.820 88.736,370.000 88.477,370.000 88.024 C 370.000 87.571,370.180 87.200,370.400 87.200 C 370.620 87.200,370.800 86.851,370.800 86.424 C 370.800 85.997,370.996 85.526,371.235 85.378 C 371.474 85.231,371.584 84.782,371.479 84.381 C 371.374 83.980,371.494 83.572,371.744 83.476 C 372.172 83.311,373.430 79.628,373.850 77.315 C 373.953 76.744,374.189 75.989,374.374 75.638 C 375.335 73.809,375.204 50.425,374.224 48.838 C 374.096 48.632,373.906 47.954,373.801 47.331 C 373.305 44.395,373.083 43.600,372.755 43.600 C 372.560 43.600,372.400 43.280,372.400 42.889 C 372.400 42.498,372.136 41.802,371.814 41.342 C 371.492 40.881,371.352 40.382,371.503 40.231 C 371.653 40.080,371.602 39.831,371.388 39.678 C 370.879 39.314,370.000 37.729,370.000 37.177 C 370.000 36.938,369.728 36.471,369.396 36.139 C 369.064 35.807,368.895 35.370,369.020 35.168 C 369.145 34.965,369.057 34.800,368.824 34.800 C 368.591 34.800,368.400 34.440,368.400 34.000 C 368.400 33.560,368.220 33.200,368.000 33.200 C 367.780 33.200,367.600 32.964,367.600 32.675 C 367.600 32.387,367.240 31.764,366.800 31.292 C 366.360 30.820,365.999 30.291,365.998 30.117 C 365.997 29.943,365.457 29.225,364.798 28.522 C 364.139 27.819,363.600 27.140,363.600 27.014 C 363.600 26.888,362.475 25.644,361.100 24.250 C 359.725 22.855,357.925 20.940,357.100 19.993 C 356.275 19.046,355.589 18.526,355.575 18.836 C 355.561 19.146,355.387 18.995,355.188 18.500 C 354.989 18.005,354.632 17.600,354.395 17.600 C 354.158 17.600,353.528 17.164,352.995 16.631 C 352.462 16.098,351.660 15.546,351.213 15.404 C 350.766 15.262,350.400 15.000,350.400 14.822 C 350.400 14.643,349.860 14.273,349.200 14.000 C 348.540 13.727,348.000 13.345,348.000 13.151 C 348.000 12.958,347.640 12.800,347.200 12.800 C 346.760 12.800,346.400 12.620,346.400 12.400 C 346.400 12.180,346.040 12.000,345.600 12.000 C 345.160 12.000,344.800 11.820,344.800 11.600 C 344.800 11.380,344.440 11.200,344.000 11.200 C 343.560 11.200,343.200 11.001,343.200 10.757 C 343.200 10.514,342.943 10.413,342.629 10.533 C 342.315 10.654,341.836 10.485,341.565 10.158 C 341.294 9.831,340.842 9.652,340.562 9.759 C 340.281 9.867,339.988 9.763,339.909 9.528 C 339.831 9.292,339.282 9.100,338.691 9.100 C 338.099 9.100,337.712 8.942,337.831 8.750 C 337.950 8.557,337.497 8.400,336.824 8.400 C 336.151 8.400,335.600 8.220,335.600 8.000 C 335.600 7.780,334.880 7.600,334.000 7.600 C 333.120 7.600,332.400 7.420,332.400 7.200 C 332.400 6.980,331.500 6.800,330.400 6.800 C 329.300 6.800,328.400 6.620,328.400 6.400 C 328.400 6.159,326.741 6.000,324.224 6.000 C 321.914 6.000,319.938 5.824,319.804 5.606 C 319.522 5.150,317.600 5.221,317.600 5.687 M143.200 90.600 L 143.200 162.000 137.400 162.000 L 131.600 162.000 131.600 90.600 L 131.600 19.200 137.400 19.200 L 143.200 19.200 143.200 90.600 M312.000 39.462 L 312.000 58.924 308.994 61.844 C 307.341 63.450,306.036 64.997,306.094 65.282 C 306.152 65.567,306.005 65.765,305.767 65.722 C 305.529 65.680,304.094 66.895,302.578 68.422 C 301.062 69.950,299.997 71.203,300.211 71.206 C 300.425 71.209,300.150 71.449,299.600 71.739 C 299.050 72.028,298.649 72.489,298.710 72.762 C 298.770 73.036,298.641 73.149,298.423 73.014 C 297.890 72.685,293.931 76.765,294.263 77.301 C 294.411 77.542,294.334 77.606,294.082 77.451 C 293.502 77.092,289.092 81.502,289.451 82.082 C 289.601 82.325,289.543 82.412,289.323 82.276 C 288.815 81.962,286.683 84.149,287.094 84.561 C 287.262 84.729,287.130 84.807,286.800 84.733 C 286.470 84.660,286.245 84.825,286.300 85.100 C 286.355 85.375,286.175 85.555,285.900 85.500 C 285.625 85.445,285.445 85.625,285.500 85.900 C 285.555 86.175,285.375 86.355,285.100 86.300 C 284.825 86.245,284.639 86.407,284.686 86.659 C 284.737 86.931,284.452 87.034,283.986 86.912 C 283.554 86.799,283.200 86.458,283.200 86.153 C 283.200 85.849,283.020 85.600,282.800 85.600 C 282.580 85.600,282.400 85.364,282.400 85.075 C 282.400 84.787,282.040 84.164,281.600 83.692 C 281.160 83.220,280.800 82.556,280.800 82.217 C 280.800 81.878,280.620 81.600,280.400 81.600 C 280.180 81.600,280.000 81.240,280.000 80.800 C 280.000 80.360,279.820 80.000,279.600 80.000 C 279.380 80.000,279.200 79.550,279.200 79.000 C 279.200 78.450,279.020 78.000,278.800 78.000 C 278.580 78.000,278.400 77.539,278.400 76.976 C 278.400 76.396,278.227 76.060,278.000 76.200 C 277.758 76.349,277.600 75.804,277.600 74.824 C 277.600 73.931,277.420 73.200,277.200 73.200 C 276.980 73.200,276.800 72.480,276.800 71.600 C 276.800 70.720,276.620 70.000,276.400 70.000 C 276.173 70.000,275.997 68.829,275.994 67.300 C 275.990 65.409,275.872 64.780,275.600 65.200 C 275.367 65.561,275.210 65.610,275.206 65.324 C 275.203 65.062,275.380 64.736,275.600 64.600 C 275.829 64.459,276.000 62.404,276.000 59.800 C 276.000 57.196,276.171 55.141,276.400 55.000 C 276.620 54.864,276.800 53.853,276.800 52.753 C 276.800 51.521,276.954 50.848,277.200 51.000 C 277.433 51.144,277.600 50.737,277.600 50.024 C 277.600 49.351,277.780 48.800,278.000 48.800 C 278.220 48.800,278.400 48.440,278.400 48.000 C 278.400 47.560,278.580 47.200,278.800 47.200 C 279.020 47.200,279.200 46.660,279.200 46.000 C 279.200 45.340,279.380 44.800,279.600 44.800 C 279.820 44.800,280.000 44.440,280.000 44.000 C 280.000 43.560,280.180 43.200,280.400 43.200 C 280.620 43.200,280.800 42.917,280.800 42.571 C 280.800 42.226,281.025 41.706,281.300 41.416 C 282.620 40.025,283.260 39.062,283.311 38.391 C 283.341 37.986,283.464 37.709,283.583 37.775 C 283.702 37.841,284.211 37.468,284.714 36.947 C 285.217 36.426,285.487 35.995,285.314 35.988 C 285.141 35.981,285.315 35.792,285.700 35.568 C 286.085 35.344,286.400 34.899,286.400 34.580 C 286.400 34.261,286.580 34.000,286.800 34.000 C 287.020 34.000,287.200 33.700,287.200 33.333 C 287.200 32.967,287.312 32.779,287.449 32.915 C 287.585 33.052,288.381 32.452,289.217 31.582 C 290.053 30.712,290.834 30.000,290.953 30.000 C 291.072 30.000,291.882 29.280,292.753 28.400 C 293.624 27.520,294.621 26.800,294.969 26.800 C 295.316 26.800,295.600 26.620,295.600 26.400 C 295.600 26.180,295.878 26.000,296.217 26.000 C 296.556 26.000,297.206 25.653,297.661 25.229 C 298.116 24.806,298.738 24.555,299.044 24.672 C 299.350 24.790,299.600 24.730,299.600 24.540 C 299.600 24.207,300.203 23.911,303.200 22.768 C 303.970 22.474,304.815 22.024,305.077 21.768 C 305.340 21.512,305.994 21.386,306.531 21.489 C 307.067 21.591,307.628 21.478,307.777 21.238 C 307.925 20.997,308.757 20.800,309.624 20.800 C 310.491 20.800,311.200 20.620,311.200 20.400 C 311.200 20.180,311.380 20.000,311.600 20.000 C 311.861 20.000,312.000 26.754,312.000 39.462 M326.400 20.442 C 326.400 20.716,327.005 20.826,327.992 20.732 C 329.032 20.633,329.651 20.757,329.779 21.090 C 329.887 21.371,330.521 21.600,331.187 21.600 C 331.854 21.600,332.400 21.747,332.400 21.928 C 332.400 22.108,333.300 22.500,334.400 22.800 C 335.500 23.100,336.400 23.492,336.400 23.672 C 336.400 23.853,336.760 24.000,337.200 24.000 C 337.640 24.000,338.000 24.180,338.000 24.400 C 338.000 24.620,338.347 24.800,338.771 24.800 C 339.196 24.800,339.813 25.070,340.143 25.400 C 340.473 25.730,340.943 26.000,341.188 26.000 C 341.683 26.000,342.313 26.467,344.022 28.100 C 344.655 28.705,345.359 29.200,345.587 29.200 C 345.814 29.200,346.000 29.380,346.000 29.600 C 346.000 29.820,346.190 30.000,346.422 30.000 C 346.911 30.000,351.600 34.684,351.600 35.172 C 351.600 35.352,352.230 36.187,353.000 37.028 C 353.770 37.869,354.400 38.791,354.400 39.078 C 354.400 39.365,354.580 39.600,354.800 39.600 C 355.020 39.600,355.200 39.830,355.200 40.112 C 355.200 40.393,355.560 40.883,356.000 41.200 C 356.440 41.517,356.800 42.097,356.800 42.488 C 356.800 42.880,356.980 43.200,357.200 43.200 C 357.420 43.200,357.600 43.560,357.600 44.000 C 357.600 44.440,357.756 44.800,357.947 44.800 C 358.138 44.800,358.396 45.559,358.521 46.486 C 358.645 47.413,359.024 48.374,359.362 48.622 C 359.701 48.869,359.978 49.596,359.978 50.236 C 359.977 52.129,360.457 54.788,360.842 55.026 C 362.198 55.864,359.738 56.000,343.200 56.000 L 325.200 56.000 325.200 38.000 C 325.200 22.267,325.276 20.000,325.800 20.000 C 326.130 20.000,326.400 20.199,326.400 20.442 M187.200 103.000 L 187.200 162.000 181.200 162.000 L 175.200 162.000 175.200 103.000 L 175.200 44.000 181.200 44.000 L 187.200 44.000 187.200 103.000 M99.600 112.400 L 99.600 162.000 93.800 162.000 L 88.000 162.000 88.000 112.400 L 88.000 62.800 93.800 62.800 L 99.600 62.800 99.600 112.400 M361.200 69.576 C 361.200 69.783,361.020 70.064,360.800 70.200 C 360.580 70.336,360.400 71.217,360.400 72.157 C 360.400 73.097,360.277 73.990,360.126 74.141 C 359.664 74.603,358.831 77.327,359.045 77.674 C 359.156 77.853,359.057 78.000,358.824 78.000 C 358.591 78.000,358.400 78.450,358.400 79.000 C 358.400 79.550,358.220 80.000,358.000 80.000 C 357.780 80.000,357.600 80.461,357.600 81.024 C 357.600 81.604,357.427 81.940,357.200 81.800 C 356.980 81.664,356.800 81.923,356.800 82.376 C 356.800 82.829,356.620 83.200,356.400 83.200 C 356.180 83.200,356.000 83.436,356.000 83.725 C 356.000 84.013,355.640 84.636,355.200 85.108 C 354.760 85.580,354.400 86.204,354.400 86.495 C 354.400 86.786,354.050 87.276,353.621 87.585 C 353.193 87.893,352.934 88.293,353.045 88.473 C 353.156 88.653,352.967 88.800,352.624 88.800 C 352.281 88.800,352.000 89.088,352.000 89.440 C 352.000 90.100,349.792 92.400,349.158 92.400 C 348.961 92.400,348.800 92.700,348.800 93.067 C 348.800 93.433,348.695 93.628,348.567 93.500 C 348.439 93.372,347.650 93.972,346.814 94.834 C 345.978 95.695,345.094 96.400,344.850 96.400 C 344.606 96.400,344.182 96.760,343.907 97.200 C 343.632 97.640,343.091 98.000,342.704 98.000 C 342.317 98.000,342.000 98.158,342.000 98.351 C 342.000 98.545,341.460 98.927,340.800 99.200 C 340.140 99.473,339.600 99.855,339.600 100.049 C 339.600 100.242,339.240 100.400,338.800 100.400 C 338.360 100.400,337.999 100.535,337.997 100.700 C 337.993 101.101,336.019 102.000,335.144 102.000 C 334.761 102.000,334.336 102.180,334.200 102.400 C 334.064 102.620,333.603 102.800,333.176 102.800 C 332.749 102.800,332.400 102.980,332.400 103.200 C 332.400 103.420,331.896 103.600,331.280 103.600 C 330.664 103.600,329.986 103.774,329.773 103.987 C 329.561 104.199,328.760 104.415,327.993 104.467 C 327.227 104.519,326.498 104.707,326.374 104.885 C 326.015 105.397,311.449 105.348,311.278 104.834 C 311.198 104.595,310.428 104.400,309.567 104.400 C 308.705 104.400,308.000 104.220,308.000 104.000 C 308.000 103.780,307.370 103.600,306.600 103.600 C 305.830 103.600,305.200 103.420,305.200 103.200 C 305.200 102.980,304.750 102.800,304.200 102.800 C 303.650 102.800,303.200 102.620,303.200 102.400 C 303.200 102.180,302.750 102.000,302.200 102.000 C 301.650 102.000,301.200 101.820,301.200 101.600 C 301.200 101.380,300.840 101.200,300.400 101.200 C 299.960 101.200,299.600 101.020,299.600 100.800 C 299.600 100.580,299.240 100.400,298.800 100.400 C 298.360 100.400,298.000 100.232,298.000 100.026 C 298.000 99.820,297.380 99.427,296.621 99.153 C 295.863 98.879,295.351 98.479,295.484 98.264 C 295.626 98.035,295.376 97.965,294.876 98.096 C 293.661 98.414,293.946 97.669,295.700 95.941 C 296.525 95.128,297.214 94.134,297.232 93.731 C 297.249 93.329,297.352 93.219,297.460 93.486 C 297.595 93.817,297.949 93.690,298.576 93.086 C 299.081 92.599,299.418 92.065,299.324 91.900 C 299.230 91.735,299.373 91.600,299.642 91.600 C 300.398 91.600,313.599 78.074,313.606 77.292 C 313.611 76.699,313.668 76.686,314.000 77.200 C 314.327 77.706,314.389 77.685,314.394 77.063 C 314.397 76.657,314.758 76.231,315.196 76.117 C 315.633 76.003,315.892 75.750,315.772 75.555 C 315.651 75.360,315.754 75.200,315.999 75.200 C 316.245 75.200,317.830 73.853,319.523 72.207 L 322.600 69.214 341.900 69.207 C 353.698 69.203,361.200 69.346,361.200 69.576 M74.800 137.400 L 74.800 162.000 72.000 162.000 L 69.200 162.000 69.200 141.800 C 69.200 130.690,69.063 121.600,68.895 121.600 C 68.727 121.600,68.412 121.195,68.195 120.700 C 67.978 120.205,67.395 119.622,66.900 119.405 C 66.405 119.188,66.000 118.873,66.000 118.705 C 66.000 118.537,58.800 118.400,50.000 118.400 C 39.600 118.400,34.000 118.540,34.000 118.800 C 34.000 119.020,33.717 119.200,33.371 119.200 C 32.563 119.200,31.600 120.163,31.600 120.971 C 31.600 121.317,31.420 121.600,31.200 121.600 C 30.938 121.600,30.800 130.333,30.800 147.000 C 30.800 163.667,30.938 172.400,31.200 172.400 C 31.420 172.400,31.600 172.593,31.600 172.829 C 31.600 173.367,32.358 174.135,33.482 174.737 C 34.131 175.084,60.158 175.200,137.674 175.200 L 241.000 175.199 242.100 174.253 C 242.705 173.733,243.200 173.103,243.200 172.853 C 243.200 172.604,243.380 172.400,243.600 172.400 C 243.862 172.400,244.000 163.667,244.000 147.000 C 244.000 130.333,243.862 121.600,243.600 121.600 C 243.380 121.600,243.200 121.317,243.200 120.971 C 243.200 120.626,242.968 120.131,242.685 119.871 C 241.123 118.443,240.604 118.400,224.943 118.400 L 209.476 118.400 208.138 119.420 C 207.402 119.982,206.800 120.702,206.800 121.020 C 206.800 121.339,206.620 121.600,206.400 121.600 C 206.139 121.600,206.000 128.600,206.000 141.800 L 206.000 162.000 203.200 162.000 L 200.400 162.000 200.400 137.400 L 200.400 112.800 246.567 112.800 C 271.958 112.800,292.793 112.935,292.867 113.100 C 293.059 113.532,296.372 115.200,297.038 115.200 C 297.347 115.200,297.600 115.380,297.600 115.600 C 297.600 115.820,298.050 116.000,298.600 116.000 C 299.150 116.000,299.600 116.180,299.600 116.400 C 299.600 116.620,300.129 116.800,300.776 116.800 C 301.423 116.800,302.064 116.980,302.200 117.200 C 302.336 117.420,303.067 117.600,303.824 117.600 C 304.581 117.600,305.200 117.780,305.200 118.000 C 305.200 118.220,306.201 118.400,307.424 118.400 C 308.843 118.400,309.555 118.549,309.393 118.811 C 309.222 119.088,312.276 119.210,318.770 119.186 C 324.468 119.164,328.400 118.997,328.400 118.775 C 328.400 118.569,329.311 118.400,330.424 118.400 C 331.671 118.400,332.352 118.247,332.200 118.000 C 332.051 117.759,332.588 117.600,333.553 117.600 C 334.433 117.600,335.264 117.420,335.400 117.200 C 335.536 116.980,336.042 116.794,336.524 116.787 C 337.006 116.780,337.742 116.516,338.159 116.200 C 338.576 115.884,339.059 115.713,339.231 115.819 C 339.404 115.926,339.658 115.830,339.796 115.607 C 339.934 115.383,340.397 115.200,340.824 115.200 C 341.251 115.200,341.600 115.020,341.600 114.800 C 341.600 114.580,341.971 114.400,342.424 114.400 C 342.877 114.400,343.136 114.220,343.000 114.000 C 342.860 113.773,343.196 113.600,343.776 113.600 C 344.339 113.600,344.800 113.420,344.800 113.200 C 344.800 112.942,349.000 112.800,356.600 112.800 C 364.200 112.800,368.400 112.942,368.400 113.200 C 368.400 113.420,369.300 113.600,370.400 113.600 C 371.541 113.600,372.400 113.782,372.400 114.024 C 372.400 114.257,372.565 114.345,372.768 114.220 C 372.970 114.095,373.407 114.264,373.739 114.596 C 374.071 114.928,374.527 115.200,374.752 115.200 C 375.325 115.200,377.963 117.975,378.650 119.300 C 378.964 119.905,379.357 120.400,379.525 120.400 C 379.692 120.400,379.843 120.715,379.860 121.100 C 379.980 123.729,380.201 125.200,380.478 125.200 C 380.655 125.200,380.800 161.650,380.800 206.200 L 380.800 287.200 200.000 287.200 L 19.200 287.200 19.200 206.224 C 19.200 152.671,19.335 125.163,19.600 125.000 C 19.820 124.864,20.000 124.150,20.000 123.414 C 20.000 121.070,23.964 115.200,25.547 115.200 C 25.796 115.200,26.000 115.020,26.000 114.800 C 26.000 114.580,26.360 114.400,26.800 114.400 C 27.240 114.400,27.600 114.220,27.600 114.000 C 27.600 113.780,28.500 113.600,29.600 113.600 C 30.700 113.600,31.600 113.420,31.600 113.200 C 31.600 112.938,39.067 112.800,53.200 112.800 L 74.800 112.800 74.800 137.400 M118.400 137.400 L 118.400 162.000 115.600 162.000 L 112.800 162.000 112.800 137.400 L 112.800 112.800 115.600 112.800 L 118.400 112.800 118.400 137.400 M162.000 137.400 L 162.000 162.000 159.400 162.000 L 156.800 162.000 156.800 137.400 L 156.800 112.800 159.400 112.800 L 162.000 112.800 162.000 137.400 M289.844 125.263 C 288.452 126.072,287.200 127.339,287.200 127.939 C 287.200 128.266,287.095 128.428,286.966 128.300 C 286.606 127.940,285.209 129.290,285.482 129.733 C 285.615 129.948,285.538 130.009,285.310 129.868 C 284.776 129.538,279.483 134.688,279.811 135.218 C 279.948 135.439,279.821 135.570,279.530 135.510 C 279.238 135.449,279.045 135.625,279.100 135.900 C 279.155 136.175,278.930 136.400,278.600 136.400 C 278.270 136.400,278.045 136.617,278.100 136.882 C 278.155 137.147,278.013 137.372,277.783 137.382 C 277.554 137.392,275.361 139.380,272.910 141.800 C 270.459 144.220,267.182 147.446,265.627 148.970 C 264.072 150.493,262.800 151.978,262.800 152.270 C 262.800 152.561,262.620 152.800,262.400 152.800 C 262.165 152.800,262.000 154.200,262.000 156.200 C 262.000 158.200,262.165 159.600,262.400 159.600 C 262.620 159.600,262.800 159.960,262.800 160.400 C 262.800 160.858,263.067 161.200,263.424 161.200 C 263.767 161.200,263.936 161.380,263.800 161.600 C 263.659 161.828,264.004 162.000,264.600 162.000 C 265.196 162.000,265.541 162.172,265.400 162.400 C 265.031 162.998,271.425 162.907,272.477 162.300 C 273.860 161.502,277.669 157.604,277.109 157.560 C 276.829 157.538,277.050 157.387,277.600 157.225 C 278.150 157.062,278.551 156.707,278.490 156.435 C 278.430 156.163,278.537 156.038,278.729 156.156 C 279.213 156.455,281.282 154.223,280.906 153.808 C 280.738 153.623,280.825 153.601,281.100 153.759 C 281.385 153.923,281.600 153.836,281.600 153.557 C 281.600 153.287,281.711 153.178,281.848 153.314 C 282.249 153.716,283.278 152.450,282.964 151.941 C 282.787 151.655,282.851 151.584,283.130 151.757 C 283.390 151.917,284.362 151.259,285.402 150.219 C 286.403 149.218,287.120 148.400,286.997 148.400 C 286.873 148.400,287.408 147.842,288.185 147.160 C 288.962 146.478,289.495 145.753,289.369 145.550 C 289.243 145.347,289.297 145.230,289.489 145.290 C 289.944 145.434,295.434 139.944,295.290 139.489 C 295.230 139.297,295.341 139.240,295.537 139.361 C 295.733 139.482,296.215 139.225,296.609 138.791 C 297.308 138.017,297.943 138.000,325.343 138.000 L 353.361 138.000 355.081 136.180 L 356.800 134.360 356.794 131.280 C 356.787 128.176,355.542 125.600,354.047 125.600 C 353.801 125.600,353.600 125.420,353.600 125.200 C 353.600 124.614,290.854 124.677,289.844 125.263 M56.000 146.800 L 56.000 162.000 50.000 162.000 L 44.000 162.000 44.000 146.800 L 44.000 131.600 50.000 131.600 L 56.000 131.600 56.000 146.800 M230.800 146.800 L 230.800 162.000 225.000 162.000 L 219.200 162.000 219.200 146.800 L 219.200 131.600 225.000 131.600 L 230.800 131.600 230.800 146.800 M32.500 182.565 L 30.800 184.306 30.800 187.553 C 30.800 189.451,30.966 190.800,31.200 190.800 C 31.420 190.800,31.600 191.083,31.600 191.429 C 31.600 192.237,32.563 193.200,33.371 193.200 C 33.717 193.200,34.000 193.380,34.000 193.600 C 34.000 193.864,46.867 194.000,71.800 194.000 C 96.733 194.000,109.600 193.864,109.600 193.600 C 109.600 193.380,109.883 193.200,110.229 193.200 C 110.907 193.200,111.543 192.626,112.241 191.384 C 112.828 190.341,112.982 184.000,112.421 184.000 C 112.189 184.000,112.000 183.717,112.000 183.371 C 112.000 182.563,111.037 181.600,110.229 181.600 C 109.883 181.600,109.600 181.420,109.600 181.200 C 109.600 180.936,96.774 180.804,71.900 180.812 L 34.200 180.823 32.500 182.565 M121.600 181.188 C 121.600 181.414,121.317 181.600,120.971 181.600 C 120.626 181.600,120.086 181.857,119.771 182.171 C 119.457 182.486,119.200 183.026,119.200 183.371 C 119.200 183.717,119.020 184.000,118.800 184.000 C 118.214 184.000,118.299 190.233,118.900 191.290 C 119.663 192.631,120.280 193.200,120.971 193.200 C 121.317 193.200,121.600 193.380,121.600 193.600 C 121.600 193.850,124.002 194.000,128.006 194.000 L 134.411 194.000 135.506 192.878 C 136.108 192.261,136.420 192.046,136.200 192.400 C 135.980 192.754,136.295 192.501,136.900 191.837 C 137.983 190.649,138.657 184.000,137.695 184.000 C 137.527 184.000,137.212 183.595,136.995 183.100 C 136.778 182.605,136.195 182.022,135.700 181.805 C 135.205 181.588,134.800 181.288,134.800 181.138 C 134.800 180.988,131.830 180.845,128.200 180.820 C 123.905 180.791,121.600 180.919,121.600 181.188 M244.000 187.600 C 244.000 187.820,243.550 188.000,243.000 188.000 C 242.450 188.000,242.000 188.138,242.000 188.306 C 242.000 188.474,241.300 188.914,240.445 189.285 C 239.590 189.655,237.942 190.868,236.783 191.979 C 235.624 193.091,234.523 194.000,234.338 194.000 C 234.152 194.000,234.000 194.270,234.000 194.600 C 234.000 194.930,233.820 195.200,233.600 195.200 C 233.380 195.200,233.200 195.470,233.200 195.800 C 233.200 196.130,233.020 196.400,232.800 196.400 C 232.580 196.400,232.400 196.591,232.400 196.824 C 232.400 197.057,232.625 197.133,232.900 196.993 C 233.175 196.853,232.995 197.097,232.500 197.534 C 232.005 197.971,231.600 198.784,231.600 199.341 C 231.600 199.897,231.420 200.464,231.200 200.600 C 230.980 200.736,230.800 201.287,230.800 201.824 C 230.800 202.377,230.566 202.800,230.259 202.800 C 229.962 202.800,229.154 203.340,228.463 204.000 C 227.772 204.660,227.098 205.200,226.964 205.200 C 226.830 205.200,226.217 205.740,225.600 206.400 C 224.983 207.060,224.274 207.600,224.023 207.600 C 223.534 207.600,222.749 208.171,221.683 209.300 C 221.320 209.685,220.835 210.000,220.607 210.000 C 220.379 210.000,219.707 210.450,219.113 211.000 C 218.520 211.550,217.892 212.001,217.717 212.002 C 217.543 212.003,216.825 212.543,216.122 213.202 C 215.419 213.861,214.746 214.400,214.626 214.400 C 214.431 214.400,213.501 215.106,212.255 216.200 C 212.005 216.420,211.311 216.852,210.714 217.160 C 210.116 217.468,209.722 217.873,209.837 218.060 C 209.953 218.247,209.767 218.400,209.424 218.400 C 209.081 218.400,208.800 218.580,208.800 218.800 C 208.800 219.020,208.602 219.200,208.360 219.200 C 208.119 219.200,207.417 219.740,206.800 220.400 C 206.183 221.060,205.463 221.600,205.200 221.600 C 204.937 221.600,204.217 222.140,203.600 222.800 C 202.983 223.460,202.254 224.000,201.980 224.000 C 201.705 224.000,200.900 224.585,200.189 225.300 C 199.479 226.015,198.651 226.660,198.349 226.733 C 198.047 226.806,197.478 227.211,197.084 227.633 C 196.691 228.055,196.134 228.400,195.846 228.400 C 195.153 228.400,193.920 229.786,194.287 230.154 C 194.446 230.312,194.237 230.312,193.822 230.153 C 193.298 229.952,193.157 230.006,193.358 230.332 C 193.534 230.616,193.391 230.800,192.995 230.800 C 192.279 230.800,191.200 231.719,191.200 232.329 C 191.200 232.672,190.237 233.273,189.538 233.365 C 189.394 233.384,188.720 233.895,188.041 234.500 C 187.362 235.105,186.652 235.600,186.463 235.600 C 186.274 235.600,185.554 236.140,184.863 236.800 C 184.172 237.460,183.408 238.000,183.164 238.000 C 182.920 238.000,182.217 238.540,181.600 239.200 C 180.983 239.860,180.273 240.400,180.021 240.400 C 179.355 240.400,177.599 242.260,177.924 242.622 C 178.076 242.790,177.996 242.812,177.747 242.670 C 177.327 242.430,175.169 243.796,174.867 244.493 C 174.793 244.662,174.505 244.800,174.226 244.800 C 173.947 244.800,173.154 245.340,172.463 246.000 C 171.772 246.660,171.008 247.200,170.764 247.200 C 170.520 247.200,169.817 247.740,169.200 248.400 C 168.583 249.060,167.791 249.600,167.440 249.600 C 167.088 249.600,166.800 249.780,166.800 250.000 C 166.800 250.805,165.492 250.369,164.400 249.200 C 163.783 248.540,163.051 248.000,162.773 248.000 C 162.494 248.000,162.378 247.889,162.514 247.752 C 163.079 247.188,159.028 244.627,158.121 244.975 C 157.809 245.095,157.668 245.014,157.805 244.793 C 157.940 244.574,157.769 244.306,157.425 244.197 C 157.081 244.089,156.485 243.887,156.100 243.749 C 154.776 243.274,144.645 243.356,143.600 243.850 C 143.050 244.110,141.753 244.702,140.717 245.164 C 138.726 246.053,133.200 251.252,133.200 252.236 C 133.200 252.546,132.840 252.800,132.400 252.800 C 131.960 252.800,131.600 252.620,131.600 252.400 C 131.600 252.180,131.240 252.000,130.800 252.000 C 130.360 252.000,130.000 251.850,130.000 251.667 C 130.000 251.483,129.775 251.313,129.500 251.288 C 128.525 251.200,126.000 250.200,126.000 249.902 C 126.000 249.736,125.640 249.600,125.200 249.600 C 124.760 249.600,124.400 249.420,124.400 249.200 C 124.400 248.980,123.950 248.800,123.400 248.800 C 122.850 248.800,122.400 248.620,122.400 248.400 C 122.400 248.180,122.128 248.000,121.795 248.000 C 121.462 248.000,120.877 247.841,120.495 247.647 C 120.113 247.452,119.350 247.118,118.800 246.903 C 118.250 246.689,117.018 246.128,116.062 245.657 C 115.106 245.186,113.981 244.800,113.562 244.800 C 113.143 244.800,112.800 244.620,112.800 244.400 C 112.800 244.180,112.451 244.000,112.024 244.000 C 111.597 244.000,111.146 243.836,111.022 243.635 C 110.898 243.435,110.352 243.320,109.809 243.379 C 109.266 243.439,108.905 243.354,109.006 243.190 C 109.107 243.027,108.607 242.677,107.895 242.413 C 107.183 242.149,106.287 241.768,105.905 241.567 C 105.523 241.365,104.848 241.200,104.405 241.200 C 103.962 241.200,103.600 241.020,103.600 240.800 C 103.600 240.580,103.240 240.400,102.800 240.400 C 102.360 240.400,102.000 240.220,102.000 240.000 C 102.000 239.780,101.550 239.600,101.000 239.600 C 100.450 239.600,100.000 239.420,100.000 239.200 C 100.000 238.980,99.550 238.800,99.000 238.800 C 98.450 238.800,98.000 238.620,98.000 238.400 C 98.000 238.180,97.651 238.000,97.224 238.000 C 96.797 238.000,96.336 237.820,96.200 237.600 C 96.064 237.380,95.513 237.200,94.976 237.200 C 94.439 237.200,94.000 237.020,94.000 236.800 C 94.000 236.580,93.640 236.400,93.200 236.400 C 92.760 236.400,92.400 236.220,92.400 236.000 C 92.400 235.780,92.051 235.600,91.624 235.600 C 91.197 235.600,90.736 235.420,90.600 235.200 C 90.464 234.980,90.003 234.800,89.576 234.800 C 89.149 234.800,88.800 234.620,88.800 234.400 C 88.800 234.180,88.451 234.000,88.024 234.000 C 87.597 234.000,87.136 233.820,87.000 233.600 C 86.864 233.380,86.313 233.200,85.776 233.200 C 85.239 233.200,84.800 233.020,84.800 232.800 C 84.800 232.580,84.339 232.400,83.776 232.400 C 83.196 232.400,82.860 232.227,83.000 232.000 C 83.140 231.774,82.812 231.600,82.247 231.600 C 81.697 231.600,81.136 231.420,81.000 231.200 C 80.864 230.980,80.403 230.800,79.976 230.800 C 79.549 230.800,79.200 230.590,79.200 230.333 C 79.200 230.077,79.079 229.987,78.932 230.135 C 78.784 230.282,78.230 230.118,77.700 229.771 C 77.169 229.424,76.473 229.240,76.153 229.363 C 75.832 229.486,75.467 229.320,75.342 228.993 C 75.217 228.667,74.774 228.400,74.357 228.400 C 73.941 228.400,73.600 228.220,73.600 228.000 C 73.600 227.780,73.251 227.600,72.824 227.600 C 72.397 227.600,71.931 227.413,71.790 227.184 C 71.648 226.955,71.209 226.870,70.814 226.996 C 70.367 227.137,70.002 226.982,69.850 226.587 C 69.713 226.228,69.402 226.075,69.141 226.236 C 68.865 226.407,68.784 226.350,68.941 226.096 C 69.086 225.861,69.025 225.608,68.806 225.534 C 68.586 225.460,68.366 224.905,68.316 224.300 C 68.266 223.695,68.085 223.200,67.913 223.200 C 67.741 223.200,67.600 222.859,67.600 222.443 C 67.600 222.026,67.328 221.581,66.996 221.454 C 66.664 221.327,66.439 220.992,66.496 220.711 C 66.553 220.430,66.362 220.249,66.070 220.310 C 65.779 220.370,65.644 220.252,65.772 220.046 C 66.068 219.567,61.556 214.967,60.442 214.613 C 59.979 214.466,59.600 214.178,59.600 213.973 C 59.600 213.768,59.240 213.600,58.800 213.600 C 58.360 213.600,58.000 213.420,58.000 213.200 C 58.000 212.980,57.561 212.800,57.024 212.800 C 56.487 212.800,55.936 212.620,55.800 212.400 C 55.654 212.164,53.270 212.000,50.000 212.000 C 46.730 212.000,44.346 212.164,44.200 212.400 C 44.064 212.620,43.513 212.800,42.976 212.800 C 42.439 212.800,42.000 212.980,42.000 213.200 C 42.000 213.420,41.640 213.600,41.200 213.600 C 40.760 213.600,40.400 213.780,40.400 214.000 C 40.400 214.220,40.126 214.400,39.792 214.400 C 39.020 214.400,33.200 220.246,33.200 221.021 C 33.200 221.340,33.020 221.600,32.800 221.600 C 32.580 221.600,32.400 221.960,32.400 222.400 C 32.400 222.840,32.220 223.200,32.000 223.200 C 31.780 223.200,31.600 223.740,31.600 224.400 C 31.600 225.060,31.420 225.600,31.200 225.600 C 30.978 225.600,30.800 226.659,30.800 227.976 C 30.800 229.283,30.620 230.464,30.399 230.601 C 30.131 230.766,30.131 231.097,30.399 231.598 C 30.620 232.010,30.800 233.450,30.800 234.797 C 30.800 236.329,30.950 237.155,31.200 237.000 C 31.433 236.856,31.600 237.263,31.600 237.976 C 31.600 238.649,31.780 239.200,32.000 239.200 C 32.220 239.200,32.400 239.472,32.400 239.805 C 32.400 241.205,38.531 248.000,39.794 248.000 C 40.127 248.000,40.400 248.180,40.400 248.400 C 40.400 248.620,40.760 248.800,41.200 248.800 C 41.640 248.800,42.000 248.980,42.000 249.200 C 42.000 249.420,42.439 249.600,42.976 249.600 C 43.513 249.600,44.055 249.765,44.180 249.967 C 44.501 250.487,55.600 250.527,55.600 250.008 C 55.600 249.784,56.151 249.600,56.824 249.600 C 57.537 249.600,57.944 249.433,57.800 249.200 C 57.660 248.973,57.996 248.800,58.576 248.800 C 59.139 248.800,59.600 248.620,59.600 248.400 C 59.600 248.180,59.879 248.000,60.219 248.000 C 60.821 248.000,66.009 243.027,66.705 241.785 C 66.972 241.308,67.431 241.228,68.718 241.433 C 69.635 241.580,70.288 241.857,70.169 242.050 C 70.050 242.242,70.313 242.400,70.753 242.400 C 71.193 242.400,71.664 242.580,71.800 242.800 C 71.936 243.020,72.487 243.200,73.024 243.200 C 73.561 243.200,74.000 243.380,74.000 243.600 C 74.000 243.820,74.360 244.000,74.800 244.000 C 75.240 244.000,75.600 244.180,75.600 244.400 C 75.600 244.620,76.050 244.800,76.600 244.800 C 77.150 244.800,77.600 244.980,77.600 245.200 C 77.600 245.420,77.960 245.600,78.400 245.600 C 78.840 245.600,79.200 245.780,79.200 246.000 C 79.200 246.220,79.639 246.400,80.176 246.400 C 80.713 246.400,81.264 246.580,81.400 246.800 C 81.536 247.020,81.997 247.200,82.424 247.200 C 82.851 247.200,83.200 247.380,83.200 247.600 C 83.200 247.820,83.560 248.000,84.000 248.000 C 84.440 248.000,84.800 248.180,84.800 248.400 C 84.800 248.620,85.340 248.800,86.000 248.800 C 86.660 248.800,87.200 248.980,87.200 249.200 C 87.200 249.420,87.560 249.600,88.000 249.600 C 88.440 249.600,88.800 249.757,88.800 249.950 C 88.800 250.263,91.004 250.969,91.662 250.866 C 91.806 250.844,92.143 251.090,92.411 251.413 C 92.679 251.736,93.236 252.000,93.649 252.000 C 94.062 252.000,94.400 252.180,94.400 252.400 C 94.400 252.620,94.850 252.800,95.400 252.800 C 95.950 252.800,96.400 252.980,96.400 253.200 C 96.400 253.420,96.672 253.600,97.005 253.600 C 97.338 253.600,97.968 253.780,98.405 254.000 C 98.842 254.220,99.558 254.580,99.995 254.800 C 100.432 255.020,101.062 255.200,101.395 255.200 C 101.728 255.200,102.000 255.347,102.000 255.528 C 102.000 255.708,102.900 256.100,104.000 256.400 C 105.100 256.700,106.000 257.092,106.000 257.272 C 106.000 257.453,106.249 257.600,106.554 257.600 C 106.859 257.600,107.624 257.869,108.254 258.198 C 108.884 258.526,109.805 258.796,110.300 258.798 C 110.795 258.799,111.200 258.980,111.200 259.200 C 111.200 259.420,111.560 259.600,112.000 259.600 C 112.440 259.600,112.800 259.780,112.800 260.000 C 112.800 260.220,113.340 260.400,114.000 260.400 C 114.660 260.400,115.200 260.580,115.200 260.800 C 115.200 261.020,115.560 261.200,116.000 261.200 C 116.440 261.200,116.800 261.380,116.800 261.600 C 116.800 261.820,117.149 262.000,117.576 262.000 C 118.003 262.000,118.464 262.180,118.600 262.400 C 118.736 262.620,119.287 262.800,119.824 262.800 C 120.361 262.800,120.800 262.980,120.800 263.200 C 120.800 263.420,121.160 263.600,121.600 263.600 C 122.040 263.600,122.400 263.780,122.400 264.000 C 122.400 264.220,122.940 264.400,123.600 264.400 C 124.260 264.400,124.800 264.580,124.800 264.800 C 124.800 265.020,125.160 265.200,125.600 265.200 C 126.040 265.200,126.400 265.380,126.400 265.600 C 126.400 265.820,126.749 266.000,127.176 266.000 C 127.603 266.000,128.064 266.180,128.200 266.400 C 128.336 266.620,128.715 266.800,129.042 266.800 C 129.805 266.800,131.600 268.585,131.600 269.344 C 131.600 271.270,138.198 279.200,139.800 279.200 C 140.130 279.200,140.400 279.380,140.400 279.600 C 140.400 279.820,140.760 280.000,141.200 280.000 C 141.640 280.000,142.000 280.180,142.000 280.400 C 142.000 280.620,142.439 280.800,142.976 280.800 C 143.513 280.800,144.064 280.980,144.200 281.200 C 144.346 281.437,146.804 281.600,150.224 281.600 C 153.808 281.600,156.000 281.448,156.000 281.200 C 156.000 280.980,156.450 280.800,157.000 280.800 C 157.550 280.800,158.001 280.665,158.003 280.500 C 158.006 280.205,159.891 279.200,160.441 279.200 C 161.003 279.200,166.800 273.184,166.800 272.600 C 166.800 272.270,166.980 272.000,167.200 272.000 C 167.420 272.000,167.603 271.415,167.606 270.700 C 167.611 269.714,167.706 269.545,168.000 270.000 C 168.302 270.468,168.389 270.357,168.394 269.500 C 168.397 268.895,168.591 268.400,168.825 268.400 C 169.059 268.400,169.218 268.085,169.179 267.700 C 169.050 266.432,169.193 266.000,169.741 266.000 C 170.038 266.000,170.846 265.460,171.537 264.800 C 172.228 264.140,172.910 263.600,173.053 263.600 C 173.196 263.600,173.829 263.060,174.460 262.400 C 175.091 261.740,175.803 261.200,176.043 261.200 C 176.283 261.200,176.983 260.660,177.600 260.000 C 178.217 259.340,178.981 258.800,179.298 258.800 C 179.616 258.800,180.218 258.422,180.637 257.959 C 181.056 257.497,181.930 256.843,182.579 256.507 C 184.033 255.755,184.843 254.977,184.514 254.648 C 184.378 254.511,184.630 254.400,185.074 254.400 C 185.518 254.400,186.446 253.860,187.137 253.200 C 187.828 252.540,188.535 252.000,188.708 252.000 C 188.881 252.000,189.283 251.640,189.600 251.200 C 189.917 250.760,190.407 250.400,190.688 250.400 C 190.970 250.400,191.200 250.220,191.200 250.000 C 191.200 249.780,191.398 249.600,191.640 249.600 C 191.881 249.600,192.583 249.060,193.200 248.400 C 193.817 247.740,194.537 247.200,194.800 247.200 C 195.063 247.200,195.783 246.660,196.400 246.000 C 197.017 245.340,197.737 244.800,198.000 244.800 C 198.263 244.800,198.983 244.260,199.600 243.600 C 200.217 242.940,200.932 242.400,201.189 242.400 C 201.447 242.400,201.892 242.175,202.180 241.900 C 202.467 241.625,203.122 241.130,203.635 240.800 C 204.149 240.470,205.084 239.705,205.715 239.100 C 206.346 238.495,207.026 238.000,207.227 238.000 C 207.428 238.000,208.109 237.460,208.740 236.800 C 209.371 236.140,210.110 235.600,210.383 235.600 C 210.656 235.600,211.383 235.060,212.000 234.400 C 212.617 233.740,213.337 233.200,213.600 233.200 C 213.863 233.200,214.583 232.660,215.200 232.000 C 215.817 231.340,216.530 230.800,216.786 230.800 C 217.042 230.800,217.706 230.260,218.261 229.600 C 218.817 228.940,219.543 228.400,219.875 228.400 C 220.207 228.400,220.983 227.860,221.600 227.200 C 222.217 226.540,222.919 226.000,223.160 226.000 C 223.402 226.000,223.600 225.820,223.600 225.600 C 223.600 225.380,223.876 225.200,224.213 225.200 C 224.549 225.200,224.926 224.937,225.050 224.615 C 225.173 224.294,225.596 223.928,225.989 223.803 C 226.950 223.499,228.400 222.213,228.400 221.666 C 228.400 221.423,228.637 221.316,228.926 221.427 C 229.215 221.538,229.993 221.127,230.655 220.514 C 233.475 217.904,233.949 217.887,236.326 220.310 C 240.318 224.380,243.005 225.288,250.468 225.090 C 253.621 225.006,256.470 224.853,256.800 224.749 C 258.003 224.370,260.224 223.162,261.200 222.356 C 261.750 221.902,261.947 221.664,261.638 221.827 C 261.264 222.024,261.173 221.967,261.366 221.655 C 261.525 221.398,261.819 221.288,262.020 221.412 C 262.450 221.678,265.705 218.522,266.171 217.387 C 266.379 216.879,266.560 216.778,266.680 217.100 C 266.783 217.375,267.212 217.600,267.633 217.600 C 268.055 217.600,268.400 217.780,268.400 218.000 C 268.400 218.220,268.636 218.400,268.925 218.400 C 269.213 218.400,269.836 218.760,270.308 219.200 C 270.780 219.640,271.444 220.000,271.783 220.000 C 272.122 220.000,272.400 220.180,272.400 220.400 C 272.400 220.620,272.678 220.800,273.017 220.800 C 273.356 220.800,274.002 221.144,274.453 221.564 C 274.904 221.984,276.652 223.019,278.336 223.864 C 280.021 224.709,281.460 225.535,281.533 225.700 C 281.607 225.865,281.972 226.000,282.345 226.000 C 282.718 226.000,283.283 226.360,283.600 226.800 C 283.917 227.240,284.497 227.600,284.888 227.600 C 285.280 227.600,285.600 227.780,285.600 228.000 C 285.600 228.220,285.878 228.400,286.217 228.400 C 286.556 228.400,287.220 228.760,287.692 229.200 C 288.164 229.640,288.787 230.000,289.075 230.000 C 289.364 230.000,289.600 230.180,289.600 230.400 C 289.600 230.620,289.960 230.800,290.400 230.800 C 290.840 230.800,291.200 230.980,291.200 231.200 C 291.200 231.420,291.470 231.600,291.800 231.600 C 292.130 231.600,292.400 231.780,292.400 232.000 C 292.400 232.220,292.670 232.400,293.000 232.400 C 293.330 232.400,293.600 232.580,293.600 232.800 C 293.600 233.020,293.870 233.200,294.200 233.200 C 294.530 233.200,294.800 233.380,294.800 233.600 C 294.800 233.820,295.160 234.000,295.600 234.000 C 296.040 234.000,296.400 234.180,296.400 234.400 C 296.400 234.620,296.636 234.800,296.925 234.800 C 297.213 234.800,297.836 235.160,298.308 235.600 C 298.780 236.040,299.444 236.400,299.783 236.400 C 300.122 236.400,300.400 236.580,300.400 236.800 C 300.400 237.020,300.678 237.200,301.017 237.200 C 301.356 237.200,302.020 237.560,302.492 238.000 C 302.964 238.440,303.587 238.800,303.875 238.800 C 304.164 238.800,304.400 238.980,304.400 239.200 C 304.400 239.420,304.760 239.600,305.200 239.600 C 305.640 239.600,306.000 239.740,306.000 239.910 C 306.000 240.081,306.808 240.576,307.796 241.010 C 308.784 241.445,309.594 241.935,309.596 242.100 C 309.598 242.265,309.960 242.400,310.400 242.400 C 310.840 242.400,311.200 242.591,311.200 242.824 C 311.200 243.057,311.361 243.148,311.558 243.026 C 311.755 242.904,312.019 243.074,312.146 243.402 C 312.272 243.731,312.651 244.000,312.987 244.000 C 313.324 244.000,313.600 244.180,313.600 244.400 C 313.600 244.620,313.960 244.800,314.400 244.800 C 314.840 244.800,315.200 244.980,315.200 245.200 C 315.200 245.420,315.470 245.600,315.800 245.600 C 316.130 245.600,316.400 245.780,316.400 246.000 C 316.400 246.220,316.670 246.400,317.000 246.400 C 317.330 246.400,317.600 246.580,317.600 246.800 C 317.600 247.020,317.960 247.200,318.400 247.200 C 318.840 247.200,319.200 247.380,319.200 247.600 C 319.200 247.820,319.520 248.000,319.912 248.000 C 320.303 248.000,320.883 248.360,321.200 248.800 C 321.517 249.240,322.097 249.600,322.488 249.600 C 322.880 249.600,323.200 249.780,323.200 250.000 C 323.200 250.220,323.680 250.400,324.267 250.400 C 324.853 250.400,325.221 250.512,325.084 250.650 C 324.815 250.918,327.383 252.800,328.018 252.800 C 328.228 252.800,328.400 252.980,328.400 253.200 C 328.400 253.420,328.760 253.600,329.200 253.600 C 329.640 253.600,330.000 253.780,330.000 254.000 C 330.000 254.220,330.264 254.400,330.587 254.400 C 330.926 254.400,331.084 254.637,330.960 254.960 C 330.842 255.267,330.938 255.638,331.173 255.783 C 331.408 255.928,331.603 256.532,331.606 257.124 C 331.611 257.966,331.697 258.069,332.000 257.600 C 332.294 257.145,332.389 257.314,332.394 258.300 C 332.397 259.015,332.580 259.600,332.800 259.600 C 333.020 259.600,333.200 259.870,333.200 260.200 C 333.200 260.530,333.380 260.800,333.600 260.800 C 333.820 260.800,334.000 260.990,334.000 261.222 C 334.000 261.835,338.641 266.295,339.593 266.598 C 340.037 266.739,340.400 267.022,340.400 267.227 C 340.400 267.432,340.760 267.600,341.200 267.600 C 341.640 267.600,342.000 267.780,342.000 268.000 C 342.000 268.220,342.540 268.400,343.200 268.400 C 343.860 268.400,344.400 268.580,344.400 268.800 C 344.400 269.048,346.525 269.200,349.976 269.200 C 353.263 269.200,355.654 269.036,355.800 268.800 C 355.936 268.580,356.487 268.400,357.024 268.400 C 357.561 268.400,358.000 268.220,358.000 268.000 C 358.000 267.780,358.360 267.600,358.800 267.600 C 359.240 267.600,359.600 267.420,359.600 267.200 C 359.600 266.980,359.846 266.800,360.146 266.800 C 360.837 266.800,365.254 262.588,364.917 262.250 C 364.779 262.113,364.945 262.000,365.285 262.000 C 365.625 262.000,366.127 261.460,366.400 260.800 C 366.673 260.140,367.074 259.600,367.291 259.600 C 367.508 259.600,367.579 259.323,367.450 258.985 C 367.315 258.635,367.469 258.272,367.807 258.142 C 368.142 258.013,368.400 257.411,368.400 256.757 C 368.400 256.121,368.580 255.600,368.800 255.600 C 369.048 255.600,369.200 253.467,369.200 250.000 C 369.200 246.533,369.048 244.400,368.800 244.400 C 368.580 244.400,368.400 243.860,368.400 243.200 C 368.400 242.540,368.220 242.000,368.000 242.000 C 367.780 242.000,367.600 241.640,367.600 241.200 C 367.600 240.760,367.420 240.400,367.200 240.400 C 366.980 240.400,366.800 240.118,366.800 239.773 C 366.800 238.884,360.800 233.115,360.139 233.368 C 359.838 233.484,359.600 233.316,359.600 232.987 C 359.600 232.664,359.240 232.400,358.800 232.400 C 358.360 232.400,358.000 232.259,358.000 232.087 C 358.000 231.915,357.505 231.734,356.900 231.684 C 356.295 231.634,355.746 231.432,355.680 231.236 C 355.505 230.718,344.529 230.668,344.210 231.183 C 344.069 231.413,343.513 231.600,342.976 231.600 C 342.439 231.600,342.000 231.780,342.000 232.000 C 342.000 232.220,341.640 232.400,341.200 232.400 C 340.760 232.400,340.400 232.568,340.400 232.773 C 340.400 232.978,340.037 233.261,339.593 233.402 C 338.701 233.685,334.409 237.757,333.684 239.008 C 333.431 239.443,333.219 239.564,333.212 239.276 C 333.205 238.988,333.043 238.850,332.852 238.968 C 332.661 239.086,331.986 238.737,331.352 238.192 C 330.718 237.647,329.975 237.201,329.700 237.200 C 329.425 237.200,329.200 237.020,329.200 236.800 C 329.200 236.580,328.840 236.400,328.400 236.400 C 327.960 236.400,327.600 236.220,327.600 236.000 C 327.600 235.780,327.322 235.600,326.983 235.600 C 326.644 235.600,326.011 235.269,325.577 234.864 C 325.142 234.459,324.295 233.874,323.693 233.565 C 323.092 233.255,322.510 232.907,322.400 232.792 C 322.290 232.678,321.674 232.317,321.031 231.992 C 318.784 230.854,318.400 230.608,318.400 230.305 C 318.400 230.137,318.122 230.000,317.783 230.000 C 317.444 230.000,316.780 229.640,316.308 229.200 C 315.836 228.760,315.213 228.400,314.925 228.400 C 314.636 228.400,314.400 228.240,314.400 228.045 C 314.400 227.849,313.787 227.574,313.039 227.434 C 312.290 227.293,311.566 226.887,311.429 226.532 C 311.293 226.176,311.071 225.995,310.937 226.130 C 310.803 226.264,310.243 226.020,309.692 225.587 C 309.142 225.154,308.446 224.800,308.146 224.800 C 307.846 224.800,307.600 224.620,307.600 224.400 C 307.600 224.180,307.330 224.000,307.000 224.000 C 306.670 224.000,306.400 223.820,306.400 223.600 C 306.400 223.380,306.130 223.200,305.800 223.200 C 305.470 223.200,305.200 223.020,305.200 222.800 C 305.200 222.580,304.840 222.400,304.400 222.400 C 303.960 222.400,303.600 222.220,303.600 222.000 C 303.600 221.780,303.330 221.600,303.000 221.600 C 302.670 221.600,302.400 221.420,302.400 221.200 C 302.400 220.980,302.130 220.800,301.800 220.800 C 301.470 220.800,301.200 220.620,301.200 220.400 C 301.200 220.180,300.840 220.000,300.400 220.000 C 299.960 220.000,299.600 219.820,299.600 219.600 C 299.600 219.380,299.120 219.200,298.533 219.200 C 297.947 219.200,297.578 219.089,297.714 218.952 C 298.069 218.597,296.974 217.600,296.229 217.600 C 295.883 217.600,295.600 217.420,295.600 217.200 C 295.600 216.980,295.240 216.800,294.800 216.800 C 294.360 216.800,294.000 216.642,294.000 216.449 C 294.000 216.255,293.460 215.873,292.800 215.600 C 292.140 215.327,291.600 214.978,291.600 214.826 C 291.600 214.674,290.970 214.302,290.200 214.000 C 289.430 213.698,288.800 213.285,288.800 213.083 C 288.800 212.880,288.521 212.822,288.179 212.953 C 287.823 213.089,287.663 213.022,287.803 212.795 C 288.013 212.456,286.447 211.536,285.485 211.434 C 285.312 211.415,285.042 211.199,284.885 210.954 C 284.728 210.709,284.150 210.369,283.600 210.200 C 283.050 210.031,282.510 209.781,282.400 209.646 C 282.041 209.204,280.423 208.400,279.894 208.400 C 279.609 208.400,279.117 208.040,278.800 207.600 C 278.483 207.160,277.903 206.800,277.512 206.800 C 277.120 206.800,276.800 206.620,276.800 206.400 C 276.800 206.180,276.485 205.993,276.100 205.984 C 275.715 205.975,274.777 205.435,274.015 204.784 C 273.253 204.133,272.398 203.600,272.115 203.600 C 271.832 203.600,271.600 203.420,271.600 203.200 C 271.600 202.980,271.317 202.800,270.971 202.800 C 270.626 202.800,270.086 202.543,269.771 202.229 C 269.457 201.914,269.200 201.374,269.200 201.029 C 269.200 200.683,269.020 200.400,268.800 200.400 C 268.580 200.400,268.400 199.860,268.400 199.200 C 268.400 198.540,268.220 198.000,268.000 198.000 C 267.780 198.000,267.600 197.659,267.600 197.243 C 267.600 196.826,267.319 196.378,266.975 196.246 C 266.631 196.114,266.461 195.824,266.598 195.603 C 266.735 195.381,266.657 195.200,266.424 195.200 C 266.191 195.200,266.000 194.930,266.000 194.600 C 266.000 194.270,265.852 194.000,265.672 194.000 C 265.492 194.000,264.297 193.010,263.018 191.800 C 261.738 190.590,260.446 189.600,260.146 189.600 C 259.846 189.600,259.600 189.420,259.600 189.200 C 259.600 188.980,259.240 188.800,258.800 188.800 C 258.360 188.800,258.000 188.620,258.000 188.400 C 258.000 188.180,257.550 188.000,257.000 188.000 C 256.450 188.000,256.000 187.820,256.000 187.600 C 256.000 187.351,253.733 187.200,250.000 187.200 C 246.267 187.200,244.000 187.351,244.000 187.600 M253.760 202.640 C 255.170 204.050,255.991 208.400,254.847 208.400 C 254.652 208.400,254.403 208.745,254.293 209.166 C 254.068 210.027,252.238 211.102,250.771 211.236 C 245.568 211.710,242.617 206.263,246.100 202.616 C 248.087 200.536,251.667 200.547,253.760 202.640 M52.600 226.400 C 52.464 226.620,52.556 226.800,52.805 226.800 C 53.462 226.800,54.400 227.841,54.400 228.571 C 54.400 228.917,54.592 229.200,54.826 229.200 C 55.095 229.200,55.209 230.155,55.135 231.800 C 55.071 233.230,54.892 234.400,54.738 234.400 C 54.583 234.400,54.219 234.625,53.929 234.900 C 53.350 235.447,50.083 237.204,49.662 237.194 C 49.518 237.191,49.670 236.995,50.000 236.760 C 50.456 236.435,50.283 236.387,49.279 236.561 C 44.532 237.379,43.024 229.223,47.424 226.524 C 48.382 225.935,52.955 225.826,52.600 226.400 M352.490 245.300 C 354.363 246.365,355.200 247.817,355.200 250.000 C 355.200 255.554,348.056 257.320,345.277 252.453 C 342.737 248.005,348.026 242.761,352.490 245.300 M276.687 250.832 C 275.865 251.510,275.295 252.230,275.420 252.432 C 275.545 252.634,275.482 252.800,275.280 252.800 C 274.716 252.800,274.684 259.035,275.243 260.080 C 275.863 261.239,276.628 262.000,277.171 262.000 C 277.407 262.000,277.600 262.180,277.600 262.400 C 277.600 262.658,282.200 262.800,290.600 262.800 C 299.000 262.800,303.600 262.658,303.600 262.400 C 303.600 262.180,303.830 262.000,304.112 262.000 C 304.393 262.000,304.888 261.618,305.212 261.151 C 305.535 260.684,306.019 260.073,306.286 259.794 C 307.249 258.786,306.880 253.251,305.770 252.054 C 305.236 251.479,304.800 250.871,304.800 250.704 C 304.800 250.537,304.530 250.400,304.200 250.400 C 303.870 250.400,303.600 250.220,303.600 250.000 C 303.600 249.742,299.097 249.600,290.891 249.600 L 278.182 249.600 276.687 250.832 M152.426 257.384 C 152.632 257.257,152.800 257.421,152.800 257.749 C 152.800 258.078,153.115 258.448,153.500 258.572 C 154.856 259.011,156.065 264.800,154.800 264.800 C 154.580 264.800,154.400 265.190,154.400 265.667 C 154.400 266.143,154.291 266.424,154.157 266.291 C 154.024 266.157,153.540 266.397,153.082 266.824 C 150.217 269.493,144.800 266.613,144.800 262.421 C 144.800 260.425,146.269 257.602,146.952 258.286 C 147.089 258.422,147.200 258.323,147.200 258.067 C 147.200 257.810,147.661 257.600,148.224 257.600 C 148.787 257.600,149.148 257.439,149.027 257.243 C 148.899 257.037,149.489 257.040,150.429 257.251 C 151.321 257.451,152.220 257.511,152.426 257.384 M252.800 268.800 C 252.800 269.020,252.517 269.200,252.171 269.200 C 251.281 269.200,250.400 270.192,250.400 271.195 C 250.400 271.664,250.244 271.951,250.054 271.833 C 249.864 271.716,249.675 273.145,249.634 275.010 C 249.586 277.161,249.713 278.400,249.979 278.400 C 250.211 278.400,250.400 278.683,250.400 279.029 C 250.400 279.837,251.363 280.800,252.171 280.800 C 252.517 280.800,252.800 280.980,252.800 281.200 C 252.800 281.462,261.533 281.600,278.200 281.600 C 294.867 281.600,303.600 281.462,303.600 281.200 C 303.600 280.980,303.830 280.800,304.112 280.800 C 304.393 280.800,304.888 280.418,305.212 279.951 C 305.535 279.484,306.025 278.867,306.300 278.580 C 306.843 278.012,307.026 271.602,306.500 271.597 C 306.335 271.596,305.893 271.056,305.519 270.397 C 305.144 269.739,304.559 269.200,304.219 269.200 C 303.878 269.200,303.600 269.020,303.600 268.800 C 303.600 268.538,294.867 268.400,278.200 268.400 C 261.533 268.400,252.800 268.538,252.800 268.800 M380.800 306.176 C 380.800 309.596,380.637 312.054,380.400 312.200 C 380.180 312.336,380.000 313.099,380.000 313.895 C 380.000 315.497,379.219 318.000,378.720 318.000 C 378.544 318.000,378.400 318.204,378.400 318.453 C 378.400 318.702,378.073 319.197,377.672 319.553 C 377.272 319.909,376.836 320.494,376.703 320.853 C 376.570 321.212,375.907 321.751,375.231 322.051 C 374.554 322.350,374.000 322.731,374.000 322.898 C 374.000 323.064,373.640 323.200,373.200 323.200 C 372.760 323.200,372.400 323.380,372.400 323.600 C 372.400 323.820,371.601 324.000,370.624 324.000 C 369.647 324.000,368.736 324.180,368.600 324.400 C 368.436 324.666,311.804 324.800,200.000 324.800 C 88.196 324.800,31.564 324.666,31.400 324.400 C 31.264 324.180,30.353 324.000,29.376 324.000 C 28.399 324.000,27.600 323.820,27.600 323.600 C 27.600 323.380,27.240 323.200,26.800 323.200 C 26.360 323.200,26.000 323.020,26.000 322.800 C 26.000 322.580,25.800 322.400,25.556 322.400 C 24.996 322.400,21.600 318.983,21.600 318.419 C 21.600 318.189,21.420 318.000,21.200 318.000 C 20.980 318.000,20.800 317.651,20.800 317.224 C 20.800 316.797,20.620 316.336,20.400 316.200 C 20.180 316.064,20.000 315.153,20.000 314.176 C 20.000 313.199,19.820 312.400,19.600 312.400 C 19.351 312.400,19.200 310.133,19.200 306.400 L 19.200 300.400 200.000 300.400 L 380.800 300.400 380.800 306.176 M34.000 306.400 C 34.000 306.620,33.717 306.800,33.371 306.800 C 32.680 306.800,32.063 307.369,31.300 308.710 C 30.693 309.777,30.603 316.169,31.200 315.800 C 31.420 315.664,31.600 315.896,31.600 316.314 C 31.600 317.137,32.770 318.400,33.531 318.400 C 33.789 318.400,34.000 318.580,34.000 318.800 C 34.000 319.062,41.667 319.200,56.200 319.200 C 68.410 319.200,78.400 319.063,78.400 318.895 C 78.400 318.727,78.805 318.412,79.300 318.195 C 79.795 317.978,80.378 317.395,80.595 316.900 C 80.812 316.405,81.127 316.000,81.295 316.000 C 81.808 316.000,81.639 309.658,81.100 308.710 C 80.337 307.369,79.720 306.800,79.029 306.800 C 78.683 306.800,78.400 306.620,78.400 306.400 C 78.400 306.138,70.733 306.000,56.200 306.000 C 41.667 306.000,34.000 306.138,34.000 306.400 M90.400 306.435 C 90.400 306.636,90.117 306.800,89.771 306.800 C 89.080 306.800,88.463 307.369,87.700 308.710 C 87.099 309.767,87.014 316.000,87.600 316.000 C 87.820 316.000,88.000 316.283,88.000 316.629 C 88.000 317.437,88.963 318.400,89.771 318.400 C 90.117 318.400,90.400 318.580,90.400 318.800 C 90.400 319.051,92.867 319.200,97.000 319.200 C 101.133 319.200,103.600 319.051,103.600 318.800 C 103.600 318.580,103.804 318.400,104.053 318.400 C 104.677 318.400,106.033 316.777,105.768 316.348 C 105.650 316.157,105.822 316.000,106.150 316.000 C 106.632 316.000,106.750 315.343,106.760 312.600 C 106.767 310.730,106.644 309.199,106.486 309.197 C 106.329 309.196,105.893 308.656,105.519 307.997 C 105.144 307.339,104.559 306.800,104.219 306.800 C 103.878 306.800,103.600 306.613,103.600 306.385 C 103.600 306.112,101.330 305.986,97.000 306.020 C 93.327 306.048,90.400 306.232,90.400 306.435 M226.447 339.300 C 226.746 340.015,226.941 340.754,226.881 340.942 C 226.821 341.130,226.937 341.490,227.140 341.742 C 227.342 341.994,227.638 342.809,227.797 343.553 C 228.016 344.574,228.181 344.771,228.470 344.353 C 228.742 343.959,228.780 344.059,228.600 344.699 C 228.371 345.512,229.405 349.266,230.449 351.417 C 230.668 351.867,230.891 352.536,230.945 352.906 C 230.999 353.275,231.169 353.702,231.322 353.855 C 231.475 354.008,231.600 354.458,231.600 354.855 C 231.600 355.251,231.964 356.225,232.410 357.018 C 232.864 357.826,232.996 358.333,232.710 358.171 C 232.301 357.940,232.299 357.990,232.700 358.421 C 232.975 358.718,233.200 359.374,233.200 359.880 C 233.200 360.386,233.380 360.800,233.600 360.800 C 233.820 360.800,234.000 361.070,234.000 361.400 C 234.000 361.929,229.956 362.000,200.000 362.000 C 181.300 362.000,166.000 361.856,166.000 361.680 C 166.000 361.504,166.165 361.189,166.366 360.980 C 166.567 360.771,166.788 360.060,166.858 359.400 C 166.928 358.740,167.304 357.610,167.693 356.888 C 168.082 356.166,168.400 355.309,168.400 354.982 C 168.400 354.656,168.567 354.077,168.771 353.695 C 169.592 352.158,171.630 345.572,171.399 345.199 C 171.264 344.980,171.322 344.800,171.529 344.800 C 171.736 344.800,172.403 343.270,173.012 341.400 L 174.118 338.000 200.010 338.000 L 225.903 338.000 226.447 339.300 M262.000 378.000 L 262.000 380.800 200.000 380.800 L 138.000 380.800 138.000 378.000 L 138.000 375.200 200.000 375.200 L 262.000 375.200 262.000 378.000 " stroke="none" fill="#8c9c9c" fill-rule="evenodd"></path><path id="path1" d="M149.300 243.476 C 149.685 243.576,150.315 243.576,150.700 243.476 C 151.085 243.375,150.770 243.293,150.000 243.293 C 149.230 243.293,148.915 243.375,149.300 243.476 " stroke="none" fill="#909c9c" fill-rule="evenodd"></path><path id="path2" d="M149.300 243.476 C 149.685 243.576,150.315 243.576,150.700 243.476 C 151.085 243.375,150.770 243.293,150.000 243.293 C 149.230 243.293,148.915 243.375,149.300 243.476 " stroke="none" fill="#909c9c" fill-rule="evenodd"></path><path id="path3" d="M149.300 243.476 C 149.685 243.576,150.315 243.576,150.700 243.476 C 151.085 243.375,150.770 243.293,150.000 243.293 C 149.230 243.293,148.915 243.375,149.300 243.476 " stroke="none" fill="#909c9c" fill-rule="evenodd"></path><path id="path4" d="M149.300 243.476 C 149.685 243.576,150.315 243.576,150.700 243.476 C 151.085 243.375,150.770 243.293,150.000 243.293 C 149.230 243.293,148.915 243.375,149.300 243.476 " stroke="none" fill="#909c9c" fill-rule="evenodd"></path></g></svg>