<?xml version="1.0" standalone="no"?>
<!DOCTYPE svg PUBLIC "-//W3C//DTD SVG 20010904//EN"
 "http://www.w3.org/TR/2001/REC-SVG-20010904/DTD/svg10.dtd">
<svg version="1.0" xmlns="http://www.w3.org/2000/svg"
 width="300.000000pt" height="320.000000pt" viewBox="0 0 300.000000 320.000000"
 preserveAspectRatio="xMidYMid meet">
<metadata>
Created by potrace 1.10, written by Peter Selinger 2001-2011
</metadata>
<g transform="translate(0.000000,320.000000) scale(0.100000,-0.100000)"
fill="#000000" stroke="none">
<path d="M371 3114 c-30 -8 -69 -23 -86 -34 -48 -30 -114 -105 -138 -158 l-22
-47 0 -1100 0 -1100 29 -62 c31 -69 88 -128 158 -165 l43 -23 1120 0 1120 0
50 27 c68 35 122 92 154 158 l26 55 0 1110 0 1110 -23 46 c-37 75 -87 125
-159 161 -61 30 -75 32 -187 36 -132 5 -151 -2 -144 -50 3 -22 7 -23 128 -28
141 -6 197 -25 246 -83 49 -58 64 -104 64 -204 l0 -93 -1276 0 -1276 0 4 98
c3 73 9 107 25 137 25 47 74 95 123 121 33 18 80 19 944 22 644 2 913 6 923
13 17 15 16 34 -3 53 -14 14 -109 16 -902 15 -744 0 -896 -3 -941 -15z m-185
-458 c20 -20 17 -43 -6 -56 -18 -10 -20 -8 -20 30 0 43 4 47 26 26z m2604 -28
l0 -42 -22 21 c-21 22 -21 23 -3 43 10 11 20 20 22 20 1 0 3 -19 3 -42z m-40
-980 c0 -610 -4 -956 -10 -980 -6 -20 -31 -59 -55 -86 -82 -91 15 -84 -1212
-83 l-1082 0 -46 22 c-25 12 -61 39 -80 61 -68 80 -65 31 -65 1070 l0 938
1275 0 1275 0 0 -942z"/>
<path d="M483 2510 c-43 -26 -53 -48 -53 -117 0 -123 56 -258 146 -351 l51
-53 -52 -55 c-58 -60 -116 -168 -135 -253 -16 -67 -9 -243 10 -266 8 -9 25
-15 39 -13 l26 3 0 140 c0 132 2 143 27 199 34 72 90 149 128 176 l28 20 47
-21 46 -21 -43 -27 c-51 -33 -90 -81 -126 -159 -23 -49 -27 -70 -27 -148 0
-84 2 -95 38 -166 69 -140 200 -218 367 -218 26 0 76 -9 109 -19 160 -50 282
-184 317 -350 19 -92 18 -108 -11 -127 -24 -15 -27 -15 -44 0 -12 11 -20 36
-24 77 -12 130 -113 264 -234 309 -31 12 -100 25 -152 30 -53 4 -121 18 -152
29 -77 29 -160 90 -204 151 -20 27 -43 50 -50 50 -28 0 -45 -13 -45 -35 0 -24
64 -113 99 -137 20 -14 19 -16 -32 -69 -92 -96 -147 -229 -147 -357 0 -59 2
-66 34 -98 28 -28 42 -34 75 -34 52 0 92 20 111 54 l13 26 304 0 304 0 38 -40
c33 -35 43 -40 84 -40 54 0 102 34 115 82 10 40 -2 149 -23 213 -24 70 -76
152 -128 203 l-45 44 42 38 c52 48 104 134 133 219 32 93 32 239 0 332 -29 84
-81 171 -133 218 l-40 38 57 60 c91 98 139 216 139 347 0 64 -2 70 -34 102
-29 29 -41 34 -82 34 -42 0 -51 -4 -85 -40 l-38 -40 -304 0 -304 0 -12 23
c-29 55 -110 73 -168 37z m109 -132 c26 -204 186 -348 388 -348 115 0 236 -53
322 -141 177 -181 179 -459 4 -646 l-52 -56 -47 19 c-26 10 -47 21 -47 24 0 3
15 15 34 27 44 28 100 98 128 159 19 41 23 66 23 149 0 87 -3 107 -26 155 -61
127 -167 203 -311 221 -142 17 -191 28 -245 54 -66 33 -142 101 -183 165 -85
133 -96 339 -15 286 14 -9 22 -30 27 -68z m845 47 c10 -26 -18 -153 -48 -215
-34 -73 -136 -185 -154 -170 -7 6 -30 16 -51 24 l-39 13 31 16 c82 42 162 172
171 278 4 45 11 63 26 74 22 15 54 5 64 -20z m-782 -1 c24 -16 24 -16 5 -37
-23 -24 -25 -23 -35 21 -8 36 -4 38 30 16z m665 -6 c0 -40 -14 -51 -35 -28
-18 20 -18 21 1 35 27 20 34 18 34 -7z m-51 -58 c0 -8 -6 -30 -13 -48 l-12
-34 -272 -1 -272 -2 -9 25 c-6 14 -13 36 -16 50 l-6 25 301 0 c260 0 300 -2
299 -15z m-535 -120 c27 0 36 -23 15 -36 -6 -3 -9 -15 -6 -25 8 -29 -27 -6
-52 35 -26 42 -26 50 -2 36 11 -5 31 -10 45 -10z m531 -7 c-10 -16 -27 -38
-38 -51 l-21 -22 -13 37 c-7 21 -13 39 -13 41 0 1 12 2 28 2 15 0 34 5 42 10
27 17 33 11 15 -17z m-85 -42 c0 -4 -28 -23 -62 -42 -58 -31 -70 -34 -148 -34
-75 0 -91 3 -138 29 -99 55 -97 56 137 56 116 0 211 -4 211 -9z m-40 -95 c-5
-15 -5 -27 3 -35 6 -6 8 -13 5 -16 -7 -7 -108 16 -108 25 0 6 85 47 102 49 4
1 3 -10 -2 -23z m153 -103 c-6 -38 -13 -41 -37 -14 -17 19 -17 20 11 34 15 9
29 15 29 14 1 -1 -1 -17 -3 -34z m-596 -9 c2 -6 -14 -18 -34 -28 -22 -10 -33
-12 -25 -5 6 7 12 26 12 42 0 28 1 29 22 15 12 -8 23 -19 25 -24z m157 -60
c53 -9 52 -20 0 -43 -59 -26 -68 -26 -53 0 8 15 8 24 0 32 -16 16 -14 30 3 24
8 -3 31 -9 50 -13z m185 -65 c47 -10 141 -61 141 -76 0 -5 -94 -8 -210 -8
-116 0 -210 3 -210 6 0 9 70 53 105 67 64 24 104 26 174 11z m-295 -54 c-4 -8
1 -26 9 -39 16 -23 15 -24 -16 -28 -18 -3 -40 -8 -49 -13 -27 -11 -22 8 15 53
33 42 51 54 41 27z m494 -22 c10 -16 25 -38 31 -51 12 -23 12 -23 -18 -8 -16
9 -39 16 -51 16 -21 0 -27 14 -10 25 6 3 10 15 10 26 0 27 15 24 38 -8z m20
-122 c7 -21 12 -43 12 -50 0 -8 -83 -11 -301 -11 l-301 0 6 25 c3 13 11 36 16
50 l10 25 273 0 274 0 11 -39z m-600 -74 l22 -23 -25 -24 -25 -23 0 46 c0 26
1 47 3 47 2 0 13 -10 25 -23z m652 -24 l0 -46 -25 23 -25 24 22 23 c12 13 23
23 25 23 2 0 3 -21 3 -47z m-40 -44 c0 -7 -5 -29 -12 -50 l-11 -39 -274 0
-273 0 -10 25 c-5 14 -13 37 -16 50 l-6 25 301 0 c218 0 301 -3 301 -11z
m-533 -127 c31 -4 31 -5 17 -27 -8 -12 -12 -31 -8 -41 3 -11 -11 -1 -35 23
-43 44 -54 71 -23 58 9 -5 31 -10 49 -13z m533 12 c0 -15 -43 -75 -59 -84 -15
-8 -17 -6 -14 14 3 13 0 27 -6 30 -20 13 -11 26 18 26 17 0 33 5 36 10 7 11
25 14 25 4z m-100 -69 c-7 -8 -37 -27 -69 -42 -46 -23 -69 -28 -131 -28 -63 0
-85 5 -133 30 -106 53 -102 55 133 55 186 0 211 -2 200 -15z m-29 -83 c-6 -11
-6 -24 1 -36 5 -9 8 -19 6 -21 -7 -7 -99 20 -99 30 0 5 19 16 43 26 56 22 60
22 49 1z m-446 -106 c20 -14 19 -15 -8 -25 -16 -6 -30 -11 -32 -11 -1 0 -5 15
-7 34 -4 37 1 37 47 2z m597 -1 c-4 -34 -5 -35 -25 -22 -29 19 -31 31 -5 43
34 17 34 17 30 -21z m-568 -62 c4 -5 21 -13 37 -18 l30 -10 -45 -32 c-25 -18
-61 -54 -80 -80 -39 -52 -76 -155 -76 -208 0 -31 -21 -65 -39 -65 -4 0 -16 6
-26 14 -39 28 -5 201 56 287 68 95 120 135 143 112z m147 -10 c41 -8 36 -17
-18 -39 -27 -11 -52 -21 -56 -23 -5 -2 -4 6 2 18 9 16 9 26 0 42 -10 20 -9 21
16 15 15 -4 40 -10 56 -13z m247 -93 c34 -18 62 -37 62 -41 0 -5 -96 -9 -212
-9 l-213 1 30 24 c89 74 223 84 333 25z m-374 -24 c-3 -8 2 -26 11 -40 l17
-26 -32 0 c-17 0 -40 -5 -51 -10 -10 -6 -19 -8 -19 -4 0 14 42 74 58 84 22 12
22 12 16 -4z m504 -35 c37 -49 42 -69 10 -47 -12 9 -35 16 -51 16 -24 0 -28 3
-21 18 4 9 8 27 8 40 1 30 15 23 54 -27z m9 -103 c24 -67 44 -63 -287 -63
l-301 0 6 25 c3 14 10 36 16 50 l9 25 272 -2 273 -2 12 -33z m-593 -85 c4 -9
-1 -21 -11 -29 -32 -24 -40 -15 -27 33 7 24 29 21 38 -4z m656 -20 c0 -26 -7
-28 -34 -8 -19 14 -19 15 -1 35 21 23 35 12 35 -27z"/>
<path d="M1687 2393 c-4 -3 -7 -59 -7 -124 0 -107 2 -119 19 -129 25 -13 27
-13 45 6 20 20 23 223 4 242 -13 13 -50 16 -61 5z"/>
<path d="M1889 2385 c-52 -28 -73 -112 -45 -178 34 -81 142 -95 200 -26 22 25
26 41 26 91 0 55 -3 63 -34 94 -28 28 -41 34 -77 34 -24 -1 -56 -7 -70 -15z
m83 -67 c24 -20 28 -66 8 -91 -15 -19 -21 -20 -44 -9 -21 9 -26 19 -26 46 0
31 20 66 39 66 4 0 14 -6 23 -12z"/>
<path d="M2144 2389 c-4 -7 -8 -60 -8 -118 -1 -89 2 -109 17 -124 14 -14 22
-15 38 -7 18 10 19 20 17 133 l-3 122 -27 3 c-14 2 -30 -2 -34 -9z"/>
<path d="M2286 2384 c-3 -9 -6 -62 -6 -119 0 -81 3 -107 16 -119 18 -19 20
-19 45 -6 17 10 19 22 19 120 0 59 -3 115 -6 124 -4 9 -18 16 -34 16 -16 0
-30 -7 -34 -16z"/>
<path d="M2434 2366 c-31 -31 -34 -39 -34 -94 0 -50 4 -66 25 -91 37 -44 82
-56 133 -36 129 52 93 255 -45 255 -38 0 -50 -5 -79 -34z m124 -80 c11 -55
-33 -93 -69 -60 -25 22 -24 59 2 85 18 18 23 19 42 6 12 -8 24 -22 25 -31z"/>
<path d="M1728 2027 c-36 -30 -48 -58 -48 -110 0 -90 77 -151 157 -124 99 32
114 195 23 242 -43 22 -100 19 -132 -8z m93 -57 c27 -15 27 -85 -1 -100 -14
-8 -26 -8 -40 0 -27 14 -28 84 -2 99 21 13 20 13 43 1z"/>
<path d="M1967 2044 c-4 -4 -7 -60 -7 -125 0 -105 2 -119 19 -128 13 -7 23 -7
35 2 14 10 16 29 14 132 l-3 120 -25 3 c-14 2 -29 0 -33 -4z"/>
<path d="M2112 2038 c-19 -19 -16 -222 4 -242 18 -19 20 -19 45 -6 17 10 19
22 19 120 0 59 -3 115 -6 124 -7 19 -45 21 -62 4z"/>
<path d="M2299 2035 c-53 -29 -74 -116 -43 -180 38 -81 140 -93 198 -24 22 25
26 41 26 91 0 55 -3 63 -34 94 -28 28 -41 34 -77 34 -24 -1 -56 -7 -70 -15z
m91 -75 c24 -24 25 -48 4 -78 -18 -26 -37 -28 -58 -6 -29 29 -11 104 25 104 5
0 18 -9 29 -20z"/>
<path d="M2567 2043 c-4 -3 -7 -59 -7 -124 0 -110 2 -119 21 -129 16 -9 25 -8
40 6 16 15 19 31 19 124 0 69 -4 110 -12 118 -13 13 -50 16 -61 5z"/>
<path d="M1687 1693 c-4 -3 -7 -59 -7 -124 0 -107 2 -119 19 -129 25 -13 27
-13 45 6 20 20 23 223 4 242 -13 13 -50 16 -61 5z"/>
<path d="M1889 1685 c-53 -29 -74 -116 -43 -180 38 -81 140 -93 198 -24 22 25
26 41 26 91 0 55 -3 63 -34 94 -28 28 -41 34 -77 34 -24 -1 -56 -7 -70 -15z
m91 -75 c22 -22 21 -60 -1 -86 -25 -31 -69 -2 -69 46 0 28 22 60 41 60 5 0 18
-9 29 -20z"/>
<path d="M2141 1681 c-6 -11 -11 -63 -11 -115 0 -83 3 -99 20 -116 16 -16 24
-18 41 -10 18 10 19 20 17 133 l-3 122 -27 3 c-18 2 -30 -3 -37 -17z"/>
<path d="M2334 1681 c-51 -31 -70 -121 -40 -180 44 -84 170 -84 213 0 29 56 9
150 -39 183 -31 22 -96 20 -134 -3z m87 -61 c14 -8 19 -21 19 -49 0 -49 -21
-69 -55 -53 -42 19 -31 107 13 112 2 0 12 -5 23 -10z"/>
<path d="M2567 1693 c-4 -3 -7 -59 -7 -124 0 -105 2 -119 18 -128 14 -7 25 -6
40 5 20 14 22 24 22 123 0 70 -4 111 -12 119 -13 13 -50 16 -61 5z"/>
<path d="M1687 1343 c-4 -3 -7 -59 -7 -124 0 -107 2 -119 19 -129 25 -13 27
-13 45 6 20 20 23 223 4 242 -13 13 -50 16 -61 5z"/>
<path d="M1842 1338 c-19 -19 -17 -222 4 -242 19 -19 25 -20 47 -3 15 11 17
28 15 132 -3 120 -3 120 -28 123 -14 2 -31 -3 -38 -10z"/>
<path d="M1982 1338 c-8 -8 -12 -47 -12 -118 0 -93 3 -109 19 -124 16 -14 23
-15 40 -6 20 10 21 18 19 133 -3 122 -3 122 -28 125 -14 2 -31 -3 -38 -10z"/>
<path d="M2172 1334 c-83 -58 -63 -210 31 -241 107 -36 197 90 142 197 -28 55
-123 79 -173 44z m89 -64 c27 -15 27 -85 -1 -100 -14 -8 -26 -8 -40 0 -27 14
-28 84 -2 99 21 13 20 13 43 1z"/>
<path d="M2434 1316 c-31 -31 -34 -39 -34 -95 0 -52 4 -65 28 -91 36 -40 78
-51 127 -34 133 45 98 254 -42 254 -38 0 -50 -5 -79 -34z m108 -53 c22 -20 24
-66 2 -87 -20 -20 -33 -20 -56 1 -22 20 -23 61 -1 85 20 22 31 23 55 1z"/>
<path d="M1866 924 c-19 -18 -19 -20 -6 -45 10 -18 25 -19 385 -19 360 0 375
1 385 19 13 25 13 27 -6 45 -13 14 -62 16 -379 16 -317 0 -366 -2 -379 -16z"/>
<path d="M2082 748 c-16 -16 -15 -33 4 -52 23 -24 515 -24 538 0 19 19 20 36
4 52 -17 17 -529 17 -546 0z"/>
<path d="M453 2970 c-85 -51 -81 -179 6 -225 61 -31 136 -11 171 48 70 114
-63 247 -177 177z m105 -72 c7 -7 12 -24 12 -38 0 -33 -17 -50 -50 -50 -33 0
-50 17 -50 50 0 33 17 50 50 50 14 0 31 -5 38 -12z"/>
<path d="M751 2973 c-44 -22 -75 -88 -65 -138 7 -41 53 -92 90 -101 47 -12 97
3 132 41 27 29 32 42 32 85 0 43 -5 56 -33 86 -40 44 -102 55 -156 27z m105
-88 c15 -23 15 -27 0 -50 -28 -42 -96 -24 -96 25 0 49 68 67 96 25z"/>
<path d="M1054 2980 c-11 -4 -33 -22 -47 -40 -21 -25 -27 -42 -27 -81 0 -42 5
-55 33 -85 28 -31 41 -37 83 -41 60 -5 103 18 127 70 22 45 21 74 -1 116 -31
57 -108 86 -168 61z m90 -86 c9 -8 16 -22 16 -30 0 -55 -66 -75 -96 -29 -15
23 -15 27 0 50 19 29 56 33 80 9z"/>
<path d="M794 371 c-102 -46 -123 -186 -39 -260 18 -16 31 -31 29 -34 -8 -8
57 -27 94 -27 19 0 52 5 73 12 l39 11 0 63 c0 52 4 65 20 77 20 14 20 15 -11
21 -47 9 -87 7 -94 -5 -4 -6 -4 -13 0 -17 3 -3 10 -1 14 7 12 19 21 -10 21
-70 0 -45 -3 -51 -27 -60 -16 -6 -43 -8 -62 -5 -36 6 -74 33 -65 48 3 4 0 7
-6 6 -7 -2 -18 13 -25 32 -39 102 21 213 112 209 23 -1 22 -3 -10 -9 -74 -14
-116 -90 -97 -173 12 -58 17 -53 12 12 -3 41 1 67 13 90 21 41 71 64 114 51
17 -5 31 -6 31 -2 1 4 9 -3 19 -16 14 -15 21 -18 25 -10 3 7 4 1 2 -15 -2 -15
1 -30 5 -33 5 -3 9 20 9 50 0 31 -4 56 -10 56 -5 0 -11 -10 -11 -22 -1 -14 -3
-17 -6 -7 -4 14 -74 39 -111 39 -9 0 -35 -9 -58 -19z m188 -212 c-3 -64 -6
-71 -28 -80 -14 -5 -33 -9 -42 -8 -9 0 -1 5 18 12 34 12 35 14 38 67 2 51 8
80 14 80 2 0 1 -32 0 -71z"/>
<path d="M1840 374 c0 -9 7 -14 17 -12 25 5 28 28 4 28 -12 0 -21 -6 -21 -16z"/>
<path d="M1884 365 c-4 -8 -13 -15 -22 -15 -11 0 -13 -3 -6 -10 15 -15 44 -1
44 21 0 23 -8 25 -16 4z"/>
<path d="M1707 305 c-20 -25 -24 -35 -13 -35 12 0 16 -18 18 -92 l3 -93 32 0
c17 0 29 -3 26 -7 -2 -5 -16 -8 -31 -8 -21 0 -24 -2 -12 -10 23 -15 38 -12 60
10 22 22 27 46 8 33 -49 -30 -68 -6 -68 88 0 77 0 78 28 82 l27 4 -27 2 c-22
1 -28 6 -27 24 1 16 2 18 6 5 7 -27 23 -22 23 7 0 35 -20 31 -53 -10z"/>
<path d="M1131 276 c28 -16 43 -42 33 -57 -3 -5 4 -9 15 -9 14 0 21 6 21 18 0
25 -28 49 -65 57 l-30 6 26 -15z"/>
<path d="M1260 275 c-14 -8 -19 -14 -12 -15 10 0 13 -21 10 -90 -3 -84 -2 -90
17 -90 18 0 20 6 17 72 -5 144 -4 138 -32 123z"/>
<path d="M1337 275 c-15 -8 -28 -9 -31 -4 -2 5 -3 4 -1 -3 3 -13 9 -14 36 -3
9 3 24 -1 33 -10 20 -20 23 -144 4 -164 -11 -10 -6 -12 22 -9 l35 3 3 73 c2
40 -1 80 -7 89 -6 11 -7 -13 -4 -72 3 -65 2 -86 -6 -75 -6 8 -11 47 -11 85 0
39 -4 75 -8 81 -13 19 -39 23 -65 9z"/>
<path d="M1573 275 c24 -14 32 -31 28 -57 0 -5 8 -8 19 -8 25 0 27 31 3 53
-10 8 -31 18 -48 22 l-30 6 28 -16z"/>
<path d="M2030 280 c12 -9 10 -11 -11 -6 -53 11 -92 -68 -69 -139 21 -65 112
-79 142 -21 11 20 10 20 -9 3 -44 -39 -101 -8 -110 61 -6 42 10 92 29 92 5 0
2 -10 -6 -22 -18 -25 -21 -76 -6 -98 8 -11 9 -8 4 13 -8 36 10 79 40 93 21 10
25 9 29 -7 6 -22 37 -26 37 -5 0 19 -19 33 -55 41 -24 5 -27 4 -15 -5z"/>
<path d="M1082 272 c-43 -14 -56 -125 -19 -166 35 -39 105 -36 128 5 11 21 10
21 -12 5 -32 -22 -53 -20 -85 7 -19 17 -27 34 -29 64 -3 31 0 40 10 37 7 -3
15 2 18 10 4 9 16 16 27 16 12 0 19 4 16 9 -7 11 -37 19 -54 13z"/>
<path d="M1534 273 c3 -4 -1 -15 -11 -25 -9 -10 -13 -21 -9 -25 4 -5 12 0 17
10 6 9 19 17 30 17 25 0 17 16 -12 23 -11 3 -18 3 -15 0z"/>
<path d="M1833 273 c-10 -3 -9 -8 2 -20 18 -17 21 -124 4 -154 -10 -19 -8 -20
23 -17 l33 3 3 98 c2 66 -1 97 -8 97 -8 0 -10 -30 -8 -94 2 -52 0 -92 -4 -89
-5 2 -8 44 -8 94 0 90 -3 96 -37 82z"/>
<path d="M1496 248 c-9 -13 -16 -43 -16 -70 0 -89 76 -133 135 -78 14 13 25
19 25 13 0 -21 -42 -47 -75 -47 -21 0 -30 -3 -22 -8 32 -20 86 1 111 44 13 22
15 33 7 41 -8 8 -11 6 -11 -8 0 -10 -3 -15 -6 -12 -4 3 -16 0 -28 -8 -31 -22
-54 -18 -87 14 -31 31 -39 83 -19 122 14 26 5 24 -14 -3z"/>
<path d="M1768 263 c-27 -4 -28 -6 -28 -73 0 -38 5 -72 10 -75 6 -4 10 20 10
64 0 64 2 71 20 71 11 0 20 5 20 10 0 6 -1 9 -2 9 -2 -1 -15 -4 -30 -6z"/>
<path d="M1322 244 c-19 -13 -22 -24 -22 -79 0 -35 4 -66 8 -69 4 -2 6 24 4
60 -4 64 -4 64 27 77 17 7 28 16 24 20 -9 10 -16 9 -41 -9z"/>
<path d="M2110 238 c0 -10 -7 -18 -15 -18 -8 0 -15 -4 -15 -10 0 -14 26 -12
38 3 7 8 7 18 2 27 -8 13 -10 12 -10 -2z"/>
<path d="M1210 223 c0 -22 -4 -23 -70 -23 -72 0 -82 -7 -59 -40 8 -12 9 -11 7
5 -3 18 3 20 70 23 73 3 83 10 62 42 -8 12 -10 11 -10 -7z"/>
<path d="M1650 223 c0 -22 -4 -23 -70 -23 -72 0 -82 -7 -59 -40 8 -12 9 -11 7
5 -3 18 3 20 70 23 73 3 83 10 62 42 -8 12 -10 11 -10 -7z"/>
<path d="M2101 115 c-23 -39 -56 -56 -92 -48 -19 4 -21 3 -9 -6 38 -27 99 -1
120 50 18 43 6 46 -19 4z"/>
<path d="M1198 110 c-19 -34 -60 -54 -92 -45 -17 5 -18 4 -6 -4 36 -25 94 -3
119 46 22 44 4 47 -21 3z"/>
<path d="M1410 70 l-55 -6 55 -5 c59 -6 64 -5 59 8 -2 4 -29 6 -59 3z"/>
<path d="M1870 70 l-55 -6 53 -4 c30 -3 56 -1 59 3 7 12 3 13 -57 7z"/>
<path d="M1233 64 c8 -9 106 -9 114 0 3 3 -22 6 -57 6 -35 0 -60 -3 -57 -6z"/>
</g>
</svg>
