<?xml version="1.0" standalone="no"?>
<!DOCTYPE svg PUBLIC "-//W3C//DTD SVG 20010904//EN"
 "http://www.w3.org/TR/2001/REC-SVG-20010904/DTD/svg10.dtd">
<svg version="1.0" xmlns="http://www.w3.org/2000/svg"
 width="512.000000pt" height="512.000000pt" viewBox="0 0 512.000000 512.000000"
 preserveAspectRatio="xMidYMid meet">

<g transform="translate(0.000000,512.000000) scale(0.100000,-0.100000)"
fill="#000000" stroke="none">
<path d="M3705 5095 c-23 -22 -25 -32 -25 -107 l0 -84 -47 -17 -46 -17 -63 60
c-34 33 -70 60 -79 60 -35 0 -76 -35 -247 -207 -213 -215 -212 -213 -121 -305
l57 -58 -13 -37 c-22 -61 -26 -63 -116 -63 -126 0 -120 16 -120 -316 0 -332
-7 -315 132 -324 l86 -5 16 -43 15 -42 -57 -58 c-93 -94 -95 -89 136 -319 159
-159 198 -193 221 -193 20 0 44 16 90 60 l63 60 47 -19 46 -20 0 -81 c0 -73 3
-83 25 -105 l24 -25 274 0 c273 0 274 0 295 23 19 20 22 35 22 105 l0 81 47
21 46 20 63 -60 c46 -44 70 -60 90 -60 23 0 63 35 221 193 107 105 196 202
199 214 8 29 -9 59 -67 118 l-49 51 17 42 18 42 67 0 c73 0 114 12 134 38 10
13 13 81 14 288 0 329 6 314 -126 314 l-85 0 -20 47 -20 47 49 50 c59 60 76
90 68 119 -3 12 -92 109 -199 215 -158 157 -198 192 -221 192 -20 0 -44 -16
-90 -60 l-63 -60 -46 20 -47 21 0 84 c0 78 -2 85 -26 104 -26 20 -39 21 -296
21 l-269 0 -24 -25z m465 -187 c0 -95 9 -106 130 -156 151 -63 140 -63 208 2
l58 55 117 -117 c64 -65 117 -122 117 -128 0 -6 -17 -25 -38 -42 -22 -17 -45
-44 -52 -61 -11 -27 -9 -39 24 -118 71 -172 69 -170 179 -172 l57 -1 0 -170 0
-170 -73 0 c-43 0 -80 -5 -90 -12 -9 -7 -28 -42 -41 -78 -13 -36 -33 -85 -45
-109 -29 -56 -23 -79 36 -142 l47 -50 -119 -119 -119 -119 -57 54 c-32 30 -65
55 -74 55 -9 0 -30 -8 -48 -17 -18 -9 -68 -31 -112 -48 -94 -37 -105 -52 -105
-142 l0 -63 -170 0 -170 0 0 73 c0 63 -3 76 -22 94 -13 11 -34 24 -48 28 -14
4 -60 23 -103 42 -91 40 -104 39 -168 -24 -39 -37 -50 -43 -65 -35 -11 6 -66
58 -123 116 l-105 105 52 55 c60 63 64 84 28 154 -13 26 -31 70 -40 98 -24 73
-38 82 -126 86 l-75 3 -3 166 -2 167 75 4 c92 4 100 11 150 133 57 137 56 144
-4 208 l-50 53 119 119 120 119 47 -46 c66 -64 79 -66 170 -25 43 19 89 38
103 42 14 4 35 17 48 28 19 18 22 31 22 94 l0 73 170 0 170 0 0 -62z"/>
<path d="M3850 4582 c-135 -37 -193 -91 -159 -150 25 -45 56 -49 135 -17 129
53 273 44 396 -22 58 -31 147 -123 177 -181 115 -226 25 -495 -205 -608 -174
-87 -395 -42 -528 106 -76 84 -123 226 -110 335 3 28 17 85 32 127 l26 77 -20
28 c-29 38 -81 43 -112 10 -54 -57 -91 -239 -73 -356 23 -150 69 -241 175
-347 264 -266 705 -223 913 88 72 108 98 196 98 333 0 89 -5 124 -24 183 -58
177 -208 328 -380 383 -93 30 -254 35 -341 11z"/>
<path d="M1558 3594 c-34 -18 -37 -32 -41 -158 l-2 -98 -95 -25 c-145 -39
-136 -42 -194 59 -48 81 -75 108 -112 108 -12 0 -380 -207 -411 -232 -31 -25
-25 -60 32 -161 31 -54 54 -100 53 -101 -2 0 -42 -38 -89 -84 l-86 -84 -89 51
c-90 52 -127 61 -156 39 -9 -7 -67 -99 -127 -204 -76 -131 -111 -201 -111
-222 0 -36 24 -57 133 -117 37 -20 67 -38 67 -40 0 -2 -11 -44 -24 -92 -14
-48 -27 -100 -30 -115 l-6 -26 -116 -4 c-163 -4 -154 13 -154 -285 l0 -234 25
-24 c23 -24 31 -25 133 -25 l109 0 27 -102 c15 -57 30 -110 33 -119 3 -13 -20
-31 -90 -73 -94 -55 -107 -68 -107 -109 0 -12 51 -110 113 -217 129 -223 139
-234 209 -201 24 11 70 35 104 55 l60 35 87 -87 87 -87 -52 -89 c-55 -96 -63
-136 -32 -165 38 -37 390 -231 417 -231 36 0 62 28 115 124 33 59 48 77 60 73
9 -3 63 -18 120 -33 l102 -27 0 -109 c0 -102 1 -110 25 -133 l24 -25 234 0
c297 0 281 -9 285 153 l4 114 101 28 c56 15 109 29 118 32 12 3 27 -14 54 -64
60 -109 81 -133 117 -133 22 0 89 34 217 107 102 59 193 115 203 125 30 30 22
71 -33 164 l-51 87 88 88 89 88 95 -55 c96 -55 126 -61 157 -31 27 28 233 398
233 420 0 33 -28 59 -114 107 -42 22 -78 45 -80 49 -3 4 8 59 23 122 l29 114
116 5 c93 4 119 8 133 23 16 16 18 43 21 244 3 233 -2 273 -36 289 -10 5 -66
11 -126 14 l-108 5 -25 95 c-14 52 -27 105 -30 116 -4 18 9 29 87 74 94 54
117 80 107 122 -8 30 -224 400 -240 410 -28 18 -72 6 -153 -42 -47 -27 -87
-50 -89 -50 -2 0 -43 39 -90 87 l-85 86 50 89 c55 96 62 138 30 166 -36 31
-393 232 -413 232 -35 0 -54 -20 -107 -110 -44 -78 -56 -91 -74 -87 -11 3 -64
16 -116 30 l-95 25 -5 112 c-5 107 -6 113 -33 136 -28 24 -30 24 -250 24 -177
-1 -228 -4 -249 -16z m380 -245 c3 -132 9 -139 134 -163 48 -9 127 -30 177
-46 142 -48 149 -45 220 83 23 43 44 77 46 77 9 0 216 -123 221 -131 3 -5 -16
-46 -42 -91 -64 -111 -62 -127 18 -197 79 -70 99 -90 170 -170 70 -80 85 -82
196 -18 45 26 85 47 89 47 6 0 114 -182 131 -221 1 -3 -37 -29 -87 -58 -117
-67 -119 -72 -72 -210 17 -47 38 -126 47 -176 25 -130 31 -135 166 -135 l108
0 0 -135 0 -135 -105 0 c-135 0 -143 -7 -168 -135 -10 -49 -32 -134 -49 -187
-42 -127 -38 -137 67 -200 44 -26 84 -49 89 -51 6 -2 -21 -55 -58 -119 l-67
-116 -85 49 c-109 62 -133 63 -182 7 -44 -52 -151 -159 -209 -211 -61 -53 -60
-70 3 -179 24 -43 44 -81 44 -86 0 -7 -210 -132 -223 -132 -3 0 -23 30 -43 66
-47 85 -81 124 -106 124 -11 0 -60 -13 -109 -30 -49 -16 -132 -38 -185 -49
-132 -27 -134 -29 -134 -163 l0 -108 -135 0 -135 0 0 104 c0 136 -3 140 -135
167 -55 11 -141 34 -192 51 -59 19 -102 28 -118 24 -18 -5 -39 -30 -77 -96
-29 -50 -56 -90 -59 -90 -6 0 -144 78 -206 116 l-22 14 49 84 c28 46 50 96 50
110 0 38 -288 326 -326 326 -14 0 -64 -22 -110 -50 l-84 -49 -14 22 c-38 62
-116 200 -116 206 0 3 40 30 90 59 66 38 91 59 96 77 4 16 -5 59 -24 118 -17
51 -40 137 -51 192 -27 132 -31 135 -167 135 l-104 0 0 135 0 135 108 0 c134
0 136 2 163 134 11 53 33 136 49 185 17 49 30 98 30 108 0 26 -29 51 -118 103
-39 23 -72 45 -72 47 0 12 125 223 132 223 4 0 34 -16 68 -36 95 -55 121 -64
151 -51 14 7 53 44 86 82 33 39 89 95 124 125 35 29 70 61 77 69 26 31 10 79
-67 204 l-21 35 116 67 c64 36 117 65 118 63 2 -2 22 -37 46 -78 24 -41 50
-83 58 -92 21 -25 58 -22 159 11 48 17 129 38 178 47 128 26 135 34 135 169
l0 106 133 -3 132 -3 3 -106z"/>
<path d="M1685 2869 c-241 -25 -495 -153 -662 -332 -281 -301 -368 -744 -220
-1115 26 -67 60 -92 104 -77 15 6 34 22 42 37 14 24 13 33 -16 120 -41 122
-57 238 -50 352 17 240 107 438 274 604 177 176 395 265 648 265 429 0 794
-289 896 -709 28 -111 30 -292 5 -403 -77 -345 -341 -617 -683 -703 -71 -18
-115 -22 -228 -21 -163 1 -244 18 -381 82 -107 51 -168 94 -266 189 -62 60
-83 75 -107 75 -44 0 -71 -28 -71 -73 0 -34 9 -45 93 -126 145 -141 288 -220
485 -270 410 -104 854 53 1113 395 65 86 142 244 173 353 182 641 -260 1289
-925 1358 -111 11 -109 11 -224 -1z"/>
<path d="M1693 2549 c-160 -24 -307 -101 -423 -218 -156 -160 -230 -353 -217
-571 12 -191 83 -346 222 -485 99 -100 189 -154 325 -197 108 -33 302 -33 410
1 291 90 487 312 537 608 14 83 14 113 5 196 -19 162 -91 322 -193 429 -43 45
-78 50 -114 13 -37 -36 -32 -67 25 -141 99 -129 134 -228 134 -379 0 -114 -17
-185 -70 -285 -126 -241 -409 -368 -673 -301 -353 89 -551 466 -419 801 106
271 379 425 666 376 119 -21 127 -20 152 6 25 27 26 69 3 96 -36 43 -242 71
-370 51z"/>
<path d="M4401 2734 c-13 -16 -21 -41 -21 -64 l0 -37 -80 -26 c-43 -15 -98
-38 -120 -52 l-41 -26 -35 30 c-41 36 -85 40 -114 11 -34 -34 -30 -73 11 -116
l30 -31 -35 -56 c-18 -32 -42 -86 -51 -121 l-17 -64 -46 -5 c-34 -4 -53 -12
-69 -32 -28 -32 -29 -55 -3 -88 16 -20 31 -27 67 -29 l45 -3 27 -81 c14 -44
38 -99 53 -121 26 -40 26 -41 8 -58 -33 -30 -49 -75 -38 -107 20 -56 79 -64
131 -18 l34 29 65 -34 c35 -19 89 -41 119 -48 l54 -14 5 -46 c7 -57 33 -87 75
-87 44 0 73 34 77 89 l3 44 54 14 c57 14 119 40 163 70 27 17 28 17 61 -15 36
-35 70 -41 104 -17 42 29 38 80 -10 132 l-20 23 33 62 c19 35 41 90 50 123
l17 60 51 5 c57 6 81 27 81 70 0 47 -45 80 -109 80 -25 0 -29 4 -35 41 -4 22
-25 77 -47 121 l-40 80 20 21 c47 52 50 103 9 132 -33 23 -69 18 -109 -15
l-37 -31 -38 25 c-42 27 -95 49 -160 66 -43 11 -43 11 -43 55 0 56 -25 85 -74
85 -25 0 -40 -7 -55 -26z m222 -292 c290 -143 283 -553 -12 -691 -49 -23 -69
-26 -156 -26 -89 0 -106 3 -156 28 -120 59 -197 159 -219 289 -26 146 42 296
170 378 75 48 123 60 221 57 74 -3 96 -8 152 -35z"/>
<path d="M4376 2336 c-138 -52 -204 -209 -142 -342 89 -191 370 -184 452 12
18 43 18 145 0 188 -20 47 -73 104 -119 128 -52 26 -140 33 -191 14z m152
-171 c26 -30 30 -90 7 -121 -19 -28 -69 -48 -101 -40 -42 11 -74 50 -74 91 0
46 13 71 48 90 37 21 92 12 120 -20z"/>
</g>
</svg>
