<?xml version="1.0" standalone="no"?>
<!DOCTYPE svg PUBLIC "-//W3C//DTD SVG 20010904//EN"
 "http://www.w3.org/TR/2001/REC-SVG-20010904/DTD/svg10.dtd">
<svg version="1.0" xmlns="http://www.w3.org/2000/svg"
 width="215.000000pt" height="223.000000pt" viewBox="0 0 215.000000 223.000000"
 preserveAspectRatio="xMidYMid meet">
<metadata>
Created by potrace 1.10, written by Peter Selinger 2001-2011
</metadata>
<g transform="translate(0.000000,223.000000) scale(0.100000,-0.100000)"
fill="#000000" stroke="none">
<path d="M175 2097 c-27 -16 -67 -58 -82 -85 -10 -17 -13 -171 -13 -677 l0
-654 35 -36 36 -35 807 0 807 1 25 22 c39 33 49 63 99 275 22 94 34 138 42
154 5 10 9 27 9 38 0 12 7 45 16 73 8 29 19 68 24 87 22 91 32 128 45 171 8
26 15 58 15 72 0 14 5 29 10 32 6 3 10 21 10 38 1 18 7 43 15 57 8 14 14 35
15 48 0 22 -2 22 -125 22 l-125 0 0 63 c0 53 -4 67 -23 85 -23 22 -27 22 -385
22 l-362 0 0 55 c0 68 -16 102 -72 149 l-42 36 -380 -1 c-276 0 -386 -3 -401
-12z m810 -72 c32 -33 35 -40 35 -95 0 -50 4 -63 25 -85 l26 -25 364 0 365 0
0 -60 0 -60 -740 0 -740 0 0 -25 c0 -14 -4 -33 -9 -43 -9 -18 -26 -78 -41
-147 -12 -52 -25 -106 -45 -180 -9 -33 -21 -78 -25 -100 -5 -22 -16 -69 -25
-105 -10 -36 -20 -87 -24 -114 -3 -29 -12 -51 -20 -54 -12 -4 -13 17 -8 133 4
76 7 315 7 531 l0 393 35 36 36 35 374 0 374 0 36 -35z m1055 -383 c0 -4 -4
-12 -9 -17 -10 -10 -29 -75 -37 -130 -3 -16 -9 -39 -14 -50 -9 -22 -27 -87
-40 -150 -5 -22 -13 -58 -18 -81 -5 -22 -12 -46 -16 -52 -3 -6 -11 -32 -17
-59 -12 -58 -22 -99 -44 -178 -15 -57 -21 -82 -43 -183 -5 -23 -17 -51 -27
-62 -18 -20 -35 -20 -817 -20 -896 0 -834 -5 -831 72 1 22 6 45 11 51 5 7 12
28 15 47 3 19 12 62 22 95 16 58 27 103 44 175 5 19 16 62 26 95 9 33 21 78
25 100 12 58 30 127 40 150 5 11 11 34 14 50 7 44 25 128 31 143 3 9 182 12
845 12 462 0 840 -4 840 -8z"/>
<path d="M195 1940 c-4 -6 -5 -14 -2 -16 3 -3 104 -6 224 -6 175 0 218 3 218
14 0 17 -430 25 -440 8z"/>
<path d="M895 1520 c-3 -5 -15 -10 -26 -10 -10 0 -19 -4 -19 -9 0 -5 -9 -12
-19 -16 -25 -8 -81 -65 -81 -82 0 -7 -4 -13 -10 -13 -5 0 -10 -8 -10 -18 0
-10 -5 -23 -11 -29 -6 -6 -13 -37 -16 -70 -5 -59 -2 -73 40 -161 17 -37 74
-87 130 -115 91 -47 171 -37 284 34 20 12 24 11 42 -10 14 -16 18 -31 14 -51
-4 -25 5 -38 74 -109 65 -66 85 -81 110 -81 16 0 37 8 46 18 31 35 21 65 -45
133 -83 85 -104 99 -139 92 -21 -4 -30 -1 -35 11 -3 9 -12 16 -20 16 -18 0
-18 14 0 29 8 7 26 37 40 67 30 63 35 142 11 188 -8 15 -15 35 -15 42 0 8 -4
14 -10 14 -5 0 -10 6 -10 13 0 17 -56 74 -81 82 -10 4 -19 11 -19 16 0 5 -9 9
-19 9 -11 0 -23 5 -26 10 -3 6 -44 10 -90 10 -46 0 -87 -4 -90 -10z m174 -32
c20 -7 41 -17 47 -23 6 -5 25 -21 42 -35 18 -14 32 -31 32 -37 0 -7 3 -13 8
-13 10 0 33 -68 39 -118 3 -28 -1 -54 -11 -76 -9 -19 -16 -39 -16 -45 0 -22
-99 -111 -130 -117 -17 -4 -33 -11 -36 -15 -7 -12 -111 -12 -118 0 -3 4 -19
11 -36 15 -18 3 -50 26 -78 53 -54 55 -88 139 -79 194 7 46 30 109 39 109 5 0
8 6 8 13 0 6 14 23 32 37 17 14 36 30 42 35 35 33 151 45 215 23z m226 -498
c6 -10 -29 -50 -45 -50 -14 0 -13 33 2 48 14 14 35 16 43 2z m84 -84 c34 -35
52 -60 49 -72 -6 -32 -42 -21 -101 31 l-56 49 21 23 c12 13 24 23 28 23 3 0
30 -24 59 -54z"/>
<path d="M898 1444 c-37 -20 -83 -68 -102 -106 -19 -37 -21 -139 -3 -171 18
-32 78 -90 110 -107 37 -18 127 -18 164 0 32 17 92 75 111 107 6 13 12 49 12
82 0 91 -39 151 -129 199 -31 16 -129 14 -163 -4z m142 -24 c0 -5 8 -10 18
-10 24 -1 57 -31 81 -74 22 -39 29 -130 11 -141 -5 -3 -10 -13 -10 -21 0 -36
-102 -104 -155 -104 -53 0 -155 68 -155 104 0 8 -4 18 -10 21 -14 9 -12 101 3
128 22 39 70 87 89 87 10 0 18 5 18 10 0 6 25 10 55 10 30 0 55 -4 55 -10z"/>
<path d="M120 325 l0 -135 54 0 c69 0 103 13 118 45 14 31 -3 74 -32 82 -19 5
-19 6 1 32 14 20 18 35 13 55 -9 39 -41 56 -101 56 l-53 0 0 -135z m114 73
c17 -27 -5 -52 -48 -56 l-36 -3 0 41 0 41 36 -3 c22 -2 42 -10 48 -20z m17
-114 c22 -26 -1 -49 -55 -52 l-46 -3 0 35 c0 36 0 36 44 36 28 0 48 -6 57 -16z"/>
<path d="M1400 325 c0 -128 1 -135 20 -135 18 0 20 7 20 60 l0 60 50 0 c43 0
50 3 50 20 0 17 -7 20 -50 20 l-50 0 0 35 0 35 50 0 c43 0 50 3 50 20 0 18 -7
20 -70 20 l-70 0 0 -135z"/>
<path d="M1660 325 c0 -128 1 -135 20 -135 19 0 20 7 20 135 0 128 -1 135 -20
135 -19 0 -20 -7 -20 -135z"/>
<path d="M1575 430 c-4 -7 -3 -16 3 -22 14 -14 45 -2 40 15 -6 16 -34 21 -43
7z"/>
<path d="M330 280 c0 -83 1 -90 20 -90 18 0 20 7 20 64 0 74 15 96 54 78 20
-9 25 -8 30 5 13 32 -36 44 -66 16 -17 -15 -18 -15 -18 0 0 10 -8 17 -20 17
-19 0 -20 -7 -20 -90z"/>
<path d="M495 348 c-15 -14 -28 -38 -32 -60 -5 -32 -1 -41 25 -68 42 -42 92
-42 134 0 26 27 30 36 25 68 -8 47 -47 82 -92 82 -21 0 -44 -9 -60 -22z m97
-25 c37 -33 11 -103 -38 -103 -31 0 -54 26 -54 60 0 53 53 78 92 43z"/>
<path d="M660 364 c0 -12 74 -174 79 -174 3 0 17 27 30 61 13 33 27 57 31 52
4 -4 15 -32 26 -61 10 -29 22 -51 27 -49 4 1 21 34 37 72 16 39 34 78 40 88 8
14 7 17 -10 17 -15 0 -27 -14 -44 -52 l-24 -53 -22 53 c-13 28 -29 52 -36 52
-7 0 -21 -22 -31 -50 -10 -27 -20 -50 -23 -50 -3 0 -16 23 -27 50 -13 30 -28
50 -37 50 -9 0 -16 -3 -16 -6z"/>
<path d="M966 354 c-27 -26 -19 -52 24 -79 67 -42 42 -72 -33 -40 -14 6 -16 4
-10 -11 9 -26 23 -34 59 -34 39 0 69 30 59 60 -4 11 -25 32 -47 46 -30 19 -37
29 -29 37 8 8 19 8 41 0 26 -10 30 -9 30 7 0 32 -67 42 -94 14z"/>
<path d="M1126 349 c-57 -45 -20 -159 51 -159 48 0 73 11 73 32 0 15 -3 17
-19 8 -30 -15 -66 -12 -84 8 -31 34 -21 42 47 42 61 0 64 1 59 23 -15 62 -78
85 -127 46z m82 -21 c21 -21 13 -28 -33 -28 -46 0 -54 7 -33 28 15 15 51 15
66 0z"/>
<path d="M1580 280 c0 -73 3 -90 15 -90 12 0 15 17 15 90 0 73 -3 90 -15 90
-12 0 -15 -17 -15 -90z"/>
<path d="M1765 345 c-53 -52 -18 -155 52 -155 48 0 73 11 73 32 0 15 -3 17
-19 8 -32 -17 -69 -12 -85 12 -9 12 -16 26 -16 30 0 5 29 8 65 8 70 0 74 4 50
49 -24 48 -81 56 -120 16z m83 -17 c21 -21 13 -28 -33 -28 -25 0 -45 4 -45 8
0 15 24 32 45 32 12 0 26 -5 33 -12z"/>
</g>
</svg>
